<?xml version="1.0" encoding="UTF-8" standalone="no"?>
<svg
   xmlns:dc="http://purl.org/dc/elements/1.1/"
   xmlns:cc="http://creativecommons.org/ns#"
   xmlns:rdf="http://www.w3.org/1999/02/22-rdf-syntax-ns#"
   xmlns:svg="http://www.w3.org/2000/svg"
   xmlns="http://www.w3.org/2000/svg"
   viewBox="0 0 236.28934 236.28934"
   height="236.28934"
   width="236.28934"
   xml:space="preserve"
   id="svg2"
   version="1.1"><metadata
     id="metadata8"><rdf:RDF><cc:Work
         rdf:about=""><dc:format>image/svg+xml</dc:format><dc:type
           rdf:resource="http://purl.org/dc/dcmitype/StillImage" /></cc:Work></rdf:RDF></metadata><defs
     id="defs6"><clipPath
       id="clipPath18"
       clipPathUnits="userSpaceOnUse"><path
         id="path16"
         d="M 0,177.217 H 177.217 V 0 H 0 Z" /></clipPath></defs><g
     transform="matrix(1.3333333,0,0,-1.3333333,0,236.28933)"
     id="g10"><g
       id="g12"><g
         clip-path="url(#clipPath18)"
         id="g14"><g
           transform="translate(162.6035,82.8786)"
           id="g20">
		   <!-- fill:#3a3a3a; -->
		   <path
             id="path22"
             style="fill:#FFF;fill-opacity:1;fill-rule:nonzero;stroke:none"
             d="m 0,0 c 0,40.81 -33.189,74 -73.999,74 -40.801,0 -73.99,-33.19 -73.99,-74 0,-11.24 2.519,-21.9 7.03,-31.45 -6.291,11.13 -9.88,23.98 -9.88,37.65 0,42.37 34.469,76.84 76.84,76.84 42.369,0 76.84,-34.47 76.84,-76.84 0,-13.63 -3.57,-26.44 -9.82,-37.55 C -2.5,-21.83 0,-11.2 0,0 m -32.81,-58.29 c 15.01,12.06 24.63,30.56 24.63,51.28 0,36.29 -29.53,65.82 -65.819,65.82 -36.28,0 -65.811,-29.53 -65.811,-65.82 0,-20.72 9.621,-39.22 24.63,-51.28 -18.27,12.939 -30.219,34.25 -30.219,58.29 0,39.38 32.029,71.41 71.4,71.41 39.38,0 71.409,-32.03 71.409,-71.41 0,-24.04 -11.949,-45.351 -30.22,-58.29 m -104.7,51.28 c 0,35.03 28.49,63.52 63.511,63.52 35.029,0 63.52,-28.49 63.52,-63.52 0,-35.02 -28.491,-63.511 -63.52,-63.511 -35.021,0 -63.511,28.491 -63.511,63.511 m 63.511,98.25 c -46.96,0 -85.041,-38.07 -85.041,-85.04 0,-46.971 38.081,-85.04 85.041,-85.04 46.97,0 85.039,38.069 85.039,85.04 0,46.97 -38.069,85.04 -85.039,85.04" /></g><g
           transform="translate(88.604,25.5182)"
           id="g24"><path
             id="path26"
             style="fill:#FFF;fill-opacity:1;fill-rule:nonzero;stroke:none"
             d="m 0,0 c -29.47,0 -53.45,23.98 -53.45,53.45 0,22.3 13.73,41.45 33.18,49.45 C -33.54,95.68 -42.56,81.61 -42.56,65.47 -42.56,41.99 -23.47,22.9 0,22.9 c 23.48,0 42.57,19.09 42.57,42.57 0,16.14 -9.02,30.21 -22.29,37.43 C 39.73,94.9 53.46,75.75 53.46,53.45 53.46,23.98 29.48,0 0,0 m -28.85,77.79 c 0,-15.91 12.95,-28.85 28.85,-28.85 15.91,0 28.85,12.94 28.85,28.85 0,10.09 -5.21,18.99 -13.08,24.14 C 29.86,95.82 39.74,81.78 39.74,65.47 39.74,43.56 21.91,25.73 0,25.73 c -21.9,0 -39.73,17.83 -39.73,39.74 0,16.31 9.88,30.35 23.96,36.46 -7.87,-5.15 -13.08,-14.05 -13.08,-24.14 M 12.29,100.7 C 20.46,96.32 26.02,87.69 26.02,77.79 26.02,63.44 14.35,51.77 0,51.77 c -14.34,0 -26.01,11.67 -26.01,26.02 0,9.91 5.57,18.54 13.74,22.92 -3.45,-3.26 -5.6,-7.87 -5.6,-12.98 0,-9.86 8.02,-17.88 17.87,-17.88 9.86,0 17.88,8.02 17.88,17.88 0,5.1 -2.15,9.71 -5.59,12.97 M 15.05,87.73 C 15.05,79.43 8.3,72.69 0,72.69 c -8.29,0 -15.04,6.74 -15.04,15.04 0,8.29 6.75,15.04 15.04,15.04 8.3,0 15.05,-6.75 15.05,-15.04 M 0,109.74 c -31.03,0 -56.28,-25.25 -56.28,-56.29 0,-31.04 25.25,-56.28 56.28,-56.28 31.04,0 56.29,25.24 56.29,56.28 0,31.04 -25.25,56.29 -56.29,56.29" /></g></g></g></g></svg>