<?xml version="1.0" encoding="UTF-8" standalone="no"?>
<svg
   xmlns:dc="http://purl.org/dc/elements/1.1/"
   xmlns:cc="http://creativecommons.org/ns#"
   xmlns:rdf="http://www.w3.org/1999/02/22-rdf-syntax-ns#"
   xmlns:svg="http://www.w3.org/2000/svg"
   xmlns="http://www.w3.org/2000/svg"
   viewBox="0 0 236.28934 236.28934"
   height="236.28934"
   width="236.28934"
   xml:space="preserve"
   id="svg2"
   version="1.1"><metadata
     id="metadata8"><rdf:RDF><cc:Work
         rdf:about=""><dc:format>image/svg+xml</dc:format><dc:type
           rdf:resource="http://purl.org/dc/dcmitype/StillImage" /></cc:Work></rdf:RDF></metadata><defs
     id="defs6"><clipPath
       id="clipPath18"
       clipPathUnits="userSpaceOnUse"><path
         id="path16"
         d="M 0,177.217 H 177.217 V 0 H 0 Z" /></clipPath></defs><g
     transform="matrix(1.3333333,0,0,-1.3333333,0,236.28933)"
     id="g10"><g
       id="g12"><g
         clip-path="url(#clipPath18)"
         id="g14"><g
           transform="translate(165.0644,81.4587)"
           id="g20">
		   <!-- fill:#3a3a3a; -->
		   <path
             id="path22"
             style="fill:#FFF;fill-opacity:1;fill-rule:nonzero;stroke:none"
             d="m 0,0 v -0.01 c -0.32,-0.47 -0.641,-0.94 -0.971,-1.42 -10.12,-14.81 -22.42,-32.83 -25.08,-48.9 -13.51,-11.76 -31.13,-18.891 -50.409,-18.891 -19.27,0 -36.891,7.131 -50.391,18.881 -2.66,16.069 -14.969,34.1 -25.089,48.92 -0.331,0.48 -0.661,0.96 -0.98,1.44 -0.121,1.13 -0.201,2.25 -0.261,3.39 7.04,-10.4 19.92,-29.32 23.151,-33.31 2.04,-2.53 20.889,-24.67 53.54,-24.67 h 0.03 c 32.569,0 51.42,22.15 53.47,24.68 3.24,4.01 16.24,23.12 23.269,33.48 C 0.21,2.39 0.119,1.19 0,0 m -22.461,-47 c 3.391,13.319 12.95,27.98 21.57,40.66 C -3.79,-22.09 -11.511,-36.17 -22.461,-47 M -152.03,-6.33 c 8.639,-12.69 18.199,-27.36 21.59,-40.68 -10.96,10.829 -18.69,24.92 -21.59,40.68 m -1.011,20.24 c 3.15,-4.68 5.96,-8.93 8.53,-12.81 7.401,-11.19 12.75,-19.27 18.91,-26.62 5.511,-6.57 21.321,-21.84 49.101,-21.84 h 0.04 c 27.71,0 43.52,15.28 49.029,21.85 6.16,7.35 11.51,15.43 18.91,26.61 2.59,3.92 5.441,8.23 8.63,12.96 0.151,-1.74 0.231,-3.5 0.25,-5.27 -5.78,-8.57 -22,-32.5 -25.559,-36.9 -1.95,-2.42 -20,-23.62 -51.341,-23.63 h -0.029 c -31.261,0 -49.301,21.2 -51.261,23.62 -3.54,4.38 -19.58,28.05 -25.449,36.75 0.009,1.78 0.09,3.54 0.239,5.28 m 1.391,9.56 c 2.319,-3.41 4.41,-6.5 6.319,-9.34 8.17,-12.09 13.101,-19.39 19.71,-27.65 5.79,-7.24 22.161,-24.07 49.121,-24.07 h 0.04 c 26.89,0 43.26,16.84 49.05,24.07 6.609,8.27 11.54,15.56 19.699,27.65 1.94,2.87 4.061,6 6.421,9.47 0.359,-1.71 0.67,-3.44 0.909,-5.2 C -4.341,12.55 -7.79,7.34 -10.881,2.67 -18.23,-8.44 -23.54,-16.46 -29.601,-23.69 -34.86,-29.95 -49.94,-44.521 -76.53,-44.521 l -0.04,-0.009 c -26.52,0 -41.6,14.57 -46.85,20.83 -6.07,7.23 -11.38,15.26 -18.73,26.37 -3.06,4.63 -6.48,9.8 -10.411,15.59 0.241,1.76 0.54,3.49 0.911,5.21 m 0.879,3.75 c 1.891,7.17 4.791,13.91 8.541,20.1 11,-15.97 15.68,-22.38 21.85,-30.86 1.489,-2.05 3.069,-4.21 4.839,-6.66 12.32,-16.98 32.92,-18.72 38.94,-18.85 h 0.031 c 0.02,0 0.05,0 0.07,0.01 h 0.069 c 6.031,0.13 26.63,1.86 38.941,18.85 0.769,1.06 1.5,2.07 2.21,3.04 0.149,0.2 0.29,0.4 0.42,0.59 0.769,1.05 1.5,2.05 2.21,3.02 6.179,8.49 10.87,14.91 21.9,30.95 3.76,-6.18 6.67,-12.92 8.569,-20.08 -2.96,-4.33 -5.549,-8.16 -7.88,-11.61 -8.12,-12.03 -13.03,-19.29 -19.559,-27.47 -6.88,-8.59 -22.101,-23 -46.91,-23 l -0.04,-0.01 c -24.741,0 -39.96,14.42 -46.83,23.01 -6.54,8.17 -11.451,15.43 -19.58,27.47 -2.3,3.42 -4.871,7.21 -7.791,11.49 z m 19.751,34.46 c 1.359,-4.09 1.009,-9.05 0.64,-14.21 -0.281,-4.01 -0.57,-8.09 -0.131,-12.05 -2.75,3.91 -5.979,8.56 -10.059,14.5 2.79,4.23 6,8.17 9.55,11.76 m 6.169,5.58 c 2.891,-5.61 2.451,-13.76 1.98,-22.26 -0.39,-7.13 -0.79,-14.41 0.56,-21.06 -1.2,1.64 -2.399,3.32 -3.689,5.12 l 0.069,0.03 c -2.529,5.47 -2.069,11.93 -1.63,18.18 0.411,5.75 0.821,11.64 -1.25,16.55 1.281,1.19 2.601,2.34 3.96,3.44 m 6.79,4.94 c 0.94,-1.42 1.611,-3.21 2.041,-5.67 0.6,-3.36 0.479,-8.36 0.35,-14.14 -0.261,-10.88 -0.57,-24.43 4.089,-33.41 4.29,-8.28 8.591,-12.48 17.701,-17.28 7.96,-4.19 14.989,-4.5 16.89,-4.5 0.28,0 0.449,0.01 0.49,0.01 l 0.06,0.01 c 0.889,-0.03 8.519,-0.13 17.299,4.49 9.101,4.8 13.401,9 17.701,17.28 4.66,8.98 4.339,22.52 4.089,33.41 -0.139,5.78 -0.25,10.77 0.34,14.13 0.441,2.49 1.12,4.29 2.071,5.72 1.57,-1.01 3.099,-2.08 4.589,-3.21 -3.5,-6.27 -3.019,-15.04 -2.519,-24.2 0.599,-10.92 1.21,-22.21 -4.7,-30.32 -0.7,-0.97 -1.441,-1.98 -2.21,-3.05 C -51.33,-4.46 -70.801,-6.09 -76.53,-6.21 h -0.071 c -5.75,0.13 -25.129,1.8 -36.639,17.67 -0.76,1.05 -1.481,2.04 -2.18,3 l 0.08,0.06 c -5.91,8.12 -5.301,19.41 -4.701,30.33 0.5,9.16 0.98,17.93 -2.52,24.2 1.46,1.11 2.96,2.16 4.5,3.15 m 8.69,4.84 c 1.601,-2.35 2.56,-5.06 2.71,-8.69 0.58,-13.87 0.711,-27.81 0.711,-32.01 0,-9.11 7.18,-27.91 29.45,-27.91 l 0.04,0.01 c 22.199,0 29.39,18.8 29.39,27.9 0,4.23 0.13,18.21 0.7,32.02 0.159,3.64 1.12,6.36 2.729,8.72 2.151,-1.01 4.25,-2.13 6.29,-3.34 -1.12,-1.7 -1.95,-3.85 -2.45,-6.71 -0.639,-3.64 -0.519,-8.77 -0.389,-14.7 0.25,-10.56 0.559,-23.7 -3.771,-32.04 -4.029,-7.77 -7.89,-11.53 -16.5,-16.07 -8.43,-4.43 -15.859,-4.18 -15.93,-4.17 h -0.139 l -0.111,-0.01 c -0.069,0 -7.449,-0.28 -15.92,4.17 -8.62,4.54 -12.469,8.3 -16.509,16.08 -4.321,8.33 -4.02,21.47 -3.77,32.04 0.14,5.93 0.259,11.05 -0.381,14.69 -0.509,2.84 -1.32,4.97 -2.42,6.67 2.031,1.22 4.121,2.34 6.27,3.35 m 13.491,4.93 c 1.819,-2.67 3.279,-5.53 4.35,-8.53 1.76,-4.92 2.119,-9.02 2.239,-11.68 0.081,-1.58 0.471,-16.84 0.351,-19.06 -0.25,-4.97 1.06,-9 3.7,-11.36 2.97,-2.65 5.079,-3.5 8.729,-3.5 h 0.011 0.04 c 3.59,0 5.699,0.85 8.68,3.51 2.63,2.35 3.939,6.39 3.689,11.36 -0.109,2.22 0.28,17.48 0.351,19.05 0.12,2.66 0.49,6.77 2.25,11.69 1.069,3.01 2.529,5.87 4.349,8.55 3.75,-0.97 7.38,-2.22 10.88,-3.73 -1.71,-2.65 -2.769,-5.74 -2.939,-9.79 -0.58,-13.86 -0.71,-27.9 -0.71,-32.14 0,-8.18 -6.49,-25.07 -26.62,-25.07 h -0.04 c -20.06,0 -26.551,16.89 -26.551,25.07 0,4.21 -0.129,18.21 -0.71,32.13 -0.169,4.04 -1.219,7.12 -2.919,9.76 3.489,1.51 7.129,2.77 10.87,3.74 m 19.42,2.49 c 5.63,0 11.119,-0.61 16.399,-1.77 -1.7,-2.61 -3.059,-5.39 -4.099,-8.29 -1.891,-5.28 -2.28,-9.67 -2.41,-12.51 -0.08,-1.61 -0.47,-16.97 -0.351,-19.33 0.21,-4.09 -0.769,-7.32 -2.75,-9.09 -2.449,-2.19 -3.909,-2.79 -6.859,-2.8 h -0.04 c -2.87,0 -4.33,0.6 -6.79,2.79 -1.98,1.77 -2.951,5 -2.75,9.1 0.12,2.36 -0.27,17.72 -0.35,19.33 -0.13,2.84 -0.52,7.23 -2.4,12.5 -1.04,2.9 -2.401,5.67 -4.09,8.28 5.309,1.17 10.829,1.79 16.49,1.79 m 52.35,-20.65 c -2.071,-4.91 -1.651,-10.8 -1.241,-16.55 0.441,-6.2 0.89,-12.61 -1.57,-18.05 -1.269,-1.78 -2.46,-3.43 -3.64,-5.05 1.3,6.58 0.901,13.78 0.521,20.84 -0.471,8.5 -0.91,16.64 1.979,22.25 1.361,-1.09 2.68,-2.24 3.951,-3.44 m 2.21,-2.14 c 3.54,-3.56 6.719,-7.47 9.5,-11.67 -4.04,-5.87 -7.241,-10.48 -9.981,-14.37 0.41,3.89 0.131,7.9 -0.149,11.83 -0.361,5.16 -0.71,10.11 0.63,14.21 m -54.56,30.99 c -29.511,0 -55.52,-15.04 -70.761,-37.87 -0.029,-0.03 -0.05,-0.06 -0.059,-0.1 -8.991,-13.47 -14.22,-29.66 -14.22,-47.07 0,-46.971 38.08,-85.04 85.04,-85.04 46.97,0 85.039,38.069 85.039,85.04 0,46.97 -38.069,85.04 -85.039,85.04" /></g><g
           transform="translate(17.8437,136.2487)"
           id="g24"><path
             id="path26"
             style="fill:#FFF;fill-opacity:1;fill-rule:nonzero;stroke:none"
             d="m 0,0 c -0.03,-0.03 -0.05,-0.06 -0.06,-0.1 -0.01,0.01 -0.02,0.03 -0.03,0.04 z" /></g></g></g></g></svg>