<?xml version="1.0" encoding="UTF-8" standalone="no"?>
<svg
   xmlns:dc="http://purl.org/dc/elements/1.1/"
   xmlns:cc="http://creativecommons.org/ns#"
   xmlns:rdf="http://www.w3.org/1999/02/22-rdf-syntax-ns#"
   xmlns:svg="http://www.w3.org/2000/svg"
   xmlns="http://www.w3.org/2000/svg"
   viewBox="0 0 236.28934 236.28934"
   height="236.28934"
   width="236.28934"
   xml:space="preserve"
   id="svg2"
   version="1.1"><metadata
     id="metadata8"><rdf:RDF><cc:Work
         rdf:about=""><dc:format>image/svg+xml</dc:format><dc:type
           rdf:resource="http://purl.org/dc/dcmitype/StillImage" /></cc:Work></rdf:RDF></metadata><defs
     id="defs6"><clipPath
       id="clipPath18"
       clipPathUnits="userSpaceOnUse"><path
         id="path16"
         d="M 0,177.217 H 177.217 V 0 H 0 Z" /></clipPath></defs><g
     transform="matrix(1.3333333,0,0,-1.3333333,0,236.28933)"
     id="g10"><g
       id="g12"><g
         clip-path="url(#clipPath18)"
         id="g14"><g
           transform="translate(161.4238,81.1384)"
           id="g20">
			 <!-- fill:#3a3a3a; -->
			<path
             id="path22"
             style="fill:#FFF;fill-opacity:1;fill-rule:nonzero;stroke:none"
             d="m 0,0 c -2.399,-3.68 -4.67,-7.15 -6.72,-10.67 -3.34,-5.72 -5.19,-12.55 -5.5,-20.31 -0.13,-3.2 -0.389,-6.45 -0.77,-9.709 -1.13,-1.411 -2.32,-2.79 -3.56,-4.111 0.38,3.13 0.83,8.12 0.47,10.35 h 0.06 v 5.13 c 0,6.64 1.77,13.19 5.121,18.93 1.699,2.93 3.649,5.74 5.71,8.72 C -1.92,3.07 1.43,7.92 3.8,13.3 3.95,11.38 4.021,9.43 4.021,7.47 4.021,7.05 4.021,6.62 4,6.2 2.69,4.11 1.33,2.03 0,0 m 3.09,-4.45 c -1.61,-2.29 -3.31,-4.84 -4.83,-7.46 -3.6,-6.16 -5.5,-13.2 -5.5,-20.36 v -0.27 c -0.78,-1.28 -1.6,-2.54 -2.47,-3.77 0.14,1.75 0.25,3.49 0.32,5.21 0.29,7.3 2.01,13.69 5.11,19 2.02,3.46 4.27,6.9 6.66,10.55 0.431,0.67 0.87,1.34 1.32,2.02 -0.15,-1.66 -0.349,-3.3 -0.61,-4.92 m -7.069,-22.19 c 0.699,4.68 2.29,9.2 4.679,13.31 0.27,0.47 0.55,0.93 0.84,1.4 -1.34,-5.13 -3.2,-10.05 -5.519,-14.71 M -19.68,-46.79 c -0.1,-0.51 -0.19,-1 -0.29,-1.47 -1.179,-1.12 -2.4,-2.2 -3.65,-3.24 0.511,1.96 0.85,4.01 1.011,6.16 v 19.41 c 0,6.64 1.769,13.19 5.119,18.94 1.94,3.33 4.39,6.6 6.99,10.06 4.94,6.6 10.351,13.82 12.41,22.3 C 2.37,23.46 2.76,21.52 3.061,19.56 1.03,12.32 -3.31,6.04 -7.52,-0.06 c -2,-2.89 -4.07,-5.88 -5.83,-8.9 -3.6,-6.17 -5.509,-13.22 -5.509,-20.36 v -5.13 c 0,-0.12 0.019,-0.25 0.049,-0.37 0.09,-0.95 0.06,-6.85 -0.87,-11.97 m -5.759,1.62 c -0.271,-3.44 -1.011,-6.62 -2.231,-9.48 -1.36,-1.01 -2.75,-1.96 -4.18,-2.86 1.84,4.79 2.701,10.27 2.55,16.35 v 19.3 c 0,6.64 1.77,13.19 5.12,18.93 2.09,3.58 4.66,7.21 7.38,11.04 6.34,8.93 13.33,18.79 14.651,29.52 0.769,-1.79 1.469,-3.61 2.099,-5.47 -0.11,-10.54 -6.51,-19.09 -12.72,-27.39 -2.65,-3.53 -5.15,-6.86 -7.169,-10.33 -3.601,-6.19 -5.5,-13.23 -5.5,-20.37 z m -6.691,3.981 c 0.17,-7.301 -1.16,-13.621 -3.97,-18.821 -2.89,-1.59 -5.9,-2.98 -9,-4.179 4.71,7.799 6.96,17.289 6.71,28.259 v 19.31 c 0,6.65 1.77,13.2 5.12,18.93 2.55,4.38 5.8,8.68 9.24,13.24 7.96,10.53 16.18,21.41 15.65,33.73 1.271,-1.94 2.45,-3.95 3.53,-6.01 1.03,-11.96 -6.73,-22.9 -14.259,-33.51 -2.761,-3.9 -5.37,-7.57 -7.521,-11.26 -3.599,-6.18 -5.5,-13.22 -5.5,-20.36 z M -59.28,-68.18 c 5.74,9.35 8.47,21.38 8.14,35.82 v 19.3 c 0,6.66 1.77,13.21 5.12,18.94 2.52,4.33 5.59,8.56 8.85,13.05 7.83,10.77 15.93,21.92 16,34.6 0.03,4.04 -0.33,7.96 -1.059,11.73 3.889,-3.41 7.429,-7.2 10.559,-11.32 0.18,-1.33 0.32,-2.7 0.42,-4.08 0.84,-11.58 -7.229,-22.27 -15.04,-32.6 -3.34,-4.43 -6.79,-9 -9.43,-13.52 -3.6,-6.17 -5.5,-13.21 -5.5,-20.36 v -19.34 c 0.27,-11.95 -2.54,-21.97 -8.37,-29.82 -3.15,-1 -6.389,-1.81 -9.69,-2.4 m -3.77,-0.57 c -1.3,-0.17 -2.62,-0.3 -3.95,-0.4 2.12,5.82 2.98,16.66 2.061,43.6 l -0.371,18.28 c 0,6.65 1.77,13.2 5.121,18.94 2.519,4.33 5.599,8.56 8.849,13.05 7.84,10.77 15.93,21.91 16,34.6 0.03,3.85 0.06,10.35 -2.17,16.38 4.14,-2.15 8.06,-4.66 11.71,-7.5 1.22,-4.63 1.821,-9.54 1.79,-14.66 -0.06,-11.76 -7.88,-22.53 -15.45,-32.95 -3.16,-4.34 -6.42,-8.83 -9.01,-13.28 -3.6,-6.17 -5.5,-13.21 -5.5,-20.37 v -19.33 c 0.34,-15.01 -2.71,-27.23 -9.07,-36.36 z m -7.08,-0.56 c -0.89,-0.04 -1.79,-0.06 -2.69,-0.06 -0.9,0 -1.79,0.02 -2.68,0.05 -2.62,5.881 -3.24,17.98 -2.36,43.72 l 0.37,18.33 c 0,7.15 -1.9,14.2 -5.5,20.37 -2.59,4.45 -5.86,8.94 -9.01,13.29 -7.57,10.41 -15.39,21.17 -15.46,32.95 -0.02,4.57 -0.07,12.2 3.31,18.29 9.57,4.29 20.17,6.68 31.33,6.68 11.16,0 21.77,-2.39 31.341,-6.69 3.379,-6.09 3.33,-13.71 3.309,-18.28 -0.07,-11.78 -7.89,-22.54 -15.46,-32.96 -3.15,-4.34 -6.42,-8.83 -9.01,-13.28 -3.6,-6.17 -5.5,-13.22 -5.5,-20.39 l 0.37,-18.33 c 0.88,-25.72 0.26,-37.81 -2.36,-43.69 m -12.45,0.56 h -0.01 c -6.36,9.13 -9.41,21.35 -9.07,36.39 v 19.3 c 0,7.16 -1.9,14.2 -5.5,20.37 -2.59,4.45 -5.85,8.94 -9.01,13.28 -7.57,10.42 -15.39,21.19 -15.46,32.96 -0.03,5.11 0.58,10.03 1.81,14.66 3.65,2.84 7.56,5.35 11.7,7.5 -2.23,-6.03 -2.2,-12.54 -2.17,-16.39 0.07,-12.69 8.16,-23.83 15.99,-34.6 3.26,-4.49 6.34,-8.72 8.86,-13.05 3.35,-5.74 5.12,-12.29 5.12,-18.91 l -0.38,-18.29 c -0.91,-26.97 -0.05,-37.82 2.07,-43.63 -1.33,0.11 -2.65,0.24 -3.95,0.41 m -13.46,2.97 c -5.83,7.85 -8.64,17.87 -8.37,29.85 v 19.31 c 0,7.15 -1.9,14.19 -5.5,20.36 -2.64,4.52 -6.09,9.09 -9.43,13.51 -7.81,10.34 -15.88,21.03 -15.04,32.61 0.1,1.39 0.24,2.76 0.42,4.09 3.13,4.12 6.67,7.91 10.56,11.32 -0.73,-3.77 -1.09,-7.7 -1.06,-11.74 0.07,-12.68 8.16,-23.82 15.99,-34.6 3.26,-4.49 6.34,-8.72 8.86,-13.05 3.35,-5.73 5.12,-12.28 5.12,-18.94 v -19.26 c -0.33,-14.47 2.4,-26.51 8.14,-35.86 -3.3,0.59 -6.54,1.39 -9.69,2.4 m -13.48,5.76 c -2.81,5.2 -4.15,11.53 -3.98,18.86 v 19.3 c 0,7.14 -1.9,14.18 -5.5,20.36 -2.15,3.69 -4.76,7.36 -7.52,11.26 -7.53,10.61 -15.3,21.56 -14.26,33.53 1.08,2.06 2.26,4.07 3.53,6.01 -0.54,-12.33 7.69,-23.22 15.65,-33.75 3.44,-4.56 6.69,-8.86 9.24,-13.24 3.35,-5.73 5.12,-12.28 5.12,-18.93 V -35.9 c -0.25,-11 2.01,-20.49 6.71,-28.3 -3.1,1.2 -6.1,2.6 -8.99,4.18 m -8.44,5.36 c -1.22,2.87 -1.96,6.05 -2.23,9.49 v 19.24 c 0,7.14 -1.9,14.19 -5.5,20.37 -2.02,3.47 -4.52,6.8 -7.17,10.33 -6.22,8.3 -12.63,16.86 -12.72,27.42 0.63,1.85 1.33,3.68 2.1,5.46 1.3,-10.74 8.3,-20.6 14.64,-29.54 2.73,-3.83 5.3,-7.46 7.39,-11.03 3.34,-5.75 5.11,-12.3 5.11,-18.94 v -19.27 c -0.14,-6.099 0.72,-11.58 2.55,-16.38 -1.42,0.9 -2.81,1.84 -4.17,2.85 m -7.7,6.39 c -0.1,0.47 -0.19,0.96 -0.29,1.48 -0.93,5.12 -0.96,11.02 -0.87,11.97 0.03,0.12 0.05,0.25 0.05,0.37 v 5.13 c 0,7.14 -1.91,14.19 -5.51,20.36 -1.76,3.02 -3.83,6.01 -5.83,8.9 -4.21,6.1 -8.56,12.39 -10.59,19.64 0.31,1.96 0.69,3.9 1.15,5.81 2.06,-8.49 7.48,-15.71 12.42,-22.32 2.6,-3.46 5.05,-6.73 6.99,-10.06 3.35,-5.75 5.12,-12.3 5.12,-18.94 v -19.41 c 0.16,-2.15 0.5,-4.21 1.01,-6.17 -1.25,1.04 -2.47,2.12 -3.65,3.24 m -6.98,7.581 c -0.38,3.259 -0.64,6.509 -0.77,9.709 -0.31,7.76 -2.16,14.59 -5.5,20.31 -2.05,3.52 -4.32,6.99 -6.73,10.67 -1.32,2.03 -2.68,4.11 -4,6.21 -0.02,0.42 -0.02,0.84 -0.02,1.26 0,1.97 0.07,3.92 0.22,5.85 2.37,-5.39 5.72,-10.24 9,-14.99 2.06,-2.98 4.01,-5.79 5.71,-8.72 3.35,-5.74 5.12,-12.29 5.12,-18.93 v -5.13 h 0.06 c -0.36,-2.23 0.09,-7.239 0.47,-10.36 -1.24,1.331 -2.43,2.7 -3.56,4.121 m -5.75,8.129 v 0.29 c 0,7.16 -1.9,14.2 -5.5,20.36 -1.52,2.63 -3.23,5.18 -4.84,7.48 -0.26,1.62 -0.46,3.26 -0.61,4.91 0.45,-0.68 0.89,-1.36 1.33,-2.03 2.38,-3.65 4.63,-7.09 6.66,-10.55 3.09,-5.31 4.81,-11.7 5.11,-19 0.07,-1.73 0.18,-3.48 0.32,-5.23 -0.86,1.23 -1.68,2.49 -2.47,3.77 m -8.79,20.63 c 0.29,-0.46 0.57,-0.93 0.84,-1.4 2.4,-4.12 3.99,-8.65 4.7,-13.34 -2.33,4.67 -4.2,9.6 -5.54,14.74 m 74.36,104.44 c -46.96,0 -85.04,-38.07 -85.04,-85.04 0,-46.97 38.08,-85.04 85.04,-85.04 46.97,0 85.04,38.07 85.04,85.04 0,46.97 -38.07,85.04 -85.04,85.04" /></g></g></g></g></svg>