<?xml version="1.0" encoding="utf-8"?>
<!-- Generator: Adobe Illustrator 24.3.0, SVG Export Plug-In . SVG Version: 6.00 Build 0)  -->
<svg version="1.1" id="Calque_1" xmlns="http://www.w3.org/2000/svg" xmlns:xlink="http://www.w3.org/1999/xlink" x="0px" y="0px"
	 viewBox="0 0 116.43 116.62" style="enable-background:new 0 0 116.43 116.62;" xml:space="preserve">
<style type="text/css">
	.st0{fill:#FFFFFF;}
	.st1{fill:#FFFFFF;}
	.st2{fill:#FFFFFF;}
	.st3{fill:#FFFFFF;}
	.st4{fill:none;}
	.st5{fill:#FFFFFF;}
	.st6{fill:none;stroke:#FFFFFF;stroke-width:0.25;stroke-miterlimit:10;}
	.st7{fill:#FFFFFF;}
	.st8{fill:#FFFFFF;stroke:#FFFFFF;stroke-width:2.8346;stroke-linejoin:round;stroke-miterlimit:10;}
	.st9{fill:none;stroke:#FFFFFF;stroke-width:7;stroke-linecap:round;stroke-miterlimit:10;}
</style>
<g>
	<g>
		<path class="st7" d="M0,58.31c0,32.2,26.02,58.31,58.12,58.31v-5.71c-23.93,0-43.41-19.53-43.41-43.54
			c0-24.02,19.48-43.56,43.41-43.56v-1.57c-24.8,0-44.98,20.24-44.98,45.13c0,14.2,6.58,26.89,16.83,35.16
			C17.48,93.65,9.32,79.04,9.32,62.56c0-27,21.89-48.96,48.8-48.96v-1.78c-27.88,0-50.57,22.77-50.57,50.74
			c0,7.68,1.7,14.97,4.77,21.5C8.04,76.44,5.6,67.65,5.6,58.31c0-29.05,23.56-52.69,52.52-52.69V0C26.02,0,0,26.1,0,58.31z"/>
		<path class="st7" d="M19.65,65.24c0,21.28,17.26,38.59,38.47,38.59v-1.94c-20.14,0-36.53-16.44-36.53-36.65
			c0-15.32,9.42-28.47,22.75-33.94C35.23,36.24,29.03,45.91,29.03,57c0,16.1,13.05,29.19,29.09,29.19v-1.94
			c-14.97,0-27.16-12.23-27.16-27.25c0-11.18,6.75-20.81,16.38-25c-5.38,3.53-8.94,9.63-8.94,16.55c0,10.91,8.85,19.78,19.72,19.78
			v-1.94c-9.81,0-17.78-8-17.78-17.84c0-6.79,3.8-12.7,9.38-15.71c-2.35,2.24-3.82,5.4-3.82,8.9C45.9,48.5,51.38,54,58.12,54v-1.95
			c-5.67,0-10.29-4.62-10.29-10.31s4.62-10.32,10.29-10.32v-4.77C36.91,26.65,19.65,43.96,19.65,65.24z"/>
	</g>
	<g>
		<g>
			<path class="st7" d="M79.6,10.21c2.32,4.18,2.29,9.41,2.28,12.53c-0.04,8.08-5.42,15.46-10.59,22.6
				c-2.17,2.98-4.4,6.06-6.19,9.11c-2.47,4.23-3.77,9.07-3.77,13.96l0.25,12.58c0.61,17.65,0.19,25.94-1.62,29.97
				c-0.61,0.02-1.22,0.03-1.84,0.03v5.63c32.2,0,58.31-26.11,58.31-58.31C116.43,26.11,90.32,0,58.12,0v5.63
				C65.76,5.63,73.04,7.26,79.6,10.21z M105.31,81.71c0.48-3.21,1.58-6.32,3.22-9.14c0.19-0.32,0.38-0.64,0.58-0.95
				C108.17,75.14,106.9,78.52,105.31,81.71z M101.38,88.34c0.1-1.2,0.17-2.4,0.22-3.59c0.2-5.01,1.38-9.38,3.51-13.02
				c1.38-2.38,2.93-4.73,4.55-7.24c0.3-0.46,0.61-0.93,0.91-1.39c-0.09,1.13-0.24,2.27-0.41,3.37c-1.1,1.58-2.28,3.33-3.32,5.14
				c-2.47,4.22-3.77,9.05-3.77,13.95v0.19C102.54,86.64,101.98,87.5,101.38,88.34z M96.69,94.15c0.26-2.15,0.58-5.57,0.33-7.1h0.04
				v-3.51c0-4.55,1.21-9.05,3.51-12.98c1.17-2.01,2.5-3.94,3.91-5.98c2.25-3.25,4.54-6.58,6.17-10.27c0.1,1.32,0.15,2.66,0.15,4
				c0,0.29,0,0.58-0.01,0.87c-0.9,1.43-1.84,2.86-2.75,4.24c-1.64,2.53-3.2,4.91-4.61,7.33c-2.28,3.91-3.55,8.6-3.77,13.92
				c-0.08,2.19-0.26,4.42-0.52,6.65C98.36,92.3,97.54,93.24,96.69,94.15z M91.84,98.74c0.35-1.34,0.58-2.75,0.69-4.22
				c0.01-0.03,0.01-0.05,0.01-0.08V81.21c0-4.55,1.21-9.05,3.5-12.99c1.33-2.28,3.01-4.52,4.8-6.89c3.39-4.53,7.1-9.49,8.52-15.31
				c0.31,1.31,0.58,2.64,0.79,3.98c-1.39,4.98-4.37,9.28-7.26,13.47c-1.37,1.98-2.8,4.03-3.99,6.1c-2.48,4.23-3.78,9.07-3.78,13.96
				v3.51c0,0.08,0.01,0.17,0.04,0.26c0.06,0.64,0.04,4.69-0.6,8.21c-0.07,0.35-0.13,0.69-0.2,1.01
				C93.54,97.29,92.71,98.03,91.84,98.74z M86.21,102.86c1.25-3.29,1.85-7.04,1.76-11.22V78.42c0-4.55,1.21-9.05,3.5-12.98
				c1.43-2.46,3.19-4.95,5.07-7.57c4.34-6.12,9.14-12.88,10.04-20.24c0.52,1.22,1,2.47,1.43,3.73c-0.06,7.24-4.45,13.11-8.72,18.8
				c-1.82,2.43-3.53,4.7-4.92,7.09c-2.47,4.24-3.77,9.07-3.77,13.96V94.4c-0.19,2.36-0.69,4.53-1.52,6.51
				C88.14,101.59,87.19,102.25,86.21,102.86z M77.12,107.45c3.23-5.36,4.77-11.87,4.6-19.41V74.83c0-4.56,1.21-9.05,3.51-12.98
				c1.76-3.01,3.98-5.96,6.34-9.08c5.45-7.22,11.09-14.69,10.72-23.14c0.87,1.32,1.68,2.71,2.42,4.12
				c0.72,8.21-4.6,15.71-9.77,22.99c-1.9,2.67-3.68,5.19-5.17,7.71c-2.46,4.23-3.76,9.07-3.76,13.96v13.23
				c0.11,5.03-0.8,9.37-2.73,12.93C81.31,105.67,79.25,106.63,77.12,107.45z M67.4,110.18c3.93-6.41,5.81-14.67,5.58-24.59V72.38
				c0-4.56,1.21-9.06,3.51-12.98c1.73-2.97,3.84-5.87,6.08-8.95c5.37-7.39,10.91-15.04,10.96-23.72c0.02-2.78-0.23-5.47-0.73-8.05
				c2.67,2.34,5.1,4.94,7.24,7.76c0.12,0.91,0.22,1.85,0.29,2.8c0.58,7.94-4.96,15.28-10.31,22.36c-2.29,3.04-4.65,6.17-6.47,9.28
				c-2.47,4.22-3.77,9.05-3.77,13.95v13.23c0.19,8.22-1.74,15.09-5.74,20.47C71.88,109.22,69.67,109.77,67.4,110.18z M83.82,22.76
				c0.01-2.64,0.04-7.1-1.49-11.23c2.84,1.47,5.52,3.19,8.02,5.14c0.84,3.18,1.25,6.56,1.23,10.06
				c-0.05,8.06-5.41,15.45-10.59,22.58c-2.17,2.99-4.4,6.07-6.18,9.12c-2.47,4.23-3.77,9.06-3.77,13.96v13.23
				c0.23,10.31-1.86,18.7-6.22,24.96h-0.01c-0.89,0.11-1.79,0.2-2.7,0.27c1.44-3.99,2.04-11.43,1.41-29.9l-0.26-12.55
				c0-4.53,1.21-9.03,3.51-12.96c1.73-2.97,3.83-5.87,6.07-8.95C78.21,39.1,83.77,31.46,83.82,22.76z"/>
		</g>
	</g>
</g>
<line class="st4" x1="58.17" y1="5.79" x2="58.17" y2="110.83"/>
<line class="st9" x1="59.42" y1="-17.55" x2="57.01" y2="134.08"/>
</svg>
