<?xml version="1.0" encoding="utf-8"?>
<!-- Generator: Adobe Illustrator 24.3.0, SVG Export Plug-In . SVG Version: 6.00 Build 0)  -->
<svg version="1.1" id="Calque_1" xmlns="http://www.w3.org/2000/svg" xmlns:xlink="http://www.w3.org/1999/xlink" x="0px" y="0px"
	 viewBox="0 0 177.2 177.2" style="enable-background:new 0 0 177.2 177.2;" xml:space="preserve">
<style type="text/css">
	.st0{fill:#FFFFFF;}
</style>
<g>
	<g>
		<path class="st0" d="M146.8,27.1C146.8,27.1,146.8,27.2,146.8,27.1L146.8,27.1C146.8,27.1,146.8,27.1,146.8,27.1z M19.3,122
			C19.3,122,19.3,122,19.3,122C19.3,122,19.3,122,19.3,122L19.3,122z"/>
	</g>
	<g>
		<path class="st0" d="M173.6,86.2c0-2.3-0.2-4.5-0.4-6.7c-0.3-3.3-0.8-6.5-1.5-9.7c0-0.1,0-0.2-0.1-0.2
			c-2.6-11.9-7.8-22.8-14.8-32.3c-2.4-3.3-5.1-6.3-7.9-9.2c-5.9-5.9-12.6-11-20-15c-0.3-0.2-0.6-0.3-0.9-0.5c0,0,0,0,0,0
			c-0.6-0.3-1.2-0.6-1.8-0.9c-11.3-5.6-24-8.7-37.5-8.7c-13.4,0-26.2,3.1-37.5,8.7c-0.6,0.3-1.2,0.6-1.8,0.9c0,0-0.1,0-0.1,0.1
			c-0.3,0.1-0.5,0.3-0.8,0.4c-0.5,0.3-0.9,0.5-1.4,0.8s-0.9,0.5-1.4,0.8c-0.9,0.5-1.8,1.1-2.7,1.6c-0.5,0.3-0.9,0.6-1.3,0.9
			c-0.4,0.3-0.9,0.6-1.3,0.9S39.4,18.7,39,19c-0.9,0.6-1.7,1.2-2.5,1.9c-0.4,0.3-0.7,0.6-1.1,0.9c-1.3,1-2.5,2.1-3.7,3.1
			c-0.4,0.4-0.8,0.7-1.1,1.1c-0.8,0.7-1.5,1.4-2.2,2.2c0,0,0,0,0,0c-0.4,0.4-0.7,0.8-1.1,1.1c-0.7,0.7-1.3,1.4-2,2.1
			c-0.8,0.9-1.6,1.9-2.4,2.8c0,0-0.1,0.1-0.1,0.2c-0.8,0.9-1.5,1.9-2.2,2.8c0,0,0,0,0,0s0,0,0,0c-0.9,1.2-1.7,2.3-2.5,3.6
			c-1.2,1.8-2.4,3.7-3.5,5.7c-0.4,0.6-0.7,1.3-1.1,2c-3.1,5.9-5.6,12.2-7.2,18.8c-0.2,0.7-0.4,1.5-0.5,2.2c-0.7,3.2-1.3,6.5-1.6,9.9
			c-0.3,2.8-0.4,5.7-0.4,8.6c0,10.4,1.8,20.3,5.2,29.5c6.8,18.4,19.8,33.8,36.5,43.7c3.8,2.2,7.7,4.2,11.8,5.8
			c5,2,10.1,3.5,15.5,4.5c5.2,1,10.5,1.5,16,1.5c5.5,0,10.8-0.5,16-1.5c5.4-1,10.6-2.5,15.5-4.5c4.1-1.6,8.1-3.6,11.8-5.8
			c16.7-9.9,29.7-25.3,36.5-43.7c3.4-9.2,5.2-19.1,5.2-29.5C173.6,87.5,173.6,86.9,173.6,86.2z M160,59.2l-2-2c-3-3-4.7-7-4.8-11
			C155.9,50.3,158.1,54.7,160,59.2z M146.8,27.2L146.8,27.2C146.8,27.1,146.8,27.1,146.8,27.2C146.8,27.1,146.8,27.1,146.8,27.2z
			 M142.7,33.3c0.2,0.2,0.3,0.3,0.5,0.5c2.6,2.6,5,5.4,7.2,8.3c0.1,0.1,0.2,0.2,0.2,0.3c-1,6,0.9,12.2,5.4,16.7l6.2,6.2
			c0.6,1.9,1.1,3.8,1.5,5.8l0,0l0.1,0.4c0.1,0.2,0.1,0.4,0.1,0.7l-3.5,3.5L142,57.2c-3.1-3.1-4.8-7.2-4.8-11.6
			c0-4.4,1.7-8.5,4.8-11.6L142.7,33.3z M125,20.3c5.7,3,10.9,6.8,15.6,11.1L140,32c-3.6,3.6-5.6,8.5-5.6,13.6c0,5.1,2,9.9,5.6,13.6
			l18.5,18.5l-3.9,3.9c-3.1,3.1-7.2,4.8-11.6,4.8s-8.5-1.7-11.6-4.8l-20.8-20.8l-3.7-3.7c-3.1-3.1-4.8-7.2-4.8-11.6
			c0-4.4,1.7-8.5,4.8-11.6l3.7-3.7l11.6-11.6C123.1,19.3,124.1,19.8,125,20.3z M37,30.9c1.2-1,2.3-2,3.4-2.9
			c0.3-0.3,0.6-0.5,0.9-0.7l0,0l0,0c0.7-0.5,1.5-1.1,2.3-1.7c0.4-0.3,0.8-0.6,1.2-0.9c0.4-0.3,0.7-0.5,1.1-0.8l0,0l0,0
			c0.3-0.2,0.7-0.5,1.1-0.7l0.1,0l0.1,0c0.8-0.5,1.6-1,2.3-1.4l0.1,0l0.1,0c0.4-0.2,0.8-0.5,1.2-0.7c0.4-0.2,0.8-0.5,1.2-0.7
			c0.9-0.5,1.9-1,2.8-1.4L70.2,34c3.1,3.1,4.8,7.2,4.8,11.6c0,4.4-1.7,8.5-4.8,11.6l-3.7,3.7L45.7,81.6c-3.1,3.1-7.2,4.8-11.6,4.8
			s-8.5-1.7-11.6-4.8l-3.9-3.9l18.5-18.5c3.6-3.6,5.6-8.5,5.6-13.6c0-5.1-2-10-5.6-13.6l-0.7-0.7C36.7,31.2,36.8,31,37,30.9z
			 M20.4,52.3L20.4,52.3L20.4,52.3c0.3-0.7,0.7-1.3,1-1.8l0,0l0,0c0.8-1.5,1.7-2.9,2.6-4.3c-0.1,4-1.8,8-4.8,11l-2,2
			C18.1,56.8,19.2,54.5,20.4,52.3z M13.4,71.3c0.1-0.7,0.3-1.3,0.5-2c0.3-1.3,0.7-2.6,1.1-3.9l6.2-6.2c4.5-4.5,6.4-10.7,5.4-16.7
			c0.1-0.1,0.1-0.2,0.2-0.3l0.4-0.6l0,0c0.5-0.7,1-1.3,1.6-2.1l0,0l0,0l0.1-0.1l0,0c0.7-0.8,1.4-1.7,2.2-2.5
			c0.6-0.7,1.2-1.3,1.8-1.9l0.6-0.6l0.5-0.5l0,0l0,0c0.2-0.2,0.3-0.3,0.5-0.5l0.7,0.7c3.1,3.1,4.8,7.2,4.8,11.6
			c0,4.4-1.7,8.5-4.8,11.6L16.6,75.7l-3.5-3.5C13.2,71.9,13.3,71.6,13.4,71.3z M11.5,88.1c0-0.3,0-0.7,0-1.1l2.3,2.3
			c5.9,5.9,6.3,15.4,1.2,21.8C12.7,103.8,11.5,96,11.5,88.1z M60,159.7c-3.7-1.4-7.3-3.2-10.7-5.3c-0.9-0.5-1.7-1-2.5-1.6
			l-20.5-20.5c-2.4-2.3-3.9-5.3-4.5-8.6c0-0.2,0.1-0.4,0.1-0.6s0.1-0.4,0.2-0.7c0-0.2,0.1-0.4,0.2-0.6c0.1-0.2,0.1-0.4,0.2-0.7
			c0.5,0.8,1.2,1.4,1.8,2.1L61,160.1C60.7,160,60.3,159.8,60,159.7z M74.1,163.8c-2.3-0.4-4.7-1-7-1.7l-40.7-40.7
			c-0.9-0.9-1.7-1.9-2.4-3.1c0,0,0,0,0,0c0.1-0.2,0.3-0.5,0.5-0.7c0-0.1,0.1-0.2,0.2-0.2c0.1-0.2,0.2-0.3,0.4-0.5
			c0.1-0.2,0.3-0.4,0.5-0.6c0.3-0.3,0.6-0.7,0.9-1l1.4-1.4L75,161.1c1.5,1.5,3.2,2.7,5,3.6C78,164.5,76,164.2,74.1,163.8z M77,159.1
			l-47.2-47.2l8.4-8.4L75,140.4c3.7,3.7,8.7,5.6,13.6,5.6c4.9,0,9.8-1.9,13.6-5.6l36.9-36.9l8.4,8.4l-47.2,47.2
			C93.8,165.4,83.4,165.4,77,159.1z M75,115.1c3.7,3.7,8.7,5.6,13.6,5.6c4.9,0,9.8-1.9,13.6-5.6l24.3-24.3l10.6,10.6l-36.9,36.9
			c-6.4,6.4-16.8,6.4-23.1,0l-36.9-36.9l10.6-10.6L75,115.1z M52.8,88.8L73.6,68l3.4-3.4c6.4-6.4,16.8-6.4,23.1,0l3.4,3.4l20.9,20.9
			l-24.2,24.2c-6.4,6.4-16.8,6.4-23.1,0L52.8,88.8z M103,163.8c-2,0.4-3.9,0.7-5.9,0.9c1.8-0.9,3.5-2.1,5-3.6l47.3-47.3l1.4,1.4
			c0.2,0.2,0.4,0.5,0.7,0.7c0.2,0.2,0.4,0.5,0.6,0.7c0,0,0,0,0,0c0.1,0.2,0.3,0.3,0.4,0.5c0.2,0.2,0.3,0.5,0.5,0.7
			c0,0,0.1,0.1,0.1,0.1c0,0.1,0.1,0.1,0.1,0.2c0,0,0,0.1,0.1,0.1c0,0,0,0,0,0c-0.7,1.1-1.5,2.1-2.4,3.1l-40.8,40.8
			C107.7,162.8,105.4,163.4,103,163.8z M155.3,123.8c-0.6,3.3-2.2,6.2-4.5,8.6l-20.5,20.5c-0.8,0.6-1.7,1.1-2.6,1.6
			c-3.4,2-7,3.8-10.7,5.3c-0.3,0.1-0.7,0.3-1,0.4l36.7-36.7c0.7-0.7,1.3-1.4,1.8-2.1c0,0.1,0.1,0.2,0.1,0.3c0.1,0.2,0.1,0.3,0.1,0.5
			c0.1,0.2,0.1,0.4,0.2,0.7c0.1,0.2,0.1,0.4,0.1,0.7C155.3,123.5,155.3,123.7,155.3,123.8C155.3,123.8,155.3,123.8,155.3,123.8z
			 M160.9,114.8c-0.9,2.4-1.9,4.8-3.1,7.1c-0.4-1.5-1-2.9-1.7-4.3c-0.9-1.6-2-3.1-3.3-4.4L105.5,66l-3.4-3.4
			c-7.5-7.5-19.7-7.5-27.1,0L71.6,66l-47.3,47.3c-1.3,1.3-2.4,2.8-3.3,4.4c-0.7,1.4-1.3,2.8-1.7,4.3c0,0,0,0,0,0.1c0,0,0,0,0-0.1
			c-1.1-2.3-2.2-4.7-3.1-7.1c-0.1-0.2-0.1-0.4-0.2-0.5c7.3-7.5,7.2-19.5-0.2-26.9l-4.2-4.2c0.1-1,0.1-1.9,0.2-2.9
			c0.1-1.5,0.4-3.1,0.6-4.7l3.1,3.1l4.9,4.9c3.6,3.6,8.4,5.6,13.6,5.6s10-2,13.6-5.6l20.8-20.8l3.7-3.7c3.6-3.6,5.6-8.5,5.6-13.6
			c0-5.1-2-10-5.6-13.6l-3.7-3.7L57.7,17.5c9.7-4.2,20.2-6.4,30.9-6.4s21.2,2.2,30.9,6.4l-10.8,10.8L105,32
			c-3.6,3.6-5.6,8.5-5.6,13.6c0,5.1,2,9.9,5.6,13.6l3.7,3.7l20.8,20.8c3.6,3.6,8.4,5.6,13.6,5.6s9.9-2,13.6-5.6l4.9-4.9l3.1-3.1
			c0.3,1.6,0.5,3.1,0.6,4.7v0.1c0.1,1,0.2,1.9,0.2,2.9l-4.1,4.2c-7.4,7.4-7.5,19.4-0.3,26.9C161,114.4,160.9,114.6,160.9,114.8z
			 M162.1,111.2c-5.1-6.4-4.7-15.8,1.2-21.8l2.3-2.3c0,0.3,0,0.7,0,1.1C165.6,96,164.4,103.8,162.1,111.2z"/>
	</g>
	<g>
		<path class="st0" d="M153.1,118.2c0,0,0,0.1,0.1,0.1c0,0,0,0,0,0C153.2,118.3,153.2,118.3,153.1,118.2z"/>
	</g>
	<g>
		<path class="st0" d="M19.3,122C19.3,122,19.3,122,19.3,122C19.3,122,19.3,122,19.3,122L19.3,122z M153.1,118.2c0,0,0,0.1,0.1,0.1
			c0,0,0,0,0,0C153.2,118.3,153.2,118.3,153.1,118.2z"/>
	</g>
	<g>
		<path class="st0" d="M126.5,12c-0.1-0.1-0.3-0.1-0.4-0.1c0.6,0.3,1.2,0.6,1.8,0.9C127.4,12.5,126.9,12.2,126.5,12z"/>
	</g>
	<g>
		<path class="st0" d="M146.8,27.1C146.8,27.1,146.8,27.2,146.8,27.1L146.8,27.1C146.8,27.1,146.8,27.1,146.8,27.1z"/>
	</g>
	<g>
		<path class="st0" d="M50.7,12c-0.5,0.3-0.9,0.5-1.4,0.8c0.6-0.3,1.2-0.6,1.8-0.9C50.9,11.8,50.8,11.9,50.7,12z"/>
	</g>
</g>
</svg>
