<?xml version="1.0" encoding="utf-8"?>
<!-- Generator: Adobe Illustrator 24.3.0, SVG Export Plug-In . SVG Version: 6.00 Build 0)  -->
<svg version="1.1" id="Calque_1" xmlns="http://www.w3.org/2000/svg" xmlns:xlink="http://www.w3.org/1999/xlink" x="0px" y="0px"
	 viewBox="0 0 177.2 177.2" style="enable-background:new 0 0 177.2 177.2;" xml:space="preserve">
<style type="text/css">
	.st0{fill:#FFFFFF;}
</style>
<path class="st0" d="M88.6,3.6c-20.1,0-38.5,7-53.1,18.6c-0.1,0.1-0.2,0.1-0.2,0.2c-2.6,2.1-5.1,4.4-7.5,6.8c0,0,0,0,0,0
	C12.8,44.5,3.6,65.5,3.6,88.6c0,47,38.1,85,85,85c47,0,85-38.1,85-85C173.6,41.6,135.6,3.6,88.6,3.6z M125.9,21.2h-1.8
	c-3.9,0-7.3-2-9.3-5.1C118.6,17.5,122.4,19.2,125.9,21.2z M106,13.5c1.7,0.4,3.4,0.8,5,1.3c2,5.3,7.1,9.1,13.1,9.1h6.4
	c2,1.3,3.9,2.7,5.8,4.2h-19.2c-6.2,0-11.2-5-11.2-11.2V13.5z M93,11.7c3.5,0.2,6.8,0.6,10.2,1.3V17c0,7.7,6.3,14,14,14h22.6
	c3.5,3.1,6.7,6.5,9.6,10.2h-45.2C98,41.2,93,36.2,93,30V11.7z M63,15.9c-1.8,3.7-5.6,6.3-10,6.3h-3.4C53.8,19.7,58.3,17.6,63,15.9z
	 M45.2,25H53c6.4,0,11.8-4.3,13.5-10.2c1.5-0.5,3.1-0.9,4.7-1.3V18c0,6.2-5,11.2-11.2,11.2H39.6C41.4,27.7,43.3,26.3,45.2,25z
	 M36.4,32H60c7.7,0,14-6.3,14-14v-5c3.3-0.6,6.7-1.1,10.2-1.3V30c0,6.2-5,11.2-11.2,11.2H27.9C30.5,37.9,33.3,34.8,36.4,32z
	 M18.5,75c0.1-0.7,0.1-1.4,0.2-2H22c0,0.6-0.1,1.2-0.1,1.8c-1,16-2.8,45.2,16.1,69.8C15.2,120.9,17.3,92.2,18.5,75z M61.2,160.6
	c-1.5-0.6-3-1.2-4.4-1.8c0,0,0,0,0,0c-35.7-25.6-33.2-64.5-32-83.7c0-0.7,0.1-1.4,0.1-2H50c6.2,0,11.2,5,11.2,11.2V160.6z
	 M71.2,163.7c-2.4-0.6-4.8-1.3-7.2-2V84.2c0-7.7-6.3-14-14-14H23.5c0,0,0,0-0.1,0v0h-6.1c-0.7,0-1.4,0.6-1.4,1.3
	c-0.1,1-0.1,2.1-0.2,3.3c-1,13.7-2.7,37,10.4,58.8c-9.2-12.7-14.6-28.2-14.6-45c0-9,1.5-17.6,4.4-25.6H60c6.2,0,11.2,5,11.2,11.2
	V163.7z M84.2,165.5c-3.5-0.2-6.8-0.6-10.2-1.3V74.2c0-7.7-6.3-14-14-14H17c1.4-3.5,3.1-6.9,4.9-10.2H73c6.2,0,11.2,5,11.2,11.2
	V165.5z M90.2,165.6c-0.5,0-1,0-1.6,0c-0.5,0-1.1,0-1.6,0V61.2c0-7.7-6.3-14-14-14H23.7c0.7-1.1,1.4-2.1,2.1-3.2H73
	c7.7,0,14-6.3,14-14V11.6c0.5,0,1.1,0,1.6,0c0.5,0,1,0,1.5,0V30c0,7.7,6.3,14,14,14h47.3c0.7,1,1.4,2.1,2.1,3.1h-49.4
	c-7.7,0-14,6.3-14,14V165.6z M103.2,164.3c-3.3,0.6-6.7,1.1-10.2,1.3V61.2C93,55,98,50,104.2,50h51.1c1.9,3.3,3.5,6.6,4.9,10.2h-43
	c-7.7,0-14,6.3-14,14V164.3z M120.4,158.8L120.4,158.8c-1.4,0.7-2.9,1.3-4.4,1.8V84.2c0-6.2,5-11.2,11.2-11.2h25.1
	c0,0.6,0.1,1.3,0.1,2C153.7,94.3,156.1,133.2,120.4,158.8z M139.5,144.3c18.6-24.5,16.8-53.5,15.8-69.4c0-0.6-0.1-1.2-0.1-1.8h3.3
	c0,0.7,0.1,1.3,0.1,2C159.8,92.1,161.9,120.5,139.5,144.3z M161.4,74.8c-0.1-1.2-0.2-2.3-0.2-3.3c0-0.7-0.7-1.3-1.4-1.3h-32.6
	c-7.7,0-14,6.3-14,14v77.5c-2.3,0.8-4.7,1.5-7.2,2V74.2c0-6.2,5-11.2,11.2-11.2h44.1c2.8,8,4.4,16.6,4.4,25.6
	c0,17.1-5.6,33-15.1,45.8C164.1,112.3,162.4,88.6,161.4,74.8z"/>
</svg>
