<?xml version="1.0" standalone="no"?>
<!DOCTYPE svg PUBLIC "-//W3C//DTD SVG 1.1//EN" "http://www.w3.org/Graphics/SVG/1.1/DTD/svg11.dtd" >
<svg xmlns="http://www.w3.org/2000/svg" xmlns:xlink="http://www.w3.org/1999/xlink" version="1.1">
<metadata>
Created by FontForge 20161003 at Wed Jun 19 08:47:20 2019
 By www-data
HTF Knockout   1990-9 The Hoefler Type Foundry, Inc. http://www.typography.com
</metadata>
<defs>
<font id="KnockoutHTF66FullFlyweight" horiz-adv-x="96" >
  <font-face 
    font-family="KnockoutHTF66FullFlyweight"
    font-weight="500"
    font-stretch="normal"
    units-per-em="1000"
    panose-1="0 0 0 0 0 0 0 0 0 0"
    ascent="800"
    descent="-200"
    x-height="491"
    cap-height="666"
    bbox="-218 -183 868 826"
    underline-thickness="60"
    underline-position="-170"
    unicode-range="U+0020-00FF"
  />
<missing-glyph horiz-adv-x="500" 
 />
    <glyph glyph-name=".notdef" horiz-adv-x="500" 
 />
    <glyph glyph-name=".null" horiz-adv-x="0" 
 />
    <glyph glyph-name="nonmarkingreturn" horiz-adv-x="333" 
 />
    <glyph glyph-name="space" unicode=" " horiz-adv-x="91" 
 />
    <glyph glyph-name="exclam" unicode="!" horiz-adv-x="113" 
d="M90 377l-23 -219h-21l-23 219v289h67v-289zM84 0h-56v102h56v-102z" />
    <glyph glyph-name="quotedbl" unicode="&#x22;" horiz-adv-x="148" 
d="M137 666l-36 -196h-32l26 196h42zM72 666l-31 -196h-31l20 196h42z" />
    <glyph glyph-name="numbersign" unicode="#" horiz-adv-x="296" 
d="M301 426h-70l-22 -186h73v-37h-77l-23 -203h-41l23 203h-62l-23 -203h-41l23 203h-66v37h70l21 186h-72v37h76l24 203h41l-23 -203h61l24 203h41l-23 -203h66v-37zM189 426h-61l-22 -186h62z" />
    <glyph glyph-name="dollar" unicode="$" horiz-adv-x="222" 
d="M80 668v61h64v-58q63 -19 63 -119v-89h-66v101q0 30 -23 30q-27 0 -27 -30q0 -15 0.5 -27t2 -24.5t2.5 -20t5 -21t5 -18t7.5 -21t8 -20l10.5 -24.5t11 -27q67 -163 67 -241q0 -99 -66 -123v-61h-64v61q-64 18 -64 117v81h64v-93q0 -35 28 -35q29 0 29 35q0 86 -49 198
q-72 169 -72 242q0 101 64 126z" />
    <glyph glyph-name="percent" unicode="%" horiz-adv-x="370" 
d="M352 66q0 -35 -19.5 -56t-50.5 -21t-51 21t-20 56v180q0 35 20 55.5t51 20.5t50.5 -20.5t19.5 -55.5v-180zM302 60v191q0 10 -6 16.5t-14 6.5q-20 0 -20 -23v-191q0 -22 20 -22q8 0 14 6t6 16zM337 661l-279 -678l-26 20l279 678zM158 418q0 -35 -20 -56t-51 -21
t-50.5 21t-19.5 56v179q0 36 19.5 56.5t50.5 20.5q32 0 51.5 -20.5t19.5 -56.5v-179zM107 412v191q0 23 -20 23q-8 0 -14 -6.5t-6 -16.5v-191q0 -10 6 -16.5t14 -6.5q20 0 20 23z" />
    <glyph glyph-name="ampersand" unicode="&#x26;" horiz-adv-x="330" 
d="M316 106q0 -57 -16.5 -85.5t-44.5 -28.5q-40 0 -62 40q-26 -40 -73 -40q-44 0 -72 42.5t-28 110.5q0 64 22 121.5t53 94.5q-31 107 -31 157q0 156 104 156q85 0 85 -132q0 -106 -78 -204q15 -95 27 -143q19 49 19 140h66q-4 -138 -56 -229q5 -29 25 -29t20 38v20h40v-29z
M184 542q0 47 -23 47q-25 0 -25 -51q0 -40 16 -114q32 54 32 118zM156 97q-19 50 -38 168q-26 -40 -26 -108q0 -36 11 -56.5t29 -20.5q16 0 24 17z" />
    <glyph glyph-name="quotesingle" unicode="'" horiz-adv-x="98" 
d="M101 666l-50 -196h-36l31 196h55z" />
    <glyph glyph-name="parenleft" unicode="(" horiz-adv-x="173" 
d="M158 -102l-16 -11q-47 66 -72 161t-25 262t25 262t72 161l16 -11q-32 -51 -44.5 -138t-12.5 -274t12.5 -274t44.5 -138z" />
    <glyph glyph-name="parenright" unicode=")" horiz-adv-x="173" 
d="M128 310q0 -167 -25 -262t-72 -161l-16 11q32 51 44.5 138t12.5 274t-12.5 274t-44.5 138l16 11q47 -66 72 -161t25 -262z" />
    <glyph glyph-name="asterisk" unicode="*" horiz-adv-x="187" 
d="M174 546l-8 -13q-3 -5 -10 0q-26 14 -53 36q4 -29 4 -64q0 -8 -5 -8h-16q-4 0 -4 8q0 35 4 64q-27 -22 -53 -36q-7 -5 -10 0l-8 13q-3 4 5 9q37 20 58 28q-31 11 -58 28q-7 5 -5 8l8 14q1 4 10 0q27 -16 53 -36q-5 26 -5 64q0 9 5 9h17q5 0 5 -9q0 -38 -5 -64
q31 24 53 36q7 5 10 0l8 -14q2 -3 -5 -8q-27 -17 -58 -28q26 -10 57 -28q9 -5 6 -9z" />
    <glyph glyph-name="plus" unicode="+" horiz-adv-x="225" 
d="M198 307h-55v-61h-61v61h-55v60h55v61h61v-61h55v-60z" />
    <glyph glyph-name="comma" unicode="," 
d="M79 9q0 -34 -17.5 -57.5t-44.5 -23.5v23q29 0 29 49h-29v106h62v-97z" />
    <glyph glyph-name="hyphen" unicode="-" horiz-adv-x="138" 
d="M127 279h-116v66h116v-66z" />
    <glyph glyph-name="period" unicode="." 
d="M79 0h-62v105h62v-105z" />
    <glyph glyph-name="slash" unicode="/" horiz-adv-x="186" 
d="M200 729l-173 -793h-46l173 793h46z" />
    <glyph glyph-name="zero" unicode="0" horiz-adv-x="237" 
d="M213 104q0 -50 -26.5 -81t-68.5 -31q-41 0 -67.5 31t-26.5 81v458q0 50 26.5 81t67.5 31q42 0 68.5 -31t26.5 -81v-458zM138 97v472q0 22 -20 22t-20 -22v-472q0 -22 20 -22t20 22z" />
    <glyph glyph-name="one" unicode="1" horiz-adv-x="156" 
d="M115 0h-74v634q31 0 31 32h43v-666z" />
    <glyph glyph-name="two" unicode="2" horiz-adv-x="201" 
d="M193 549q0 -19 -1.5 -37.5t-2.5 -31.5t-5 -33t-5.5 -28t-8.5 -31.5t-9 -29t-11.5 -34.5t-11.5 -35q-32 -94 -42 -134.5t-10 -72.5h101v-82h-179v18q0 66 12.5 123.5t56.5 184.5q28 79 38 126t10 112q0 28 -22 28q-21 0 -21 -28v-104h-68v103q0 46 23.5 78.5t63.5 32.5
q92 0 92 -125z" />
    <glyph glyph-name="three" unicode="3" horiz-adv-x="211" 
d="M190 104q0 -49 -25 -80.5t-66 -31.5q-39 0 -62.5 32.5t-23.5 77.5v86h69v-87q0 -23 18 -23t18 21v181q0 19 -17 19h-33v73h33q17 0 17 19v175q0 22 -18 22t-18 -23v-88h-69v86q0 46 23 78.5t63 32.5q41 0 66 -31.5t25 -80.5v-157q0 -44 -38 -69q38 -25 38 -69v-163z" />
    <glyph glyph-name="four" unicode="4" horiz-adv-x="205" 
d="M196 131h-24v-131h-69v131h-98v65l112 470h55v-461h24v-74zM103 205v172l-34 -172h34z" />
    <glyph glyph-name="five" unicode="5" horiz-adv-x="213" 
d="M201 666q0 -82 -43 -82h-60l-6 -181q17 20 48 20q25 0 40.5 -20.5t15.5 -52.5v-246q0 -49 -25 -80.5t-66 -31.5q-39 0 -62.5 32.5t-23.5 77.5v81h69v-82q0 -23 18 -23t18 21v234q0 8 -5 14t-11 6q-7 0 -12 -6t-5 -14l-69 6l11 327h168z" />
    <glyph glyph-name="six" unicode="6" horiz-adv-x="222" 
d="M202 108q0 -51 -24.5 -83.5t-65.5 -32.5q-40 0 -64.5 32.5t-24.5 83.5v450q0 50 25 83t65 33t63.5 -32.5t23.5 -78.5v-90h-68v92q0 23 -18 23q-19 0 -19 -21v-185q17 20 47 20q28 0 44 -20.5t16 -52.5v-221zM130 97v211q0 18 -18 18q-17 0 -17 -18v-211q0 -19 17 -19
q18 0 18 19z" />
    <glyph glyph-name="seven" unicode="7" horiz-adv-x="200" 
d="M194 632q-75 -341 -89 -632h-80q25 286 97 580h-107v86h179v-34z" />
    <glyph glyph-name="eight" unicode="8" horiz-adv-x="227" 
d="M204 104q0 -49 -25 -80.5t-65 -31.5q-41 0 -66 31.5t-25 80.5v159q0 49 33 72q-33 23 -33 72v155q0 49 25 80.5t66 31.5q40 0 65 -31.5t25 -80.5v-155q0 -49 -33 -72q33 -23 33 -72v-159zM132 388v179q0 9 -5 15t-13 6q-19 0 -19 -21v-179q0 -8 5.5 -14t13.5 -6
q7 0 12.5 6t5.5 14zM132 99v184q0 20 -18 20q-19 0 -19 -20v-184q0 -21 19 -21q8 0 13 6t5 15z" />
    <glyph glyph-name="nine" unicode="9" horiz-adv-x="226" 
d="M203 108q0 -51 -25.5 -83.5t-66.5 -32.5q-39 0 -63.5 32.5t-24.5 77.5v87h68v-88q0 -23 19 -23q21 0 21 22v182q-19 -21 -48 -21q-27 0 -43.5 21.5t-16.5 54.5v221q0 50 24.5 83t65.5 33q40 0 65 -33t25 -83v-450zM131 354v214q0 20 -18 20t-18 -20v-214q0 -18 18 -18
t18 18z" />
    <glyph glyph-name="colon" unicode=":" 
d="M79 321h-62v105h62v-105zM79 0h-62v105h62v-105z" />
    <glyph glyph-name="semicolon" unicode=";" 
d="M79 321h-62v105h62v-105zM79 9q0 -34 -17.5 -57.5t-44.5 -23.5v23q29 0 29 49h-29v106h62v-97z" />
    <glyph glyph-name="less" unicode="&#x3c;" horiz-adv-x="341" 
d="M277 175l-226 150v17l226 149v-68l-137 -89l137 -91v-68z" />
    <glyph glyph-name="equal" unicode="=" horiz-adv-x="205" 
d="M188 364h-171v61h171v-61zM188 249h-171v61h171v-61z" />
    <glyph glyph-name="greater" unicode="&#x3e;" horiz-adv-x="341" 
d="M290 325l-226 -149v68l137 89l-137 91v68l226 -150v-17z" />
    <glyph glyph-name="question" unicode="?" horiz-adv-x="198" 
d="M186 540q0 -100 -51 -225q-27 -70 -27 -146h-48q0 81 36 229q20 90 20 127q0 36 -4.5 49.5t-16.5 13.5q-21 0 -21 -32v-87h-65v95q0 48 22.5 79t64.5 31q90 0 90 -134zM112 0h-56v102h56v-102z" />
    <glyph glyph-name="at" unicode="@" horiz-adv-x="335" 
d="M321 284q0 -70 -24.5 -117.5t-66.5 -47.5q-46 0 -43 56q-7 -22 -21.5 -35.5t-28.5 -13.5q-21 0 -34.5 21t-13.5 61q0 58 24.5 105t58.5 47q12 0 20 -8.5t9 -24.5l7 31h41l-29 -146q-14 -62 16 -62q24 0 37.5 38t13.5 99q0 83 -32 131.5t-81 48.5q-52 0 -89 -65.5
t-37 -163.5t36 -155t90 -57q53 0 84 36l17 -23q-36 -46 -101 -46q-68 0 -114.5 63.5t-46.5 181.5q0 116 47.5 189.5t113.5 73.5q70 0 108.5 -65t38.5 -152zM194 292q-1 33 -16 33q-17 0 -32.5 -37.5t-15.5 -76.5q0 -44 20 -44t30 53z" />
    <glyph glyph-name="A" unicode="A" horiz-adv-x="209" 
d="M207 0h-80l-5 121h-46l-8 -121h-69l60 666h87zM117 206l-14 294l-20 -294h34z" />
    <glyph glyph-name="B" unicode="B" horiz-adv-x="228" 
d="M212 105q0 -58 -26 -81.5t-62 -23.5h-101v666h101q36 0 62 -23.5t26 -81.5v-153q0 -41 -36 -69q36 -29 36 -69v-165zM136 401v158q0 27 -15 27h-20v-212h20q15 0 15 27zM136 106v166q0 27 -15 27h-20v-220h20q15 0 15 27z" />
    <glyph glyph-name="C" unicode="C" horiz-adv-x="217" 
d="M206 106q0 -52 -23 -83t-66 -31q-42 0 -71.5 32t-29.5 82v454q0 49 30 81.5t71 32.5q42 0 65.5 -31t23.5 -83v-127h-65v130q0 27 -23 27t-23 -27v-460q0 -27 23 -27t23 27v131h65v-128z" />
    <glyph glyph-name="D" unicode="D" horiz-adv-x="236" 
d="M218 105q0 -58 -26 -81.5t-63 -23.5h-106v666h106q37 0 63 -23.5t26 -81.5v-456zM140 106v453q0 27 -19 27h-20v-507h20q19 0 19 27z" />
    <glyph glyph-name="E" unicode="E" horiz-adv-x="193" 
d="M184 0h-161v666h161v-80h-84v-203h57v-80h-57v-223h84v-80z" />
    <glyph glyph-name="F" unicode="F" horiz-adv-x="186" 
d="M178 586h-78v-206h62v-80h-62v-300h-77v666h155v-80z" />
    <glyph glyph-name="G" unicode="G" horiz-adv-x="225" 
d="M212 0h-48l-7 25q-16 -33 -53 -33q-41 0 -64 29.5t-23 84.5v454q0 50 27.5 82t68.5 32t67 -32t26 -82v-136h-70v142q0 24 -22 24q-21 0 -21 -24v-474q0 -25 21 -25t21 25v162h-18v71h95v-325z" />
    <glyph glyph-name="H" unicode="H" horiz-adv-x="242" 
d="M219 0h-77v286h-41v-286h-78v666h78v-296h41v296h77v-666z" />
    <glyph glyph-name="I" unicode="I" horiz-adv-x="124" 
d="M101 0h-78v666h78v-666z" />
    <glyph glyph-name="J" unicode="J" horiz-adv-x="214" 
d="M195 100q0 -48 -25.5 -78t-66.5 -30t-68.5 30.5t-27.5 77.5v165h71v-165q0 -24 20 -24t20 24v566h77v-566z" />
    <glyph glyph-name="K" unicode="K" horiz-adv-x="226" 
d="M222 0h-78l-26 270l-17 -99v-171h-78v666h78v-296l45 296h74l-51 -285z" />
    <glyph glyph-name="L" unicode="L" horiz-adv-x="182" 
d="M179 0h-156v666h77v-589h79v-77z" />
    <glyph glyph-name="M" unicode="M" horiz-adv-x="328" 
d="M305 0h-74v537l-8 -146l-39 -391h-54l-34 391l-7 146v-537h-66v666h102l29 -262l13 -169l12 169l27 262h99v-666z" />
    <glyph glyph-name="N" unicode="N" horiz-adv-x="252" 
d="M231 0h-65l-65 329l-15 90v-419h-65v666h80l54 -324l12 -92v416h64v-666z" />
    <glyph glyph-name="O" unicode="O" horiz-adv-x="235" 
d="M216 106q0 -50 -28.5 -82t-70.5 -32q-41 0 -70 32t-29 82v454q0 49 29 81.5t70 32.5q42 0 70.5 -32t28.5 -82v-454zM137 100v466q0 24 -20 24t-20 -24v-466q0 -24 20 -24t20 24z" />
    <glyph glyph-name="P" unicode="P" horiz-adv-x="225" 
d="M212 373q0 -58 -26 -81.5t-62 -23.5h-23v-268h-78v666h101q36 0 62 -23.5t26 -81.5v-188zM136 368v191q0 27 -14 27h-21v-244h21q14 0 14 26z" />
    <glyph glyph-name="Q" unicode="Q" horiz-adv-x="235" 
d="M239 0q-13 -8 -32 -8q-23 0 -36 16q-23 -16 -54 -16q-41 0 -70 32t-29 82v454q0 49 29 81.5t70 32.5t70 -32.5t29 -81.5v-454q0 -24 -8 -46q7 -8 31 -8v-52zM137 134v432q0 24 -20 24t-20 -24v-466q0 -24 20 -24q9 0 13 5l-19 19z" />
    <glyph glyph-name="R" unicode="R" horiz-adv-x="231" 
d="M224 0h-68q-8 0 -13.5 35.5t-5.5 67.5v157q0 26 -17 26h-19v-286h-78v666h101q36 0 62 -23.5t26 -81.5v-170q0 -38 -36 -69q38 -31 38 -69v-142q0 -44 10 -108v-3zM135 389v170q0 27 -14 27h-20v-224h20q14 0 14 27z" />
    <glyph glyph-name="S" unicode="S" horiz-adv-x="220" 
d="M208 120q0 -70 -30 -99t-69 -29q-47 0 -73 31.5t-26 90.5v81h67v-93q0 -35 28 -35q27 0 27 35q0 86 -49 198q-72 169 -72 242q0 60 26 96t78 36q42 0 66 -31t24 -91v-89h-67v101q0 30 -23 30q-26 0 -26 -30q0 -15 0.5 -27t2 -24.5t2.5 -20t5 -21t5 -18t7.5 -21t8 -20
l10.5 -24.5t11 -27q67 -158 67 -241z" />
    <glyph glyph-name="T" unicode="T" horiz-adv-x="198" 
d="M196 581h-58v-581h-78v581h-58v85h194v-85z" />
    <glyph glyph-name="U" unicode="U" horiz-adv-x="234" 
d="M213 106q0 -50 -27 -82t-68 -32t-69 32t-28 82v560h77v-566q0 -24 20 -24q21 0 21 24v566h74v-560z" />
    <glyph glyph-name="V" unicode="V" horiz-adv-x="212" 
d="M211 666l-67 -666h-76l-67 666h77l30 -451l32 451h71z" />
    <glyph glyph-name="W" unicode="W" horiz-adv-x="310" 
d="M315 666l-71 -666h-64l-28 387l-35 -387h-64l-55 666h76l22 -436l32 436h62l24 -436l30 436h71z" />
    <glyph glyph-name="X" unicode="X" horiz-adv-x="215" 
d="M214 0h-77l-30 212l-33 -212h-74l65 328l-60 338h77l28 -236l33 236h73l-63 -321z" />
    <glyph glyph-name="Y" unicode="Y" horiz-adv-x="210" 
d="M214 666l-74 -405v-261h-77v261l-66 405h75l35 -276l32 276h75z" />
    <glyph glyph-name="Z" unicode="Z" horiz-adv-x="185" 
d="M179 631l-97 -551h92v-80h-171v35l96 548h-92v83h172v-35z" />
    <glyph glyph-name="bracketleft" unicode="[" horiz-adv-x="178" 
d="M184 -99h-124v818h124v-44h-71v-730h71v-44z" />
    <glyph glyph-name="backslash" unicode="\" horiz-adv-x="196" 
d="M210 -64h-46l-173 793h46z" />
    <glyph glyph-name="bracketright" unicode="]" horiz-adv-x="178" 
d="M128 -99h-124v44h71v730h-71v44h124v-818z" />
    <glyph glyph-name="asciicircum" unicode="^" horiz-adv-x="169" 
d="M164 542q-14 -8 -28 -8q-45 0 -54 70q-11 -70 -54 -70q-11 0 -25 8v23q17 0 36.5 27t27.5 74h33q8 -47 27.5 -74t36.5 -27v-23z" />
    <glyph glyph-name="underscore" unicode="_" horiz-adv-x="222" 
d="M222 -66h-222v66h222v-66z" />
    <glyph glyph-name="grave" unicode="`" horiz-adv-x="98" 
d="M88 535h-36l-51 131h56z" />
    <glyph glyph-name="a" unicode="a" horiz-adv-x="179" 
d="M172 -8h-16q-23 0 -37 35q-11 -35 -44 -35q-31 0 -47.5 28t-16.5 77v53q0 54 23 92t66 79v84q0 21 -12 21q-11 0 -11 -21v-60h-59v49q0 47 21 76.5t53 29.5q31 0 48.5 -29t17.5 -77v-316q0 -20 14 -24v-62zM100 89v148q-28 -35 -28 -76v-72q0 -24 14 -24t14 24z" />
    <glyph glyph-name="b" unicode="b" horiz-adv-x="194" 
d="M176 66q0 -31 -15 -52.5t-36 -21.5q-27 0 -40 30l-4 -22h-60v666h64v-197q13 31 40 31q21 0 36 -22t15 -53v-359zM111 85v321q0 20 -13 20t-13 -20v-321q0 -20 13 -20t13 20z" />
    <glyph glyph-name="c" unicode="c" horiz-adv-x="180" 
d="M166 97q0 -47 -19.5 -76t-51.5 -29t-54.5 29.5t-22.5 75.5v298q0 46 22.5 75.5t54.5 29.5t51.5 -29t19.5 -76v-84h-53v92q0 23 -15 23q-7 0 -12 -6t-5 -17v-315q0 -11 5 -17t12 -6q15 0 15 23v92h53v-83z" />
    <glyph glyph-name="d" unicode="d" horiz-adv-x="193" 
d="M172 0h-57l-6 22q-14 -30 -40 -30q-21 0 -36 21.5t-15 52.5v359q0 31 15 53t36 22q23 0 40 -27v193h63v-666zM109 85v321q0 20 -13 20q-14 0 -14 -20v-321q0 -20 14 -20q13 0 13 20z" />
    <glyph glyph-name="e" unicode="e" horiz-adv-x="184" 
d="M168 97q0 -47 -20.5 -76t-52.5 -29t-54.5 29.5t-22.5 75.5v297q0 46 22.5 76t54.5 30t52.5 -29.5t20.5 -76.5v-167h-86v-139q0 -23 16 -23q15 0 15 23v92h55v-83zM113 289v114q0 23 -15 23q-16 0 -16 -23v-114h31z" />
    <glyph glyph-name="f" unicode="f" horiz-adv-x="126" 
d="M122 422h-27v-422h-64v422h-24v69h24v54q0 61 19.5 91t65.5 30h7v-69h-8q-22 0 -22 -39v-67h29v-69z" />
    <glyph glyph-name="g" unicode="g" horiz-adv-x="189" 
d="M199 503q0 -57 -27 -57q-6 0 -16 4q17 -26 17 -64v-113q0 -47 -22 -79t-54 -32q-8 0 -10 2q-16 0 -16 -32q0 -35 27 -35q38 0 59.5 -24.5t21.5 -70.5v-79q0 -105 -82 -105q-36 0 -59 26t-23 79v69q0 33 23 60q-27 14 -27 57q0 27 13.5 47t31.5 23q-37 16 -37 98v117
q0 47 22.5 76.5t55.5 29.5q3 0 11.5 -1t10.5 -1q30 0 30 36h48q2 -11 2 -31zM111 255v150q0 20 -14 20q-15 0 -15 -20v-150q0 -20 15 -20q14 0 14 20zM119 -85v86q0 25 -20 25q-18 0 -18 -25v-86q0 -10 5 -18t13 -8q9 0 14.5 8t5.5 18z" />
    <glyph glyph-name="h" unicode="h" horiz-adv-x="196" 
d="M176 0h-64v406q0 20 -14 20q-13 0 -13 -20v-406h-64v666h64v-197q15 31 41 31q21 0 35.5 -22t14.5 -53v-425z" />
    <glyph glyph-name="i" unicode="i" horiz-adv-x="106" 
d="M82 544h-58v88h58v-88zM85 0h-64v491h64v-491z" />
    <glyph glyph-name="j" unicode="j" horiz-adv-x="106" 
d="M82 544h-58v88h58v-88zM85 -55q0 -61 -19.5 -91t-65.5 -30h-7v69h8q20 0 20 38v560h64v-546z" />
    <glyph glyph-name="k" unicode="k" horiz-adv-x="188" 
d="M185 0h-64l-29 198l-7 -35v-163h-64v666h64v-392l35 218h59l-41 -229z" />
    <glyph glyph-name="l" unicode="l" horiz-adv-x="106" 
d="M85 0h-64v666h64v-666z" />
    <glyph glyph-name="m" unicode="m" horiz-adv-x="288" 
d="M268 0h-64v402q0 20 -14 20q-13 0 -13 -20v-402h-64v406q0 8 -4.5 14t-9.5 6t-9.5 -6t-4.5 -14v-406h-64v491h61l3 -22q15 31 42 31q29 0 45 -41q15 41 45 41q21 0 36 -22t15 -53v-425z" />
    <glyph glyph-name="n" unicode="n" horiz-adv-x="196" 
d="M176 0h-64v406q0 20 -14 20q-13 0 -13 -20v-406h-64v491h61l3 -22q15 31 41 31q20 0 35 -22t15 -53v-425z" />
    <glyph glyph-name="o" unicode="o" horiz-adv-x="191" 
d="M173 97q0 -46 -22.5 -75.5t-54.5 -29.5q-33 0 -55.5 29.5t-22.5 75.5v297q0 46 22.5 76t55.5 30q32 0 54.5 -30t22.5 -76v-297zM109 85v321q0 20 -13 20q-14 0 -14 -20v-321q0 -20 14 -20q13 0 13 20z" />
    <glyph glyph-name="p" unicode="p" horiz-adv-x="194" 
d="M176 66q0 -32 -14.5 -53.5t-36.5 -21.5q-24 0 -40 27v-191h-64v664h59l5 -22q14 30 40 30q22 0 36.5 -21.5t14.5 -52.5v-359zM111 85v321q0 20 -13 20t-13 -20v-321q0 -20 13 -20t13 20z" />
    <glyph glyph-name="q" unicode="q" horiz-adv-x="193" 
d="M172 -173h-63v195q-14 -30 -40 -30q-21 0 -36 21.5t-15 52.5v359q0 31 15 53t36 22q25 0 40 -31l3 22h60v-664zM109 85v321q0 20 -13 20q-14 0 -14 -20v-321q0 -20 14 -20q13 0 13 20z" />
    <glyph glyph-name="r" unicode="r" horiz-adv-x="142" 
d="M137 408q-28 0 -40 -10t-12 -38v-360h-64v491h60l4 -38q15 47 52 47v-92z" />
    <glyph glyph-name="s" unicode="s" horiz-adv-x="175" 
d="M165 114q0 -58 -19 -90t-55 -32q-35 0 -56.5 28t-21.5 82v46h58v-60q0 -24 16 -24q19 0 19 28q0 37 -6.5 59t-34.5 78q-2 3 -10 19.5t-10.5 22t-9 20t-9.5 23t-6.5 21t-5 24.5t-1.5 24q0 54 20 85.5t55 31.5q36 0 56 -30.5t20 -76.5v-56h-56v63q0 25 -18 25t-18 -26
q0 -21 5.5 -42t12.5 -37.5t24 -50.5l10.5 -21t11 -22.5t9 -20t8.5 -22.5t6 -21t5 -24.5t1 -23.5z" />
    <glyph glyph-name="t" unicode="t" horiz-adv-x="128" 
d="M122 422h-27v-298q0 -81 6 -124h-57q-13 52 -13 124v298h-25v69h29v70l60 22v-92h27v-69z" />
    <glyph glyph-name="u" unicode="u" horiz-adv-x="195" 
d="M174 0h-60l-3 22q-14 -30 -41 -30q-20 0 -35 21.5t-15 52.5v425h63v-406q0 -8 4.5 -14t10.5 -6q13 0 13 20v406h63v-491z" />
    <glyph glyph-name="v" unicode="v" horiz-adv-x="172" 
d="M165 491l-51 -491h-54l-52 491h64l12 -207l5 -96l5 96l12 207h59z" />
    <glyph glyph-name="w" unicode="w" horiz-adv-x="271" 
d="M265 491l-52 -491h-57l-13 164l-8 126l-8 -126l-14 -164h-57l-49 491h67l9 -201l8 -128l7 128l14 201h55l11 -201l8 -128l8 128l14 201h57z" />
    <glyph glyph-name="x" unicode="x" horiz-adv-x="175" 
d="M170 0h-65l-17 160l-20 -160h-63l45 238l-45 253h63l19 -164l18 164h65l-45 -235z" />
    <glyph glyph-name="y" unicode="y" horiz-adv-x="168" 
d="M162 491l-57 -546q-8 -73 -23.5 -97t-62.5 -24h-5v69h11q20 0 24 38l7 79l-51 481h64l12 -207l5 -96l5 96l12 207h59z" />
    <glyph glyph-name="z" unicode="z" horiz-adv-x="158" 
d="M147 468l-71 -392h66v-76h-135v23l72 393h-63v75h131v-23z" />
    <glyph glyph-name="braceleft" unicode="{" horiz-adv-x="206" 
d="M178 -99h-19q-52 0 -80.5 36t-28.5 91q0 54 29.5 136t29.5 93q0 33 -40 33h-31v40h31q40 0 40 33q0 11 -29.5 93t-29.5 136q0 55 28.5 91t80.5 36h19v-34h-15q-27 0 -42 -26t-15 -69q0 -38 26.5 -112t26.5 -96q0 -55 -55 -72q55 -16 55 -72q0 -23 -26.5 -96.5
t-26.5 -111.5q0 -43 15 -69t42 -26h15v-34z" />
    <glyph glyph-name="bar" unicode="|" horiz-adv-x="91" 
d="M68 -64h-45v793h45v-793z" />
    <glyph glyph-name="braceright" unicode="}" horiz-adv-x="206" 
d="M168 290h-31q-40 0 -40 -33q0 -11 29.5 -93t29.5 -136q0 -55 -28.5 -91t-80.5 -36h-19v34h15q27 0 42 26t15 69q0 38 -26.5 111.5t-26.5 96.5q0 56 55 72q-55 17 -55 72q0 22 26.5 96t26.5 112q0 43 -15 69t-42 26h-15v34h19q52 0 80.5 -36t28.5 -91q0 -54 -29.5 -136
t-29.5 -93q0 -33 40 -33h31v-40z" />
    <glyph glyph-name="asciitilde" unicode="~" horiz-adv-x="160" 
d="M154 351q0 -73 -43 -73q-13 0 -34 21.5t-27 21.5q-11 0 -11 -16v-26h-27q-6 16 -6 35q0 72 43 72q13 0 34 -21t27 -21q12 0 12 16v26h26q6 -16 6 -35z" />
    <glyph glyph-name="quotesinglbase" 
d="M79 9q0 -34 -17.5 -57.5t-44.5 -23.5v23q29 0 29 49h-29v106h62v-97z" />
    <glyph glyph-name="florin" horiz-adv-x="173" 
d="M125 386h37v-68h-37v-214q0 -121 -95 -121h-7v58h8q20 0 20 38v239h-36v68h36v159q0 121 96 121h7v-58h-9q-20 0 -20 -38v-184z" />
    <glyph glyph-name="quotedblbase" horiz-adv-x="175" 
d="M158 9q0 -34 -17.5 -57.5t-44.5 -23.5v23q29 0 29 49h-29v106h62v-97zM79 9q0 -34 -17.5 -57.5t-44.5 -23.5v23q29 0 29 49h-29v106h62v-97z" />
    <glyph glyph-name="ellipsis" unicode="&#x85;" horiz-adv-x="276" 
d="M79 0h-62v105h62v-105zM169 0h-62v105h62v-105zM259 0h-62v105h62v-105z" />
    <glyph glyph-name="dagger" horiz-adv-x="222" 
d="M216 446q0 -8 -8 -8q-55 0 -82 8q7 -29 7 -180q0 -281 -6 -329q0 -9 -7 -9h-18q-7 0 -7 9q-6 48 -6 329q0 151 7 180q-27 -8 -82 -8q-8 0 -8 8v25q0 7 8 7q53 0 82 -7q-7 29 -7 186q0 9 7 9h30q7 0 7 -9q0 -157 -7 -186q29 7 82 7q8 0 8 -7v-25z" />
    <glyph glyph-name="daggerdbl" horiz-adv-x="222" 
d="M216 123q0 -8 -8 -8q-54 0 -82 8q7 -29 7 -186q0 -9 -7 -9h-30q-7 0 -7 9q0 157 7 186q-28 -8 -82 -8q-8 0 -8 8v25q0 7 8 7q54 0 82 -7q-7 29 -7 149t7 149q-27 -8 -82 -8q-8 0 -8 8v25q0 7 8 7q53 0 82 -7q-7 29 -7 186q0 9 7 9h30q7 0 7 -9q0 -157 -7 -186q29 7 82 7
q8 0 8 -7v-25q0 -8 -8 -8q-57 0 -82 8q7 -29 7 -149t-7 -149q27 7 82 7q8 0 8 -7v-25z" />
    <glyph glyph-name="circumflex" horiz-adv-x="169" 
d="M165 542q-14 -8 -28 -8q-45 0 -54 70q-11 -70 -54 -70q-11 0 -25 8v23q17 0 36.5 27t27.5 74h33q8 -47 27.5 -74t36.5 -27v-23z" />
    <glyph glyph-name="perthousand" horiz-adv-x="535" 
d="M521 66q0 -35 -19.5 -56t-50.5 -21t-51 21t-20 56v180q0 35 20 55.5t51 20.5t50.5 -20.5t19.5 -55.5v-180zM471 60v191q0 10 -6 16.5t-14 6.5q-20 0 -20 -23v-191q0 -22 20 -22q8 0 14 6t6 16zM352 66q0 -35 -19.5 -56t-50.5 -21t-51 21t-20 56v180q0 35 20 55.5t51 20.5
t50.5 -20.5t19.5 -55.5v-180zM302 60v191q0 10 -6 16.5t-14 6.5q-20 0 -20 -23v-191q0 -22 20 -22q8 0 14 6t6 16zM337 661l-279 -678l-26 20l279 678zM158 418q0 -35 -20 -56t-51 -21t-50.5 21t-19.5 56v179q0 36 19.5 56.5t50.5 20.5q32 0 51.5 -20.5t19.5 -56.5v-179z
M107 412v191q0 23 -20 23q-8 0 -14 -6.5t-6 -16.5v-191q0 -10 6 -16.5t14 -6.5q20 0 20 23z" />
    <glyph glyph-name="Scaron" horiz-adv-x="220" 
 />
    <glyph glyph-name="guilsinglleft" horiz-adv-x="148" 
d="M124 0h-26q-8 65 -25.5 104t-53.5 64v51q36 25 53.5 64t25.5 104h26q0 -79 -9.5 -123t-36.5 -71q27 -27 36.5 -71t9.5 -122z" />
    <glyph glyph-name="OE" horiz-adv-x="305" 
d="M296 0h-190q-36 0 -62 23.5t-26 81.5v456q0 58 26 81.5t62 23.5h190v-80h-84v-203h56v-80h-56v-223h84v-80zM134 79v507h-20q-18 0 -18 -27v-453q0 -27 18 -27h20z" />
    <glyph glyph-name="Zcaron" horiz-adv-x="185" 
 />
    <glyph glyph-name="quoteleft" 
d="M17 585q0 34 17.5 57.5t44.5 23.5v-23q-29 0 -29 -49h29v-106h-62v97z" />
    <glyph glyph-name="quoteright" 
d="M79 569q0 -34 -17.5 -57.5t-44.5 -23.5v23q29 0 29 49h-29v106h62v-97z" />
    <glyph glyph-name="quotedblleft" horiz-adv-x="175" 
d="M17 585q0 34 17.5 57.5t44.5 23.5v-23q-29 0 -29 -49h29v-106h-62v97zM96 585q0 34 17.5 57.5t44.5 23.5v-23q-29 0 -29 -49h29v-106h-62v97z" />
    <glyph glyph-name="quotedblright" horiz-adv-x="175" 
d="M158 569q0 -34 -17.5 -57.5t-44.5 -23.5v23q29 0 29 49h-29v106h62v-97zM79 569q0 -34 -17.5 -57.5t-44.5 -23.5v23q29 0 29 49h-29v106h62v-97z" />
    <glyph glyph-name="bullet" horiz-adv-x="175" 
d="M165 333q0 -37 -21.5 -58t-55.5 -21q-35 0 -56.5 21t-21.5 58q0 36 22 57t56 21t55.5 -21t21.5 -57z" />
    <glyph glyph-name="endash" horiz-adv-x="400" 
d="M338 279h-275v66h275v-66z" />
    <glyph glyph-name="emdash" horiz-adv-x="600" 
d="M538 279h-475v66h475v-66z" />
    <glyph glyph-name="tilde" horiz-adv-x="160" 
d="M154 615q0 -73 -43 -73q-13 0 -34 21.5t-27 21.5q-11 0 -11 -16v-26h-27q-6 16 -6 35q0 72 43 72q13 0 34 -21t27 -21q12 0 12 16v26h26q6 -16 6 -35z" />
    <glyph glyph-name="trademark" horiz-adv-x="297" 
d="M276 522h-27v117l-10 -41l-22 -76h-25l-21 76l-10 41v-117h-27v144h42l20 -80l9 -38l10 38l18 80h43v-144zM110 642h-36v-120h-29v120h-36v24h101v-24z" />
    <glyph glyph-name="scaron" horiz-adv-x="175" 
 />
    <glyph glyph-name="guilsinglright" horiz-adv-x="148" 
d="M129 168q-36 -25 -53.5 -64t-25.5 -104h-26q0 78 9.5 122t36.5 71q-27 27 -36.5 71t-9.5 123h26q8 -65 25.5 -104t53.5 -64v-51z" />
    <glyph glyph-name="oe" horiz-adv-x="276" 
d="M260 97q0 -47 -20.5 -76t-52.5 -29q-28 0 -45 24q-18 -24 -46 -24q-33 0 -55.5 29.5t-22.5 75.5v297q0 46 22.5 76t55.5 30q27 0 46 -25q18 25 45 25q32 0 52.5 -29.5t20.5 -76.5v-167h-86v-139q0 -23 16 -23t16 23v92h54v-83zM206 289v114q0 23 -16 23t-16 -23v-114h32z
M109 85v321q0 20 -13 20q-14 0 -14 -20v-321q0 -20 14 -20q13 0 13 20z" />
    <glyph glyph-name="zcaron" horiz-adv-x="158" 
 />
    <glyph glyph-name="Ydieresis" horiz-adv-x="210" 
d="M214 666l-74 -405v-261h-77v261l-66 405h75l35 -276l32 276h75zM166 705h-45v90h45v-90zM93 705h-44v90h44v-90z" />
    <glyph glyph-name="nbspace" unicode="&#xa0;" horiz-adv-x="46" 
 />
    <glyph glyph-name="exclamdown" unicode="&#xa1;" horiz-adv-x="113" 
d="M84 389h-56v102h56v-102zM90 -175h-67v289l23 219h21l23 -219v-289z" />
    <glyph glyph-name="cent" unicode="&#xa2;" horiz-adv-x="190" 
d="M70 580v86h52v-84q48 -19 48 -101v-83h-52v92q0 23 -16 23q-6 0 -11 -6.5t-5 -16.5v-315q0 -10 5 -16.5t11 -6.5q16 0 16 23v92h52v-83q0 -81 -48 -100v-84h-52v86q-48 26 -48 98v297q0 73 48 99z" />
    <glyph glyph-name="sterling" unicode="&#xa3;" horiz-adv-x="274" 
d="M260 104q0 -50 -19 -81t-58 -31q-21 0 -43.5 12.5t-31.5 27.5q-21 -40 -54 -40q-28 0 -46.5 19t-18.5 49q0 29 19 50t51 21q17 0 32 -8q15 40 15 125q0 11 -5 51h-63v71h46q-1 6 -6 28t-7.5 36t-5 38.5t-2.5 48.5q0 70 26 111.5t74 41.5q39 0 62 -35t23 -87v-80h-66v80
q0 30 -19 30q-8 0 -14.5 -8t-6.5 -22q0 -39 3.5 -72t10 -69t7.5 -41h65v-71h-55q1 -9 1 -27q0 -83 -40 -171q27 -21 45 -21q23 0 23 31v84h58v-91zM75 67q-11 14 -26 14q-18 0 -18 -19t18 -19q23 0 26 24z" />
    <glyph glyph-name="currency" unicode="&#xa4;" horiz-adv-x="213" 
d="M85 367h83v-68h-83v-196q0 -27 24 -27q23 0 23 27v107h64v-104q0 -52 -23 -83t-66 -31q-41 0 -66 31.5t-25 82.5v454q0 51 25 82.5t66 31.5q43 0 66 -31t23 -83v-104h-64v107q0 27 -23 27q-24 0 -24 -27v-196z" />
    <glyph glyph-name="yen" unicode="&#xa5;" horiz-adv-x="218" 
d="M142 277v-50h55v-69h-55v-158h-74v158h-54v69h54v50h-54v69h43l-52 320h72l33 -263l31 263h72l-59 -320h43v-69h-55z" />
    <glyph glyph-name="section" unicode="&#xa7;" horiz-adv-x="240" 
d="M231 252q0 -100 -64 -158q25 -39 34 -55.5t16.5 -42t7.5 -55.5q0 -52 -25.5 -87.5t-76.5 -35.5q-52 0 -82 32.5t-30 92.5v41h71v-52q0 -39 35 -39q36 0 36 44q0 28 -14.5 56.5t-35.5 54t-42 53.5t-35.5 66t-14.5 80q0 97 65 156q-22 32 -32 48.5t-18.5 43t-8.5 55.5
q0 54 27 89t77 35t77 -35t27 -88v-46h-70v53q0 37 -30 37q-32 0 -32 -38q0 -31 21.5 -67t47.5 -65.5t47.5 -76t21.5 -96.5zM160 233q0 66 -44 119q-33 -35 -33 -89q0 -66 44 -119q33 35 33 89z" />
    <glyph glyph-name="dieresis" unicode="&#xa8;" horiz-adv-x="137" 
d="M127 545h-45v90h45v-90zM54 545h-44v90h44v-90z" />
    <glyph glyph-name="copyright" unicode="&#xa9;" horiz-adv-x="474" 
d="M460 305q0 -94 -64 -160.5t-159 -66.5t-159 66t-64 161t64 161.5t159 66.5t159 -66.5t64 -161.5zM425 305q0 82 -53 138.5t-135 56.5t-135 -56.5t-53 -138.5t53 -138t135 -56t135 56t53 138zM311 253q0 -27 -20.5 -45.5t-52.5 -18.5t-53.5 18.5t-21.5 45.5v104
q0 28 21.5 46t53.5 18t52.5 -18t20.5 -46v-15h-34v15q0 14 -10 24t-28 10t-27.5 -10t-9.5 -24v-104q0 -14 9.5 -23.5t27.5 -9.5t28 9.5t10 23.5v16h34v-16z" />
    <glyph glyph-name="ordfeminine" unicode="&#xaa;" horiz-adv-x="198" 
d="M188 306h-17q-29 0 -43 32q-14 -32 -49 -32q-27 0 -43.5 21.5t-16.5 59.5v30q0 41 23 69t69 54v58q0 17 -12 17t-12 -17v-40h-60v32q0 37 20.5 60.5t55.5 23.5q33 0 51 -23.5t18 -62.5v-214q0 -16 16 -17v-51zM111 382v99q-29 -20 -29 -54v-44q0 -20 15 -20q14 0 14 19z
" />
    <glyph glyph-name="guillemotleft" unicode="&#xab;" horiz-adv-x="263" 
d="M124 0h-26q-8 65 -25.5 104t-53.5 64v51q36 25 53.5 64t25.5 104h26q0 -79 -9.5 -123t-36.5 -71q27 -27 36.5 -71t9.5 -122zM239 0h-26q-8 65 -25.5 104t-53.5 64v51q36 25 53.5 64t25.5 104h26q0 -79 -9.5 -123t-36.5 -71q27 -27 36.5 -71t9.5 -122z" />
    <glyph glyph-name="logicalnot" unicode="&#xac;" horiz-adv-x="250" 
d="M216 285l-43 -43l-49 48l-48 -48l-42 42l48 48l-48 49l43 42l48 -49l48 49l43 -42l-50 -48z" />
    <glyph glyph-name="registered" unicode="&#xae;" horiz-adv-x="474" 
d="M460 305q0 -94 -64 -160.5t-159 -66.5t-159 66t-64 161t64 161.5t159 66.5t159 -66.5t64 -161.5zM425 305q0 82 -53 138.5t-135 56.5t-135 -56.5t-53 -138.5t53 -138t135 -56t135 56t53 138zM322 194h-10q-22 0 -30.5 7.5t-8.5 26.5v33q0 30 -27 30h-38v-95h-39v221h81
q60 0 60 -56v-13q0 -37 -34 -44q35 -4 35 -43v-30q0 -9 11 -9v-28zM271 346v16q0 25 -24 25h-39v-70h36q27 0 27 29z" />
    <glyph glyph-name="macron" unicode="&#xaf;" horiz-adv-x="140" 
d="M130 567h-120v56h120v-56z" />
    <glyph glyph-name="degree" unicode="&#xb0;" horiz-adv-x="165" 
d="M155 601q0 -29 -21 -51t-52 -22t-51.5 22t-20.5 51q0 30 20.5 51.5t51.5 21.5q32 0 52.5 -21.5t20.5 -51.5zM118 601q0 40 -36 40q-16 0 -25.5 -11t-9.5 -29t9.5 -29t25.5 -11q17 0 26.5 11t9.5 29z" />
    <glyph glyph-name="plusminus" unicode="&#xb1;" horiz-adv-x="531" 
d="M507 0h-483v503h483v-503zM456 49v405h-381v-405h381z" />
    <glyph glyph-name="acute" unicode="&#xb4;" horiz-adv-x="98" 
d="M101 666l-50 -131h-36l31 131h55z" />
    <glyph glyph-name="paragraph" unicode="&#xb6;" horiz-adv-x="355" 
d="M327 -173h-45v762h-45v-762h-45v364h-27q-62 0 -103.5 63.5t-41.5 165.5v16q0 103 41 166.5t104 63.5h162v-839zM192 256v333h-13q-19 0 -30 -32t-11 -71v-151q0 -36 10.5 -57.5t30.5 -21.5h13z" />
    <glyph glyph-name="periodcentered" unicode="&#xb7;" 
d="M79 280h-62v105h62v-105z" />
    <glyph glyph-name="cedilla" unicode="&#xb8;" horiz-adv-x="99" 
d="M104 -103q0 -23 -14 -39t-34 -16q-10 0 -19 6v16h8q18 0 18 21v24q0 21 -18 21q-9 0 -18 -11l-17 15l47 80l17 -15l-31 -53q5 5 18 5q20 0 31.5 -15t11.5 -39z" />
    <glyph glyph-name="ordmasculine" unicode="&#xba;" horiz-adv-x="195" 
d="M176 394q0 -40 -22 -64t-56 -24t-56.5 24t-22.5 64v192q0 39 22.5 63.5t56.5 24.5t56 -24.5t22 -63.5v-192zM112 382v215q0 18 -14 18t-14 -18v-215q0 -17 14 -17t14 17z" />
    <glyph glyph-name="guillemotright" unicode="&#xbb;" horiz-adv-x="263" 
d="M129 168q-36 -25 -53.5 -64t-25.5 -104h-26q0 78 9.5 122t36.5 71q-27 27 -36.5 71t-9.5 123h26q8 -65 25.5 -104t53.5 -64v-51zM244 168q-36 -25 -53.5 -64t-25.5 -104h-26q0 78 9.5 122t36.5 71q-27 27 -36.5 71t-9.5 123h26q8 -65 25.5 -104t53.5 -64v-51z" />
    <glyph glyph-name="questiondown" unicode="&#xbf;" horiz-adv-x="198" 
d="M3 -49q0 100 51 225q27 70 27 146h48q0 -81 -36 -229q-20 -90 -20 -127q0 -36 4.5 -49.5t16.5 -13.5q21 0 21 32v87h65v-95q0 -48 -22.5 -79t-64.5 -31q-90 0 -90 134zM77 491h56v-102h-56v102z" />
    <glyph glyph-name="Agrave" unicode="&#xc0;" horiz-adv-x="209" 
d="M207 0h-80l-5 121h-46l-8 -121h-69l60 666h87zM117 206l-14 294l-20 -294h34zM119 695h-36l-51 131h56z" />
    <glyph glyph-name="Aacute" unicode="&#xc1;" horiz-adv-x="209" 
d="M207 0h-80l-5 121h-46l-8 -121h-69l60 666h87zM117 206l-14 294l-20 -294h34zM171 826l-50 -131h-36l31 131h55z" />
    <glyph glyph-name="Acircumflex" unicode="&#xc2;" horiz-adv-x="209" 
d="M207 0h-80l-5 121h-46l-8 -121h-69l60 666h87zM117 206l-14 294l-20 -294h34zM186 702q-14 -8 -28 -8q-45 0 -54 70q-11 -70 -54 -70q-11 0 -25 8v23q17 0 36.5 27t27.5 74h33q8 -47 27.5 -74t36.5 -27v-23z" />
    <glyph glyph-name="Atilde" unicode="&#xc3;" horiz-adv-x="209" 
d="M207 0h-80l-5 121h-46l-8 -121h-69l60 666h87zM117 206l-14 294l-20 -294h34zM182 775q0 -73 -43 -73q-13 0 -34 21.5t-27 21.5q-11 0 -11 -16v-26h-27q-6 16 -6 35q0 72 43 72q13 0 34 -21t27 -21q12 0 12 16v26h26q6 -16 6 -35z" />
    <glyph glyph-name="Adieresis" unicode="&#xc4;" horiz-adv-x="209" 
d="M207 0h-80l-5 121h-46l-8 -121h-69l60 666h87zM117 206l-14 294l-20 -294h34zM163 705h-45v90h45v-90zM90 705h-44v90h44v-90z" />
    <glyph glyph-name="Aring" unicode="&#xc5;" horiz-adv-x="209" 
d="M117 206l-14 294l-20 -294h34zM123 701q0 34 -21 34t-21 -34t21 -34t21 34zM69 666q-9 15 -9 35q0 23 12 39.5t30 16.5t30.5 -16.5t12.5 -39.5q0 -20 -9 -35h10l61 -666h-80l-5 121h-46l-8 -121h-69l60 666h10z" />
    <glyph glyph-name="AE" unicode="&#xc6;" horiz-adv-x="303" 
d="M294 0h-162v121h-45l-13 -121h-75l92 666h203v-80h-84v-203h56v-80h-56v-223h84v-80zM132 206v294l-34 -294h34z" />
    <glyph glyph-name="Ccedilla" unicode="&#xc7;" horiz-adv-x="217" 
d="M95 -6q-34 9 -56.5 39t-22.5 73v454q0 49 30 81.5t71 32.5q42 0 65.5 -31t23.5 -83v-127h-65v130q0 27 -23 27t-23 -27v-460q0 -27 23 -27t23 27v131h65v-128q0 -51 -22.5 -82t-63.5 -32l-27 -46q5 5 18 5q20 0 31.5 -15t11.5 -39q0 -23 -14 -39t-34 -16q-10 0 -19 6v16
h8q18 0 18 21v24q0 21 -18 21q-9 0 -18 -11l-17 15z" />
    <glyph glyph-name="Egrave" unicode="&#xc8;" horiz-adv-x="193" 
d="M184 0h-161v666h161v-80h-84v-203h57v-80h-57v-223h84v-80zM121 695h-36l-51 131h56z" />
    <glyph glyph-name="Eacute" unicode="&#xc9;" horiz-adv-x="193" 
d="M184 0h-161v666h161v-80h-84v-203h57v-80h-57v-223h84v-80zM168 826l-50 -131h-36l31 131h55z" />
    <glyph glyph-name="Ecircumflex" unicode="&#xca;" horiz-adv-x="193" 
d="M184 0h-161v666h161v-80h-84v-203h57v-80h-57v-223h84v-80zM184 702q-14 -8 -28 -8q-45 0 -54 70q-11 -70 -54 -70q-11 0 -25 8v23q17 0 36.5 27t27.5 74h33q8 -47 27.5 -74t36.5 -27v-23z" />
    <glyph glyph-name="Edieresis" unicode="&#xcb;" horiz-adv-x="193" 
d="M184 0h-161v666h161v-80h-84v-203h57v-80h-57v-223h84v-80zM164 705h-45v90h45v-90zM91 705h-44v90h44v-90z" />
    <glyph glyph-name="Igrave" unicode="&#xcc;" horiz-adv-x="124" 
d="M101 0h-78v666h78v-666zM81 695h-36l-51 131h56z" />
    <glyph glyph-name="Iacute" unicode="&#xcd;" horiz-adv-x="124" 
d="M101 0h-78v666h78v-666zM131 826l-50 -131h-36l31 131h55z" />
    <glyph glyph-name="Icircumflex" unicode="&#xce;" horiz-adv-x="124" 
d="M101 0h-78v666h78v-666zM147 702q-14 -8 -28 -8q-45 0 -54 70q-11 -70 -54 -70q-11 0 -25 8v23q17 0 36.5 27t27.5 74h33q8 -47 27.5 -74t36.5 -27v-23z" />
    <glyph glyph-name="Idieresis" unicode="&#xcf;" horiz-adv-x="124" 
d="M101 0h-78v666h78v-666zM121 705h-45v90h45v-90zM48 705h-44v90h44v-90z" />
    <glyph glyph-name="Eth" unicode="&#xd0;" horiz-adv-x="236" 
d="M101 367h20v-68h-20v-220h20q19 0 19 27v453q0 27 -19 27h-20v-219zM23 299h-26v68h26v299h107q36 0 62 -23.5t26 -81.5v-456q0 -58 -26 -81.5t-62 -23.5h-107v299z" />
    <glyph glyph-name="Ntilde" unicode="&#xd1;" horiz-adv-x="252" 
d="M231 0h-65l-65 329l-15 90v-419h-65v666h80l54 -324l12 -92v416h64v-666zM203 775q0 -73 -43 -73q-13 0 -34 21.5t-27 21.5q-11 0 -11 -16v-26h-27q-6 16 -6 35q0 72 43 72q13 0 34 -21t27 -21q12 0 12 16v26h26q6 -16 6 -35z" />
    <glyph glyph-name="Ograve" unicode="&#xd2;" horiz-adv-x="235" 
d="M216 106q0 -50 -28.5 -82t-70.5 -32q-41 0 -70 32t-29 82v454q0 49 29 81.5t70 32.5q42 0 70.5 -32t28.5 -82v-454zM137 100v466q0 24 -20 24t-20 -24v-466q0 -24 20 -24t20 24zM134 695h-36l-51 131h56z" />
    <glyph glyph-name="Oacute" unicode="&#xd3;" horiz-adv-x="235" 
d="M216 106q0 -50 -28.5 -82t-70.5 -32q-41 0 -70 32t-29 82v454q0 49 29 81.5t70 32.5q42 0 70.5 -32t28.5 -82v-454zM137 100v466q0 24 -20 24t-20 -24v-466q0 -24 20 -24t20 24zM183 826l-50 -131h-36l31 131h55z" />
    <glyph glyph-name="Ocircumflex" unicode="&#xd4;" horiz-adv-x="235" 
d="M216 106q0 -50 -28.5 -82t-70.5 -32q-41 0 -70 32t-29 82v454q0 49 29 81.5t70 32.5q42 0 70.5 -32t28.5 -82v-454zM137 100v466q0 24 -20 24t-20 -24v-466q0 -24 20 -24t20 24zM199 702q-14 -8 -28 -8q-45 0 -54 70q-11 -70 -54 -70q-11 0 -25 8v23q17 0 36.5 27
t27.5 74h33q8 -47 27.5 -74t36.5 -27v-23z" />
    <glyph glyph-name="Otilde" unicode="&#xd5;" horiz-adv-x="235" 
d="M216 106q0 -50 -28.5 -82t-70.5 -32q-41 0 -70 32t-29 82v454q0 49 29 81.5t70 32.5q42 0 70.5 -32t28.5 -82v-454zM137 100v466q0 24 -20 24t-20 -24v-466q0 -24 20 -24t20 24zM191 775q0 -73 -43 -73q-13 0 -34 21.5t-27 21.5q-11 0 -11 -16v-26h-27q-6 16 -6 35
q0 72 43 72q13 0 34 -21t27 -21q12 0 12 16v26h26q6 -16 6 -35z" />
    <glyph glyph-name="Odieresis" unicode="&#xd6;" horiz-adv-x="235" 
d="M216 106q0 -50 -28.5 -82t-70.5 -32q-41 0 -70 32t-29 82v454q0 49 29 81.5t70 32.5q42 0 70.5 -32t28.5 -82v-454zM137 100v466q0 24 -20 24t-20 -24v-466q0 -24 20 -24t20 24zM176 705h-45v90h45v-90zM103 705h-44v90h44v-90z" />
    <glyph glyph-name="multiply" unicode="&#xd7;" horiz-adv-x="250" 
d="M216 285l-43 -43l-49 48l-48 -48l-42 42l48 48l-48 49l43 42l48 -49l48 49l43 -42l-50 -48z" />
    <glyph glyph-name="Oslash" unicode="&#xd8;" horiz-adv-x="235" 
d="M137 323l-41 -150v-73q0 -24 21 -24q20 0 20 24v223zM96 343l41 150v73q0 24 -20 24q-21 0 -21 -24v-223zM22 71q-4 15 -4 35v454q0 50 28.5 82t70.5 32q34 0 63 -24l10 38l43 -12l-22 -80q5 -18 5 -36v-454q0 -50 -29 -82t-70 -32q-36 0 -63 25l-11 -39l-43 12z" />
    <glyph glyph-name="Ugrave" unicode="&#xd9;" horiz-adv-x="234" 
d="M213 106q0 -50 -27 -82t-68 -32t-69 32t-28 82v560h77v-566q0 -24 20 -24q21 0 21 24v566h74v-560zM137 695h-36l-51 131h56z" />
    <glyph glyph-name="Uacute" unicode="&#xda;" horiz-adv-x="234" 
d="M213 106q0 -50 -27 -82t-68 -32t-69 32t-28 82v560h77v-566q0 -24 20 -24q21 0 21 24v566h74v-560zM187 826l-50 -131h-36l31 131h55z" />
    <glyph glyph-name="Ucircumflex" unicode="&#xdb;" horiz-adv-x="234" 
d="M213 106q0 -50 -27 -82t-68 -32t-69 32t-28 82v560h77v-566q0 -24 20 -24q21 0 21 24v566h74v-560zM201 702q-14 -8 -28 -8q-45 0 -54 70q-11 -70 -54 -70q-11 0 -25 8v23q17 0 36.5 27t27.5 74h33q8 -47 27.5 -74t36.5 -27v-23z" />
    <glyph glyph-name="Udieresis" unicode="&#xdc;" horiz-adv-x="234" 
d="M213 106q0 -50 -27 -82t-68 -32t-69 32t-28 82v560h77v-566q0 -24 20 -24q21 0 21 24v566h74v-560zM177 705h-45v90h45v-90zM104 705h-44v90h44v-90z" />
    <glyph glyph-name="Yacute" unicode="&#xdd;" horiz-adv-x="210" 
d="M214 666l-74 -405v-261h-77v261l-66 405h75l35 -276l32 276h75zM176 826l-50 -131h-36l31 131h55z" />
    <glyph glyph-name="Thorn" unicode="&#xde;" horiz-adv-x="225" 
d="M212 256q0 -58 -26 -81.5t-62 -23.5h-22v-151h-79v666h79v-117h22q36 0 62 -23t26 -81v-189zM136 252v191q0 27 -14 27h-20v-245h20q14 0 14 27z" />
    <glyph glyph-name="germandbls" unicode="&#xdf;" horiz-adv-x="205" 
d="M186 94q0 -48 -17.5 -75t-45.5 -27q-13 0 -20 9v41q19 0 19 34v204q0 39 -18 39v74q20 0 20 39v121q0 39 -18 39q-21 0 -21 -39v-553h-64v537q0 59 22 94t60 35q39 0 60.5 -34.5t21.5 -94.5v-100q0 -58 -31 -86q32 -27 32 -86v-171z" />
    <glyph glyph-name="agrave" unicode="&#xe0;" horiz-adv-x="179" 
d="M172 -8h-16q-23 0 -37 35q-11 -35 -44 -35q-31 0 -47.5 28t-16.5 77v53q0 54 23 92t66 79v84q0 21 -12 21q-11 0 -11 -21v-60h-59v49q0 47 21 76.5t53 29.5q31 0 48.5 -29t17.5 -77v-316q0 -20 14 -24v-62zM100 89v148q-28 -35 -28 -76v-72q0 -24 14 -24t14 24zM110 535
h-36l-51 131h56z" />
    <glyph glyph-name="aacute" unicode="&#xe1;" horiz-adv-x="179" 
d="M172 -8h-16q-23 0 -37 35q-11 -35 -44 -35q-31 0 -47.5 28t-16.5 77v53q0 54 23 92t66 79v84q0 21 -12 21q-11 0 -11 -21v-60h-59v49q0 47 21 76.5t53 29.5q31 0 48.5 -29t17.5 -77v-316q0 -20 14 -24v-62zM100 89v148q-28 -35 -28 -76v-72q0 -24 14 -24t14 24zM160 666
l-50 -131h-36l31 131h55z" />
    <glyph glyph-name="acircumflex" unicode="&#xe2;" horiz-adv-x="179" 
d="M172 -8h-16q-23 0 -37 35q-11 -35 -44 -35q-31 0 -47.5 28t-16.5 77v53q0 54 23 92t66 79v84q0 21 -12 21q-11 0 -11 -21v-60h-59v49q0 47 21 76.5t53 29.5q31 0 48.5 -29t17.5 -77v-316q0 -20 14 -24v-62zM100 89v148q-28 -35 -28 -76v-72q0 -24 14 -24t14 24zM174 542
q-14 -8 -28 -8q-45 0 -54 70q-11 -70 -54 -70q-11 0 -25 8v23q17 0 36.5 27t27.5 74h33q8 -47 27.5 -74t36.5 -27v-23z" />
    <glyph glyph-name="atilde" unicode="&#xe3;" horiz-adv-x="179" 
d="M172 -8h-16q-23 0 -37 35q-11 -35 -44 -35q-31 0 -47.5 28t-16.5 77v53q0 54 23 92t66 79v84q0 21 -12 21q-11 0 -11 -21v-60h-59v49q0 47 21 76.5t53 29.5q31 0 48.5 -29t17.5 -77v-316q0 -20 14 -24v-62zM100 89v148q-28 -35 -28 -76v-72q0 -24 14 -24t14 24zM165 615
q0 -73 -43 -73q-13 0 -34 21.5t-27 21.5q-11 0 -11 -16v-26h-27q-6 16 -6 35q0 72 43 72q13 0 34 -21t27 -21q12 0 12 16v26h26q6 -16 6 -35z" />
    <glyph glyph-name="adieresis" unicode="&#xe4;" horiz-adv-x="179" 
d="M172 -8h-16q-23 0 -37 35q-11 -35 -44 -35q-31 0 -47.5 28t-16.5 77v53q0 54 23 92t66 79v84q0 21 -12 21q-11 0 -11 -21v-60h-59v49q0 47 21 76.5t53 29.5q31 0 48.5 -29t17.5 -77v-316q0 -20 14 -24v-62zM100 89v148q-28 -35 -28 -76v-72q0 -24 14 -24t14 24zM151 545
h-45v90h45v-90zM78 545h-44v90h44v-90z" />
    <glyph glyph-name="aring" unicode="&#xe5;" horiz-adv-x="179" 
 />
    <glyph glyph-name="ae" unicode="&#xe6;" horiz-adv-x="260" 
d="M244 97q0 -47 -20.5 -76t-52.5 -29q-28 0 -45 24q-18 -24 -49 -24q-66 0 -66 105v53q0 54 23 92t66 79v84q0 21 -13 21t-13 -21v-60h-59v49q0 45 21.5 75.5t49.5 30.5q21 0 40 -25q18 25 45 25q32 0 52.5 -29.5t20.5 -76.5v-167h-86v-139q0 -23 16 -23q15 0 15 23v92h55
v-83zM189 289v114q0 23 -15 23q-16 0 -16 -23v-114h31zM100 89v148q-28 -35 -28 -76v-72q0 -24 14 -24t14 24z" />
    <glyph glyph-name="ccedilla" unicode="&#xe7;" horiz-adv-x="180" 
d="M80 -6q-27 6 -44.5 34.5t-17.5 68.5v298q0 46 22.5 75.5t54.5 29.5t51.5 -29t19.5 -76v-84h-53v92q0 23 -15 23q-7 0 -12 -6t-5 -17v-315q0 -11 5 -17t12 -6q15 0 15 23v92h53v-83q0 -44 -16.5 -72t-44.5 -32l-27 -47q5 5 18 5q20 0 31.5 -15t11.5 -39q0 -23 -14 -39
t-34 -16q-10 0 -19 6v16h8q18 0 18 21v24q0 21 -18 21q-9 0 -18 -11l-17 15z" />
    <glyph glyph-name="egrave" unicode="&#xe8;" horiz-adv-x="184" 
d="M168 97q0 -47 -20.5 -76t-52.5 -29t-54.5 29.5t-22.5 75.5v297q0 46 22.5 76t54.5 30t52.5 -29.5t20.5 -76.5v-167h-86v-139q0 -23 16 -23q15 0 15 23v92h55v-83zM113 289v114q0 23 -15 23q-16 0 -16 -23v-114h31zM114 535h-36l-51 131h56z" />
    <glyph glyph-name="eacute" unicode="&#xe9;" horiz-adv-x="184" 
d="M168 97q0 -47 -20.5 -76t-52.5 -29t-54.5 29.5t-22.5 75.5v297q0 46 22.5 76t54.5 30t52.5 -29.5t20.5 -76.5v-167h-86v-139q0 -23 16 -23q15 0 15 23v92h55v-83zM113 289v114q0 23 -15 23q-16 0 -16 -23v-114h31zM161 666l-50 -131h-36l31 131h55z" />
    <glyph glyph-name="ecircumflex" unicode="&#xea;" horiz-adv-x="184" 
d="M168 97q0 -47 -20.5 -76t-52.5 -29t-54.5 29.5t-22.5 75.5v297q0 46 22.5 76t54.5 30t52.5 -29.5t20.5 -76.5v-167h-86v-139q0 -23 16 -23q15 0 15 23v92h55v-83zM113 289v114q0 23 -15 23q-16 0 -16 -23v-114h31zM176 542q-14 -8 -28 -8q-45 0 -54 70q-11 -70 -54 -70
q-11 0 -25 8v23q17 0 36.5 27t27.5 74h33q8 -47 27.5 -74t36.5 -27v-23z" />
    <glyph glyph-name="edieresis" unicode="&#xeb;" horiz-adv-x="184" 
d="M168 97q0 -47 -20.5 -76t-52.5 -29t-54.5 29.5t-22.5 75.5v297q0 46 22.5 76t54.5 30t52.5 -29.5t20.5 -76.5v-167h-86v-139q0 -23 16 -23q15 0 15 23v92h55v-83zM113 289v114q0 23 -15 23q-16 0 -16 -23v-114h31zM153 545h-45v90h45v-90zM80 545h-44v90h44v-90z" />
    <glyph glyph-name="igrave" unicode="&#xec;" horiz-adv-x="106" 
 />
    <glyph glyph-name="iacute" unicode="&#xed;" horiz-adv-x="106" 
 />
    <glyph glyph-name="icircumflex" unicode="&#xee;" horiz-adv-x="106" 
 />
    <glyph glyph-name="idieresis" unicode="&#xef;" horiz-adv-x="106" 
 />
    <glyph glyph-name="eth" unicode="&#xf0;" horiz-adv-x="192" 
d="M144 623l26 15l15 -39l-27 -16q16 -55 16 -154v-332q0 -46 -22.5 -75.5t-55.5 -29.5t-55.5 29.5t-22.5 75.5v317q0 31 15 53t36 22q23 0 41 -28q0 55 -7 90l-37 -22l-15 39l41 24q-13 36 -42 71v3h68q17 -22 26 -43zM83 85q0 -20 13 -20q14 0 14 20v321q0 20 -14 20
q-13 0 -13 -20v-321z" />
    <glyph glyph-name="ntilde" unicode="&#xf1;" horiz-adv-x="196" 
d="M176 0h-64v406q0 20 -14 20q-13 0 -13 -20v-406h-64v491h61l3 -22q15 31 41 31q20 0 35 -22t15 -53v-425zM173 615q0 -73 -43 -73q-13 0 -34 21.5t-27 21.5q-11 0 -11 -16v-26h-27q-6 16 -6 35q0 72 43 72q13 0 34 -21t27 -21q12 0 12 16v26h26q6 -16 6 -35z" />
    <glyph glyph-name="ograve" unicode="&#xf2;" horiz-adv-x="191" 
d="M173 97q0 -46 -22.5 -75.5t-54.5 -29.5q-33 0 -55.5 29.5t-22.5 75.5v297q0 46 22.5 76t55.5 30q32 0 54.5 -30t22.5 -76v-297zM109 85v321q0 20 -13 20q-14 0 -14 -20v-321q0 -20 14 -20q13 0 13 20zM113 535h-36l-51 131h56z" />
    <glyph glyph-name="oacute" unicode="&#xf3;" horiz-adv-x="191" 
d="M173 97q0 -46 -22.5 -75.5t-54.5 -29.5q-33 0 -55.5 29.5t-22.5 75.5v297q0 46 22.5 76t55.5 30q32 0 54.5 -30t22.5 -76v-297zM109 85v321q0 20 -13 20q-14 0 -14 -20v-321q0 -20 14 -20q13 0 13 20zM164 666l-50 -131h-36l31 131h55z" />
    <glyph glyph-name="ocircumflex" unicode="&#xf4;" horiz-adv-x="191" 
d="M173 97q0 -46 -22.5 -75.5t-54.5 -29.5q-33 0 -55.5 29.5t-22.5 75.5v297q0 46 22.5 76t55.5 30q32 0 54.5 -30t22.5 -76v-297zM109 85v321q0 20 -13 20q-14 0 -14 -20v-321q0 -20 14 -20q13 0 13 20zM178 542q-14 -8 -28 -8q-45 0 -54 70q-11 -70 -54 -70q-11 0 -25 8
v23q17 0 36.5 27t27.5 74h33q8 -47 27.5 -74t36.5 -27v-23z" />
    <glyph glyph-name="otilde" unicode="&#xf5;" horiz-adv-x="191" 
d="M173 97q0 -46 -22.5 -75.5t-54.5 -29.5q-33 0 -55.5 29.5t-22.5 75.5v297q0 46 22.5 76t55.5 30q32 0 54.5 -30t22.5 -76v-297zM109 85v321q0 20 -13 20q-14 0 -14 -20v-321q0 -20 14 -20q13 0 13 20zM170 615q0 -73 -43 -73q-13 0 -34 21.5t-27 21.5q-11 0 -11 -16v-26
h-27q-6 16 -6 35q0 72 43 72q13 0 34 -21t27 -21q12 0 12 16v26h26q6 -16 6 -35z" />
    <glyph glyph-name="odieresis" unicode="&#xf6;" horiz-adv-x="191" 
d="M173 97q0 -46 -22.5 -75.5t-54.5 -29.5q-33 0 -55.5 29.5t-22.5 75.5v297q0 46 22.5 76t55.5 30q32 0 54.5 -30t22.5 -76v-297zM109 85v321q0 20 -13 20q-14 0 -14 -20v-321q0 -20 14 -20q13 0 13 20zM154 545h-45v90h45v-90zM81 545h-44v90h44v-90z" />
    <glyph glyph-name="oslash" unicode="&#xf8;" horiz-adv-x="191" 
d="M109 236l-27 -66v-85q0 -20 14 -20q13 0 13 20v151zM82 254l27 66v86q0 20 -13 20q-14 0 -14 -20v-152zM18 98v3v293q0 46 22.5 76t55.5 30q45 0 66 -50l20 48l26 -21l-35 -85v-3v-292q0 -46 -22.5 -75.5t-54.5 -29.5q-45 0 -67 49l-19 -47l-26 21z" />
    <glyph glyph-name="ugrave" unicode="&#xf9;" horiz-adv-x="195" 
d="M174 0h-60l-3 22q-14 -30 -41 -30q-20 0 -35 21.5t-15 52.5v425h63v-406q0 -8 4.5 -14t10.5 -6q13 0 13 20v406h63v-491zM114 535h-36l-51 131h56z" />
    <glyph glyph-name="uacute" unicode="&#xfa;" horiz-adv-x="195" 
d="M174 0h-60l-3 22q-14 -30 -41 -30q-20 0 -35 21.5t-15 52.5v425h63v-406q0 -8 4.5 -14t10.5 -6q13 0 13 20v406h63v-491zM164 666l-50 -131h-36l31 131h55z" />
    <glyph glyph-name="ucircumflex" unicode="&#xfb;" horiz-adv-x="195" 
d="M174 0h-60l-3 22q-14 -30 -41 -30q-20 0 -35 21.5t-15 52.5v425h63v-406q0 -8 4.5 -14t10.5 -6q13 0 13 20v406h63v-491zM179 542q-14 -8 -28 -8q-45 0 -54 70q-11 -70 -54 -70q-11 0 -25 8v23q17 0 36.5 27t27.5 74h33q8 -47 27.5 -74t36.5 -27v-23z" />
    <glyph glyph-name="udieresis" unicode="&#xfc;" horiz-adv-x="195" 
d="M174 0h-60l-3 22q-14 -30 -41 -30q-20 0 -35 21.5t-15 52.5v425h63v-406q0 -8 4.5 -14t10.5 -6q13 0 13 20v406h63v-491zM156 545h-45v90h45v-90zM83 545h-44v90h44v-90z" />
    <glyph glyph-name="yacute" unicode="&#xfd;" horiz-adv-x="168" 
d="M162 491l-57 -546q-8 -73 -23.5 -97t-62.5 -24h-5v69h11q20 0 24 38l7 79l-51 481h64l12 -207l5 -96l5 96l12 207h59zM156 666l-50 -131h-36l31 131h55z" />
    <glyph glyph-name="thorn" unicode="&#xfe;" horiz-adv-x="194" 
d="M176 66q0 -32 -14.5 -53.5t-36.5 -21.5q-24 0 -40 27v-191h-64v839h64v-193q16 27 40 27q22 0 36.5 -21.5t14.5 -53.5v-359zM112 85v321q0 20 -14 20q-13 0 -13 -20v-321q0 -20 13 -20q14 0 14 20z" />
    <glyph glyph-name="ydieresis" unicode="&#xff;" horiz-adv-x="168" 
d="M162 491l-57 -546q-8 -73 -23.5 -97t-62.5 -24h-5v69h11q20 0 24 38l7 79l-51 481h64l12 -207l5 -96l5 96l12 207h59zM145 545h-45v90h45v-90zM72 545h-44v90h44v-90z" />
    <glyph glyph-name="NUL" horiz-adv-x="1000" 
 />
    <glyph glyph-name="Lslash" horiz-adv-x="202" 
d="M120 369v-292h79v-77h-156v216l-28 -56l-27 16l55 110v380h77v-226l33 66l27 -17z" />
    <glyph glyph-name="lslash" horiz-adv-x="136" 
d="M152 496l-52 -128v-368h-64v211l-25 -62l-26 20l51 126v371h64v-213l26 64z" />
    <glyph glyph-name="notequal" horiz-adv-x="518" 
d="M494 0h-470v491h470v-491z" />
    <glyph glyph-name="lessequal" horiz-adv-x="310" 
d="M257 145l-201 80v13l201 80v-173z" />
    <glyph glyph-name="greaterequal" horiz-adv-x="310" 
d="M264 225l-201 -80v173l201 -80v-13z" />
    <glyph glyph-name="product" horiz-adv-x="228" 
d="M148 0l-34 289h-13v-289h-78v666h102q36 0 62 -23.5t26 -81.5v-173q0 -45 -30 -69l40 -319h-75zM101 359h22q14 0 14 27v173q0 27 -14 27h-22v-227z" />
    <glyph glyph-name="pi" horiz-adv-x="474" 
d="M460 305q0 -94 -64 -160.5t-159 -66.5t-159 66t-64 161t64 161.5t159 66.5t159 -66.5t64 -161.5zM425 305q0 82 -53 138.5t-135 56.5t-135 -56.5t-53 -138.5t53 -138t135 -56t135 56t53 138zM320 339q0 -58 -60 -58h-43v-85h-38v221h81q60 0 60 -56v-22zM281 338v23
q0 28 -25 28h-39v-77h39q25 0 25 26z" />
    <glyph glyph-name="Omega" horiz-adv-x="244" 
d="M240 422h-27v-422h-64v422h-54v-422h-64v422h-24v69h24v54q0 61 19.5 91t65.5 30h7v-69h-8q-22 0 -22 -39v-67h56v54q0 61 19.5 91t65.5 30h7v-69h-8q-22 0 -22 -39v-67h29v-69z" />
    <glyph glyph-name="radical" horiz-adv-x="350" 
d="M240 422h-27v-422h-64v422h-54v-422h-64v422h-24v69h24v54q0 61 19.5 91t65.5 30h7v-69h-8q-22 0 -22 -39v-67h56v54q0 61 19.5 91t65.5 30h7v-69h-8q-22 0 -22 -39v-67h29v-69zM329 0h-64v666h64v-666z" />
    <glyph glyph-name="approxequal" horiz-adv-x="350" 
d="M240 422h-27v-422h-64v422h-54v-422h-64v422h-24v69h24v54q0 61 19.5 91t65.5 30h7v-69h-8q-22 0 -22 -39v-67h56v54q0 61 19.5 91t65.5 30h7v-69h-8q-22 0 -22 -39v-67h29v-69zM326 544h-58v88h58v-88zM329 0h-64v491h64v-491z" />
    <glyph glyph-name="fraction" horiz-adv-x="90" 
d="M308 714l-497 -783l-29 21l497 783z" />
    <glyph glyph-name="fi" horiz-adv-x="232" 
d="M122 422h-27v-422h-64v422h-24v69h24v54q0 61 19.5 91t65.5 30h7v-69h-8q-22 0 -22 -39v-67h29v-69zM208 544h-58v88h58v-88zM211 0h-64v491h64v-491z" />
    <glyph glyph-name="fl" horiz-adv-x="232" 
d="M122 422h-27v-422h-64v422h-24v69h24v54q0 61 19.5 91t65.5 30h7v-69h-8q-22 0 -22 -39v-67h29v-69zM211 0h-64v666h64v-666z" />
    <glyph glyph-name="apple" horiz-adv-x="967" 
d="M868 0h-767v750h767v-750zM859 -104h-6l-3 20l-10 -21h-2l-10 21l-3 -20h-6l6 34h1l13 -26l13 26h1zM806 -87q0 -18 -17 -18q-7 0 -12 5t-5 12q0 18 18 18q7 0 11.5 -5t4.5 -12zM758 -96l-1 -6q-3 -3 -10 -3q-18 0 -18 17q0 8 5.5 13t12.5 5t11 -3l-2 -5q-3 3 -9 3
q-12 0 -12 -12q0 -13 13 -13q4 0 10 4zM702 -71l-13 -19v-14h-6v14l-14 19l6 1l11 -15l9 14h7zM656 -104h-6v15h-16v-15h-6v33h6v-13h16v13h6v-33zM612 -82q0 -12 -17 -12v-10h-6v33q23 3 23 -11zM576 -104h-6l-4 8h-14l-3 -8h-6l15 34h2zM534 -104h-7l-8 11h-5v-11h-6v33
q23 3 23 -10q0 -7 -7 -10zM491 -101q-6 -4 -13 -4q-18 0 -18 17q0 8 5.5 13t13.5 5q6 0 12 -4l-2 -5q-4 4 -11 4q-12 0 -12 -13q0 -12 13 -12q2 0 6 2v7h-9v5h15v-15zM447 -87q0 -18 -17 -18q-7 0 -12 5t-5 12q0 18 18 18q7 0 11.5 -5t4.5 -12zM400 -82q0 -12 -17 -12v-10
h-6v33q23 3 23 -11zM364 -71l-13 -19v-14h-6v14l-14 19l6 1l11 -15l9 14h7zM323 -71v-5h-12v-28h-6v28h-12v5h30zM267 -71l-12 -34h-1l-11 23l-10 -23h-1l-12 34l6 1l7 -23l10 23h1l10 -23l7 22h6zM211 -71l-12 -34h-1l-11 23l-10 -23h-1l-12 34l6 1l7 -23l10 23h1l10 -23
l7 22h6zM155 -71l-12 -34h-1l-11 23l-10 -23h-1l-12 34l6 1l7 -23l10 23h1l10 -23l7 22h6zM716 -101q0 -4 -4 -4t-4 4t4 4t4 -4zM284 -101q0 -4 -4 -4t-4 4t4 4t4 -4zM559 686q0 8 -1 12q-2 -1 -17 -1t-18 1l-1 -12h2q4 9 10 9q3 0 3 -3v-23q-1 -5 -5 -5v-2h17v2l-4 2
q-1 1 -1 3v23q0 3 3 3t5.5 -2.5t3.5 -4.5l1 -2h2zM504 662v2q-6 -1 -6 5v21l6 5v2h-18v-1v-1l4 -2q1 -1 1 -3v-9h-17v9q1 5 5 5v1v1h-17v-2l4 -2q1 -1 1 -3v-21l-5 -5v-2h17v2q-5 0 -5 5v10h17v-10q-1 -5 -5 -5v-2h18zM439 664l-4 2q-1 1 -1 3v21q1 5 5 5v2h-29l-2 -10l2 -1
q3 8 9 8h4q4 0 4 -3v-10h-4l-6 5h-2v-13h2q0 6 6 6h4v-11q0 -3 -4 -3h-4q-3 0 -5.5 2.5t-3.5 4.5l-1 2l-2 -1l2 -11h30v2zM827 618v6h-685v-6h685zM696 540q0 15 -11.5 26.5t-25.5 11.5q-8 0 -15.5 -5.5t-7.5 -16.5q0 -16 11 -27t26 -11q8 0 15.5 5.5t7.5 16.5zM589 537
q0 12 -14 17q5 3 5 9q0 15 -21 15q-13 0 -13 -11q0 -6 5 -6q4 0 4 3q0 2 -1.5 3.5t-1.5 2.5q0 5 7 5q10 0 10 -12q0 -4 -2 -6q-16 2 -16 -6q0 -6 8 -6q6 0 11 5q6 -4 6 -15q0 -14 -12 -14t-12 9q0 3 3 3l1 -1q2 -1 4 -1q4 0 4 5t-7 5q-9 0 -9 -10q0 -13 16 -13q25 0 25 19z
M295 537q0 12 -14 17q5 3 5 9q0 15 -21 15q-13 0 -13 -11q0 -6 5 -6q4 0 4 3q0 2 -1.5 3.5t-1.5 2.5q0 5 7 5q10 0 10 -12q0 -4 -2 -6q-16 2 -16 -6q0 -6 8 -6q6 0 11 5q6 -4 6 -15q0 -14 -12 -14t-12 9q0 3 3 3l1 -1q2 -1 4 -1q4 0 4 5t-7 5q-9 0 -9 -10q0 -13 16 -13
q25 0 25 19zM820 522q-8 -1 -10 8l-7 35q-1 4 1 6t4 2h2l-1 3h-28l1 -3q7 1 9 -8l3 -15h-24l-3 15q-1 4 1 6t4 2h2l-1 3h-29l1 -3q8 1 10 -8l7 -35q1 -4 -1 -6t-4 -2h-2l1 -3h29l-1 3q-8 -1 -10 8l-3 16h24l3 -16q1 -4 -1 -6t-4 -2h-2l1 -3h29zM498 519l-1 3q-8 -1 -10 8
l-7 35q-1 4 1 6t4 2h2l-1 3h-45v-17h4q-1 13 13 13h4q5 0 6 -6l3 -16h-4q-4 0 -7 2t-4 4l-1 3h-3l5 -23h3q-1 11 8 11h4l3 -17q1 -4 -1 -6t-4 -2h-2l1 -3h29zM202 522q-8 -1 -10 8l-7 35q-1 4 1 6t4 2h2l-1 3h-27q-20 0 -20 -15q0 -13 19 -15l-9 -16q-2 -4 -5.5 -6t-6.5 -2
h-2l1 -3h19l12 23q2 3 5 3l3 -15q1 -4 -1 -6t-4 -2h-2l1 -3h29zM400 521q0 8 -13 9q-4 2 -5 14.5t-5.5 23t-18.5 10.5q-5 0 -9 -3.5t-4 -6.5q0 -5 5 -5q4 0 4 6t5 6t7 -8t4.5 -19.5t9.5 -17.5q-8 0 -14 -6.5t-9 -6.5q-5 0 -5 4q0 2 1 3t1 2q0 5 -5 5t-5 -7q0 -4 5 -8t10 -4
q10 0 15 6.5t10 6.5q4 -7 12 -7q4 0 4 3zM827 475v6h-685v-6h685zM827 378v62h-147v-62h36v28h11v-65h-14v-33h81v33h-14v65h11v-28h36zM648 406v34h-81v-34h11l-15 -23l-15 23h10v34h-62v-34h12l37 -46v-19h-14v-33h81v33h-15v20l37 45h14zM458 308v33h-14v65h14v34h-96
q-21 0 -34 -11.5t-13 -28.5q0 -18 13 -29t34 -11h30v-19h-15v-33h81zM283 308v33h-14v65h14v34h-141v-62h41v28h33v-20h-24v-24h24v-21h-33v28h-41v-61h141zM827 271v6h-685v-6h685zM728 192q0 15 -11.5 26.5t-25.5 11.5q-8 0 -15.5 -5.5t-7.5 -16.5q0 -16 11 -27t26 -11
q8 0 15.5 5.5t7.5 16.5zM203 217q-7 13 -18 13q-15 0 -14 -23q-7 23 -21 23q-12 0 -12 -12l3 -1q0 6 8 6q16 0 24 -33q2 -8 0.5 -11.5t-3.5 -3.5h-3l1 -4h28l-1 4q-7 -2 -10 9q-5 17 -5 25q0 13 9 13q5 0 12 -7zM823 171l-1 3q-8 -1 -10 8l-7 35q-1 4 1 6t4 2h2l-1 3h-45
v-17h4q-1 13 13 13h4q5 0 6 -6l3 -16h-4q-4 0 -7 2t-4 4l-1 3h-3l5 -23h3q-1 11 8 11h4l3 -17q1 -4 -1 -6t-4 -2h-2l1 -3h29zM621 225l-1 3h-29l1 -3q8 1 10 -9l5 -21q5 -20 -11 -20q-14 0 -20 22l-4 19q-1 5 1 7t4 2h2v3h-24l1 -3q9 1 11 -9l4 -19q5 -27 28 -27q24 0 19 24
l-5 22q-1 5 1 7t4 2h3zM522 174q-6 0 -9 10l-7 32q-1 4 1 6.5t5 2.5h2l-1 3h-14l-29 -42l-5 30q-1 4 1 6t4 2l2 1l-1 3h-21l1 -3q7 0 9 -9l8 -45l3 -1l30 44l6 -30q1 -5 -0.5 -7.5t-3.5 -2.5h-2l1 -3h21zM414 171l-1 4q-7 -2 -10 9l-8 31q-3 9 8 10l-1 3h-30q-25 0 -25 -22
q0 -15 11 -25t24 -10h32zM306 174q-8 -1 -10 8l-7 35q-1 4 1 6t4 2h2l-1 3h-27q-20 0 -20 -15q0 -13 19 -15l-9 -16q-2 -4 -5.5 -6t-6.5 -2h-2l1 -3h19l12 23q2 3 5 3l3 -15q1 -4 -1 -6t-4 -2h-2l1 -3h29zM827 127v6h-685v-6h685zM694 46v2q-6 1 -6 5v20l6 6v2h-10l-24 -26
v18q0 2 1.5 3.5t2.5 1.5l2 1v2h-15v-2q6 -1 6 -6v-28h3l25 28v-20l-5 -5v-2h14zM633 48l-4 2q-1 1 -1 3v21q1 5 5 5v2h-29l-2 -10l2 -1q3 8 9 8h4q4 0 4 -3v-10h-4l-6 5h-2v-13h2q0 6 6 6h4v-11q0 -3 -4 -3h-4q-3 0 -5.5 2.5t-3.5 4.5l-1 2l-2 -1l2 -11h30v2zM583 81h-15v-2
l2 -5l-9 -19l-5 10l4 8l6 6v2h-26l1 -2q3 0 7 -6l3 -5l-7 -13l-8 18l2 6v2h-13v-2q4 -1 6 -6l13 -27h1q1 -1 1 0l8 16l9 -16h1l12 27q1 3 3 4.5t3 1.5h1v2zM480 79v2h-15v-2l1 -5l-6 -9l-6 9l3 5v2h-15v-2q5 0 8 -5l8 -12v-8l-5 -6v-2h17v2q-5 0 -5 6v8l8 12zM425 64
q0 18 -20 18t-20 -18q0 -19 20 -19t20 19zM364 46v2q-5 0 -5 5v20l5 6v2h-18q-13 0 -13 -9q0 -5 9 -9l-7 -10l-8 -5v-2h11l7 12q3 4 7 4v-9l-5 -5v-2h17zM309 46v2q-6 1 -6 6v20l6 5v2h-18v-2q6 0 6 -5v-9q-2 0 -4 2l-8 8l1 4v2h-14v-2q5 -1 8 -4l10 -9l-13 -13l-7 -5v-2h17
v2l-2 5l8 8q2 2 4 2v-9q0 -3 -1.5 -4.5t-3.5 -1.5h-1v-2h18zM606 -83q0 8 -11 7v-13q11 0 11 6zM525 -82q0 8 -11 6v-12q11 -1 11 6zM394 -83q0 8 -11 7v-13q11 0 11 6zM564 -92l-5 12l-5 -12h10zM800 -88q0 13 -11 13t-11 -12q0 -13 11 -13t11 12zM441 -88q0 13 -11 13
t-11 -12q0 -13 11 -13t11 12zM176 548h-5q-15 0 -15 15q0 9 8 9t9 -5zM566 553q-3 -4 -7 -4t-4 2q0 3 4 3q5 0 7 -1zM272 553q-3 -4 -7 -4t-4 2q0 3 4 3q5 0 7 -1zM684 535q0 -13 -11 -13q-9 0 -17 11.5t-8 26.5q0 14 11 14q9 0 17 -12t8 -27zM392 384h-11q-13 0 -13 11
t13 11h11v-22zM280 200h-5q-15 0 -15 15q0 9 8 9t9 -5zM716 187q0 -13 -11 -13q-9 0 -17 11.5t-8 26.5q0 14 11 14q9 0 17 -12t8 -27zM393 182q0 -7 -4 -7h-5q-11 0 -18.5 10t-7.5 22q0 17 14 17h6q4 -1 6 -7zM553 79q5 0 0 -9q-5 9 0 9zM352 64h-3q-8 0 -8 8q0 6 7 6
q4 0 4 -4v-10zM417 64q0 -17 -12 -17t-12 17q0 16 12 16t12 -16z" />
    <glyph glyph-name="dotlessi" horiz-adv-x="106" 
d="M85 0h-64v491h64v-491z" />
    <glyph glyph-name="breve" horiz-adv-x="144" 
d="M134 612q0 -32 -17.5 -52.5t-44.5 -20.5t-44.5 20.5t-17.5 52.5q0 22 6 38h28v-14q0 -49 28 -49q29 0 29 49v14h28q5 -18 5 -38z" />
    <glyph glyph-name="dotaccent" horiz-adv-x="130" 
d="M87 545h-44v90h44v-90z" />
    <glyph glyph-name="ring" horiz-adv-x="109" 
d="M97 598q0 -23 -12.5 -40t-30.5 -17t-30 17t-12 40t12 39.5t30 16.5t30.5 -16.5t12.5 -39.5zM75 598q0 34 -21 34t-21 -34t21 -34t21 34z" />
    <glyph glyph-name="hungarumlaut" horiz-adv-x="148" 
d="M137 666l-36 -131h-32l26 131h42zM72 666l-31 -131h-31l20 131h42z" />
    <glyph glyph-name="ogonek" horiz-adv-x="99" 
d="M94 -118q-8 -8 -31 -8q-24 0 -37.5 15.5t-13.5 40.5q0 56 65 85l7 -10q-34 -28 -34 -65q0 -36 34 -36h10v-22z" />
    <glyph glyph-name="caron" horiz-adv-x="169" 
d="M165 635q-17 0 -36.5 -26.5t-26.5 -73.5h-34q-8 47 -27.5 73.5t-36.5 26.5v24q13 7 28 7q45 0 54 -70q11 70 54 70q14 0 25 -7v-24z" />
    </font>
</defs>
</svg>
