<svg xmlns="http://www.w3.org/2000/svg">
<defs>
<font id="GTAmericaExpandedThin" horiz-adv-x="803" >
  <font-face 
    font-family="GTAmericaExpandedThin"
    font-weight="275"
    font-stretch="ultra-expanded"
    units-per-em="1000"
    panose-1="0 0 3 7 0 0 0 0 0 0"
    ascent="785"
    descent="-215"
    x-height="500"
    cap-height="710"
    bbox="-502 -234 1592 932"
    underline-thickness="50"
    underline-position="-150"
    unicode-range="U+000D-FB02"
  />
<missing-glyph horiz-adv-x="1018" 
d="M998 663h-552v-47h552v-48h-552v-47h552v-48h-552v-47h552v-47h-552v-48h552v-47h-978v426h978v-47zM67 667l13 9h-16l-5 15l-4 -15h-16l13 -9l-5 -15l12 9l13 -9zM142 676h-16l13 -9l-5 -15l12 10l13 -10l-5 15l12 9h-15l-5 15zM229 676h-16l13 -9l-5 -15l12 10l13 -10
l-5 15l12 9h-15l-5 15zM315 676h-15l13 -9l-5 -15l12 10l13 -10l-5 15l12 9h-15l-5 15zM415 667l12 9h-15l-5 15l-5 -15h-15l12 -9l-4 -15l12 10l13 -10zM98 632h-15l12 -9l-4 -14l12 9l12 -9l-4 14l12 9h-15l-5 15zM371 623l13 9h-16l-4 15l-5 -15h-15l12 -9l-5 -14l13 9
l12 -9zM273 364v93h94v80h-94v94h-80v-94h-93v-80h93v-93h80zM67 580l13 9h-16l-5 14l-4 -14h-16l13 -9l-5 -15l12 9l13 -9zM142 589h-16l13 -9l-5 -15l12 9l13 -9l-5 15l12 9h-15l-5 14zM315 589h-15l13 -9l-5 -15l12 9l13 -9l-5 15l12 9h-15l-5 14zM415 580l12 9h-15
l-5 14l-5 -14h-15l12 -9l-4 -15l12 9l13 -9zM67 492l13 10h-16l-5 14l-4 -14h-16l13 -10l-5 -14l12 9l13 -9zM415 492l12 10h-15l-5 14l-5 -14h-15l12 -10l-4 -14l12 9l13 -9zM67 405l13 9h-16l-5 15l-4 -15h-16l13 -9l-5 -14l12 9l13 -9zM154 405l12 9h-15l-5 15l-4 -15
h-16l13 -9l-5 -14l12 9l13 -9zM328 405l12 9h-15l-5 15l-5 -15h-15l13 -9l-5 -14l12 9l13 -9zM415 405l12 9h-15l-5 15l-5 -15h-15l12 -9l-4 -14l12 9l13 -9zM115 347l-4 15l12 9h-15l-5 14l-5 -14h-15l12 -9l-4 -15l12 9zM376 347l-5 15l13 9h-16l-4 14l-5 -14h-15l12 -9
l-5 -15l13 9zM72 303l-5 15l13 9h-16l-5 15l-4 -15h-16l13 -9l-5 -15l12 9zM159 303l-5 15l12 9h-15l-5 15l-4 -15h-16l13 -9l-5 -15l12 9zM246 303l-5 15l12 9h-15l-5 15l-4 -15h-16l13 -9l-5 -15l12 9zM333 303l-5 15l12 9h-15l-5 15l-5 -15h-15l13 -9l-5 -15l12 9z

<glyph glyph-name="fi" unicode="fi" horiz-adv-x="782" 
d="M475 500v-45h-234v-455h-53v455h-158v45h158v55q0 92 47 136t145 44q50 0 95 -10v-47q-44 9 -95 9q-73 0 -106 -30.5t-33 -99.5v-57h234zM605 587v117h64v-117h-64zM611 0v500h53v-500h-53z" />
    <glyph glyph-name="fl" unicode="fl" horiz-adv-x="792" 
d="M475 500v-45h-234v-455h-53v455h-158v45h158v55q0 92 47 136t145 44q50 0 95 -10v-47q-44 9 -95 9q-73 0 -106 -30.5t-33 -99.5v-57h234zM669 725v-725h-53v725h53z" />
    <glyph glyph-name="g_g.liga" unicode="gg" horiz-adv-x="1545" 
d="M568 486q12 43 50 64.5t92 21.5q16 0 27 -2v-47q-9 2 -29 2q-88 0 -111 -55q72 -49 72 -125q0 -83 -75.5 -129.5t-205.5 -46.5q-102 0 -172 29q-38 -7 -57.5 -24.5t-19.5 -40.5q0 -61 98 -61h292q183 0 183 -130q0 -156 -332 -156q-169 0 -246.5 35t-77.5 108
q0 78 101 106q-71 23 -71 84q0 73 99 95q-78 47 -78 131q0 81 76.5 128t204.5 47q107 0 180 -34zM1472 525q-87 0 -110 -55q72 -49 72 -125q0 -83 -76 -130t-205 -47q-99 0 -169 28q-31 -7 -47.5 -24t-16.5 -39q0 -61 98 -61h298q183 0 183 -130q0 -156 -334 -156
q-171 0 -249 35t-78 108q0 78 100 106q-71 23 -71 84q0 69 85 93q-80 47 -80 133q0 81 76.5 128t204.5 47q107 0 180 -34q12 42 50 64t91 22q17 0 28 -2v-47q-9 2 -30 2zM388 211q105 0 165.5 34.5t60.5 99.5q0 64 -61 98.5t-165 34.5t-165 -35t-61 -98q0 -65 60.5 -99.5
t165.5 -34.5zM1153 211q105 0 165.5 34t60.5 100q0 64 -61 98.5t-165 34.5t-165 -34.5t-61 -98.5q0 -66 60 -100t166 -34zM522 24h-286q-13 0 -35 2q-93 -22 -93 -90q0 -106 272 -106q279 0 279 111q0 44 -32.5 63.5t-104.5 19.5zM1309 24h-291q-13 0 -35 2q-94 -22 -94 -90
q0 -106 276 -106q281 0 281 111q0 44 -32.5 63.5t-104.5 19.5z" />
    <glyph glyph-name=".notdef" horiz-adv-x="1018" 
d="M998 663h-552v-47h552v-48h-552v-47h552v-48h-552v-47h552v-47h-552v-48h552v-47h-978v426h978v-47zM67 667l13 9h-16l-5 15l-4 -15h-16l13 -9l-5 -15l12 9l13 -9zM142 676h-16l13 -9l-5 -15l12 10l13 -10l-5 15l12 9h-15l-5 15zM229 676h-16l13 -9l-5 -15l12 10l13 -10
l-5 15l12 9h-15l-5 15zM315 676h-15l13 -9l-5 -15l12 10l13 -10l-5 15l12 9h-15l-5 15zM415 667l12 9h-15l-5 15l-5 -15h-15l12 -9l-4 -15l12 10l13 -10zM98 632h-15l12 -9l-4 -14l12 9l12 -9l-4 14l12 9h-15l-5 15zM371 623l13 9h-16l-4 15l-5 -15h-15l12 -9l-5 -14l13 9
l12 -9zM273 364v93h94v80h-94v94h-80v-94h-93v-80h93v-93h80zM67 580l13 9h-16l-5 14l-4 -14h-16l13 -9l-5 -15l12 9l13 -9zM142 589h-16l13 -9l-5 -15l12 9l13 -9l-5 15l12 9h-15l-5 14zM315 589h-15l13 -9l-5 -15l12 9l13 -9l-5 15l12 9h-15l-5 14zM415 580l12 9h-15
l-5 14l-5 -14h-15l12 -9l-4 -15l12 9l13 -9zM67 492l13 10h-16l-5 14l-4 -14h-16l13 -10l-5 -14l12 9l13 -9zM415 492l12 10h-15l-5 14l-5 -14h-15l12 -10l-4 -14l12 9l13 -9zM67 405l13 9h-16l-5 15l-4 -15h-16l13 -9l-5 -14l12 9l13 -9zM154 405l12 9h-15l-5 15l-4 -15
h-16l13 -9l-5 -14l12 9l13 -9zM328 405l12 9h-15l-5 15l-5 -15h-15l13 -9l-5 -14l12 9l13 -9zM415 405l12 9h-15l-5 15l-5 -15h-15l12 -9l-4 -14l12 9l13 -9zM115 347l-4 15l12 9h-15l-5 14l-5 -14h-15l12 -9l-4 -15l12 9zM376 347l-5 15l13 9h-16l-4 14l-5 -14h-15l12 -9
l-5 -15l13 9zM72 303l-5 15l13 9h-16l-5 15l-4 -15h-16l13 -9l-5 -15l12 9zM159 303l-5 15l12 9h-15l-5 15l-4 -15h-16l13 -9l-5 -15l12 9zM246 303l-5 15l12 9h-15l-5 15l-4 -15h-16l13 -9l-5 -15l12 9zM333 303l-5 15l12 9h-15l-5 15l-5 -15h-15l13 -9l-5 -15l12 9z
M420 303l-5 15l12 9h-15l-5 15l-5 -15h-15l12 -9l-4 -15l12 9zM20 189v48h977v-48h-977zM20 95v47h978v-47h-978zM20 0v47h978v-47h-978z" />
    <glyph glyph-name=".null" horiz-adv-x="0" 
 />
    <glyph glyph-name="nonmarkingreturn" horiz-adv-x="333" 
 />
    <glyph glyph-name="CR" unicode="&#xd;" horiz-adv-x="0" 
 />
    <glyph glyph-name="space" unicode=" " horiz-adv-x="443" 
 />
    <glyph glyph-name="exclam" unicode="!" horiz-adv-x="336" 
d="M147 193l-14 532h70l-14 -532h-42zM208 99v-99h-80v99h80z" />
    <glyph glyph-name="quotedbl" unicode="&#x22;" horiz-adv-x="389" 
d="M109 478l-11 232h59l-11 -232h-37zM243 478l-11 232h59l-11 -232h-37z" />
    <glyph glyph-name="numbersign" unicode="#" horiz-adv-x="823" 
d="M799 442h-182l-37 -189h185v-40h-193l-41 -213h-50l41 213h-278l-41 -213h-50l41 213h-170v40h178l37 189h-175v40h183l41 211h50l-41 -211h278l41 211h50l-41 -211h174v-40zM530 253l37 189h-278l-37 -189h278z" />
    <glyph glyph-name="dollar" unicode="$" horiz-adv-x="864" 
d="M553 373q131 -13 189 -58t58 -135q0 -98 -90 -149t-257 -51h-8v-84h-40v85q-319 15 -354 230l62 8q25 -172 292 -189v306l-88 8q-238 22 -238 183q0 88 85 137t241 51v82h40v-82q156 -5 237 -55t100 -155l-60 -11q-16 87 -81 128t-196 45v-284zM344 393l61 -6v280
q-265 -3 -265 -138q0 -61 48.5 -93t155.5 -43zM455 29q285 0 285 151q0 67 -47 100.5t-161 44.5l-87 8v-304h10z" />
    <glyph glyph-name="percent" unicode="%" horiz-adv-x="1017" 
d="M176 -19l597 743h60l-598 -743h-59zM251 353q-95 0 -153 49.5t-58 132.5q0 80 58 129.5t152 49.5q92 0 150.5 -50.5t58.5 -131.5q0 -80 -58 -129.5t-150 -49.5zM251 395q73 0 116.5 36.5t43.5 100.5q0 65 -44 102.5t-117 37.5q-74 0 -118.5 -37t-44.5 -100
q0 -66 44.5 -103t119.5 -37zM768 -16q-95 0 -152.5 49.5t-57.5 132.5q0 80 57.5 129t151.5 49q92 0 150.5 -50t58.5 -131q0 -80 -58 -129.5t-150 -49.5zM768 26q73 0 117 36.5t44 100.5t-44 102t-118 38q-73 0 -117.5 -37t-44.5 -100q0 -66 44 -103t119 -37z" />
    <glyph glyph-name="ampersand" unicode="&#x26;" horiz-adv-x="877" 
d="M806 34q30 0 57 9v-49q-25 -11 -68 -11q-88 0 -190 83q-124 -90 -287 -90q-139 0 -213.5 56t-74.5 141q0 71 46 114.5t136 83.5l22 9q-65 56 -94.5 99.5t-29.5 98.5q0 70 54 113.5t143 43.5t144 -43t55 -113q0 -63 -38.5 -113t-103.5 -78l-39 -17l283 -237
q105 100 124 261l54 -6q-16 -171 -139 -287q47 -37 83 -52.5t76 -15.5zM167 579q0 -46 25.5 -83.5t92.5 -92.5l47 20q56 25 86.5 65.5t30.5 90.5q0 52 -37 82t-106 30q-67 0 -103 -29t-36 -83zM87 178q0 -75 67.5 -114.5t167.5 -39.5q138 0 244 75l-293 249l-33 -15
q-78 -35 -115.5 -69.5t-37.5 -85.5z" />
    <glyph glyph-name="quotesingle" unicode="'" horiz-adv-x="255" 
d="M109 478l-11 232h59l-11 -232h-37z" />
    <glyph glyph-name="parenleft" unicode="(" horiz-adv-x="356" 
d="M298 -128q-110 81 -169.5 204t-59.5 251q0 125 60 244t170 199l42 -23q-214 -169 -214 -421t214 -432z" />
    <glyph glyph-name="parenright" unicode=")" horiz-adv-x="356" 
d="M58 -128l-43 22q214 180 214 432t-214 421l43 23q110 -80 169.5 -199t59.5 -244q0 -128 -59.5 -251t-169.5 -204z" />
    <glyph glyph-name="asterisk" unicode="*" horiz-adv-x="389" 
d="M355 595l-136 -35l96 -106l-39 -30l-82 121l-82 -121l-38 30l96 106l-136 35l15 46l131 -53l-10 130h48l-10 -130l131 53z" />
    <glyph glyph-name="plus" unicode="+" horiz-adv-x="694" 
d="M628 352v-46h-254v-215h-54v215h-254v46h254v204h54v-204h254z" />
    <glyph glyph-name="comma" unicode="," horiz-adv-x="280" 
d="M106 -123l-16 29q31 15 41.5 37t10.5 55v2h-42v110h82v-97q0 -56 -17.5 -87.5t-58.5 -48.5z" />
    <glyph glyph-name="hyphen" unicode="-" horiz-adv-x="620" 
d="M66 303h488v-49h-488v49z" />
    <glyph glyph-name="period" unicode="." horiz-adv-x="276" 
d="M178 103v-103h-80v103h80z" />
    <glyph glyph-name="slash" unicode="/" horiz-adv-x="618" 
d="M105 -117h-57l465 877h58z" />
    <glyph glyph-name="zero" unicode="0" horiz-adv-x="848" 
d="M424 -24q-164 0 -262 102.5t-98 271.5q0 166 98 267.5t262 101.5t261.5 -101.5t97.5 -268.5q0 -168 -98 -270.5t-261 -102.5zM424 23q139 0 221 88.5t82 237.5q0 148 -82 235.5t-221 87.5t-221.5 -87.5t-82.5 -234.5q0 -149 82.5 -238t221.5 -89z" />
    <glyph glyph-name="one" unicode="1" horiz-adv-x="455" 
d="M255 0v590q-26 -40 -79.5 -65t-121.5 -25h-26v50h16q80 0 138.5 40t79.5 105h47v-695h-54z" />
    <glyph glyph-name="two" unicode="2" horiz-adv-x="777" 
d="M49 0v52q171 74 280 128t183 109q65 47 92.5 93t27.5 106q0 76 -64 127.5t-189 51.5q-112 0 -184.5 -47.5t-72.5 -139.5q0 -25 4 -41l-58 5q-4 17 -4 44q0 102 88.5 164.5t226.5 62.5q150 0 231 -64.5t81 -162.5q0 -77 -40.5 -132t-110.5 -102q-71 -51 -184.5 -109.5
t-208.5 -93.5h569v-51h-667z" />
    <glyph glyph-name="three" unicode="3" horiz-adv-x="810" 
d="M404 -20q-151 0 -240 61.5t-101 162.5l55 6q13 -83 85.5 -132.5t201.5 -49.5t203.5 43t74.5 122q0 70 -62.5 106.5t-183.5 36.5h-90v47h83q100 0 164 34t64 105q0 70 -67.5 107.5t-192.5 37.5q-127 0 -196.5 -51.5t-75.5 -133.5l-53 9q6 99 91 161.5t237 62.5
q150 0 231.5 -52t81.5 -141q0 -72 -54 -111t-133 -47q95 -6 153.5 -49.5t58.5 -121.5q0 -94 -86 -153.5t-249 -59.5z" />
    <glyph glyph-name="four" unicode="4" horiz-adv-x="778" 
d="M765 191h-175v-191h-54v191h-516v40l503 464h67v-459h175v-45zM536 569q0 44 2 80h-2q-16 -22 -64 -66l-306 -285q-43 -40 -74 -62h444v333z" />
    <glyph glyph-name="five" unicode="5" horiz-adv-x="769" 
d="M389 -20q-132 0 -218.5 52.5t-109.5 145.5l58 9q20 -75 90.5 -117t179.5 -42q126 0 198 53.5t72 149.5t-67.5 147t-188.5 51q-100 0 -168.5 -36.5t-98.5 -104.5l-56 5l44 402h554v-49h-511l-32 -293q35 59 109.5 91t176.5 32q139 0 216.5 -63.5t77.5 -181.5
q0 -115 -88.5 -183t-237.5 -68z" />
    <glyph glyph-name="six" unicode="6" horiz-adv-x="810" 
d="M433 468q148 0 231 -64t83 -177q0 -111 -88.5 -179t-231.5 -68q-177 0 -270 94.5t-93 274.5q0 176 92 271t262 95q130 0 213.5 -50t102.5 -141l-56 -12q-45 155 -261 155q-146 0 -222.5 -81t-76.5 -237v-1q0 -30 3 -57q27 83 109.5 130t202.5 47zM427 28q122 0 193 53.5
t71 145.5q0 93 -68 143t-195 50q-120 0 -196.5 -52t-97.5 -146q55 -194 293 -194z" />
    <glyph glyph-name="seven" unicode="7" horiz-adv-x="690" 
d="M240 0v16q0 179 94.5 340t261.5 290h-577v49h651v-46q-364 -261 -364 -631v-18h-66z" />
    <glyph glyph-name="eight" unicode="8" horiz-adv-x="809" 
d="M526 370q116 -22 169 -65.5t53 -117.5q0 -98 -90 -152.5t-251 -54.5q-165 0 -255.5 53t-90.5 148q0 147 216 181q-100 20 -147 61.5t-47 111.5q0 83 86.5 131.5t234.5 48.5t234.5 -49t86.5 -132q0 -139 -199 -164zM140 535q0 -57 46.5 -90.5t145.5 -47.5l108 -15
q130 26 179.5 58.5t49.5 93.5q0 65 -70.5 101.5t-194.5 36.5t-194 -36.5t-70 -100.5zM407 28q135 0 210 41.5t75 116.5q0 62 -52 97.5t-165 50.5l-111 14q-128 -20 -187 -59.5t-59 -105.5q0 -73 76 -114t213 -41z" />
    <glyph glyph-name="nine" unicode="9" horiz-adv-x="810" 
d="M391 715q171 0 263 -89t92 -256q0 -190 -89 -290t-263 -100q-129 0 -212.5 53.5t-102.5 149.5l56 11q40 -166 260 -166q298 0 298 341v2q0 23 -1 35q-32 -65 -115 -107.5t-202 -42.5q-144 0 -228 58.5t-84 169.5q0 106 89.5 168.5t238.5 62.5zM385 303q116 0 195.5 46
t101.5 124q-47 194 -288 194q-128 0 -201 -47.5t-73 -135.5q0 -90 70 -135.5t195 -45.5z" />
    <glyph glyph-name="colon" unicode=":" horiz-adv-x="276" 
d="M178 500v-103h-80v103h80zM178 103v-103h-80v103h80z" />
    <glyph glyph-name="semicolon" unicode=";" horiz-adv-x="289" 
d="M191 500v-103h-80v103h80zM116 -123l-16 29q52 25 52 92v2h-43v110h82v-97q0 -56 -17 -87.5t-58 -48.5z" />
    <glyph glyph-name="less" unicode="&#x3c;" 
d="M656 85l-556 219v44l556 219v-52l-494 -188l494 -189v-53z" />
    <glyph glyph-name="equal" unicode="=" horiz-adv-x="694" 
d="M66 394v49h562v-49h-562zM66 215v49h562v-49h-562z" />
    <glyph glyph-name="greater" unicode="&#x3e;" 
d="M147 85v53l494 189l-494 188v52l557 -219v-44z" />
    <glyph glyph-name="question" unicode="?" horiz-adv-x="712" 
d="M311 163v31q0 101 105 149l89 40q51 23 78.5 57t27.5 90q0 67 -68 111.5t-180 44.5q-122 0 -194.5 -46.5t-72.5 -132.5q0 -27 5 -41l-60 6q-5 15 -5 40q0 103 87 162.5t240 59.5q144 0 226 -56.5t82 -144.5q0 -73 -36 -116.5t-100 -71.5l-86 -40q-43 -20 -61 -47t-18 -68
v-27h-59zM303 0v100h76v-100h-76z" />
    <glyph glyph-name="at" unicode="@" horiz-adv-x="1052" 
d="M509 -106q-221 0 -346 101t-125 281q0 174 135.5 281t355.5 107q218 0 351 -101t133 -267q0 -103 -45 -162.5t-122 -59.5q-52 0 -85.5 26.5t-41.5 75.5q-31 -53 -100.5 -83.5t-161.5 -30.5q-86 0 -138.5 33.5t-52.5 88.5q0 58 41 85.5t142 35.5l265 20v8q0 70 -47 103.5
t-146 33.5q-79 0 -127.5 -28t-55.5 -77h-54q4 64 72 106t168 42q239 0 239 -181v-111q0 -54 21.5 -79.5t67.5 -25.5q53 0 83.5 47.5t30.5 130.5q0 151 -118 240t-318 89q-201 0 -322 -95t-121 -252q0 -161 113.5 -250.5t316.5 -89.5q63 0 134.5 12.5t119.5 31.5l14 -38
q-104 -48 -276 -48zM472 103q100 0 171 43.5t71 104.5v38l-269 -21q-70 -6 -98 -24t-28 -57q0 -40 40.5 -62t112.5 -22z" />
    <glyph glyph-name="A" unicode="A" horiz-adv-x="900" 
d="M811 0l-101 185h-520l-101 -185h-64l396 710h58l396 -710h-64zM217 235h466l-196 359q-14 26 -36 70h-2q-22 -44 -36 -70z" />
    <glyph glyph-name="B" unicode="B" horiz-adv-x="928" 
d="M692 367q81 -9 119.5 -55t38.5 -117q0 -89 -59 -142t-190 -53h-474v710h474q121 0 176 -52t55 -128q0 -62 -35 -107t-105 -56zM596 659h-409v-269h414q172 0 172 138q0 56 -39.5 93.5t-137.5 37.5zM598 51q193 0 193 145q0 143 -186 143h-418v-288h411z" />
    <glyph glyph-name="C" unicode="C" horiz-adv-x="937" 
d="M477 -24q-200 0 -319.5 104t-119.5 276q0 169 122.5 273.5t321.5 104.5q162 0 269 -70t135 -194l-63 -5q-24 103 -115 161t-229 58q-173 0 -276.5 -89.5t-103.5 -238.5t105 -239.5t277 -90.5q133 0 223 53.5t123 151.5l59 -7q-39 -119 -145 -183.5t-264 -64.5z" />
    <glyph glyph-name="D" unicode="D" horiz-adv-x="975" 
d="M127 0v710h391q189 0 303.5 -90t114.5 -255q0 -167 -118.5 -266t-301.5 -99h-389zM187 51h333q161 0 258 83.5t97 230.5q0 145 -98.5 219.5t-263.5 74.5h-326v-608z" />
    <glyph glyph-name="E" unicode="E" horiz-adv-x="885" 
d="M187 50h613v-50h-672v710h665v-50h-606v-271h589v-50h-589v-289z" />
    <glyph glyph-name="F" unicode="F" horiz-adv-x="849" 
d="M793 660h-606v-272h589v-50h-589v-338h-59v710h665v-50z" />
    <glyph glyph-name="G" unicode="G" horiz-adv-x="976" 
d="M467 -24q-195 0 -312 106t-117 274q0 169 121.5 273.5t323.5 104.5q166 0 267.5 -66.5t129.5 -162.5l-61 -10q-23 79 -110.5 134t-230.5 55q-172 0 -276 -90.5t-104 -238.5q0 -144 101.5 -236.5t275.5 -92.5q73 0 133.5 16t100.5 42t68 59.5t40.5 67.5t12.5 67v35h-355
v51h409v-364h-47l-5 157q-45 -86 -139 -133.5t-226 -47.5z" />
    <glyph glyph-name="H" unicode="H" horiz-adv-x="998" 
d="M870 710v-710h-60v338h-623v-338h-59v710h59v-321h623v321h60z" />
    <glyph glyph-name="I" unicode="I" horiz-adv-x="315" 
d="M187 0h-59v710h59v-710z" />
    <glyph glyph-name="J" unicode="J" horiz-adv-x="494" 
d="M395 229q0 -244 -250 -244q-72 0 -121 9v56q62 -10 121 -10q91 0 141 43t50 148v479h59v-481z" />
    <glyph glyph-name="K" unicode="K" horiz-adv-x="903" 
d="M790 0l-318 408l-285 -232v-176h-59v710h59v-469l573 469h84l-325 -264l347 -446h-76z" />
    <glyph glyph-name="L" unicode="L" horiz-adv-x="796" 
d="M128 0v710h59v-658h573v-52h-632z" />
    <glyph glyph-name="M" unicode="M" horiz-adv-x="1172" 
d="M128 0v710h90l348 -613q12 -23 17 -38h3q5 15 17 38l351 613h91v-710h-55v610q0 40 1 52h-2q-4 -7 -14 -25t-13 -24l-350 -613h-56l-349 613q-12 25 -23 49h-3q1 -11 1 -52v-610h-54z" />
    <glyph glyph-name="N" unicode="N" horiz-adv-x="994" 
d="M127 0v710h73l559 -582q35 -37 52 -65h2q-1 26 -1 77v570h55v-710h-64l-568 590q-31 32 -51 63h-2v-73v-580h-55z" />
    <glyph glyph-name="O" unicode="O" horiz-adv-x="971" 
d="M486 -24q-195 0 -321.5 103.5t-126.5 275.5q0 173 126.5 276t321.5 103q194 0 320.5 -103t126.5 -276q0 -172 -126.5 -275.5t-320.5 -103.5zM486 26q167 0 276 89.5t109 239.5t-109 239.5t-276 89.5q-168 0 -277 -89.5t-109 -239.5q0 -149 109 -239t277 -90z" />
    <glyph glyph-name="P" unicode="P" horiz-adv-x="859" 
d="M585 710q113 0 177.5 -55t64.5 -151q0 -98 -68 -156t-184 -58h-388v-290h-60v710h458zM582 341q85 0 134.5 44t49.5 120q0 73 -49.5 113.5t-139.5 40.5h-390v-318h395z" />
    <glyph glyph-name="Q" unicode="Q" horiz-adv-x="971" 
d="M652 -1q67 -79 179 -79q37 0 74 6v-54q-40 -7 -70 -7q-160 0 -239 121q-50 -10 -110 -10q-195 0 -321.5 103.5t-126.5 275.5q0 173 126.5 276t321.5 103q194 0 320.5 -103t126.5 -276q0 -131 -76 -224t-205 -132zM100 355q0 -149 109 -239t277 -90q167 0 276 89.5
t109 239.5t-109 239.5t-276 89.5q-168 0 -277 -89.5t-109 -239.5z" />
    <glyph glyph-name="R" unicode="R" horiz-adv-x="907" 
d="M775 0l-218 309h-370v-309h-60v710h463q120 0 177.5 -55.5t57.5 -142.5q0 -77 -50.5 -131t-149.5 -65l223 -316h-73zM187 659v-300h396q90 0 135.5 43t45.5 110t-44 107t-136 40h-397z" />
    <glyph glyph-name="S" unicode="S" horiz-adv-x="873" 
d="M458 -24q-362 0 -407 248l63 7q17 -100 104.5 -152.5t241.5 -52.5q145 0 216.5 37.5t71.5 117.5q0 72 -46.5 106t-161.5 44l-224 21q-117 11 -173.5 55.5t-56.5 128.5q0 96 87.5 147t248.5 51q332 0 376 -225l-62 -11q-18 95 -94 140.5t-220 45.5q-132 0 -203 -37
t-71 -108q0 -64 45 -95t149 -42l218 -20q133 -13 191 -58.5t58 -137.5q0 -210 -351 -210z" />
    <glyph glyph-name="T" unicode="T" horiz-adv-x="758" 
d="M748 710v-50h-340v-660h-59v660h-339v50h738z" />
    <glyph glyph-name="U" unicode="U" horiz-adv-x="944" 
d="M99 710h59v-402q0 -125 83 -203t231 -78q147 0 230.5 78t83.5 203v402h59v-403q0 -149 -98.5 -240t-274.5 -91q-177 0 -275 91t-98 240v403z" />
    <glyph glyph-name="V" unicode="V" horiz-adv-x="832" 
d="M383 0l-380 710h66l317 -591q27 -57 29 -62h2q6 17 29 62l317 591h66l-381 -710h-65z" />
    <glyph glyph-name="W" unicode="W" horiz-adv-x="1279" 
d="M291 0l-264 710h63l222 -615q15 -39 15 -41h2q0 2 15 41l266 615h58l266 -615q15 -34 16 -41h2q0 3 2.5 9.5t6 16t5.5 15.5l223 615h63l-264 -710h-71l-260 603q-15 37 -16 48h-3q-3 -18 -17 -48l-259 -603h-71z" />
    <glyph glyph-name="X" unicode="X" horiz-adv-x="853" 
d="M15 0l373 367l-351 343h80l275 -272q25 -25 34 -36h2q6 8 34 36l273 272h80l-348 -341l371 -369h-83l-289 295q-32 32 -39 41h-2q-3 -3 -39 -42l-293 -294h-78z" />
    <glyph glyph-name="Y" unicode="Y" horiz-adv-x="816" 
d="M376 0v267l-373 443h75l282 -336q43 -51 46 -59h2q3 9 45 59l285 336h75l-377 -443v-267h-60z" />
    <glyph glyph-name="Z" unicode="Z" horiz-adv-x="828" 
d="M56 48l631 612h-607v50h690v-47l-633 -613h655v-50h-736v48z" />
    <glyph glyph-name="bracketleft" unicode="[" horiz-adv-x="399" 
d="M128 -120v883h256v-44h-205v-795h205v-44h-256z" />
    <glyph glyph-name="backslash" unicode="\" horiz-adv-x="618" 
d="M513 -117l-465 877h57l466 -877h-58z" />
    <glyph glyph-name="bracketright" unicode="]" horiz-adv-x="399" 
d="M271 -120h-256v44h205v795h-205v44h256v-883z" />
    <glyph glyph-name="asciicircum" unicode="^" horiz-adv-x="550" 
d="M255 709h40l235 -280h-56l-199 237l-199 -237h-56z" />
    <glyph glyph-name="underscore" unicode="_" horiz-adv-x="634" 
d="M0 -100h634v-41h-634v41z" />
    <glyph glyph-name="grave" unicode="`" horiz-adv-x="600" 
d="M242 580h-63l-175 150h73z" />
    <glyph glyph-name="a" unicode="a" horiz-adv-x="801" 
d="M318 -19q-113 0 -180.5 39t-67.5 108q0 64 46 101q53 44 205 54l324 20v11q0 161 -239 161q-231 0 -257 -135h-58q12 84 96.5 131.5t218.5 47.5q293 0 293 -208v-128q0 -121 10 -183h-56q-7 77 -6 127q-81 -146 -329 -146zM333 24q136 0 224.5 53.5t88.5 137.5v48
l-312 -19q-118 -8 -163 -34.5t-45 -81.5q0 -51 55 -77.5t152 -26.5z" />
    <glyph glyph-name="b" unicode="b" horiz-adv-x="859" 
d="M474 -19q-220 0 -298 146l-7 -127h-47v725h54v-360q34 71 115 112.5t187 41.5q151 0 239 -73.5t88 -194.5q0 -120 -91 -195t-240 -75zM461 28q134 0 210.5 60t76.5 163q0 102 -74 161.5t-206 59.5q-129 0 -211.5 -61.5t-82.5 -152.5v-15q0 -92 79.5 -153.5t207.5 -61.5z
" />
    <glyph glyph-name="c" unicode="c" horiz-adv-x="760" 
d="M383 -19q-155 0 -246.5 72.5t-91.5 196.5q0 125 92 197t249 72q269 0 316 -186l-59 -6q-40 146 -260 146q-134 0 -208 -58t-74 -164q0 -105 75.5 -164.5t208.5 -59.5q214 0 260 143l56 -8q-23 -87 -106 -134t-212 -47z" />
    <glyph glyph-name="d" unicode="d" horiz-adv-x="859" 
d="M383 -19q-149 0 -239 74.5t-90 194.5q0 121 88.5 195t241.5 74q106 0 183 -39t116 -112v357h54v-725h-53v130q-39 -71 -117 -110t-184 -39zM395 28q128 0 208.5 61t80.5 152v14q0 93 -82.5 155.5t-212.5 62.5q-132 0 -205.5 -59.5t-73.5 -163.5q0 -102 76.5 -162
t208.5 -60z" />
    <glyph glyph-name="e" unicode="e" horiz-adv-x="771" 
d="M709 264v-24h-608q3 -100 77 -156.5t205 -56.5q214 2 273 132l47 -19q-75 -159 -320 -159q-156 0 -247 71.5t-91 196.5q0 128 90 199t241 71q155 0 244 -67.5t89 -187.5zM101 283h552q0 90 -77 142t-200 52q-120 0 -195.5 -53t-79.5 -141z" />
    <glyph glyph-name="f" unicode="f" horiz-adv-x="493" 
d="M475 500v-45h-234v-455h-53v455h-158v45h158v55q0 92 47 136t145 44q50 0 95 -10v-47q-44 9 -95 9q-73 0 -106 -30.5t-33 -99.5v-57h234z" />
    <glyph glyph-name="g" unicode="g" horiz-adv-x="782" 
d="M706 525q-85 0 -108 -55q72 -47 72 -126q0 -82 -76 -129t-205 -47q-103 0 -172 30q-38 -7 -58 -24.5t-20 -41.5q0 -60 97 -60l317 -1q182 0 182 -127q0 -79 -82 -118.5t-261 -39.5q-180 0 -258 35t-78 108q0 78 100 106q-70 22 -70 84q0 73 100 94q-79 49 -79 131
t76 128.5t206 46.5q109 0 180 -33q12 42 49.5 64t89.5 22q18 0 29 -2v-47q-16 2 -31 2zM389 210q104 0 165 35t61 99q0 65 -60.5 99t-165.5 34t-166 -34t-61 -99q0 -64 61.5 -99t165.5 -35zM545 24h-309q-13 0 -35 2q-93 -22 -93 -91q0 -54 66.5 -79.5t216.5 -25.5
q291 0 291 113q0 42 -32.5 61.5t-104.5 19.5z" />
    <glyph glyph-name="h" unicode="h" horiz-adv-x="853" 
d="M123 0v725h53v-371q35 80 109.5 122.5t181.5 42.5q143 0 217.5 -74t74.5 -216v-229h-54v223q0 122 -64 185.5t-186 63.5q-125 0 -202 -65.5t-77 -172.5v-234h-53z" />
    <glyph glyph-name="i" unicode="i" horiz-adv-x="289" 
d="M112 587v117h64v-117h-64zM118 0v500h53v-500h-53z" />
    <glyph glyph-name="j" unicode="j" horiz-adv-x="302" 
d="M123 587v117h64v-117h-64zM27 -211q-52 0 -78 6v47q42 -5 80 -5q102 0 102 125v538h53v-547q0 -76 -39.5 -120t-117.5 -44z" />
    <glyph glyph-name="k" unicode="k" horiz-adv-x="755" 
d="M644 0l-247 296l-221 -147v-149h-53v725h53v-522l434 297h83l-251 -174l272 -326h-70z" />
    <glyph glyph-name="l" unicode="l" horiz-adv-x="299" 
d="M176 725v-725h-53v725h53z" />
    <glyph glyph-name="m" unicode="m" horiz-adv-x="1243" 
d="M118 500h53v-142q25 79 87 120t154 41q96 0 156.5 -42t79.5 -121q29 78 94 120.5t156 42.5q252 0 252 -267v-252h-54v249q0 223 -208 223q-102 0 -164.5 -59.5t-62.5 -155.5v-257h-54v256q0 216 -206 216q-103 0 -166.5 -64.5t-63.5 -168.5v-239h-53v500z" />
    <glyph glyph-name="n" unicode="n" horiz-adv-x="848" 
d="M118 0v500h53v-146q70 165 294 165q141 0 215 -69.5t74 -202.5v-247h-54v234q0 238 -246 238q-129 0 -206 -64.5t-77 -173.5v-234h-53z" />
    <glyph glyph-name="o" unicode="o" horiz-adv-x="773" 
d="M387 -19q-154 0 -248 73.5t-94 195.5t94 195.5t248 73.5q153 0 247 -73.5t94 -195.5t-94 -195.5t-247 -73.5zM387 27q129 0 207 60.5t78 162.5t-78 162.5t-207 60.5q-130 0 -208 -60.5t-78 -162.5t78 -162.5t208 -60.5z" />
    <glyph glyph-name="p" unicode="p" horiz-adv-x="854" 
d="M117 -195v695h54v-136q34 72 114 113.5t191 41.5q148 0 236 -73t88 -197q0 -120 -91 -194t-237 -74q-105 0 -186 39.5t-115 105.5v-321h-54zM460 28q130 0 207 59.5t77 161.5q0 104 -75 163.5t-203 59.5q-131 0 -213.5 -61t-82.5 -155v-15q0 -94 80.5 -153.5t209.5 -59.5
z" />
    <glyph glyph-name="q" unicode="q" horiz-adv-x="854" 
d="M683 -195v322q-33 -66 -113.5 -106t-187.5 -40q-148 0 -238 75t-90 195q0 123 88.5 195.5t234.5 72.5q112 0 193 -42t114 -113l8 136h45v-695h-54zM395 28q134 0 211.5 61.5t77.5 153.5v15q0 90 -81 152t-216 62q-123 0 -200 -57.5t-77 -163.5q0 -104 78 -163.5
t207 -59.5z" />
    <glyph glyph-name="r" unicode="r" horiz-adv-x="489" 
d="M168 320q22 91 83 143t149 52q35 0 68 -6v-52q-34 7 -67 7q-99 0 -158 -62q-72 -75 -72 -221v-181h-53v500h50v-180z" />
    <glyph glyph-name="s" unicode="s" horiz-adv-x="731" 
d="M392 -19q-272 0 -335 157l50 20q52 -133 292 -133q106 0 161.5 29t55.5 84q0 38 -26 59t-94 27l-251 19q-85 7 -125.5 38t-40.5 91q0 69 71 108t198 39q258 0 313 -143l-52 -18q-27 59 -89 88t-177 29q-210 0 -210 -101q0 -76 119 -85l252 -19q91 -8 128 -40t37 -89
q0 -76 -68.5 -118t-208.5 -42z" />
    <glyph glyph-name="t" unicode="t" horiz-adv-x="528" 
d="M21 455v45h159v134l54 23v-157h249v-45h-249v-288q0 -70 36.5 -100.5t105.5 -30.5q51 0 108 13v-47q-46 -16 -114 -16q-190 0 -190 177v292h-159z" />
    <glyph glyph-name="u" unicode="u" horiz-adv-x="839" 
d="M376 -19q-282 0 -282 269v250h53v-248q0 -118 65 -171.5t171 -53.5q137 0 210.5 70.5t73.5 170.5v232h54v-500h-53v153q-32 -84 -107.5 -128t-184.5 -44z" />
    <glyph glyph-name="v" unicode="v" horiz-adv-x="707" 
d="M324 0l-316 500h61l257 -410q13 -19 27 -44h2q10 20 26 44l257 410h62l-317 -500h-59z" />
    <glyph glyph-name="w" unicode="w" horiz-adv-x="1112" 
d="M262 0l-239 500h57l191 -400l9 -21q9 -21 12 -31h3q5 14 24 52l207 400h60l207 -400q19 -38 24 -52h2q3 9 11.5 27.5t10.5 24.5l191 400h57l-239 -500h-63l-210 407q-10 17 -20 46h-2q-10 -29 -20 -46l-210 -407h-63z" />
    <glyph glyph-name="x" unicode="x" horiz-adv-x="694" 
d="M22 0l288 257l-274 243h72l192 -171q32 -29 46 -46h1q25 26 47 46l191 171h73l-275 -243l289 -257h-75l-203 180q-31 27 -48 46h-1q-15 -16 -49 -47l-203 -179h-71z" />
    <glyph glyph-name="y" unicode="y" horiz-adv-x="692" 
d="M95 -214q-30 0 -55 4v47q26 -3 52 -3q86 0 135.5 36.5t85.5 102.5l12 22l-317 505h63l242 -391q6 -9 12.5 -20.5t14.5 -26t12 -22.5h2q24 45 37 67l233 393h60l-318 -532q-56 -98 -115.5 -140t-155.5 -42z" />
    <glyph glyph-name="z" unicode="z" horiz-adv-x="734" 
d="M67 46l518 409h-499v45h578v-44l-521 -411h536v-45h-612v46z" />
    <glyph glyph-name="braceleft" unicode="{" horiz-adv-x="365" 
d="M304 -121q-86 0 -135 28t-49 105v210q0 45 -19 65t-88 21v42q69 1 87.5 19t18.5 63v180q0 87 48.5 120t134.5 33h47v-45h-42q-67 0 -101.5 -22t-34.5 -92v-176q0 -41 -17 -65.5t-62 -34.5q79 -21 79 -106v-197q0 -35 10.5 -57t32.5 -31.5t42.5 -12t53.5 -2.5h40v-45h-46z
" />
    <glyph glyph-name="bar" unicode="|" horiz-adv-x="292" 
d="M123 -117v877h47v-877h-47z" />
    <glyph glyph-name="braceright" unicode="}" horiz-adv-x="365" 
d="M62 -121h-47v45h41q33 0 53.5 2.5t42.5 12t32.5 31.5t10.5 57v197q0 85 79 106q-45 10 -62 34.5t-17 65.5v176q0 37 -10 60.5t-30.5 35t-42 15t-53.5 3.5h-42v45h47q86 0 134 -33t48 -120v-180q0 -45 18.5 -63t88.5 -19v-42q-69 -1 -88.5 -21t-19.5 -65v-210
q0 -40 -14 -67.5t-41 -41t-57 -19t-71 -5.5z" />
    <glyph glyph-name="asciitilde" unicode="~" 
d="M518 229q-37 0 -70.5 15.5t-54 33.5t-49 33.5t-56.5 15.5q-89 0 -105 -92l-43 3q7 64 47 96t100 32q37 0 70.5 -15.5t54.5 -33.5t49.5 -33.5t57.5 -15.5q86 0 104 97l40 -6q-9 -66 -48.5 -98t-96.5 -32z" />
    <glyph glyph-name="uni00A0" unicode="&#xa0;" horiz-adv-x="443" 
 />
    <glyph glyph-name="exclamdown" unicode="&#xa1;" horiz-adv-x="336" 
d="M208 481h-80v99h80v-99zM147 387h42l14 -532h-70z" />
    <glyph glyph-name="cent" unicode="&#xa2;" horiz-adv-x="771" 
d="M413 25q203 8 245 144l54 -7q-23 -83 -101 -129.5t-198 -51.5v-75h-40v75q-152 5 -240 77t-88 193q0 120 88 191.5t240 76.5v73h40v-73q254 -8 300 -186l-57 -6q-36 139 -243 148v-450zM101 251q0 -103 72 -162.5t200 -63.5v450q-129 -4 -200.5 -62.5t-71.5 -161.5z" />
    <glyph glyph-name="sterling" unicode="&#xa3;" horiz-adv-x="821" 
d="M737 153l51 -8q-8 -79 -62 -122t-146 -43q-48 0 -153 13t-181 13q-83 0 -204 -22l-13 41q80 20 124 71t44 123q0 57 -19 123h-134v41h122q-15 60 -15 110q0 106 78 164t219 58q121 0 196 -45t92 -128l-55 -13q-13 66 -74.5 102t-159.5 36q-237 0 -237 -172q0 -55 16 -112
h315v-41h-304q17 -62 17 -113q0 -140 -129 -190q75 14 150 14q66 0 158 -11.5t147 -11.5q71 0 111.5 31.5t45.5 91.5z" />
    <glyph glyph-name="currency" unicode="&#xa4;" horiz-adv-x="705" 
d="M655 303q0 -89 -63 -150l67 -55l-30 -28l-69 56q-83 -54 -204 -54q-127 0 -209 56l-71 -59l-30 28l70 57q-62 60 -62 149q0 87 61 148l-70 58l30 27l72 -58q82 56 209 56q122 0 203 -54l71 57l30 -28l-68 -56q63 -61 63 -150zM103 303q0 -84 70 -134.5t183 -50.5
q112 0 180.5 50.5t68.5 134.5t-68.5 134.5t-180.5 50.5q-113 0 -183 -50.5t-70 -134.5z" />
    <glyph glyph-name="yen" unicode="&#xa5;" horiz-adv-x="866" 
d="M863 695l-395 -402h303v-39h-311v-82h311v-40h-311v-132h-55v132h-310v40h310v82h-310v39h302l-394 402h70l261 -265q59 -59 98 -109h2q39 50 98 109l261 265h70z" />
    <glyph glyph-name="brokenbar" unicode="&#xa6;" horiz-adv-x="292" 
d="M169 760v-378h-46v378h46zM169 261v-378h-46v378h46z" />
    <glyph glyph-name="section" unicode="&#xa7;" horiz-adv-x="723" 
d="M579 157q59 -36 59 -109q0 -83 -75.5 -128t-216.5 -45q-254 0 -295 160l51 8q34 -123 249 -123q233 0 233 122q0 45 -27.5 70t-89.5 36l-231 38q-99 17 -139.5 48t-40.5 92q0 83 98 118q-76 32 -76 114q0 76 71 116.5t200 40.5q122 0 193.5 -37.5t88.5 -108.5l-53 -11
q-20 59 -75.5 86t-157.5 27q-214 0 -214 -111q0 -41 28.5 -63t97.5 -33l233 -38q169 -28 169 -144q0 -81 -80 -125zM246 230l228 -37q30 -5 59 -14q73 30 73 97q0 44 -28.5 69t-95.5 37l-235 38q-4 0 -12 2t-12 2q-114 -21 -114 -96q0 -40 30.5 -62.5t106.5 -35.5z" />
    <glyph glyph-name="dieresis" unicode="&#xa8;" horiz-adv-x="600" 
d="M54 592v113h69v-113h-69zM366 592v113h69v-113h-69z" />
    <glyph glyph-name="copyright" unicode="&#xa9;" horiz-adv-x="966" 
d="M482 -24q-201 0 -322.5 101.5t-121.5 277.5t121.5 277.5t322.5 101.5t322.5 -101.5t121.5 -277.5t-121.5 -277.5t-322.5 -101.5zM482 8q182 0 294 93.5t112 253.5t-112 253.5t-294 93.5t-294 -93.5t-112 -253.5t112 -253.5t294 -93.5zM488 142q-116 0 -185 57.5
t-69 154.5q0 98 69.5 156t185.5 58q97 0 161.5 -38t69.5 -97l-47 -5q-7 45 -58 73t-127 28q-94 0 -149.5 -47.5t-55.5 -127.5q0 -79 56 -126t150 -47q70 0 122 27t64 69l47 -3q-14 -58 -79 -95t-155 -37z" />
    <glyph glyph-name="ordfeminine" unicode="&#xaa;" horiz-adv-x="615" 
d="M248 296q-84 0 -134 28.5t-50 79.5q0 58 47.5 82.5t134.5 30.5l230 14v7q0 59 -40 88t-126 29q-160 0 -177 -96h-55q10 62 72.5 96.5t159.5 34.5q218 0 218 -157v-94q0 -84 7 -129h-52q-5 55 -4 91q-25 -49 -85.5 -77t-145.5 -28zM263 329q92 0 153 39t61 97v39l-214 -15
q-83 -5 -115 -24.5t-32 -57.5q0 -37 39.5 -57.5t107.5 -20.5z" />
    <glyph glyph-name="guillemotleft" unicode="&#xab;" horiz-adv-x="595" 
d="M278 67l-240 208l244 207h67l-240 -206l237 -209h-68zM498 67l-241 208l244 207h67l-240 -206l237 -209h-67z" />
    <glyph glyph-name="logicalnot" unicode="&#xac;" 
d="M120 359h555v-228h-51v178h-504v50z" />
    <glyph glyph-name="registered" unicode="&#xae;" horiz-adv-x="966" 
d="M482 734q201 0 322.5 -101.5t121.5 -277.5t-121.5 -277.5t-322.5 -101.5t-322.5 101.5t-121.5 277.5t121.5 277.5t322.5 101.5zM482 8q182 0 294 93.5t112 253.5t-112 253.5t-294 93.5t-294 -93.5t-112 -253.5t112 -253.5t294 -93.5zM714 446q0 -96 -111 -116l125 -174
h-55l-120 172h-210v-172h-46v406h266q74 0 112.5 -30t38.5 -86zM343 525v-161h211q113 0 113 82q0 79 -106 79h-218z" />
    <glyph glyph-name="macron" unicode="&#xaf;" horiz-adv-x="600" 
d="M50 621v40h440v-40h-440z" />
    <glyph glyph-name="degree" unicode="&#xb0;" horiz-adv-x="491" 
d="M246 316q-87 0 -144.5 56t-57.5 145q0 88 57.5 144t144.5 56q86 0 143.5 -56t57.5 -144q0 -89 -57 -145t-144 -56zM246 361q66 0 108.5 43.5t42.5 112.5q0 68 -42.5 111.5t-108.5 43.5q-67 0 -109.5 -43.5t-42.5 -111.5q0 -69 43 -112.5t109 -43.5z" />
    <glyph glyph-name="plusminus" unicode="&#xb1;" 
d="M428 352h254v-46h-254v-174h-53v174h-254v46h254v175h53v-175zM121 0v50h561v-50h-561z" />
    <glyph glyph-name="acute" unicode="&#xb4;" horiz-adv-x="600" 
d="M48 580l166 150h73l-176 -150h-63z" />
    <glyph glyph-name="uni00B5" unicode="&#xb5;" horiz-adv-x="863" 
d="M691 500h54v-500h-53v153q-31 -84 -106.5 -128t-185.5 -44q-165 0 -234 94v-270h-48v695h53v-248q0 -118 65 -171.5t171 -53.5q137 0 210.5 70.5t73.5 170.5v232z" />
    <glyph glyph-name="paragraph" unicode="&#xb6;" horiz-adv-x="903" 
d="M377 361q-314 0 -314 178q0 91 84.5 136t234.5 45h432v-39h-149v-781h-48v781h-193v-781h-47v461z" />
    <glyph glyph-name="periodcentered" unicode="&#xb7;" horiz-adv-x="276" 
d="M178 396v-103h-80v103h80z" />
    <glyph glyph-name="cedilla" unicode="&#xb8;" horiz-adv-x="600" 
d="M130 4h40l-52 -63q22 16 65 16q46 0 73 -19t27 -53q0 -35 -32.5 -57t-84.5 -22q-95 0 -116 60l41 6q15 -34 75 -34q72 0 72 46q0 45 -69 45q-39 0 -70 -17l-30 9z" />
    <glyph glyph-name="ordmasculine" unicode="&#xba;" horiz-adv-x="596" 
d="M298 296q-115 0 -185 53.5t-70 143.5q0 89 70 143t185 54t184.5 -54t69.5 -143q0 -90 -69 -143.5t-185 -53.5zM298 333q91 0 146.5 43.5t55.5 116.5q0 72 -55.5 115.5t-146.5 43.5t-146.5 -43.5t-55.5 -115.5q0 -73 55.5 -116.5t146.5 -43.5z" />
    <glyph glyph-name="guillemotright" unicode="&#xbb;" horiz-adv-x="595" 
d="M97 67h-68l238 209l-241 206h67l244 -207zM317 67h-68l237 209l-240 206h67l244 -207z" />
    <glyph glyph-name="onequarter" unicode="&#xbc;" horiz-adv-x="976" 
d="M96 -17l591 744h58l-590 -744h-59zM164 326v317q-38 -53 -119 -53h-17v41h10q48 0 85.5 21.5t48.5 58.5h42v-385h-50zM957 99h-115v-99h-49v99h-316v33l313 253h52v-252h115v-34zM793 347l-266 -214h266v214z" />
    <glyph glyph-name="onehalf" unicode="&#xbd;" horiz-adv-x="1029" 
d="M96 -17l591 744h58l-590 -744h-59zM164 326v317q-38 -53 -119 -53h-17v41h10q48 0 85.5 21.5t48.5 58.5h42v-385h-50zM573 0v33q17 8 51 23q54 24 80.5 36.5t67.5 33.5t60.5 35t42 33.5t31 39t8.5 40.5q0 39 -37 64t-103 25q-61 0 -103 -22t-42 -71q0 -11 1 -18l-51 3
q-1 7 -1 21q0 60 55.5 91t139.5 31q87 0 140 -30.5t53 -88.5q0 -31 -20.5 -61t-46.5 -52t-76 -49t-82 -41.5t-91 -39.5h330v-36h-407z" />
    <glyph glyph-name="threequarters" unicode="&#xbe;" horiz-adv-x="1183" 
d="M303 -17l591 744h58l-590 -744h-59zM256 312q-95 0 -151 35.5t-58 93.5l50 3q2 -44 44.5 -70.5t114.5 -26.5q70 0 114.5 21.5t44.5 64.5q0 73 -146 73h-51v36h47q138 0 138 68q0 38 -41 58.5t-108 20.5q-73 0 -112.5 -26t-41.5 -72l-50 2q2 59 56 95t149 36
q90 0 144.5 -28t54.5 -82q0 -77 -120 -87q62 -4 97.5 -28.5t35.5 -65.5q0 -57 -58 -89t-153 -32zM1164 99h-115v-99h-49v99h-316v33l313 253h52v-252h115v-34zM1000 347l-266 -214h266v214z" />
    <glyph glyph-name="questiondown" unicode="&#xbf;" horiz-adv-x="710" 
d="M407 580v-100h-75v100h75zM400 417v-31q0 -101 -106 -149l-89 -40q-51 -23 -78.5 -57t-27.5 -90q0 -67 68 -111.5t181 -44.5q121 0 194 46.5t73 132.5q0 23 -5 41l59 -6q6 -14 6 -40q0 -103 -87 -162.5t-241 -59.5q-143 0 -225 56.5t-82 144.5q0 73 36 116.5t99 71.5
l87 40q43 20 61 47t18 68v27h59z" />
    <glyph glyph-name="Agrave" unicode="&#xc0;" horiz-adv-x="900" 
d="M476 760h-68l-167 99h76zM811 0l-101 185h-520l-101 -185h-64l396 710h58l396 -710h-64zM217 235h466l-196 359q-14 26 -36 70h-2q-22 -44 -36 -70z" />
    <glyph glyph-name="Aacute" unicode="&#xc1;" horiz-adv-x="900" 
d="M651 859l-167 -99h-68l159 99h76zM811 0l-101 185h-520l-101 -185h-64l396 710h58l396 -710h-64zM217 235h466l-196 359q-14 26 -36 70h-2q-22 -44 -36 -70z" />
    <glyph glyph-name="Acircumflex" unicode="&#xc2;" horiz-adv-x="900" 
d="M450 834l-114 -74h-68l150 99h65l150 -99h-69zM811 0l-101 185h-520l-101 -185h-64l396 710h58l396 -710h-64zM217 235h466l-196 359q-14 26 -36 70h-2q-22 -44 -36 -70z" />
    <glyph glyph-name="Atilde" unicode="&#xc3;" horiz-adv-x="900" 
d="M356 822q-29 0 -48 -16t-23 -44l-42 5q6 45 36 70.5t79 25.5q46 0 100 -33.5t86 -33.5q30 0 48.5 16t22.5 45l42 -6q-6 -45 -36 -70.5t-79 -25.5q-45 0 -99.5 33.5t-86.5 33.5zM811 0l-101 185h-520l-101 -185h-64l396 710h58l396 -710h-64zM217 235h466l-196 359
q-14 26 -36 70h-2q-22 -44 -36 -70z" />
    <glyph glyph-name="Adieresis" unicode="&#xc4;" horiz-adv-x="900" 
d="M327 858v-98h-69v98h69zM643 858v-98h-70v98h70zM811 0l-101 185h-520l-101 -185h-64l396 710h58l396 -710h-64zM217 235h466l-196 359q-14 26 -36 70h-2q-22 -44 -36 -70z" />
    <glyph glyph-name="Aring" unicode="&#xc5;" horiz-adv-x="900" 
d="M449 738q-46 0 -75.5 27t-29.5 70t29.5 70t75.5 27t75 -27t29 -70t-29 -70t-75 -27zM449 898q-30 0 -47.5 -17.5t-17.5 -45.5t17.5 -46t47.5 -18t47.5 18t17.5 46q0 27 -18 45t-47 18zM811 0l-101 185h-520l-101 -185h-64l396 710h58l396 -710h-64zM217 235h466l-196 359
q-14 26 -36 70h-2q-22 -44 -36 -70z" />
    <glyph glyph-name="AE" unicode="&#xc6;" horiz-adv-x="1516" 
d="M781 50h649v-50h-708v171h-476l-169 -171h-72l710 710h708v-50h-642v-271h625v-50h-625v-289zM296 221h426v431z" />
    <glyph glyph-name="Ccedilla" unicode="&#xc7;" horiz-adv-x="937" 
d="M481 26q133 0 223 53.5t123 151.5l59 -7q-38 -115 -137.5 -179.5t-249.5 -68.5l-37 -44q22 16 65 16q46 0 73 -19t27 -53q0 -35 -32.5 -57t-84.5 -22q-95 0 -116 60l41 6q15 -34 75 -34q72 0 72 46q0 45 -69 45q-39 0 -70 -17l-30 9l47 64q-192 4 -307 108t-115 272
q0 169 122.5 273.5t321.5 104.5q162 0 269 -70t135 -194l-63 -5q-24 103 -115 161t-229 58q-173 0 -276.5 -89.5t-103.5 -238.5t105 -239.5t277 -90.5z" />
    <glyph glyph-name="Egrave" unicode="&#xc8;" horiz-adv-x="885" 
d="M505 760h-68l-167 99h76zM187 50h613v-50h-672v710h665v-50h-606v-271h589v-50h-589v-289z" />
    <glyph glyph-name="Eacute" unicode="&#xc9;" horiz-adv-x="885" 
d="M679 859l-167 -99h-68l159 99h76zM187 50h613v-50h-672v710h665v-50h-606v-271h589v-50h-589v-289z" />
    <glyph glyph-name="Ecircumflex" unicode="&#xca;" horiz-adv-x="885" 
d="M479 834l-114 -74h-68l150 99h65l150 -99h-69zM187 50h613v-50h-672v710h665v-50h-606v-271h589v-50h-589v-289z" />
    <glyph glyph-name="Edieresis" unicode="&#xcb;" horiz-adv-x="885" 
d="M355 858v-98h-69v98h69zM671 858v-98h-70v98h70zM187 50h613v-50h-672v710h665v-50h-606v-271h589v-50h-589v-289z" />
    <glyph glyph-name="Igrave" unicode="&#xcc;" horiz-adv-x="315" 
d="M187 760h-63l-97 99h67zM187 0h-59v710h59v-710z" />
    <glyph glyph-name="Iacute" unicode="&#xcd;" horiz-adv-x="315" 
d="M127 760l92 99h68l-98 -99h-62zM187 0h-59v710h59v-710z" />
    <glyph glyph-name="Icircumflex" unicode="&#xce;" horiz-adv-x="315" 
d="M276 761h-59l-59 73l-60 -73h-59l87 99h64zM187 0h-59v710h59v-710z" />
    <glyph glyph-name="Idieresis" unicode="&#xcf;" horiz-adv-x="315" 
d="M48 760v98h69v-98h-69zM199 760v98h69v-98h-69zM187 0h-59v710h59v-710z" />
    <glyph glyph-name="Eth" unicode="&#xd0;" horiz-adv-x="976" 
d="M518 710q189 0 303.5 -90t114.5 -255q0 -167 -118.5 -266t-301.5 -99h-389v344h-107v46h107v320h391zM520 51q161 0 258 83.5t97 230.5q0 145 -98.5 219.5t-263.5 74.5h-326v-269h328v-46h-328v-293h333z" />
    <glyph glyph-name="Ntilde" unicode="&#xd1;" horiz-adv-x="994" 
d="M589 755q-45 0 -99.5 33.5t-86.5 33.5q-29 0 -48 -16t-23 -44l-42 5q6 45 36 70.5t79 25.5q46 0 100 -33.5t86 -33.5q30 0 48.5 16t22.5 45l42 -6q-6 -45 -36 -70.5t-79 -25.5zM127 0v710h73l559 -582q35 -37 52 -65h2q-1 26 -1 77v570h55v-710h-64l-568 590
q-31 32 -51 63h-2v-73v-580h-55z" />
    <glyph glyph-name="Ograve" unicode="&#xd2;" horiz-adv-x="971" 
d="M511 760h-68l-167 99h76zM486 -24q-195 0 -321.5 103.5t-126.5 275.5q0 173 126.5 276t321.5 103q194 0 320.5 -103t126.5 -276q0 -172 -126.5 -275.5t-320.5 -103.5zM486 26q167 0 276 89.5t109 239.5t-109 239.5t-276 89.5q-168 0 -277 -89.5t-109 -239.5
q0 -149 109 -239t277 -90z" />
    <glyph glyph-name="Oacute" unicode="&#xd3;" horiz-adv-x="971" 
d="M451 760l159 99h76l-167 -99h-68zM486 -24q-195 0 -321.5 103.5t-126.5 275.5q0 173 126.5 276t321.5 103q194 0 320.5 -103t126.5 -276q0 -172 -126.5 -275.5t-320.5 -103.5zM486 26q167 0 276 89.5t109 239.5t-109 239.5t-276 89.5q-168 0 -277 -89.5t-109 -239.5
q0 -149 109 -239t277 -90z" />
    <glyph glyph-name="Ocircumflex" unicode="&#xd4;" horiz-adv-x="971" 
d="M668 760h-69l-114 74l-114 -74h-68l150 99h65zM486 -24q-195 0 -321.5 103.5t-126.5 275.5q0 173 126.5 276t321.5 103q194 0 320.5 -103t126.5 -276q0 -172 -126.5 -275.5t-320.5 -103.5zM486 26q167 0 276 89.5t109 239.5t-109 239.5t-276 89.5q-168 0 -277 -89.5
t-109 -239.5q0 -149 109 -239t277 -90z" />
    <glyph glyph-name="Otilde" unicode="&#xd5;" horiz-adv-x="971" 
d="M577 755q-45 0 -99.5 33.5t-86.5 33.5q-29 0 -48 -16t-23 -44l-42 5q6 45 36 70.5t79 25.5q46 0 100 -33.5t86 -33.5q30 0 48.5 16t22.5 45l42 -6q-6 -45 -36 -70.5t-79 -25.5zM486 -24q-195 0 -321.5 103.5t-126.5 275.5q0 173 126.5 276t321.5 103q194 0 320.5 -103
t126.5 -276q0 -172 -126.5 -275.5t-320.5 -103.5zM486 26q167 0 276 89.5t109 239.5t-109 239.5t-276 89.5q-168 0 -277 -89.5t-109 -239.5q0 -149 109 -239t277 -90z" />
    <glyph glyph-name="Odieresis" unicode="&#xd6;" horiz-adv-x="971" 
d="M293 760v98h69v-98h-69zM608 760v98h70v-98h-70zM486 -24q-195 0 -321.5 103.5t-126.5 275.5q0 173 126.5 276t321.5 103q194 0 320.5 -103t126.5 -276q0 -172 -126.5 -275.5t-320.5 -103.5zM486 26q167 0 276 89.5t109 239.5t-109 239.5t-276 89.5q-168 0 -277 -89.5
t-109 -239.5q0 -149 109 -239t277 -90z" />
    <glyph glyph-name="multiply" unicode="&#xd7;" 
d="M670 525l-231 -198l231 -198l-35 -33l-233 200l-234 -200l-35 33l231 198l-231 198l36 33l233 -199l232 199z" />
    <glyph glyph-name="Oslash" unicode="&#xd8;" horiz-adv-x="971" 
d="M815 623q118 -104 118 -268q0 -172 -126.5 -275.5t-320.5 -103.5q-172 0 -293 82l-82 -75l-32 34l77 70q-118 104 -118 268q0 173 126.5 276t321.5 103q173 0 292 -82l80 73l34 -32zM100 355q0 -138 98 -230l538 489q-104 70 -250 70q-168 0 -277 -89.5t-109 -239.5z
M486 26q167 0 276 89.5t109 239.5q0 140 -98 230l-538 -489q104 -70 251 -70z" />
    <glyph glyph-name="Ugrave" unicode="&#xd9;" horiz-adv-x="944" 
d="M498 760h-68l-167 99h76zM99 710h59v-402q0 -125 83 -203t231 -78q147 0 230.5 78t83.5 203v402h59v-403q0 -149 -98.5 -240t-274.5 -91q-177 0 -275 91t-98 240v403z" />
    <glyph glyph-name="Uacute" unicode="&#xda;" horiz-adv-x="944" 
d="M438 760l159 99h76l-167 -99h-68zM99 710h59v-402q0 -125 83 -203t231 -78q147 0 230.5 78t83.5 203v402h59v-403q0 -149 -98.5 -240t-274.5 -91q-177 0 -275 91t-98 240v403z" />
    <glyph glyph-name="Ucircumflex" unicode="&#xdb;" horiz-adv-x="944" 
d="M655 760h-69l-114 74l-114 -74h-68l150 99h65zM99 710h59v-402q0 -125 83 -203t231 -78q147 0 230.5 78t83.5 203v402h59v-403q0 -149 -98.5 -240t-274.5 -91q-177 0 -275 91t-98 240v403z" />
    <glyph glyph-name="Udieresis" unicode="&#xdc;" horiz-adv-x="944" 
d="M280 760v98h69v-98h-69zM595 760v98h70v-98h-70zM99 710h59v-402q0 -125 83 -203t231 -78q147 0 230.5 78t83.5 203v402h59v-403q0 -149 -98.5 -240t-274.5 -91q-177 0 -275 91t-98 240v403z" />
    <glyph glyph-name="Yacute" unicode="&#xdd;" horiz-adv-x="816" 
d="M374 760l159 99h76l-167 -99h-68zM376 0v267l-373 443h75l282 -336q43 -51 46 -59h2q3 9 45 59l285 336h75l-377 -443v-267h-60z" />
    <glyph glyph-name="Thorn" unicode="&#xde;" horiz-adv-x="801" 
d="M532 586q112 0 174.5 -55.5t62.5 -153.5t-63 -153.5t-174 -55.5h-345v-168h-60v710h60v-124h345zM528 218q85 0 131.5 42t46.5 117q0 76 -46 117.5t-132 41.5h-341v-318h341z" />
    <glyph glyph-name="germandbls" unicode="&#xdf;" horiz-adv-x="859" 
d="M117 485q0 121 83 185.5t240 64.5q140 0 221.5 -50t81.5 -137q0 -68 -46.5 -109.5t-133.5 -50.5q109 -8 166.5 -57t57.5 -133q0 -105 -85 -159t-244 -54q-68 0 -166 18v44q83 -18 161 -18q279 0 279 166q0 168 -272 168h-155v42h145q236 0 236 141q0 70 -64 107.5
t-183 37.5q-136 0 -202 -52t-66 -160v-479h-54v485z" />
    <glyph glyph-name="agrave" unicode="&#xe0;" horiz-adv-x="801" 
d="M429 580h-63l-175 150h73zM318 -19q-113 0 -180.5 39t-67.5 108q0 64 46 101q53 44 205 54l324 20v11q0 161 -239 161q-231 0 -257 -135h-58q12 84 96.5 131.5t218.5 47.5q293 0 293 -208v-128q0 -121 10 -183h-56q-7 77 -6 127q-81 -146 -329 -146zM333 24
q136 0 224.5 53.5t88.5 137.5v48l-312 -19q-118 -8 -163 -34.5t-45 -81.5q0 -51 55 -77.5t152 -26.5z" />
    <glyph glyph-name="aacute" unicode="&#xe1;" horiz-adv-x="801" 
d="M366 580l166 150h73l-176 -150h-63zM318 -19q-113 0 -180.5 39t-67.5 108q0 64 46 101q53 44 205 54l324 20v11q0 161 -239 161q-231 0 -257 -135h-58q12 84 96.5 131.5t218.5 47.5q293 0 293 -208v-128q0 -121 10 -183h-56q-7 77 -6 127q-81 -146 -329 -146zM333 24
q136 0 224.5 53.5t88.5 137.5v48l-312 -19q-118 -8 -163 -34.5t-45 -81.5q0 -51 55 -77.5t152 -26.5z" />
    <glyph glyph-name="acircumflex" unicode="&#xe2;" horiz-adv-x="801" 
d="M602 580h-59l-146 124l-145 -124h-59l173 150h63zM318 -19q-113 0 -180.5 39t-67.5 108q0 64 46 101q53 44 205 54l324 20v11q0 161 -239 161q-231 0 -257 -135h-58q12 84 96.5 131.5t218.5 47.5q293 0 293 -208v-128q0 -121 10 -183h-56q-7 77 -6 127
q-81 -146 -329 -146zM333 24q136 0 224.5 53.5t88.5 137.5v48l-312 -19q-118 -8 -163 -34.5t-45 -81.5q0 -51 55 -77.5t152 -26.5z" />
    <glyph glyph-name="atilde" unicode="&#xe3;" horiz-adv-x="801" 
d="M503 582q-40 0 -75 19t-66.5 38.5t-63.5 19.5q-33 0 -54.5 -18.5t-25.5 -51.5l-42 5q6 49 38.5 77.5t85.5 28.5q40 0 75 -19t66.5 -38.5t63.5 -19.5q33 0 54.5 18.5t25.5 51.5l42 -5q-6 -50 -38.5 -78t-85.5 -28zM318 -19q-113 0 -180.5 39t-67.5 108q0 64 46 101
q53 44 205 54l324 20v11q0 161 -239 161q-231 0 -257 -135h-58q12 84 96.5 131.5t218.5 47.5q293 0 293 -208v-128q0 -121 10 -183h-56q-7 77 -6 127q-81 -146 -329 -146zM333 24q136 0 224.5 53.5t88.5 137.5v48l-312 -19q-118 -8 -163 -34.5t-45 -81.5q0 -51 55 -77.5
t152 -26.5z" />
    <glyph glyph-name="adieresis" unicode="&#xe4;" horiz-adv-x="801" 
d="M206 592v113h69v-113h-69zM518 592v113h69v-113h-69zM318 -19q-113 0 -180.5 39t-67.5 108q0 64 46 101q53 44 205 54l324 20v11q0 161 -239 161q-231 0 -257 -135h-58q12 84 96.5 131.5t218.5 47.5q293 0 293 -208v-128q0 -121 10 -183h-56q-7 77 -6 127
q-81 -146 -329 -146zM333 24q136 0 224.5 53.5t88.5 137.5v48l-312 -19q-118 -8 -163 -34.5t-45 -81.5q0 -51 55 -77.5t152 -26.5z" />
    <glyph glyph-name="aring" unicode="&#xe5;" horiz-adv-x="801" 
d="M397 562q-68 0 -106.5 26.5t-38.5 69.5q0 44 38.5 70.5t106.5 26.5t106.5 -26.5t38.5 -70.5q0 -43 -38.5 -69.5t-106.5 -26.5zM397 592q52 0 79.5 18t27.5 48t-27.5 48.5t-79.5 18.5t-80 -18.5t-28 -48.5t28 -48t80 -18zM318 -19q-113 0 -180.5 39t-67.5 108q0 64 46 101
q53 44 205 54l324 20v11q0 161 -239 161q-231 0 -257 -135h-58q12 84 96.5 131.5t218.5 47.5q293 0 293 -208v-128q0 -121 10 -183h-56q-7 77 -6 127q-81 -146 -329 -146zM333 24q136 0 224.5 53.5t88.5 137.5v48l-312 -19q-118 -8 -163 -34.5t-45 -81.5q0 -51 55 -77.5
t152 -26.5z" />
    <glyph glyph-name="ae" unicode="&#xe6;" horiz-adv-x="1305" 
d="M1244 265v-24h-570q2 -100 71.5 -157t191.5 -57q199 2 254 133l47 -19q-71 -160 -301 -160q-112 0 -189.5 42.5t-108.5 119.5q-81 -162 -331 -162q-112 0 -175 37.5t-63 104.5q0 69 56 103t182 40l310 14v29q0 84 -54.5 124.5t-169.5 40.5q-224 0 -247 -139h-56
q14 88 93.5 136t210.5 48q210 0 261 -126q38 61 109 93.5t166 32.5q146 0 229.5 -67.5t83.5 -186.5zM1188 284v1q0 88 -72 140t-185 52q-112 0 -182.5 -53t-74.5 -140h514zM618 214v28l-315 -17q-93 -4 -135 -28t-42 -71q0 -49 49 -75t142 -26q129 0 215 54t86 135z" />
    <glyph glyph-name="ccedilla" unicode="&#xe7;" horiz-adv-x="760" 
d="M385 27q214 0 260 143l56 -8q-22 -84 -100.5 -131t-200.5 -50l-34 -41q22 16 65 16q46 0 73 -19t27 -53q0 -35 -32.5 -57t-84.5 -22q-95 0 -116 60l41 6q15 -34 75 -34q72 0 72 46q0 45 -69 45q-39 0 -70 -17l-30 9l45 61q-146 5 -231.5 77.5t-85.5 191.5q0 125 92 197
t249 72q269 0 316 -186l-59 -6q-40 146 -260 146q-134 0 -208 -58t-74 -164q0 -105 75.5 -164.5t208.5 -59.5z" />
    <glyph glyph-name="egrave" unicode="&#xe8;" horiz-adv-x="771" 
d="M412 580h-63l-175 150h73zM709 264v-24h-608q3 -100 77 -156.5t205 -56.5q214 2 273 132l47 -19q-75 -159 -320 -159q-156 0 -247 71.5t-91 196.5q0 128 90 199t241 71q155 0 244 -67.5t89 -187.5zM101 283h552q0 90 -77 142t-200 52q-120 0 -195.5 -53t-79.5 -141z" />
    <glyph glyph-name="eacute" unicode="&#xe9;" horiz-adv-x="771" 
d="M588 730l-176 -150h-63l166 150h73zM709 264v-24h-608q3 -100 77 -156.5t205 -56.5q214 2 273 132l47 -19q-75 -159 -320 -159q-156 0 -247 71.5t-91 196.5q0 128 90 199t241 71q155 0 244 -67.5t89 -187.5zM101 283h552q0 90 -77 142t-200 52q-120 0 -195.5 -53
t-79.5 -141z" />
    <glyph glyph-name="ecircumflex" unicode="&#xea;" horiz-adv-x="771" 
d="M380 704l-145 -124h-59l173 150h63l173 -150h-59zM709 264v-24h-608q3 -100 77 -156.5t205 -56.5q214 2 273 132l47 -19q-75 -159 -320 -159q-156 0 -247 71.5t-91 196.5q0 128 90 199t241 71q155 0 244 -67.5t89 -187.5zM101 283h552q0 90 -77 142t-200 52
q-120 0 -195.5 -53t-79.5 -141z" />
    <glyph glyph-name="edieresis" unicode="&#xeb;" horiz-adv-x="771" 
d="M259 705v-113h-69v113h69zM571 705v-113h-69v113h69zM709 264v-24h-608q3 -100 77 -156.5t205 -56.5q214 2 273 132l47 -19q-75 -159 -320 -159q-156 0 -247 71.5t-91 196.5q0 128 90 199t241 71q155 0 244 -67.5t89 -187.5zM101 283h552q0 90 -77 142t-200 52
q-120 0 -195.5 -53t-79.5 -141z" />
    <glyph glyph-name="igrave" unicode="&#xec;" horiz-adv-x="289" 
d="M171 580h-54l-100 150h59zM118 0v500h53v-500h-53z" />
    <glyph glyph-name="iacute" unicode="&#xed;" horiz-adv-x="289" 
d="M118 580l95 150h59l-101 -150h-53zM118 0v500h53v-500h-53z" />
    <glyph glyph-name="icircumflex" unicode="&#xee;" horiz-adv-x="289" 
d="M253 580h-48l-60 124l-60 -124h-48l80 152h56zM118 0v500h53v-500h-53z" />
    <glyph glyph-name="idieresis" unicode="&#xef;" horiz-adv-x="289" 
d="M38 592v117h69v-117h-69zM184 592v117h69v-117h-69zM118 0v500h53v-500h-53z" />
    <glyph glyph-name="eth" unicode="&#xf0;" horiz-adv-x="826" 
d="M579 603q159 -125 159 -341q0 -130 -93 -205.5t-252 -75.5q-157 0 -248 71.5t-91 193.5q0 119 91.5 190.5t249.5 71.5q99 0 171 -35.5t108 -101.5h2q-24 133 -156 221l-236 -43l-11 34l200 36q-95 50 -217 69l24 39q154 -31 258 -96l149 27l10 -34zM393 28
q134 0 212.5 59t78.5 159q0 102 -76.5 159.5t-211.5 57.5t-210 -58t-75 -159t75 -159.5t207 -58.5z" />
    <glyph glyph-name="ntilde" unicode="&#xf1;" horiz-adv-x="848" 
d="M563 582q-40 0 -75 19t-66.5 38.5t-63.5 19.5q-33 0 -54.5 -18.5t-25.5 -51.5l-42 5q6 49 38.5 77.5t85.5 28.5q40 0 75 -19t66.5 -38.5t63.5 -19.5q33 0 54.5 18.5t25.5 51.5l42 -5q-6 -50 -38.5 -78t-85.5 -28zM118 0v500h53v-146q70 165 294 165q141 0 215 -69.5
t74 -202.5v-247h-54v234q0 238 -246 238q-129 0 -206 -64.5t-77 -173.5v-234h-53z" />
    <glyph glyph-name="ograve" unicode="&#xf2;" horiz-adv-x="773" 
d="M418 580h-63l-175 150h73zM387 -19q-154 0 -248 73.5t-94 195.5t94 195.5t248 73.5q153 0 247 -73.5t94 -195.5t-94 -195.5t-247 -73.5zM387 27q129 0 207 60.5t78 162.5t-78 162.5t-207 60.5q-130 0 -208 -60.5t-78 -162.5t78 -162.5t208 -60.5z" />
    <glyph glyph-name="oacute" unicode="&#xf3;" horiz-adv-x="773" 
d="M355 580l166 150h73l-176 -150h-63zM387 -19q-154 0 -248 73.5t-94 195.5t94 195.5t248 73.5q153 0 247 -73.5t94 -195.5t-94 -195.5t-247 -73.5zM387 27q129 0 207 60.5t78 162.5t-78 162.5t-207 60.5q-130 0 -208 -60.5t-78 -162.5t78 -162.5t208 -60.5z" />
    <glyph glyph-name="ocircumflex" unicode="&#xf4;" horiz-adv-x="773" 
d="M591 580h-59l-146 124l-145 -124h-59l173 150h63zM387 -19q-154 0 -248 73.5t-94 195.5t94 195.5t248 73.5q153 0 247 -73.5t94 -195.5t-94 -195.5t-247 -73.5zM387 27q129 0 207 60.5t78 162.5t-78 162.5t-207 60.5q-130 0 -208 -60.5t-78 -162.5t78 -162.5t208 -60.5z
" />
    <glyph glyph-name="otilde" unicode="&#xf5;" horiz-adv-x="773" 
d="M492 582q-40 0 -75 19t-66.5 38.5t-63.5 19.5q-33 0 -54.5 -18.5t-25.5 -51.5l-42 5q6 49 38.5 77.5t85.5 28.5q40 0 75 -19t66.5 -38.5t63.5 -19.5q33 0 54.5 18.5t25.5 51.5l42 -5q-6 -50 -38.5 -78t-85.5 -28zM387 -19q-154 0 -248 73.5t-94 195.5t94 195.5t248 73.5
q153 0 247 -73.5t94 -195.5t-94 -195.5t-247 -73.5zM387 27q129 0 207 60.5t78 162.5t-78 162.5t-207 60.5q-130 0 -208 -60.5t-78 -162.5t78 -162.5t208 -60.5z" />
    <glyph glyph-name="odieresis" unicode="&#xf6;" horiz-adv-x="773" 
d="M196 592v113h69v-113h-69zM508 592v113h69v-113h-69zM387 -19q-154 0 -248 73.5t-94 195.5t94 195.5t248 73.5q153 0 247 -73.5t94 -195.5t-94 -195.5t-247 -73.5zM387 27q129 0 207 60.5t78 162.5t-78 162.5t-207 60.5q-130 0 -208 -60.5t-78 -162.5t78 -162.5
t208 -60.5z" />
    <glyph glyph-name="divide" unicode="&#xf7;" horiz-adv-x="694" 
d="M344 472q-18 0 -29.5 11.5t-11.5 29.5t12 29.5t29 11.5q18 0 30 -11.5t12 -29.5t-12 -29.5t-30 -11.5zM66 303v48h562v-48h-562zM344 101q-17 0 -29 11.5t-12 29.5t11.5 29.5t29.5 11.5t30 -11.5t12 -29.5t-12 -29.5t-30 -11.5z" />
    <glyph glyph-name="oslash" unicode="&#xf8;" horiz-adv-x="773" 
d="M647 434q81 -72 81 -184q0 -122 -94 -195.5t-247 -73.5q-139 0 -230 61l-79 -63l-27 28l74 59q-80 72 -80 184q0 122 94 195.5t248 73.5q136 0 228 -60l77 61l28 -28zM101 250q0 -92 65 -151l409 327q-77 47 -188 47q-130 0 -208 -60.5t-78 -162.5zM387 27
q129 0 207 60.5t78 162.5q0 93 -65 152l-409 -327q74 -48 189 -48z" />
    <glyph glyph-name="ugrave" unicode="&#xf9;" horiz-adv-x="839" 
d="M436 580h-63l-175 150h73zM376 -19q-282 0 -282 269v250h53v-248q0 -118 65 -171.5t171 -53.5q137 0 210.5 70.5t73.5 170.5v232h54v-500h-53v153q-32 -84 -107.5 -128t-184.5 -44z" />
    <glyph glyph-name="uacute" unicode="&#xfa;" horiz-adv-x="839" 
d="M373 580l166 150h73l-176 -150h-63zM376 -19q-282 0 -282 269v250h53v-248q0 -118 65 -171.5t171 -53.5q137 0 210.5 70.5t73.5 170.5v232h54v-500h-53v153q-32 -84 -107.5 -128t-184.5 -44z" />
    <glyph glyph-name="ucircumflex" unicode="&#xfb;" horiz-adv-x="839" 
d="M609 580h-59l-146 124l-145 -124h-59l173 150h63zM376 -19q-282 0 -282 269v250h53v-248q0 -118 65 -171.5t171 -53.5q137 0 210.5 70.5t73.5 170.5v232h54v-500h-53v153q-32 -84 -107.5 -128t-184.5 -44z" />
    <glyph glyph-name="udieresis" unicode="&#xfc;" horiz-adv-x="839" 
d="M214 592v113h69v-113h-69zM526 592v113h69v-113h-69zM376 -19q-282 0 -282 269v250h53v-248q0 -118 65 -171.5t171 -53.5q137 0 210.5 70.5t73.5 170.5v232h54v-500h-53v153q-32 -84 -107.5 -128t-184.5 -44z" />
    <glyph glyph-name="yacute" unicode="&#xfd;" horiz-adv-x="692" 
d="M314 580l166 150h73l-176 -150h-63zM95 -214q-30 0 -55 4v47q26 -3 52 -3q86 0 135.5 36.5t85.5 102.5l12 22l-317 505h63l242 -391q6 -9 12.5 -20.5t14.5 -26t12 -22.5h2q24 45 37 67l233 393h60l-318 -532q-56 -98 -115.5 -140t-155.5 -42z" />
    <glyph glyph-name="thorn" unicode="&#xfe;" horiz-adv-x="859" 
d="M122 -195v920h54v-360q34 71 115.5 112.5t186.5 41.5q150 0 238.5 -72t88.5 -196q0 -121 -91 -195.5t-240 -74.5q-100 0 -182 40t-116 106v-322h-54zM461 28q133 0 210 59.5t77 163.5t-74.5 162.5t-206.5 58.5q-127 0 -210 -60.5t-83 -153.5v-15q0 -94 81 -154.5
t206 -60.5z" />
    <glyph glyph-name="ydieresis" unicode="&#xff;" horiz-adv-x="692" 
d="M155 592v113h69v-113h-69zM467 592v113h69v-113h-69zM95 -214q-30 0 -55 4v47q26 -3 52 -3q86 0 135.5 36.5t85.5 102.5l12 22l-317 505h63l242 -391q6 -9 12.5 -20.5t14.5 -26t12 -22.5h2q24 45 37 67l233 393h60l-318 -532q-56 -98 -115.5 -140t-155.5 -42z" />
    <glyph glyph-name="Amacron" unicode="&#x100;" horiz-adv-x="900" 
d="M653 816v-41h-406v41h406zM811 0l-101 185h-520l-101 -185h-64l396 710h58l396 -710h-64zM217 235h466l-196 359q-14 26 -36 70h-2q-22 -44 -36 -70z" />
    <glyph glyph-name="amacron" unicode="&#x101;" horiz-adv-x="801" 
d="M177 621v40h440v-40h-440zM318 -19q-113 0 -180.5 39t-67.5 108q0 64 46 101q53 44 205 54l324 20v11q0 161 -239 161q-231 0 -257 -135h-58q12 84 96.5 131.5t218.5 47.5q293 0 293 -208v-128q0 -121 10 -183h-56q-7 77 -6 127q-81 -146 -329 -146zM333 24
q136 0 224.5 53.5t88.5 137.5v48l-312 -19q-118 -8 -163 -34.5t-45 -81.5q0 -51 55 -77.5t152 -26.5z" />
    <glyph glyph-name="Abreve" unicode="&#x102;" horiz-adv-x="900" 
d="M450 755q-71 0 -118.5 27.5t-53.5 76.5h46q5 -29 39 -48.5t87 -19.5q52 0 86 19.5t39 48.5h46q-5 -49 -53 -76.5t-118 -27.5zM811 0l-101 185h-520l-101 -185h-64l396 710h58l396 -710h-64zM217 235h466l-196 359q-14 26 -36 70h-2q-22 -44 -36 -70z" />
    <glyph glyph-name="abreve" unicode="&#x103;" horiz-adv-x="801" 
d="M258 730q5 -56 41.5 -87.5t98.5 -31.5q61 0 97.5 31.5t41.5 87.5h46q-6 -76 -56 -115.5t-129 -39.5q-80 0 -130 39.5t-56 115.5h46zM318 -19q-113 0 -180.5 39t-67.5 108q0 64 46 101q53 44 205 54l324 20v11q0 161 -239 161q-231 0 -257 -135h-58q12 84 96.5 131.5
t218.5 47.5q293 0 293 -208v-128q0 -121 10 -183h-56q-7 77 -6 127q-81 -146 -329 -146zM333 24q136 0 224.5 53.5t88.5 137.5v48l-312 -19q-118 -8 -163 -34.5t-45 -81.5q0 -51 55 -77.5t152 -26.5z" />
    <glyph glyph-name="Aogonek" unicode="&#x104;" horiz-adv-x="900" 
d="M836 -108l40 -7q-7 -41 -38.5 -63.5t-82.5 -22.5q-46 0 -76.5 23.5t-30.5 60.5q0 92 158 127l-96 175h-520l-101 -185h-64l396 710h58l396 -710h-11q-82 -13 -126 -43t-44 -69q0 -25 18.5 -41t47.5 -16q30 0 50.5 16.5t25.5 44.5zM217 235h466l-196 359q-14 26 -36 70h-2
q-22 -44 -36 -70z" />
    <glyph glyph-name="aogonek" unicode="&#x105;" horiz-adv-x="801" 
d="M679 -108l40 -7q-7 -41 -38.5 -63.5t-82.5 -22.5q-46 0 -76.5 23.5t-30.5 60.5q0 93 161 127q-6 66 -5 117q-81 -146 -329 -146q-113 0 -180.5 39t-67.5 108q0 64 46 101q53 44 205 54l324 20v11q0 161 -239 161q-231 0 -257 -135h-58q12 84 96.5 131.5t218.5 47.5
q293 0 293 -208v-128q0 -121 10 -183h-2q-82 -13 -126 -43t-44 -69q0 -25 18.5 -41t47.5 -16q30 0 50.5 16.5t25.5 44.5zM646 215v48l-312 -19q-118 -8 -163 -34.5t-45 -81.5q0 -51 55 -77.5t152 -26.5q136 0 224.5 53.5t88.5 137.5z" />
    <glyph glyph-name="Cacute" unicode="&#x106;" horiz-adv-x="937" 
d="M438 760l159 99h76l-167 -99h-68zM477 -24q-200 0 -319.5 104t-119.5 276q0 169 122.5 273.5t321.5 104.5q162 0 269 -70t135 -194l-63 -5q-24 103 -115 161t-229 58q-173 0 -276.5 -89.5t-103.5 -238.5t105 -239.5t277 -90.5q133 0 223 53.5t123 151.5l59 -7
q-39 -119 -145 -183.5t-264 -64.5z" />
    <glyph glyph-name="cacute" unicode="&#x107;" horiz-adv-x="760" 
d="M345 580l166 150h73l-176 -150h-63zM383 -19q-155 0 -246.5 72.5t-91.5 196.5q0 125 92 197t249 72q269 0 316 -186l-59 -6q-40 146 -260 146q-134 0 -208 -58t-74 -164q0 -105 75.5 -164.5t208.5 -59.5q214 0 260 143l56 -8q-23 -87 -106 -134t-212 -47z" />
    <glyph glyph-name="Ccircumflex" unicode="&#x108;" horiz-adv-x="937" 
d="M655 760h-69l-114 74l-114 -74h-68l150 99h65zM477 -24q-200 0 -319.5 104t-119.5 276q0 169 122.5 273.5t321.5 104.5q162 0 269 -70t135 -194l-63 -5q-24 103 -115 161t-229 58q-173 0 -276.5 -89.5t-103.5 -238.5t105 -239.5t277 -90.5q133 0 223 53.5t123 151.5
l59 -7q-39 -119 -145 -183.5t-264 -64.5z" />
    <glyph glyph-name="ccircumflex" unicode="&#x109;" horiz-adv-x="760" 
d="M581 580h-59l-146 124l-145 -124h-59l173 150h63zM383 -19q-155 0 -246.5 72.5t-91.5 196.5q0 125 92 197t249 72q269 0 316 -186l-59 -6q-40 146 -260 146q-134 0 -208 -58t-74 -164q0 -105 75.5 -164.5t208.5 -59.5q214 0 260 143l56 -8q-23 -87 -106 -134t-212 -47z
" />
    <glyph glyph-name="Cdotaccent" unicode="&#x10a;" horiz-adv-x="937" 
d="M439 760v99h64v-99h-64zM477 -24q-200 0 -319.5 104t-119.5 276q0 169 122.5 273.5t321.5 104.5q162 0 269 -70t135 -194l-63 -5q-24 103 -115 161t-229 58q-173 0 -276.5 -89.5t-103.5 -238.5t105 -239.5t277 -90.5q133 0 223 53.5t123 151.5l59 -7
q-39 -119 -145 -183.5t-264 -64.5z" />
    <glyph glyph-name="cdotaccent" unicode="&#x10b;" horiz-adv-x="760" 
d="M343 587v117h64v-117h-64zM383 -19q-155 0 -246.5 72.5t-91.5 196.5q0 125 92 197t249 72q269 0 316 -186l-59 -6q-40 146 -260 146q-134 0 -208 -58t-74 -164q0 -105 75.5 -164.5t208.5 -59.5q214 0 260 143l56 -8q-23 -87 -106 -134t-212 -47z" />
    <glyph glyph-name="Ccaron" unicode="&#x10c;" horiz-adv-x="937" 
d="M655 854l-150 -99h-65l-150 99h68l114 -74l115 74h68zM477 -24q-200 0 -319.5 104t-119.5 276q0 169 122.5 273.5t321.5 104.5q162 0 269 -70t135 -194l-63 -5q-24 103 -115 161t-229 58q-173 0 -276.5 -89.5t-103.5 -238.5t105 -239.5t277 -90.5q133 0 223 53.5
t123 151.5l59 -7q-39 -119 -145 -183.5t-264 -64.5z" />
    <glyph glyph-name="ccaron" unicode="&#x10d;" horiz-adv-x="760" 
d="M174 719h59l146 -125l145 125h59l-173 -150h-63zM383 -19q-155 0 -246.5 72.5t-91.5 196.5q0 125 92 197t249 72q269 0 316 -186l-59 -6q-40 146 -260 146q-134 0 -208 -58t-74 -164q0 -105 75.5 -164.5t208.5 -59.5q214 0 260 143l56 -8q-23 -87 -106 -134t-212 -47z
" />
    <glyph glyph-name="Dcaron" unicode="&#x10e;" horiz-adv-x="975" 
d="M685 854l-150 -99h-65l-150 99h68l114 -74l115 74h68zM127 0v710h391q189 0 303.5 -90t114.5 -255q0 -167 -118.5 -266t-301.5 -99h-389zM187 51h333q161 0 258 83.5t97 230.5q0 145 -98.5 219.5t-263.5 74.5h-326v-608z" />
    <glyph glyph-name="dcaron" unicode="&#x10f;" horiz-adv-x="859" 
d="M383 -19q-149 0 -239 74.5t-90 194.5q0 121 88.5 195t241.5 74q106 0 183 -39t116 -112v357h54v-725h-53v130q-39 -71 -117 -110t-184 -39zM814 537l-14 20q42 22 42 68h-35v85h65v-73q0 -39 -12.5 -62t-45.5 -38zM395 28q128 0 208.5 61t80.5 152v14q0 93 -82.5 155.5
t-212.5 62.5q-132 0 -205.5 -59.5t-73.5 -163.5q0 -102 76.5 -162t208.5 -60z" />
    <glyph glyph-name="Dcroat" unicode="&#x110;" horiz-adv-x="976" 
d="M518 710q189 0 303.5 -90t114.5 -255q0 -167 -118.5 -266t-301.5 -99h-389v344h-107v46h107v320h391zM520 51q161 0 258 83.5t97 230.5q0 145 -98.5 219.5t-263.5 74.5h-326v-269h328v-46h-328v-293h333z" />
    <glyph glyph-name="dcroat" unicode="&#x111;" horiz-adv-x="859" 
d="M872 631v-37h-135v-594h-53v130q-39 -71 -117 -110t-184 -39q-149 0 -239 74.5t-90 194.5q0 121 88.5 195t241.5 74q106 0 183 -39t116 -112v226h-276v37h276v94h54v-94h135zM684 241v14q0 93 -82.5 155.5t-212.5 62.5q-132 0 -205.5 -59.5t-73.5 -163.5
q0 -102 76.5 -162t208.5 -60q128 0 208.5 61t80.5 152z" />
    <glyph glyph-name="Emacron" unicode="&#x112;" horiz-adv-x="885" 
d="M682 816v-41h-406v41h406zM187 50h613v-50h-672v710h665v-50h-606v-271h589v-50h-589v-289z" />
    <glyph glyph-name="emacron" unicode="&#x113;" horiz-adv-x="771" 
d="M600 661v-40h-440v40h440zM709 264v-24h-608q3 -100 77 -156.5t205 -56.5q214 2 273 132l47 -19q-75 -159 -320 -159q-156 0 -247 71.5t-91 196.5q0 128 90 199t241 71q155 0 244 -67.5t89 -187.5zM101 283h552q0 90 -77 142t-200 52q-120 0 -195.5 -53t-79.5 -141z" />
    <glyph glyph-name="Ebreve" unicode="&#x114;" horiz-adv-x="885" 
d="M479 755q-71 0 -118.5 27.5t-53.5 76.5h46q5 -29 39 -48.5t87 -19.5q52 0 86 19.5t39 48.5h46q-5 -49 -53 -76.5t-118 -27.5zM187 50h613v-50h-672v710h665v-50h-606v-271h589v-50h-589v-289z" />
    <glyph glyph-name="ebreve" unicode="&#x115;" horiz-adv-x="771" 
d="M381 575q-80 0 -130 39.5t-56 115.5h46q5 -56 41.5 -87.5t98.5 -31.5q61 0 97.5 31.5t41.5 87.5h46q-6 -76 -56 -115.5t-129 -39.5zM709 264v-24h-608q3 -100 77 -156.5t205 -56.5q214 2 273 132l47 -19q-75 -159 -320 -159q-156 0 -247 71.5t-91 196.5q0 128 90 199
t241 71q155 0 244 -67.5t89 -187.5zM101 283h552q0 90 -77 142t-200 52q-120 0 -195.5 -53t-79.5 -141z" />
    <glyph glyph-name="Edotaccent" unicode="&#x116;" horiz-adv-x="885" 
d="M510 859v-99h-64v99h64zM187 50h613v-50h-672v710h665v-50h-606v-271h589v-50h-589v-289z" />
    <glyph glyph-name="edotaccent" unicode="&#x117;" horiz-adv-x="771" 
d="M411 704v-117h-64v117h64zM709 264v-24h-608q3 -100 77 -156.5t205 -56.5q214 2 273 132l47 -19q-75 -159 -320 -159q-156 0 -247 71.5t-91 196.5q0 128 90 199t241 71q155 0 244 -67.5t89 -187.5zM101 283h552q0 90 -77 142t-200 52q-120 0 -195.5 -53t-79.5 -141z" />
    <glyph glyph-name="Eogonek" unicode="&#x118;" horiz-adv-x="885" 
d="M772 -108l40 -7q-7 -41 -38.5 -63.5t-82.5 -22.5q-46 0 -76.5 23.5t-30.5 60.5q0 80 121 117h-577v710h665v-50h-606v-271h589v-50h-589v-289h613v-50q-82 -13 -126 -43t-44 -69q0 -25 18.5 -41t47.5 -16q30 0 50.5 16.5t25.5 44.5z" />
    <glyph glyph-name="eogonek" unicode="&#x119;" horiz-adv-x="771" 
d="M709 264v-24h-608q3 -100 77 -156.5t205 -56.5q214 2 273 132l47 -19q-48 -102 -172 -140h1q-2 0 -3 -1q-30 -7 -51 -11q-57 -16 -86.5 -42.5t-29.5 -57.5q0 -25 18.5 -41t47.5 -16q30 0 50.5 16.5t25.5 44.5l40 -7q-7 -41 -38.5 -63.5t-82.5 -22.5q-46 0 -76.5 23.5
t-30.5 60.5q0 61 73 98h-6q-156 0 -247 71.5t-91 196.5q0 128 90 199t241 71q155 0 244 -67.5t89 -187.5zM101 283h552q0 90 -77 142t-200 52q-120 0 -195.5 -53t-79.5 -141z" />
    <glyph glyph-name="Ecaron" unicode="&#x11a;" horiz-adv-x="885" 
d="M511 755h-65l-150 99h68l114 -74l115 74h68zM187 50h613v-50h-672v710h665v-50h-606v-271h589v-50h-589v-289z" />
    <glyph glyph-name="ecaron" unicode="&#x11b;" horiz-adv-x="771" 
d="M414 569h-63l-173 150h59l146 -125l145 125h59zM709 264v-24h-608q3 -100 77 -156.5t205 -56.5q214 2 273 132l47 -19q-75 -159 -320 -159q-156 0 -247 71.5t-91 196.5q0 128 90 199t241 71q155 0 244 -67.5t89 -187.5zM101 283h552q0 90 -77 142t-200 52
q-120 0 -195.5 -53t-79.5 -141z" />
    <glyph glyph-name="Gcircumflex" unicode="&#x11c;" horiz-adv-x="976" 
d="M673 760h-69l-114 74l-114 -74h-68l150 99h65zM467 -24q-195 0 -312 106t-117 274q0 169 121.5 273.5t323.5 104.5q166 0 267.5 -66.5t129.5 -162.5l-61 -10q-23 79 -110.5 134t-230.5 55q-172 0 -276 -90.5t-104 -238.5q0 -144 101.5 -236.5t275.5 -92.5q73 0 133.5 16
t100.5 42t68 59.5t40.5 67.5t12.5 67v35h-355v51h409v-364h-47l-5 157q-45 -86 -139 -133.5t-226 -47.5z" />
    <glyph glyph-name="gcircumflex" unicode="&#x11d;" horiz-adv-x="782" 
d="M394 704l-145 -119h-59l173 145h63l173 -145h-59zM706 525q-85 0 -108 -55q72 -47 72 -126q0 -82 -76 -129t-205 -47q-103 0 -172 30q-38 -7 -58 -24.5t-20 -41.5q0 -60 97 -60l317 -1q182 0 182 -127q0 -79 -82 -118.5t-261 -39.5q-180 0 -258 35t-78 108q0 78 100 106
q-70 22 -70 84q0 73 100 94q-79 49 -79 131t76 128.5t206 46.5q109 0 180 -33q12 42 49.5 64t89.5 22q18 0 29 -2v-47q-16 2 -31 2zM389 210q104 0 165 35t61 99q0 65 -60.5 99t-165.5 34t-166 -34t-61 -99q0 -64 61.5 -99t165.5 -35zM545 24h-309q-13 0 -35 2
q-93 -22 -93 -91q0 -54 66.5 -79.5t216.5 -25.5q291 0 291 113q0 42 -32.5 61.5t-104.5 19.5z" />
    <glyph glyph-name="Gbreve" unicode="&#x11e;" horiz-adv-x="976" 
d="M365 859q5 -29 39 -48.5t87 -19.5q52 0 86 19.5t39 48.5h46q-5 -49 -53 -76.5t-118 -27.5q-71 0 -118.5 27.5t-53.5 76.5h46zM467 -24q-195 0 -312 106t-117 274q0 169 121.5 273.5t323.5 104.5q166 0 267.5 -66.5t129.5 -162.5l-61 -10q-23 79 -110.5 134t-230.5 55
q-172 0 -276 -90.5t-104 -238.5q0 -144 101.5 -236.5t275.5 -92.5q73 0 133.5 16t100.5 42t68 59.5t40.5 67.5t12.5 67v35h-355v51h409v-364h-47l-5 157q-45 -86 -139 -133.5t-226 -47.5z" />
    <glyph glyph-name="gbreve" unicode="&#x11f;" horiz-adv-x="782" 
d="M395 575q-80 0 -130 39.5t-56 115.5h46q5 -56 41.5 -87.5t98.5 -31.5q61 0 97.5 31.5t41.5 87.5h46q-6 -76 -56 -115.5t-129 -39.5zM706 525q-85 0 -108 -55q72 -47 72 -126q0 -82 -76 -129t-205 -47q-103 0 -172 30q-38 -7 -58 -24.5t-20 -41.5q0 -60 97 -60l317 -1
q182 0 182 -127q0 -79 -82 -118.5t-261 -39.5q-180 0 -258 35t-78 108q0 78 100 106q-70 22 -70 84q0 73 100 94q-79 49 -79 131t76 128.5t206 46.5q109 0 180 -33q12 42 49.5 64t89.5 22q18 0 29 -2v-47q-16 2 -31 2zM389 210q104 0 165 35t61 99q0 65 -60.5 99t-165.5 34
t-166 -34t-61 -99q0 -64 61.5 -99t165.5 -35zM545 24h-309q-13 0 -35 2q-93 -22 -93 -91q0 -54 66.5 -79.5t216.5 -25.5q291 0 291 113q0 42 -32.5 61.5t-104.5 19.5z" />
    <glyph glyph-name="Gdotaccent" unicode="&#x120;" horiz-adv-x="976" 
d="M458 760v99h64v-99h-64zM467 -24q-195 0 -312 106t-117 274q0 169 121.5 273.5t323.5 104.5q166 0 267.5 -66.5t129.5 -162.5l-61 -10q-23 79 -110.5 134t-230.5 55q-172 0 -276 -90.5t-104 -238.5q0 -144 101.5 -236.5t275.5 -92.5q73 0 133.5 16t100.5 42t68 59.5
t40.5 67.5t12.5 67v35h-355v51h409v-364h-47l-5 157q-45 -86 -139 -133.5t-226 -47.5z" />
    <glyph glyph-name="gdotaccent" unicode="&#x121;" horiz-adv-x="782" 
d="M426 704v-117h-64v117h64zM706 525q-85 0 -108 -55q72 -47 72 -126q0 -82 -76 -129t-205 -47q-103 0 -172 30q-38 -7 -58 -24.5t-20 -41.5q0 -60 97 -60l317 -1q182 0 182 -127q0 -79 -82 -118.5t-261 -39.5q-180 0 -258 35t-78 108q0 78 100 106q-70 22 -70 84
q0 73 100 94q-79 49 -79 131t76 128.5t206 46.5q109 0 180 -33q12 42 49.5 64t89.5 22q18 0 29 -2v-47q-16 2 -31 2zM389 210q104 0 165 35t61 99q0 65 -60.5 99t-165.5 34t-166 -34t-61 -99q0 -64 61.5 -99t165.5 -35zM545 24h-309q-13 0 -35 2q-93 -22 -93 -91
q0 -54 66.5 -79.5t216.5 -25.5q291 0 291 113q0 42 -32.5 61.5t-104.5 19.5z" />
    <glyph glyph-name="uni0122" unicode="&#x122;" horiz-adv-x="976" 
d="M467 -24q-195 0 -312 106t-117 274q0 169 121.5 273.5t323.5 104.5q166 0 267.5 -66.5t129.5 -162.5l-61 -10q-23 79 -110.5 134t-230.5 55q-172 0 -276 -90.5t-104 -238.5q0 -144 101.5 -236.5t275.5 -92.5q73 0 133.5 16t100.5 42t68 59.5t40.5 67.5t12.5 67v35h-355
v51h409v-364h-47l-5 157q-45 -86 -139 -133.5t-226 -47.5zM465 -231l-15 20q27 14 35 30.5t8 39.5h-36v84h66v-73q0 -39 -12.5 -62t-45.5 -39z" />
    <glyph glyph-name="uni0123" unicode="&#x123;" horiz-adv-x="782" 
d="M426 665v-85h-66v73q0 39 12.5 62.5t45.5 39.5l15 -20q-27 -14 -35 -30.5t-8 -39.5h36zM706 525q-85 0 -108 -55q72 -47 72 -126q0 -82 -76 -129t-205 -47q-103 0 -172 30q-38 -7 -58 -24.5t-20 -41.5q0 -60 97 -60l317 -1q182 0 182 -127q0 -79 -82 -118.5t-261 -39.5
q-180 0 -258 35t-78 108q0 78 100 106q-70 22 -70 84q0 73 100 94q-79 49 -79 131t76 128.5t206 46.5q109 0 180 -33q12 42 49.5 64t89.5 22q18 0 29 -2v-47q-16 2 -31 2zM389 210q104 0 165 35t61 99q0 65 -60.5 99t-165.5 34t-166 -34t-61 -99q0 -64 61.5 -99t165.5 -35z
M545 24h-309q-13 0 -35 2q-93 -22 -93 -91q0 -54 66.5 -79.5t216.5 -25.5q291 0 291 113q0 42 -32.5 61.5t-104.5 19.5z" />
    <glyph glyph-name="Hcircumflex" unicode="&#x124;" horiz-adv-x="998" 
d="M682 760h-69l-114 74l-114 -74h-68l150 99h65zM870 710v-710h-60v338h-623v-338h-59v710h59v-321h623v321h60z" />
    <glyph glyph-name="hcircumflex" unicode="&#x125;" horiz-adv-x="853" 
d="M333 760h-69l-114 74l-114 -74h-68l150 99h65zM123 0v725h53v-371q35 80 109.5 122.5t181.5 42.5q143 0 217.5 -74t74.5 -216v-229h-54v223q0 122 -64 185.5t-186 63.5q-125 0 -202 -65.5t-77 -172.5v-234h-53z" />
    <glyph glyph-name="Hbar" unicode="&#x126;" horiz-adv-x="998" 
d="M968 566v-40h-98v-526h-60v338h-623v-338h-59v526h-98v40h98v144h59v-144h623v144h60v-144h98zM810 389v137h-623v-137h623z" />
    <glyph glyph-name="hbar" unicode="&#x127;" horiz-adv-x="853" 
d="M467 519q143 0 217.5 -74t74.5 -216v-229h-54v223q0 122 -64 185.5t-186 63.5q-125 0 -202 -65.5t-77 -172.5v-234h-53v583h-105v37h105v105h53v-105h378v-37h-378v-229q35 80 109.5 122.5t181.5 42.5z" />
    <glyph glyph-name="Itilde" unicode="&#x128;" horiz-adv-x="315" 
d="M218 759q-25 0 -46 15.5t-39.5 30.5t-35.5 15q-32 0 -35 -49l-39 5q1 40 21 63t53 23q31 0 66 -30.5t55 -30.5q32 0 35 50l39 -6q-1 -40 -21 -63t-53 -23zM187 0h-59v710h59v-710z" />
    <glyph glyph-name="itilde" unicode="&#x129;" horiz-adv-x="289" 
d="M198 582q-18 0 -33.5 11.5t-24.5 26t-20.5 26t-23.5 11.5q-30 0 -33 -61l-39 6q8 99 72 99q18 0 33.5 -12t24.5 -26t20.5 -26t23.5 -12q30 0 33 62l39 -6q-8 -99 -72 -99zM118 0v500h53v-500h-53z" />
    <glyph glyph-name="Imacron" unicode="&#x12a;" horiz-adv-x="315" 
d="M38 775v44h236v-44h-236zM187 0h-59v710h59v-710z" />
    <glyph glyph-name="imacron" unicode="&#x12b;" horiz-adv-x="289" 
d="M36 621v40h218v-40h-218zM118 0v500h53v-500h-53z" />
    <glyph glyph-name="Ibreve" unicode="&#x12c;" horiz-adv-x="315" 
d="M85 859q2 -29 21 -48t53 -19q35 0 54 19t21 48h45q-3 -49 -35.5 -76.5t-84.5 -27.5q-51 0 -83.5 27.5t-35.5 76.5h45zM187 0h-59v710h59v-710z" />
    <glyph glyph-name="ibreve" unicode="&#x12d;" horiz-adv-x="289" 
d="M84 731q0 -116 62 -116t62 116h45q0 -156 -107 -156q-108 0 -108 156h46zM118 0v500h53v-500h-53z" />
    <glyph glyph-name="Iogonek" unicode="&#x12e;" horiz-adv-x="315" 
d="M153 -108l40 -7q-7 -41 -38.5 -63.5t-82.5 -22.5q-46 0 -76.5 23.5t-30.5 60.5q0 94 163 128v699h59v-710h-6q-82 -13 -126 -43t-44 -69q0 -25 18.5 -41t47.5 -16q30 0 50.5 16.5t25.5 44.5z" />
    <glyph glyph-name="iogonek" unicode="&#x12f;" horiz-adv-x="289" 
d="M176 704v-117h-64v117h64zM143 -108l40 -7q-7 -41 -38.5 -63.5t-82.5 -22.5q-46 0 -76.5 23.5t-30.5 60.5q0 94 163 128v489h53v-500q-82 -13 -126 -43t-44 -69q0 -25 18.5 -41t47.5 -16q30 0 50.5 16.5t25.5 44.5z" />
    <glyph glyph-name="Idotaccent" unicode="&#x130;" horiz-adv-x="315" 
d="M125 760v99h64v-99h-64zM187 0h-59v710h59v-710z" />
    <glyph glyph-name="dotlessi" unicode="&#x131;" horiz-adv-x="289" 
d="M118 0v500h53v-500h-53z" />
    <glyph glyph-name="IJ" unicode="&#x132;" horiz-adv-x="809" 
d="M187 0h-59v710h59v-710zM710 229q0 -244 -250 -244q-72 0 -121 9v56q62 -10 121 -10q91 0 141 43t50 148v479h59v-481z" />
    <glyph glyph-name="ij" unicode="&#x133;" horiz-adv-x="591" 
d="M112 587v117h64v-117h-64zM412 587v117h64v-117h-64zM118 0v500h53v-500h-53zM316 -211q-52 0 -78 6v47q42 -5 80 -5q102 0 102 125v538h53v-547q0 -76 -39.5 -120t-117.5 -44z" />
    <glyph glyph-name="Jcircumflex" unicode="&#x134;" horiz-adv-x="494" 
d="M482 761h-59l-59 73l-60 -73h-59l87 99h64zM395 229q0 -244 -250 -244q-72 0 -121 9v56q62 -10 121 -10q91 0 141 43t50 148v479h59v-481z" />
    <glyph glyph-name="jcircumflex" unicode="&#x135;" horiz-adv-x="302" 
d="M263 580h-48l-60 124l-60 -124h-48l80 152h56zM27 -211q-52 0 -78 6v47q42 -5 80 -5q102 0 102 125v538h53v-547q0 -76 -39.5 -120t-117.5 -44z" />
    <glyph glyph-name="uni0136" unicode="&#x136;" horiz-adv-x="903" 
d="M519 446l347 -446h-76l-318 408l-285 -232v-176h-59v710h59v-469l573 469h84zM438 -141v84h66v-73q0 -39 -12.5 -62t-45.5 -39l-15 20q27 14 35 30.5t8 39.5h-36z" />
    <glyph glyph-name="uni0137" unicode="&#x137;" horiz-adv-x="755" 
d="M442 326l272 -326h-70l-247 296l-221 -147v-149h-53v725h53v-522l434 297h83zM349 -141v84h66v-73q0 -39 -12.5 -62t-45.5 -39l-15 20q27 14 35 30.5t8 39.5h-36z" />
    <glyph glyph-name="kgreenlandic" unicode="&#x138;" horiz-adv-x="750" 
d="M639 0l-247 296l-221 -147v-149h-53v500h53v-297l434 297h83l-251 -174l272 -326h-70z" />
    <glyph glyph-name="Lacute" unicode="&#x139;" horiz-adv-x="796" 
d="M125 760l159 99h76l-167 -99h-68zM128 0v710h59v-658h573v-52h-632z" />
    <glyph glyph-name="lacute" unicode="&#x13a;" horiz-adv-x="299" 
d="M116 760l159 99h76l-167 -99h-68zM176 725v-725h-53v725h53z" />
    <glyph glyph-name="uni013B" unicode="&#x13b;" horiz-adv-x="796" 
d="M128 0v710h59v-658h573v-52h-632zM415 -231l-15 20q27 14 35 30.5t8 39.5h-36v84h66v-73q0 -39 -12.5 -62t-45.5 -39z" />
    <glyph glyph-name="uni013C" unicode="&#x13c;" horiz-adv-x="299" 
d="M176 725v-725h-53v725h53zM125 -231l-15 20q27 14 35 30.5t8 39.5h-36v84h66v-73q0 -39 -12.5 -62t-45.5 -39z" />
    <glyph glyph-name="Lcaron" unicode="&#x13d;" horiz-adv-x="796" 
d="M128 0v710h59v-658h573v-52h-632zM331 537l-13 20q42 22 42 68h-36v85h66v-73q0 -38 -13 -61.5t-46 -38.5z" />
    <glyph glyph-name="lcaron" unicode="&#x13e;" horiz-adv-x="300" 
d="M176 725v-725h-53v725h53zM254 537l-14 20q42 22 42 68h-35v85h65v-73q0 -39 -12.5 -62t-45.5 -38z" />
    <glyph glyph-name="Ldot" unicode="&#x13f;" horiz-adv-x="796" 
d="M128 0v710h59v-658h573v-52h-632zM521 500v-103h-80v103h80z" />
    <glyph glyph-name="ldot" unicode="&#x140;" horiz-adv-x="330" 
d="M176 725v-725h-53v725h53zM356 500v-103h-80v103h80z" />
    <glyph glyph-name="Lslash" unicode="&#x141;" horiz-adv-x="796" 
d="M187 52h573v-52h-632v302l-141 -60v47l141 60v361h59v-335l318 136v-47l-318 -136v-276z" />
    <glyph glyph-name="lslash" unicode="&#x142;" horiz-adv-x="299" 
d="M253 514v-42l-77 -62v-410h-53v368l-77 -62v41l77 62v316h53v-273z" />
    <glyph glyph-name="Nacute" unicode="&#x143;" horiz-adv-x="994" 
d="M463 760l159 99h76l-167 -99h-68zM127 0v710h73l559 -582q35 -37 52 -65h2q-1 26 -1 77v570h55v-710h-64l-568 590q-31 32 -51 63h-2v-73v-580h-55z" />
    <glyph glyph-name="nacute" unicode="&#x144;" horiz-adv-x="848" 
d="M426 580l166 150h73l-176 -150h-63zM118 0v500h53v-146q70 165 294 165q141 0 215 -69.5t74 -202.5v-247h-54v234q0 238 -246 238q-129 0 -206 -64.5t-77 -173.5v-234h-53z" />
    <glyph glyph-name="uni0145" unicode="&#x145;" horiz-adv-x="994" 
d="M127 0v710h73l559 -582q35 -37 52 -65h2q-1 26 -1 77v570h55v-710h-64l-568 590q-31 32 -51 63h-2v-73v-580h-55zM472 -231l-15 20q27 14 35 30.5t8 39.5h-36v84h66v-73q0 -39 -12.5 -62t-45.5 -39z" />
    <glyph glyph-name="uni0146" unicode="&#x146;" horiz-adv-x="848" 
d="M118 0v500h53v-146q70 165 294 165q141 0 215 -69.5t74 -202.5v-247h-54v234q0 238 -246 238q-129 0 -206 -64.5t-77 -173.5v-234h-53zM403 -231l-15 20q27 14 35 30.5t8 39.5h-36v84h66v-73q0 -39 -12.5 -62t-45.5 -39z" />
    <glyph glyph-name="Ncaron" unicode="&#x147;" horiz-adv-x="994" 
d="M680 854l-150 -99h-65l-150 99h68l114 -74l115 74h68zM127 0v710h73l559 -582q35 -37 52 -65h2q-1 26 -1 77v570h55v-710h-64l-568 590q-31 32 -51 63h-2v-73v-580h-55z" />
    <glyph glyph-name="ncaron" unicode="&#x148;" horiz-adv-x="848" 
d="M254 719h59l146 -125l145 125h59l-173 -150h-63zM118 0v500h53v-146q70 165 294 165q141 0 215 -69.5t74 -202.5v-247h-54v234q0 238 -246 238q-129 0 -206 -64.5t-77 -173.5v-234h-53z" />
    <glyph glyph-name="napostrophe" unicode="&#x149;" horiz-adv-x="848" 
d="M62 537l-13 20q42 22 42 68h-36v85h66v-73q0 -38 -13 -61.5t-46 -38.5zM118 0v500h53v-146q70 165 294 165q141 0 215 -69.5t74 -202.5v-247h-54v234q0 238 -246 238q-129 0 -206 -64.5t-77 -173.5v-234h-53z" />
    <glyph glyph-name="Eng" unicode="&#x14a;" horiz-adv-x="994" 
d="M812 710h55v-723q0 -202 -222 -202q-62 0 -117 7v53q62 -8 119 -8q165 0 165 156v7h-9l-568 590q-31 32 -51 63h-2v-73v-580h-55v710h73l559 -582q35 -37 52 -65h2q-1 26 -1 77v570z" />
    <glyph glyph-name="eng" unicode="&#x14b;" horiz-adv-x="848" 
d="M465 519q141 0 215 -69.5t74 -202.5v-291q0 -75 -45.5 -117t-137.5 -42q-48 0 -73 6v44q38 -5 75 -5q128 0 128 122v36h-1v234q0 238 -246 238q-129 0 -206 -64.5t-77 -173.5v-234h-53v500h53v-146q70 165 294 165z" />
    <glyph glyph-name="Omacron" unicode="&#x14c;" horiz-adv-x="971" 
d="M283 775v41h406v-41h-406zM486 -24q-195 0 -321.5 103.5t-126.5 275.5q0 173 126.5 276t321.5 103q194 0 320.5 -103t126.5 -276q0 -172 -126.5 -275.5t-320.5 -103.5zM486 26q167 0 276 89.5t109 239.5t-109 239.5t-276 89.5q-168 0 -277 -89.5t-109 -239.5
q0 -149 109 -239t277 -90z" />
    <glyph glyph-name="omacron" unicode="&#x14d;" horiz-adv-x="773" 
d="M167 621v40h440v-40h-440zM387 -19q-154 0 -248 73.5t-94 195.5t94 195.5t248 73.5q153 0 247 -73.5t94 -195.5t-94 -195.5t-247 -73.5zM387 27q129 0 207 60.5t78 162.5t-78 162.5t-207 60.5q-130 0 -208 -60.5t-78 -162.5t78 -162.5t208 -60.5z" />
    <glyph glyph-name="Obreve" unicode="&#x14e;" horiz-adv-x="971" 
d="M360 859q5 -29 39 -48.5t87 -19.5q52 0 86 19.5t39 48.5h46q-5 -49 -53 -76.5t-118 -27.5q-71 0 -118.5 27.5t-53.5 76.5h46zM486 -24q-195 0 -321.5 103.5t-126.5 275.5q0 173 126.5 276t321.5 103q194 0 320.5 -103t126.5 -276q0 -172 -126.5 -275.5t-320.5 -103.5z
M486 26q167 0 276 89.5t109 239.5t-109 239.5t-276 89.5q-168 0 -277 -89.5t-109 -239.5q0 -149 109 -239t277 -90z" />
    <glyph glyph-name="obreve" unicode="&#x14f;" horiz-adv-x="773" 
d="M247 730q5 -56 41.5 -87.5t98.5 -31.5q61 0 97.5 31.5t41.5 87.5h46q-6 -76 -56 -115.5t-129 -39.5q-80 0 -130 39.5t-56 115.5h46zM387 -19q-154 0 -248 73.5t-94 195.5t94 195.5t248 73.5q153 0 247 -73.5t94 -195.5t-94 -195.5t-247 -73.5zM387 27q129 0 207 60.5
t78 162.5t-78 162.5t-207 60.5q-130 0 -208 -60.5t-78 -162.5t78 -162.5t208 -60.5z" />
    <glyph glyph-name="Ohungarumlaut" unicode="&#x150;" horiz-adv-x="971" 
d="M382 760l127 99h60l-131 -99h-56zM534 760l127 99h60l-132 -99h-55zM486 -24q-195 0 -321.5 103.5t-126.5 275.5q0 173 126.5 276t321.5 103q194 0 320.5 -103t126.5 -276q0 -172 -126.5 -275.5t-320.5 -103.5zM486 26q167 0 276 89.5t109 239.5t-109 239.5t-276 89.5
q-168 0 -277 -89.5t-109 -239.5q0 -149 109 -239t277 -90z" />
    <glyph glyph-name="ohungarumlaut" unicode="&#x151;" horiz-adv-x="773" 
d="M281 580l153 150h59l-158 -150h-54zM438 580l154 150h58l-158 -150h-54zM387 -19q-154 0 -248 73.5t-94 195.5t94 195.5t248 73.5q153 0 247 -73.5t94 -195.5t-94 -195.5t-247 -73.5zM387 27q129 0 207 60.5t78 162.5t-78 162.5t-207 60.5q-130 0 -208 -60.5t-78 -162.5
t78 -162.5t208 -60.5z" />
    <glyph glyph-name="OE" unicode="&#x152;" horiz-adv-x="1542" 
d="M845 50h612v-50h-1011q-180 0 -294 99.5t-114 265.5q0 165 114 255t299 90h999v-50h-605v-271h588v-50h-588v-289zM445 51h341v608h-333q-162 0 -258 -75.5t-96 -218.5q0 -147 95.5 -230.5t250.5 -83.5z" />
    <glyph glyph-name="oe" unicode="&#x153;" horiz-adv-x="1397" 
d="M1336 264v-24h-609q3 -100 77.5 -156.5t205.5 -56.5q213 2 272 132l48 -19q-75 -159 -320 -159q-115 0 -196 39.5t-116 112.5q-38 -70 -118.5 -111t-193.5 -41q-157 0 -249 76t-92 193q0 118 91.5 193.5t249.5 75.5q113 0 193.5 -40.5t118.5 -110.5q35 73 115 112t190 39
q154 0 243.5 -68t89.5 -187zM727 283h553q-1 90 -78 142t-199 52q-120 0 -196 -53t-80 -141zM386 27q133 0 209.5 61.5t76.5 161.5q0 99 -76.5 161t-209.5 62q-132 0 -208.5 -61.5t-76.5 -161.5t76.5 -161.5t208.5 -61.5z" />
    <glyph glyph-name="Racute" unicode="&#x154;" horiz-adv-x="907" 
d="M630 859l-167 -99h-68l159 99h76zM775 0l-218 309h-370v-309h-60v710h463q120 0 177.5 -55.5t57.5 -142.5q0 -77 -50.5 -131t-149.5 -65l223 -316h-73zM187 659v-300h396q90 0 135.5 43t45.5 110t-44 107t-136 40h-397z" />
    <glyph glyph-name="racute" unicode="&#x155;" horiz-adv-x="489" 
d="M229 580l166 150h73l-176 -150h-63zM168 320q22 91 83 143t149 52q35 0 68 -6v-52q-34 7 -67 7q-99 0 -158 -62q-72 -75 -72 -221v-181h-53v500h50v-180z" />
    <glyph glyph-name="uni0156" unicode="&#x156;" horiz-adv-x="907" 
d="M848 0h-73l-218 309h-370v-309h-60v710h463q120 0 177.5 -55.5t57.5 -142.5q0 -77 -50.5 -131t-149.5 -65zM187 659v-300h396q90 0 135.5 43t45.5 110t-44 107t-136 40h-397zM416 -141v84h66v-73q0 -39 -12.5 -62t-45.5 -39l-15 20q27 14 35 30.5t8 39.5h-36z" />
    <glyph glyph-name="uni0157" unicode="&#x157;" horiz-adv-x="489" 
d="M168 320q22 91 83 143t149 52q35 0 68 -6v-52q-34 7 -67 7q-99 0 -158 -62q-72 -75 -72 -221v-181h-53v500h50v-180zM120 -231l-15 20q27 14 35 30.5t8 39.5h-36v84h66v-73q0 -39 -12.5 -62t-45.5 -39z" />
    <glyph glyph-name="Rcaron" unicode="&#x158;" horiz-adv-x="907" 
d="M462 755h-65l-150 99h68l114 -74l115 74h68zM775 0l-218 309h-370v-309h-60v710h463q120 0 177.5 -55.5t57.5 -142.5q0 -77 -50.5 -131t-149.5 -65l223 -316h-73zM187 659v-300h396q90 0 135.5 43t45.5 110t-44 107t-136 40h-397z" />
    <glyph glyph-name="rcaron" unicode="&#x159;" horiz-adv-x="489" 
d="M58 719h59l146 -125l145 125h59l-173 -150h-63zM168 320q22 91 83 143t149 52q35 0 68 -6v-52q-34 7 -67 7q-99 0 -158 -62q-72 -75 -72 -221v-181h-53v500h50v-180z" />
    <glyph glyph-name="Sacute" unicode="&#x15a;" horiz-adv-x="873" 
d="M405 760l159 99h76l-167 -99h-68zM458 -24q-362 0 -407 248l63 7q17 -100 104.5 -152.5t241.5 -52.5q145 0 216.5 37.5t71.5 117.5q0 72 -46.5 106t-161.5 44l-224 21q-117 11 -173.5 55.5t-56.5 128.5q0 96 87.5 147t248.5 51q332 0 376 -225l-62 -11q-18 95 -94 140.5
t-220 45.5q-132 0 -203 -37t-71 -108q0 -64 45 -95t149 -42l218 -20q133 -13 191 -58.5t58 -137.5q0 -210 -351 -210z" />
    <glyph glyph-name="sacute" unicode="&#x15b;" horiz-adv-x="731" 
d="M333 580l166 150h73l-176 -150h-63zM392 -19q-272 0 -335 157l50 20q52 -133 292 -133q106 0 161.5 29t55.5 84q0 38 -26 59t-94 27l-251 19q-85 7 -125.5 38t-40.5 91q0 69 71 108t198 39q258 0 313 -143l-52 -18q-27 59 -89 88t-177 29q-210 0 -210 -101q0 -76 119 -85
l252 -19q91 -8 128 -40t37 -89q0 -76 -68.5 -118t-208.5 -42z" />
    <glyph glyph-name="Scircumflex" unicode="&#x15c;" horiz-adv-x="873" 
d="M622 760h-69l-114 74l-114 -74h-68l150 99h65zM458 -24q-362 0 -407 248l63 7q17 -100 104.5 -152.5t241.5 -52.5q145 0 216.5 37.5t71.5 117.5q0 72 -46.5 106t-161.5 44l-224 21q-117 11 -173.5 55.5t-56.5 128.5q0 96 87.5 147t248.5 51q332 0 376 -225l-62 -11
q-18 95 -94 140.5t-220 45.5q-132 0 -203 -37t-71 -108q0 -64 45 -95t149 -42l218 -20q133 -13 191 -58.5t58 -137.5q0 -210 -351 -210z" />
    <glyph glyph-name="scircumflex" unicode="&#x15d;" horiz-adv-x="731" 
d="M569 580h-59l-146 124l-145 -124h-59l173 150h63zM392 -19q-272 0 -335 157l50 20q52 -133 292 -133q106 0 161.5 29t55.5 84q0 38 -26 59t-94 27l-251 19q-85 7 -125.5 38t-40.5 91q0 69 71 108t198 39q258 0 313 -143l-52 -18q-27 59 -89 88t-177 29q-210 0 -210 -101
q0 -76 119 -85l252 -19q91 -8 128 -40t37 -89q0 -76 -68.5 -118t-208.5 -42z" />
    <glyph glyph-name="Scedilla" unicode="&#x15e;" horiz-adv-x="873" 
d="M458 -24h-2l-31 -38q22 16 65 16q46 0 73 -19t27 -53q0 -35 -32.5 -57t-84.5 -22q-95 0 -116 60l41 6q15 -34 75 -34q72 0 72 46q0 45 -69 45q-39 0 -70 -17l-30 9l43 59q-326 12 -368 247l63 7q17 -100 104.5 -152.5t241.5 -52.5q145 0 216.5 37.5t71.5 117.5
q0 72 -46.5 106t-161.5 44l-224 21q-117 11 -173.5 55.5t-56.5 128.5q0 96 87.5 147t248.5 51q332 0 376 -225l-62 -11q-18 95 -94 140.5t-220 45.5q-132 0 -203 -37t-71 -108q0 -64 45 -95t149 -42l218 -20q133 -13 191 -58.5t58 -137.5q0 -210 -351 -210z" />
    <glyph glyph-name="scedilla" unicode="&#x15f;" horiz-adv-x="731" 
d="M669 141q0 -76 -68.5 -118t-208.5 -42l-33 -40q22 16 65 16q46 0 73 -19t27 -53q0 -35 -32.5 -57t-84.5 -22q-95 0 -116 60l41 6q15 -34 75 -34q72 0 72 46q0 45 -69 45q-39 0 -70 -17l-30 9l45 61q-239 9 -298 156l50 20q52 -133 292 -133q106 0 161.5 29t55.5 84
q0 38 -26 59t-94 27l-251 19q-85 7 -125.5 38t-40.5 91q0 69 71 108t198 39q258 0 313 -143l-52 -18q-27 59 -89 88t-177 29q-210 0 -210 -101q0 -76 119 -85l252 -19q91 -8 128 -40t37 -89z" />
    <glyph glyph-name="Scaron" unicode="&#x160;" horiz-adv-x="873" 
d="M622 854l-150 -99h-65l-150 99h68l114 -74l115 74h68zM458 -24q-362 0 -407 248l63 7q17 -100 104.5 -152.5t241.5 -52.5q145 0 216.5 37.5t71.5 117.5q0 72 -46.5 106t-161.5 44l-224 21q-117 11 -173.5 55.5t-56.5 128.5q0 96 87.5 147t248.5 51q332 0 376 -225
l-62 -11q-18 95 -94 140.5t-220 45.5q-132 0 -203 -37t-71 -108q0 -64 45 -95t149 -42l218 -20q133 -13 191 -58.5t58 -137.5q0 -210 -351 -210z" />
    <glyph glyph-name="scaron" unicode="&#x161;" horiz-adv-x="731" 
d="M162 719h59l146 -125l145 125h59l-173 -150h-63zM392 -19q-272 0 -335 157l50 20q52 -133 292 -133q106 0 161.5 29t55.5 84q0 38 -26 59t-94 27l-251 19q-85 7 -125.5 38t-40.5 91q0 69 71 108t198 39q258 0 313 -143l-52 -18q-27 59 -89 88t-177 29q-210 0 -210 -101
q0 -76 119 -85l252 -19q91 -8 128 -40t37 -89q0 -76 -68.5 -118t-208.5 -42z" />
    <glyph glyph-name="uni0162" unicode="&#x162;" horiz-adv-x="758" 
d="M408 0h-12l-49 -59q22 16 65 16q46 0 73 -19t27 -53q0 -35 -32.5 -57t-84.5 -22q-95 0 -116 60l41 6q15 -34 75 -34q72 0 72 46q0 45 -69 45q-39 0 -70 -17l-30 9l58 79h-7v660h-339v50h738v-50h-340v-660z" />
    <glyph glyph-name="uni0163" unicode="&#x163;" horiz-adv-x="528" 
d="M386 -43q46 0 73 -19t27 -53q0 -35 -32.5 -57t-84.5 -22q-95 0 -116 60l41 6q15 -34 75 -34q72 0 72 46q0 45 -69 45q-39 0 -70 -17l-30 9l50 68q-142 20 -142 174v292h-159v45h159v134l54 23v-157h249v-45h-249v-288q0 -70 36.5 -100.5t105.5 -30.5q51 0 108 13v-47
q-46 -16 -114 -16h-12l-37 -45q22 16 65 16z" />
    <glyph glyph-name="Tcaron" unicode="&#x164;" horiz-adv-x="758" 
d="M412 755h-65l-150 99h68l114 -74l115 74h68zM748 710v-50h-340v-660h-59v660h-339v50h738z" />
    <glyph glyph-name="tcaron" unicode="&#x165;" horiz-adv-x="528" 
d="M357 537l-13 20q42 22 42 68h-36v85h66v-73q0 -38 -13 -61.5t-46 -38.5zM21 455v45h159v134l54 23v-157h249v-45h-249v-288q0 -70 36.5 -100.5t105.5 -30.5q51 0 108 13v-47q-46 -16 -114 -16q-190 0 -190 177v292h-159z" />
    <glyph glyph-name="Tbar" unicode="&#x166;" horiz-adv-x="758" 
d="M748 660h-340v-220h252v-39h-252v-401h-59v401h-251v39h251v220h-339v50h738v-50z" />
    <glyph glyph-name="tbar" unicode="&#x167;" horiz-adv-x="529" 
d="M376 36q51 0 108 13v-47q-46 -16 -114 -16q-189 0 -189 177v90h-160v45h160v157h-160v45h160v134l53 23v-157h249v-45h-249v-157h248v-45h-248v-86q0 -70 36.5 -100.5t105.5 -30.5z" />
    <glyph glyph-name="Utilde" unicode="&#x168;" horiz-adv-x="944" 
d="M564 755q-45 0 -99.5 33.5t-86.5 33.5q-29 0 -48 -16t-23 -44l-42 5q6 45 36 70.5t79 25.5q46 0 100 -33.5t86 -33.5q30 0 48.5 16t22.5 45l42 -6q-6 -45 -36 -70.5t-79 -25.5zM99 710h59v-402q0 -125 83 -203t231 -78q147 0 230.5 78t83.5 203v402h59v-403
q0 -149 -98.5 -240t-274.5 -91q-177 0 -275 91t-98 240v403z" />
    <glyph glyph-name="utilde" unicode="&#x169;" horiz-adv-x="839" 
d="M510 582q-40 0 -75 19t-66.5 38.5t-63.5 19.5q-33 0 -54.5 -18.5t-25.5 -51.5l-42 5q6 49 38.5 77.5t85.5 28.5q40 0 75 -19t66.5 -38.5t63.5 -19.5q33 0 54.5 18.5t25.5 51.5l42 -5q-6 -50 -38.5 -78t-85.5 -28zM376 -19q-282 0 -282 269v250h53v-248q0 -118 65 -171.5
t171 -53.5q137 0 210.5 70.5t73.5 170.5v232h54v-500h-53v153q-32 -84 -107.5 -128t-184.5 -44z" />
    <glyph glyph-name="Umacron" unicode="&#x16a;" horiz-adv-x="944" 
d="M270 775v41h406v-41h-406zM99 710h59v-402q0 -125 83 -203t231 -78q147 0 230.5 78t83.5 203v402h59v-403q0 -149 -98.5 -240t-274.5 -91q-177 0 -275 91t-98 240v403z" />
    <glyph glyph-name="umacron" unicode="&#x16b;" horiz-adv-x="839" 
d="M185 621v40h440v-40h-440zM376 -19q-282 0 -282 269v250h53v-248q0 -118 65 -171.5t171 -53.5q137 0 210.5 70.5t73.5 170.5v232h54v-500h-53v153q-32 -84 -107.5 -128t-184.5 -44z" />
    <glyph glyph-name="Ubreve" unicode="&#x16c;" horiz-adv-x="944" 
d="M347 859q5 -29 39 -48.5t87 -19.5q52 0 86 19.5t39 48.5h46q-5 -49 -53 -76.5t-118 -27.5q-71 0 -118.5 27.5t-53.5 76.5h46zM99 710h59v-402q0 -125 83 -203t231 -78q147 0 230.5 78t83.5 203v402h59v-403q0 -149 -98.5 -240t-274.5 -91q-177 0 -275 91t-98 240v403z
" />
    <glyph glyph-name="ubreve" unicode="&#x16d;" horiz-adv-x="839" 
d="M265 730q5 -56 41.5 -87.5t98.5 -31.5q61 0 97.5 31.5t41.5 87.5h46q-6 -76 -56 -115.5t-129 -39.5q-80 0 -130 39.5t-56 115.5h46zM376 -19q-282 0 -282 269v250h53v-248q0 -118 65 -171.5t171 -53.5q137 0 210.5 70.5t73.5 170.5v232h54v-500h-53v153
q-32 -84 -107.5 -128t-184.5 -44z" />
    <glyph glyph-name="Uring" unicode="&#x16e;" horiz-adv-x="944" 
d="M471 738q-46 0 -75.5 27t-29.5 70t29.5 70t75.5 27t75 -27t29 -70t-29 -70t-75 -27zM471 771q30 0 47.5 18t17.5 46q0 27 -18 45t-47 18q-30 0 -47.5 -17.5t-17.5 -45.5t17.5 -46t47.5 -18zM99 710h59v-402q0 -125 83 -203t231 -78q147 0 230.5 78t83.5 203v402h59v-403
q0 -149 -98.5 -240t-274.5 -91q-177 0 -275 91t-98 240v403z" />
    <glyph glyph-name="uring" unicode="&#x16f;" horiz-adv-x="839" 
d="M405 562q-68 0 -106.5 26.5t-38.5 69.5q0 44 38.5 70.5t106.5 26.5t106.5 -26.5t38.5 -70.5q0 -43 -38.5 -69.5t-106.5 -26.5zM405 592q52 0 79.5 18t27.5 48t-27.5 48.5t-79.5 18.5t-80 -18.5t-28 -48.5t28 -48t80 -18zM376 -19q-282 0 -282 269v250h53v-248
q0 -118 65 -171.5t171 -53.5q137 0 210.5 70.5t73.5 170.5v232h54v-500h-53v153q-32 -84 -107.5 -128t-184.5 -44z" />
    <glyph glyph-name="Uhungarumlaut" unicode="&#x170;" horiz-adv-x="944" 
d="M369 760l127 99h60l-131 -99h-56zM521 760l127 99h60l-132 -99h-55zM99 710h59v-402q0 -125 83 -203t231 -78q147 0 230.5 78t83.5 203v402h59v-403q0 -149 -98.5 -240t-274.5 -91q-177 0 -275 91t-98 240v403z" />
    <glyph glyph-name="uhungarumlaut" unicode="&#x171;" horiz-adv-x="839" 
d="M299 580l153 150h59l-158 -150h-54zM456 580l154 150h58l-158 -150h-54zM376 -19q-282 0 -282 269v250h53v-248q0 -118 65 -171.5t171 -53.5q137 0 210.5 70.5t73.5 170.5v232h54v-500h-53v153q-32 -84 -107.5 -128t-184.5 -44z" />
    <glyph glyph-name="Uogonek" unicode="&#x172;" horiz-adv-x="944" 
d="M786 710h59v-403q0 -111 -55.5 -191t-158.5 -116h2h-3l-2 -1q-29 -10 -65 -16q-49 -16 -74.5 -41t-25.5 -54q0 -25 18.5 -41t47.5 -16q30 0 50.5 16.5t25.5 44.5l40 -7q-7 -41 -38.5 -63.5t-82.5 -22.5q-46 0 -76.5 23.5t-30.5 60.5q0 56 64 93h-9q-177 0 -275 91
t-98 240v403h59v-402q0 -125 83 -203t231 -78q147 0 230.5 78t83.5 203v402z" />
    <glyph glyph-name="uogonek" unicode="&#x173;" horiz-adv-x="839" 
d="M692 -108l40 -7q-7 -41 -38.5 -63.5t-82.5 -22.5q-46 0 -76.5 23.5t-30.5 60.5q0 94 164 128v142q-32 -84 -107.5 -128t-184.5 -44q-282 0 -282 269v250h53v-248q0 -118 65 -171.5t171 -53.5q137 0 210.5 70.5t73.5 170.5v232h54v-500h-1q-82 -13 -126 -43t-44 -69
q0 -25 18.5 -41t47.5 -16q30 0 50.5 16.5t25.5 44.5z" />
    <glyph glyph-name="Wcircumflex" unicode="&#x174;" horiz-adv-x="1279" 
d="M823 760h-69l-114 74l-114 -74h-68l150 99h65zM291 0l-264 710h63l222 -615q15 -39 15 -41h2q0 2 15 41l266 615h58l266 -615q15 -34 16 -41h2q0 3 2.5 9.5t6 16t5.5 15.5l223 615h63l-264 -710h-71l-260 603q-15 37 -16 48h-3q-3 -18 -17 -48l-259 -603h-71z" />
    <glyph glyph-name="wcircumflex" unicode="&#x175;" horiz-adv-x="1112" 
d="M761 580h-59l-146 124l-145 -124h-59l173 150h63zM262 0l-239 500h57l191 -400l9 -21q9 -21 12 -31h3q5 14 24 52l207 400h60l207 -400q19 -38 24 -52h2q3 9 11.5 27.5t10.5 24.5l191 400h57l-239 -500h-63l-210 407q-10 17 -20 46h-2q-10 -29 -20 -46l-210 -407h-63z
" />
    <glyph glyph-name="Ycircumflex" unicode="&#x176;" horiz-adv-x="816" 
d="M591 760h-69l-114 74l-114 -74h-68l150 99h65zM376 0v267l-373 443h75l282 -336q43 -51 46 -59h2q3 9 45 59l285 336h75l-377 -443v-267h-60z" />
    <glyph glyph-name="ycircumflex" unicode="&#x177;" horiz-adv-x="692" 
d="M551 580h-59l-146 124l-145 -124h-59l173 150h63zM95 -214q-30 0 -55 4v47q26 -3 52 -3q86 0 135.5 36.5t85.5 102.5l12 22l-317 505h63l242 -391q6 -9 12.5 -20.5t14.5 -26t12 -22.5h2q24 45 37 67l233 393h60l-318 -532q-56 -98 -115.5 -140t-155.5 -42z" />
    <glyph glyph-name="Ydieresis" unicode="&#x178;" horiz-adv-x="816" 
d="M216 760v98h69v-98h-69zM531 760v98h70v-98h-70zM376 0v267l-373 443h75l282 -336q43 -51 46 -59h2q3 9 45 59l285 336h75l-377 -443v-267h-60z" />
    <glyph glyph-name="Zacute" unicode="&#x179;" horiz-adv-x="828" 
d="M392 760l159 99h76l-167 -99h-68zM56 48l631 612h-607v50h690v-47l-633 -613h655v-50h-736v48z" />
    <glyph glyph-name="zacute" unicode="&#x17a;" horiz-adv-x="734" 
d="M346 580l166 150h73l-176 -150h-63zM67 46l518 409h-499v45h578v-44l-521 -411h536v-45h-612v46z" />
    <glyph glyph-name="Zdotaccent" unicode="&#x17b;" horiz-adv-x="828" 
d="M393 760v99h64v-99h-64zM56 48l631 612h-607v50h690v-47l-633 -613h655v-50h-736v48z" />
    <glyph glyph-name="zdotaccent" unicode="&#x17c;" horiz-adv-x="734" 
d="M344 587v117h64v-117h-64zM67 46l518 409h-499v45h578v-44l-521 -411h536v-45h-612v46z" />
    <glyph glyph-name="Zcaron" unicode="&#x17d;" horiz-adv-x="828" 
d="M608 854l-150 -99h-65l-150 99h68l114 -74l115 74h68zM56 48l631 612h-607v50h690v-47l-633 -613h655v-50h-736v48z" />
    <glyph glyph-name="zcaron" unicode="&#x17e;" horiz-adv-x="734" 
d="M175 719h59l146 -125l145 125h59l-173 -150h-63zM67 46l518 409h-499v45h578v-44l-521 -411h536v-45h-612v46z" />
    <glyph glyph-name="florin" unicode="&#x192;" horiz-adv-x="630" 
d="M516 673q-86 0 -125.5 -35.5t-54.5 -129.5l-14 -92h263v-43h-270l-81 -523h-56l83 523h-221v43h228l12 76q21 131 74.5 179.5t166.5 48.5q42 0 86 -12v-48q-52 13 -91 13z" />
    <glyph glyph-name="AEacute" unicode="&#x1fc;" horiz-adv-x="1516" 
d="M1251 859l-167 -99h-68l159 99h76zM781 50h649v-50h-708v171h-476l-169 -171h-72l710 710h708v-50h-642v-271h625v-50h-625v-289zM296 221h426v431z" />
    <glyph glyph-name="aeacute" unicode="&#x1fd;" horiz-adv-x="1305" 
d="M862 730l-176 -150h-63l166 150h73zM1244 265v-24h-570q2 -100 71.5 -157t191.5 -57q199 2 254 133l47 -19q-71 -160 -301 -160q-112 0 -189.5 42.5t-108.5 119.5q-81 -162 -331 -162q-112 0 -175 37.5t-63 104.5q0 69 56 103t182 40l310 14v29q0 84 -54.5 124.5
t-169.5 40.5q-224 0 -247 -139h-56q14 88 93.5 136t210.5 48q210 0 261 -126q38 61 109 93.5t166 32.5q146 0 229.5 -67.5t83.5 -186.5zM1188 284v1q0 88 -72 140t-185 52q-112 0 -182.5 -53t-74.5 -140h514zM618 214v28l-315 -17q-93 -4 -135 -28t-42 -71q0 -49 49 -75
t142 -26q129 0 215 54t86 135z" />
    <glyph glyph-name="Oslashacute" unicode="&#x1fe;" horiz-adv-x="971" 
d="M704 859l-167 -99h-68l159 99h76zM815 623q118 -104 118 -268q0 -172 -126.5 -275.5t-320.5 -103.5q-172 0 -293 82l-82 -75l-32 34l77 70q-118 104 -118 268q0 173 126.5 276t321.5 103q173 0 292 -82l80 73l34 -32zM100 355q0 -138 98 -230l538 489q-104 70 -250 70
q-168 0 -277 -89.5t-109 -239.5zM486 26q167 0 276 89.5t109 239.5q0 140 -98 230l-538 -489q104 -70 251 -70z" />
    <glyph glyph-name="oslashacute" unicode="&#x1ff;" horiz-adv-x="773" 
d="M612 730l-176 -150h-63l166 150h73zM647 434q81 -72 81 -184q0 -122 -94 -195.5t-247 -73.5q-139 0 -230 61l-79 -63l-27 28l74 59q-80 72 -80 184q0 122 94 195.5t248 73.5q136 0 228 -60l77 61l28 -28zM101 250q0 -92 65 -151l409 327q-77 47 -188 47
q-130 0 -208 -60.5t-78 -162.5zM387 27q129 0 207 60.5t78 162.5q0 93 -65 152l-409 -327q74 -48 189 -48z" />
    <glyph glyph-name="uni0218" unicode="&#x218;" horiz-adv-x="873" 
d="M458 -24q-362 0 -407 248l63 7q17 -100 104.5 -152.5t241.5 -52.5q145 0 216.5 37.5t71.5 117.5q0 72 -46.5 106t-161.5 44l-224 21q-117 11 -173.5 55.5t-56.5 128.5q0 96 87.5 147t248.5 51q332 0 376 -225l-62 -11q-18 95 -94 140.5t-220 45.5q-132 0 -203 -37
t-71 -108q0 -64 45 -95t149 -42l218 -20q133 -13 191 -58.5t58 -137.5q0 -210 -351 -210zM432 -234l-15 20q27 14 35 30t8 40h-36v84h66v-73q0 -39 -12.5 -62t-45.5 -39z" />
    <glyph glyph-name="uni0219" unicode="&#x219;" horiz-adv-x="731" 
d="M392 -19q-272 0 -335 157l50 20q52 -133 292 -133q106 0 161.5 29t55.5 84q0 38 -26 59t-94 27l-251 19q-85 7 -125.5 38t-40.5 91q0 69 71 108t198 39q258 0 313 -143l-52 -18q-27 59 -89 88t-177 29q-210 0 -210 -101q0 -76 119 -85l252 -19q91 -8 128 -40t37 -89
q0 -76 -68.5 -118t-208.5 -42zM366 -231l-15 20q27 14 35 30.5t8 39.5h-36v84h66v-73q0 -39 -12.5 -62t-45.5 -39z" />
    <glyph glyph-name="uni021A" unicode="&#x21a;" horiz-adv-x="758" 
d="M10 710h738v-50h-340v-660h-59v660h-339v50zM346 -141v84h66v-73q0 -39 -12.5 -62t-45.5 -39l-15 20q27 14 35 30.5t8 39.5h-36z" />
    <glyph glyph-name="uni021B" unicode="&#x21b;" horiz-adv-x="528" 
d="M21 455v45h159v134l54 23v-157h249v-45h-249v-288q0 -70 36.5 -100.5t105.5 -30.5q51 0 108 13v-47q-46 -16 -114 -16q-190 0 -190 177v292h-159zM328 -231l-15 20q27 14 35 30.5t8 39.5h-36v84h66v-73q0 -39 -12.5 -62t-45.5 -39z" />
    <glyph glyph-name="uni0237" unicode="&#x237;" horiz-adv-x="302" 
d="M27 -211q-52 0 -78 6v47q42 -5 80 -5q102 0 102 125v538h53v-547q0 -76 -39.5 -120t-117.5 -44z" />
    <glyph glyph-name="uni0243" unicode="&#x243;" horiz-adv-x="928" 
d="M850 192q0 -84 -57 -136t-176 -56v-104h-41v104h-218v-104h-40v104h-190v695h190v95h40v-95h218v95h41v-95q109 -4 162 -50.5t53 -122.5q0 -63 -35 -106t-105 -55q78 -10 118 -54.5t40 -114.5zM595 646h-410v-264h417q91 0 131 37.5t40 97.5q0 129 -178 129zM600 49
q191 0 191 144q0 67 -45.5 105.5t-141.5 38.5h-419v-288h415z" />
    <glyph glyph-name="circumflex" unicode="&#x2c6;" horiz-adv-x="600" 
d="M420 580h-59l-146 124l-145 -124h-59l173 150h63z" />
    <glyph glyph-name="caron" unicode="&#x2c7;" horiz-adv-x="600" 
d="M15 719h59l146 -125l145 125h59l-173 -150h-63z" />
    <glyph glyph-name="breve" unicode="&#x2d8;" horiz-adv-x="600" 
d="M104 730q5 -56 41.5 -87.5t98.5 -31.5q61 0 97.5 31.5t41.5 87.5h46q-6 -76 -56 -115.5t-129 -39.5q-80 0 -130 39.5t-56 115.5h46z" />
    <glyph glyph-name="dotaccent" unicode="&#x2d9;" horiz-adv-x="600" 
d="M49 587v117h64v-117h-64z" />
    <glyph glyph-name="ring" unicode="&#x2da;" horiz-adv-x="600" 
d="M172 562q-68 0 -106.5 26.5t-38.5 69.5q0 44 38.5 70.5t106.5 26.5t106.5 -26.5t38.5 -70.5q0 -43 -38.5 -69.5t-106.5 -26.5zM172 592q52 0 79.5 18t27.5 48t-27.5 48.5t-79.5 18.5t-80 -18.5t-28 -48.5t28 -48t80 -18z" />
    <glyph glyph-name="ogonek" unicode="&#x2db;" horiz-adv-x="600" 
d="M260 -115q-7 -41 -38.5 -63.5t-82.5 -22.5q-46 0 -76.5 23.5t-30.5 60.5q0 94 164 128l52 -11q-82 -13 -126 -43t-44 -69q0 -25 18.5 -41t47.5 -16q30 0 50.5 16.5t25.5 44.5z" />
    <glyph glyph-name="tilde" unicode="&#x2dc;" horiz-adv-x="600" 
d="M378 582q-40 0 -75 19t-66.5 38.5t-63.5 19.5q-33 0 -54.5 -18.5t-25.5 -51.5l-42 5q6 49 38.5 77.5t85.5 28.5q40 0 75 -19t66.5 -38.5t63.5 -19.5q33 0 54.5 18.5t25.5 51.5l42 -5q-6 -50 -38.5 -78t-85.5 -28z" />
    <glyph glyph-name="hungarumlaut" unicode="&#x2dd;" horiz-adv-x="600" 
d="M51 580l153 150h59l-158 -150h-54zM208 580l154 150h58l-158 -150h-54z" />
    <glyph glyph-name="gravecomb" unicode="&#x300;" horiz-adv-x="0" 
d="M-17 580h-63l-175 150h73z" />
    <glyph glyph-name="acutecomb" unicode="&#x301;" horiz-adv-x="0" 
d="M-282 580l166 150h73l-176 -150h-63z" />
    <glyph glyph-name="uni0302" unicode="&#x302;" horiz-adv-x="0" 
d="M-15 580h-59l-146 124l-145 -124h-59l173 150h63z" />
    <glyph glyph-name="tildecomb" unicode="&#x303;" horiz-adv-x="0" 
d="M-175 582q-40 0 -75 19t-66.5 38.5t-63.5 19.5q-33 0 -54.5 -18.5t-25.5 -51.5l-42 5q6 49 38.5 77.5t85.5 28.5q40 0 75 -19t66.5 -38.5t63.5 -19.5q33 0 54.5 18.5t25.5 51.5l42 -5q-6 -50 -38.5 -78t-85.5 -28z" />
    <glyph glyph-name="uni0304" unicode="&#x304;" horiz-adv-x="0" 
d="M-490 621v40h440v-40h-440z" />
    <glyph glyph-name="uni0306" unicode="&#x306;" horiz-adv-x="0" 
d="M-382 730q5 -56 41.5 -87.5t98.5 -31.5q61 0 97.5 31.5t41.5 87.5h46q-6 -76 -56 -115.5t-129 -39.5q-80 0 -130 39.5t-56 115.5h46z" />
    <glyph glyph-name="uni0307" unicode="&#x307;" horiz-adv-x="0" 
d="M-115 587v117h64v-117h-64z" />
    <glyph glyph-name="uni0308" unicode="&#x308;" horiz-adv-x="0" 
d="M-435 592v113h69v-113h-69zM-123 592v113h69v-113h-69z" />
    <glyph glyph-name="uni030A" unicode="&#x30a;" horiz-adv-x="0" 
d="M-172 562q-68 0 -106.5 26.5t-38.5 69.5q0 44 38.5 70.5t106.5 26.5t106.5 -26.5t38.5 -70.5q0 -43 -38.5 -69.5t-106.5 -26.5zM-172 592q52 0 79.5 18t27.5 48t-27.5 48.5t-79.5 18.5t-80 -18.5t-28 -48.5t28 -48t80 -18z" />
    <glyph glyph-name="uni030B" unicode="&#x30b;" horiz-adv-x="0" 
d="M-409 580l153 150h59l-158 -150h-54zM-252 580l154 150h58l-158 -150h-54z" />
    <glyph glyph-name="uni030C" unicode="&#x30c;" horiz-adv-x="0" 
d="M-420 719h59l146 -125l145 125h59l-173 -150h-63z" />
    <glyph glyph-name="uni0312" unicode="&#x312;" horiz-adv-x="0" 
d="M-69 755l15 -20q-27 -14 -35 -30.5t-8 -39.5h36v-85h-66v73q0 39 12.5 62.5t45.5 39.5z" />
    <glyph glyph-name="uni0326" unicode="&#x326;" horiz-adv-x="0" 
d="M-108 -231l-15 20q27 14 35 30.5t8 39.5h-36v84h66v-73q0 -39 -12.5 -62t-45.5 -39z" />
    <glyph glyph-name="uni0327" unicode="&#x327;" horiz-adv-x="0" 
d="M-203 4h40l-52 -63q22 16 65 16q46 0 73 -19t27 -53q0 -35 -32.5 -57t-84.5 -22q-95 0 -116 60l41 6q15 -34 75 -34q72 0 72 46q0 45 -69 45q-39 0 -70 -17l-30 9z" />
    <glyph glyph-name="uni0328" unicode="&#x328;" horiz-adv-x="0" 
d="M-65 -115q-7 -41 -38.5 -63.5t-82.5 -22.5q-46 0 -76.5 23.5t-30.5 60.5q0 94 164 128l52 -11q-82 -13 -126 -43t-44 -69q0 -25 18.5 -41t47.5 -16q30 0 50.5 16.5t25.5 44.5z" />
    <glyph glyph-name="uni0394" unicode="&#x394;" horiz-adv-x="922" 
d="M37 0l395 703h62l390 -703h-847zM462 650l-341 -602h676z" />
    <glyph glyph-name="uni03A9" unicode="&#x3a9;" horiz-adv-x="931" 
d="M842 0h-298l-13 193q134 17 205 79.5t71 159.5q0 110 -89.5 176.5t-251.5 66.5t-252 -66.5t-90 -176.5q0 -97 71 -159.5t205 -79.5l-13 -193h-298v50h251l8 109q-134 22 -206.5 95t-72.5 179q0 132 107.5 210.5t289.5 78.5q181 0 288.5 -78.5t107.5 -210.5
q0 -106 -72.5 -179t-206.5 -95l8 -109h251v-50z" />
    <glyph glyph-name="uni03BC" unicode="&#x3bc;" horiz-adv-x="863" 
d="M691 500h54v-500h-53v153q-31 -84 -106.5 -128t-185.5 -44q-165 0 -234 94v-270h-48v695h53v-248q0 -118 65 -171.5t171 -53.5q137 0 210.5 70.5t73.5 170.5v232z" />
    <glyph glyph-name="pi" unicode="&#x3c0;" horiz-adv-x="909" 
d="M869 -1q-30 -6 -58 -6q-78 0 -107.5 31t-29.5 84v348h-443v-456h-53v456h-144v44h836v-44h-143v-349q0 -70 92 -70q15 0 50 5v-43z" />
    <glyph glyph-name="uni0E3F" unicode="&#xe3f;" horiz-adv-x="928" 
d="M688 359q162 -20 162 -169q0 -91 -65 -140.5t-184 -49.5h-111v-104h-40v104h-322v695h322v95h40v-95h105q115 0 176 -45t61 -128q0 -65 -37.5 -107.5t-106.5 -55.5zM184 648v-268h266v268h-266zM595 648h-105v-268h111q83 0 127.5 36t44.5 103q0 63 -45.5 96t-132.5 33z
M184 47h266v288h-266v-288zM600 47q191 0 191 144t-186 144h-115v-288h110z" />
    <glyph glyph-name="Wgrave" unicode="&#x1e80;" horiz-adv-x="1279" 
d="M666 760h-68l-167 99h76zM291 0l-264 710h63l222 -615q15 -39 15 -41h2q0 2 15 41l266 615h58l266 -615q15 -34 16 -41h2q0 3 2.5 9.5t6 16t5.5 15.5l223 615h63l-264 -710h-71l-260 603q-15 37 -16 48h-3q-3 -18 -17 -48l-259 -603h-71z" />
    <glyph glyph-name="wgrave" unicode="&#x1e81;" horiz-adv-x="1112" 
d="M588 580h-63l-175 150h73zM262 0l-239 500h57l191 -400l9 -21q9 -21 12 -31h3q5 14 24 52l207 400h60l207 -400q19 -38 24 -52h2q3 9 11.5 27.5t10.5 24.5l191 400h57l-239 -500h-63l-210 407q-10 17 -20 46h-2q-10 -29 -20 -46l-210 -407h-63z" />
    <glyph glyph-name="Wacute" unicode="&#x1e82;" horiz-adv-x="1279" 
d="M606 760l159 99h76l-167 -99h-68zM291 0l-264 710h63l222 -615q15 -39 15 -41h2q0 2 15 41l266 615h58l266 -615q15 -34 16 -41h2q0 3 2.5 9.5t6 16t5.5 15.5l223 615h63l-264 -710h-71l-260 603q-15 37 -16 48h-3q-3 -18 -17 -48l-259 -603h-71z" />
    <glyph glyph-name="wacute" unicode="&#x1e83;" horiz-adv-x="1112" 
d="M525 580l166 150h73l-176 -150h-63zM262 0l-239 500h57l191 -400l9 -21q9 -21 12 -31h3q5 14 24 52l207 400h60l207 -400q19 -38 24 -52h2q3 9 11.5 27.5t10.5 24.5l191 400h57l-239 -500h-63l-210 407q-10 17 -20 46h-2q-10 -29 -20 -46l-210 -407h-63z" />
    <glyph glyph-name="Wdieresis" unicode="&#x1e84;" horiz-adv-x="1279" 
d="M448 760v98h69v-98h-69zM763 760v98h70v-98h-70zM291 0l-264 710h63l222 -615q15 -39 15 -41h2q0 2 15 41l266 615h58l266 -615q15 -34 16 -41h2q0 3 2.5 9.5t6 16t5.5 15.5l223 615h63l-264 -710h-71l-260 603q-15 37 -16 48h-3q-3 -18 -17 -48l-259 -603h-71z" />
    <glyph glyph-name="wdieresis" unicode="&#x1e85;" horiz-adv-x="1112" 
d="M366 592v113h69v-113h-69zM678 592v113h69v-113h-69zM262 0l-239 500h57l191 -400l9 -21q9 -21 12 -31h3q5 14 24 52l207 400h60l207 -400q19 -38 24 -52h2q3 9 11.5 27.5t10.5 24.5l191 400h57l-239 -500h-63l-210 407q-10 17 -20 46h-2q-10 -29 -20 -46l-210 -407h-63z
" />
    <glyph glyph-name="Ygrave" unicode="&#x1ef2;" horiz-adv-x="816" 
d="M434 760h-68l-167 99h76zM376 0v267l-373 443h75l282 -336q43 -51 46 -59h2q3 9 45 59l285 336h75l-377 -443v-267h-60z" />
    <glyph glyph-name="ygrave" unicode="&#x1ef3;" horiz-adv-x="692" 
d="M377 580h-63l-175 150h73zM95 -214q-30 0 -55 4v47q26 -3 52 -3q86 0 135.5 36.5t85.5 102.5l12 22l-317 505h63l242 -391q6 -9 12.5 -20.5t14.5 -26t12 -22.5h2q24 45 37 67l233 393h60l-318 -532q-56 -98 -115.5 -140t-155.5 -42z" />
    <glyph glyph-name="uni2002" unicode="&#x2002;" horiz-adv-x="500" 
 />
    <glyph glyph-name="uni2003" unicode="&#x2003;" horiz-adv-x="1000" 
 />
    <glyph glyph-name="uni2004" unicode="&#x2004;" horiz-adv-x="333" 
 />
    <glyph glyph-name="uni2005" unicode="&#x2005;" horiz-adv-x="250" 
 />
    <glyph glyph-name="uni2009" unicode="&#x2009;" horiz-adv-x="135" 
 />
    <glyph glyph-name="uni200A" unicode="&#x200a;" horiz-adv-x="75" 
 />
    <glyph glyph-name="endash" unicode="&#x2013;" horiz-adv-x="805" 
d="M66 300h673v-44h-673v44z" />
    <glyph glyph-name="emdash" unicode="&#x2014;" horiz-adv-x="1082" 
d="M66 300h950v-44h-950v44z" />
    <glyph glyph-name="quoteleft" unicode="&#x2018;" horiz-adv-x="280" 
d="M174 719l15 -29q-52 -25 -52 -92v-2h43v-110h-82v97q0 56 17 87.5t59 48.5z" />
    <glyph glyph-name="quoteright" unicode="&#x2019;" horiz-adv-x="280" 
d="M106 477l-16 30q31 14 41.5 36t10.5 55v2h-42v110h82v-97q0 -55 -17.5 -87t-58.5 -49z" />
    <glyph glyph-name="quotesinglbase" unicode="&#x201a;" horiz-adv-x="280" 
d="M106 -123l-16 29q31 15 41.5 37t10.5 55v2h-42v110h82v-97q0 -56 -17.5 -87.5t-58.5 -48.5z" />
    <glyph glyph-name="quotedblleft" unicode="&#x201c;" horiz-adv-x="432" 
d="M174 720l15 -30q-52 -25 -52 -92v-2h43v-110h-82v97q0 56 17 87.5t59 49.5zM326 720l16 -30q-31 -15 -41.5 -36.5t-10.5 -55.5v-2h42v-110h-82v97q0 56 17 87.5t59 49.5z" />
    <glyph glyph-name="quotedblright" unicode="&#x201d;" horiz-adv-x="432" 
d="M106 477l-16 30q31 14 41.5 36t10.5 55v2h-42v110h82v-97q0 -55 -17.5 -87t-58.5 -49zM258 477l-16 30q31 14 41.5 36t10.5 55v2h-42v110h82v-97q0 -55 -17.5 -87t-58.5 -49z" />
    <glyph glyph-name="quotedblbase" unicode="&#x201e;" horiz-adv-x="432" 
d="M106 -123l-16 29q31 15 41.5 37t10.5 55v2h-42v110h82v-97q0 -56 -17.5 -87.5t-58.5 -48.5zM258 -123l-16 29q31 15 41.5 37t10.5 55v2h-42v110h82v-97q0 -56 -17.5 -87.5t-58.5 -48.5z" />
    <glyph glyph-name="dagger" unicode="&#x2020;" horiz-adv-x="671" 
d="M362 463v-563h-54v563h-237v44h237v213h54v-213h239v-44h-239z" />
    <glyph glyph-name="daggerdbl" unicode="&#x2021;" horiz-adv-x="671" 
d="M601 463h-239v-306h239v-43h-239v-214h-54v214h-237v43h237v306h-237v44h237v213h54v-213h239v-44z" />
    <glyph glyph-name="bullet" unicode="&#x2022;" horiz-adv-x="321" 
d="M160 284q-27 0 -44.5 17t-17.5 44q0 29 17.5 46.5t44.5 17.5q28 0 45.5 -17.5t17.5 -46.5q0 -28 -17.5 -44.5t-45.5 -16.5z" />
    <glyph glyph-name="ellipsis" unicode="&#x2026;" horiz-adv-x="897" 
d="M178 100v-100h-80v100h80zM489 100v-100h-80v100h80zM800 100v-100h-81v100h81z" />
    <glyph glyph-name="perthousand" unicode="&#x2030;" horiz-adv-x="1477" 
d="M176 -19l597 743h60l-598 -743h-59zM251 353q-95 0 -153 49.5t-58 132.5q0 80 58 129.5t152 49.5q92 0 150.5 -50.5t58.5 -131.5q0 -80 -58 -129.5t-150 -49.5zM251 395q73 0 116.5 36.5t43.5 100.5q0 65 -44 102.5t-117 37.5q-74 0 -118.5 -37t-44.5 -100
q0 -66 44.5 -103t119.5 -37zM768 -16q-95 0 -152.5 49.5t-57.5 132.5q0 80 57.5 129t151.5 49q92 0 150.5 -50t58.5 -131q0 -80 -58 -129.5t-150 -49.5zM1229 -16q-95 0 -152.5 49.5t-57.5 132.5q0 80 57.5 129t151.5 49q92 0 150.5 -50t58.5 -131q0 -80 -58 -129.5
t-150 -49.5zM768 26q73 0 117 36.5t44 100.5t-44 102t-118 38q-73 0 -117.5 -37t-44.5 -100q0 -66 44 -103t119 -37zM1229 26q73 0 116.5 36.5t43.5 100.5t-44 102t-117 38q-74 0 -118.5 -37t-44.5 -100q0 -66 44.5 -103t119.5 -37z" />
    <glyph glyph-name="guilsinglleft" unicode="&#x2039;" horiz-adv-x="375" 
d="M278 67l-240 208l244 207h67l-240 -206l237 -209h-68z" />
    <glyph glyph-name="guilsinglright" unicode="&#x203a;" horiz-adv-x="375" 
d="M97 67h-68l238 209l-241 206h67l244 -207z" />
    <glyph glyph-name="fraction" unicode="&#x2044;" horiz-adv-x="219" 
d="M-215 -17l591 744h58l-590 -744h-59z" />
    <glyph glyph-name="uni20A9" unicode="&#x20a9;" horiz-adv-x="1362" 
d="M1320 695l-103 -255h98v-38h-113l-42 -103h155v-38h-170l-105 -261h-63l-121 261h-349l-121 -261h-63l-106 261h-170v38h155l-42 103h-113v38h98l-103 255h57l100 -255h337l119 255h52l119 -255h337l101 255h56zM629 525l-39 -85h183l-39 85q-44 96 -52 122h-2
q-11 -33 -51 -122zM214 402l41 -103h215l48 103h-304zM524 299h315l-48 103h-219zM1107 299l41 103h-304l48 -103h215zM405 159l48 102h-183l38 -97q30 -74 46 -118h1q7 20 50 113zM1054 164l38 97h-183l48 -102q43 -93 50 -113h1q6 16 21.5 55.5t24.5 62.5z" />
    <glyph glyph-name="Euro" unicode="&#x20ac;" horiz-adv-x="949" 
d="M529 29q101 0 186 37t129 115l48 -20q-43 -86 -139.5 -133.5t-224.5 -47.5q-182 0 -287.5 79.5t-132.5 208.5h-98v39h92q-3 24 -3 49q0 26 3 50h-92v40h99q30 123 139 196t290 73q127 0 220 -43.5t134 -121.5l-54 -24q-36 67 -115 103.5t-189 36.5q-155 0 -247.5 -58.5
t-119.5 -161.5h500v-40h-508q-3 -24 -3 -49q0 -26 3 -50h508v-39h-500q27 -110 120.5 -174.5t241.5 -64.5z" />
    <glyph glyph-name="uni20B9" unicode="&#x20b9;" horiz-adv-x="804" 
d="M784 695v-43h-295q84 -39 90 -137h205v-39h-205q-14 -182 -267 -182h-135l382 -294h-81l-390 309v30h226q101 0 152 33.5t57 103.5h-435v39h435q-5 67 -53 102t-134 35h-248v43h696z" />
    <glyph glyph-name="uni20BA" unicode="&#x20ba;" horiz-adv-x="749" 
d="M675 233l54 -7q-47 -226 -293 -226h-282v279l-124 -25v41l124 25v116l-124 -25v41l124 25v218h57v-206l404 82v-41l-404 -82v-116l404 82v-41l-404 -82v-241h218q200 0 246 183z" />
    <glyph glyph-name="uni20BD" unicode="&#x20bd;" horiz-adv-x="794" 
d="M532 293h-328v-103h345v-39h-345v-151h-57v151h-116v39h116v103h-116v45h116v357h382q109 0 171 -52.5t62 -144.5q0 -95 -62 -150t-168 -55zM204 645v-307h330q78 0 124 43t46 115q0 70 -47 109.5t-129 39.5h-324z" />
    <glyph glyph-name="uni2105" unicode="&#x2105;" horiz-adv-x="1042" 
d="M243 -14h-55l599 744h55zM47 552q0 79 58 127t154 48q76 0 128.5 -31t70.5 -89l-47 -8q-29 86 -152 86q-76 0 -120.5 -35.5t-44.5 -97.5q0 -65 44.5 -101t121.5 -36q123 0 151 86l46 -7q-17 -58 -69 -89t-128 -31q-97 0 -155 48t-58 130zM785 0q-96 0 -154.5 48.5
t-58.5 129.5q0 79 58.5 127.5t153.5 48.5q93 0 152 -49t59 -129q0 -79 -58.5 -127.5t-151.5 -48.5zM948 176q0 63 -44.5 99.5t-119.5 36.5t-120 -36t-45 -98q0 -64 45 -100t121 -36q74 0 118.5 35.5t44.5 98.5z" />
    <glyph glyph-name="uni2113" unicode="&#x2113;" horiz-adv-x="558" 
d="M178 163q0 -123 151 -123q48 0 111 7v-47q-54 -9 -118 -9q-109 0 -153 46t-44 133v37q-59 -20 -133 -39l-19 40q93 26 152 46v279q0 104 52.5 152.5t129.5 48.5q89 0 134.5 -51.5t45.5 -140.5q0 -199 -309 -316v-63zM178 545v-272q123 48 189.5 111t66.5 156
q0 153 -129 153q-59 0 -93 -39t-34 -109z" />
    <glyph glyph-name="uni2116" unicode="&#x2116;" horiz-adv-x="1634" 
d="M127 0v710h73l559 -582q35 -37 52 -65h2q-1 26 -1 77v570h55v-710h-64l-568 590q-31 32 -51 63h-2v-73v-580h-55zM1245 191q-139 0 -220.5 62.5t-81.5 161.5q0 97 82 159t220 62t220 -62t82 -159q0 -99 -81.5 -161.5t-220.5 -62.5zM1245 233q115 0 182 49.5t67 132.5
q0 81 -67 130t-182 49t-182 -49t-67 -130q0 -82 67 -132t182 -50zM943 0v47h604v-47h-604z" />
    <glyph glyph-name="trademark" unicode="&#x2122;" horiz-adv-x="1120" 
d="M208 309v369h-203v37h459v-37h-212v-369h-44zM516 309v406h62l164 -298q25 -46 36 -75h3q15 36 35 75l165 298h62v-406h-41v299q0 42 2 66h-2q-5 -10 -10 -19.5t-11 -21t-10 -18.5l-170 -306h-44l-169 306q-23 41 -32 59h-1q2 -24 2 -66v-299h-41z" />
    <glyph glyph-name="uni2126" unicode="&#x2126;" horiz-adv-x="931" 
d="M842 0h-298l-13 193q134 17 205 79.5t71 159.5q0 110 -89.5 176.5t-251.5 66.5t-252 -66.5t-90 -176.5q0 -97 71 -159.5t205 -79.5l-13 -193h-298v50h251l8 109q-134 22 -206.5 95t-72.5 179q0 132 107.5 210.5t289.5 78.5q181 0 288.5 -78.5t107.5 -210.5
q0 -106 -72.5 -179t-206.5 -95l8 -109h251v-50z" />
    <glyph glyph-name="estimated" unicode="&#x212e;" horiz-adv-x="920" 
d="M881 364h-711v-237q106 -107 311 -107q224 0 350 148l30 -25q-129 -160 -380 -160q-90 0 -167.5 21.5t-140 64.5t-98.5 115.5t-36 166.5q0 118 61.5 203.5t158.5 125.5t216 40q186 0 296 -88.5t110 -235.5v-32zM472 684q-80 0 -162.5 -25.5t-139.5 -83.5v-173h588v186
q-92 96 -286 96z" />
    <glyph glyph-name="uni2153" unicode="&#x2153;" horiz-adv-x="1048" 
d="M96 -17l591 744h58l-590 -744h-59zM164 326v317q-38 -53 -119 -53h-17v41h10q48 0 85.5 21.5t48.5 58.5h42v-385h-50zM786 -13q-95 0 -151 35t-58 93l50 3q2 -44 44.5 -70.5t114.5 -26.5q70 0 114.5 22t44.5 64q0 74 -146 74h-51v35h47q138 0 138 69q0 38 -41 58t-108 20
q-73 0 -112.5 -26t-41.5 -72l-50 2q2 60 56 95.5t149 35.5q90 0 144.5 -28t54.5 -82q0 -41 -34.5 -62t-85.5 -25q62 -4 97.5 -28.5t35.5 -65.5q0 -57 -58 -88.5t-153 -31.5z" />
    <glyph glyph-name="uni2154" unicode="&#x2154;" horiz-adv-x="1236" 
d="M284 -17l591 744h58l-590 -744h-59zM43 326v33q182 83 219 103q110 61 121 122q1 8 1 16q0 39 -37 64t-103 25q-61 0 -103 -22t-42 -71q0 -11 1 -18l-51 3q-1 7 -1 21q0 60 55.5 91t139.5 31q87 0 140 -31t53 -88q0 -31 -20.5 -61.5t-47 -52.5t-75.5 -48.5t-82 -41.5
t-91 -39h330v-36h-407zM975 -13q-95 0 -151 35t-58 93l50 3q2 -44 44.5 -70.5t114.5 -26.5q70 0 114.5 22t44.5 64q0 74 -146 74h-51v35h47q138 0 138 69q0 38 -41 58t-108 20q-73 0 -112.5 -26t-41.5 -72l-50 2q2 60 56 95.5t149 35.5q90 0 144.5 -28t54.5 -82
q0 -41 -34.5 -62t-85.5 -25q62 -4 97.5 -28.5t35.5 -65.5q0 -57 -58 -88.5t-153 -31.5z" />
    <glyph glyph-name="oneeighth" unicode="&#x215b;" horiz-adv-x="1048" 
d="M687 727h58l-590 -744h-59zM164 643q-38 -53 -119 -53h-17v41h10q48 0 85.5 21.5t48.5 58.5h42v-385h-50v317zM863 208q74 -11 106.5 -37.5t32.5 -71.5q0 -53 -56 -82.5t-159 -29.5q-98 0 -154.5 29.5t-56.5 79.5q0 82 131 100q-118 22 -118 98q0 48 53.5 76t144.5 28
q94 0 148.5 -27.5t54.5 -74.5q0 -38 -30 -59t-97 -29zM639 292q0 -59 113 -72l60 -7q73 10 100 27t27 51q0 35 -40.5 55.5t-111.5 20.5q-67 0 -107.5 -20.5t-40.5 -54.5zM787 18q76 0 119.5 22.5t43.5 61.5q0 65 -119 79l-69 8q-135 -19 -135 -85q0 -39 43.5 -62.5
t116.5 -23.5z" />
    <glyph glyph-name="threeeighths" unicode="&#x215c;" horiz-adv-x="1255" 
d="M894 727h58l-590 -744h-59zM467 433q0 -57 -58 -89t-153 -32t-151 35.5t-58 93.5l50 3q2 -44 44.5 -70.5t114.5 -26.5q70 0 114.5 21.5t44.5 64.5q0 73 -146 73h-51v36h47q138 0 138 68q0 38 -41 58.5t-108 20.5q-73 0 -112.5 -26t-41.5 -72l-50 2q2 59 56 95t149 36
q90 0 144.5 -28t54.5 -82q0 -77 -120 -87q62 -4 97.5 -28.5t35.5 -65.5zM1070 208q74 -11 106.5 -37.5t32.5 -71.5q0 -53 -56 -82.5t-159 -29.5q-98 0 -154.5 29.5t-56.5 79.5q0 82 131 100q-118 22 -118 98q0 48 53.5 76t144.5 28q94 0 148.5 -27.5t54.5 -74.5
q0 -38 -30 -59t-97 -29zM846 292q0 -59 113 -72l60 -7q73 10 100 27t27 51q0 35 -41 55.5t-111 20.5q-67 0 -107.5 -20.5t-40.5 -54.5zM994 18q76 0 119.5 22.5t43.5 61.5q0 65 -119 79l-69 8q-135 -19 -135 -85q0 -39 43.5 -62.5t116.5 -23.5z" />
    <glyph glyph-name="fiveeighths" unicode="&#x215d;" horiz-adv-x="1227" 
d="M866 727h58l-590 -744h-59zM448 450q0 -62 -56 -100t-149 -38q-80 0 -133 30t-64 80l48 3q10 -37 50 -58t101 -21q70 0 111 28.5t41 75.5q0 48 -38.5 74t-109.5 26q-54 0 -96 -19t-53 -48l-45 4l25 224h344v-34h-306l-16 -157q45 62 163 62q86 0 134.5 -35t48.5 -97z
M1042 208q74 -11 106.5 -37.5t32.5 -71.5q0 -53 -56 -82.5t-159 -29.5q-98 0 -154.5 29.5t-56.5 79.5q0 82 131 100q-118 22 -118 98q0 48 53.5 76t144.5 28q94 0 148.5 -27.5t54.5 -74.5q0 -38 -30 -59t-97 -29zM818 292q0 -59 113 -72l60 -7q73 10 100 27t27 51
q0 35 -41 55.5t-111 20.5q-67 0 -107.5 -20.5t-40.5 -54.5zM966 18q76 0 119.5 22.5t43.5 61.5q0 65 -119 79l-69 8q-135 -19 -135 -85q0 -39 43.5 -62.5t116.5 -23.5z" />
    <glyph glyph-name="seveneighths" unicode="&#x215e;" horiz-adv-x="1126" 
d="M765 727h58l-590 -744h-59zM216 326h-52v2q-1 100 55 190t156 156h-356v37h404v-38q-93 -62 -149.5 -152t-57.5 -195zM941 208q74 -11 106.5 -37.5t32.5 -71.5q0 -53 -56 -82.5t-159 -29.5q-98 0 -154.5 29.5t-56.5 79.5q0 82 131 100q-118 22 -118 98q0 48 53.5 76
t144.5 28q94 0 148.5 -27.5t54.5 -74.5q0 -38 -30 -59t-97 -29zM717 292q0 -59 113 -72l60 -7q73 10 100 27t27 51q0 35 -40.5 55.5t-111.5 20.5q-67 0 -107.5 -20.5t-40.5 -54.5zM865 18q76 0 119.5 22.5t43.5 61.5q0 65 -119 79l-69 8q-135 -19 -135 -85q0 -39 43.5 -62.5
t116.5 -23.5z" />
    <glyph glyph-name="arrowleft" unicode="&#x2190;" horiz-adv-x="1298" 
d="M1170 312h-906v-84l-136 102l136 102v-84h906v-36z" />
    <glyph glyph-name="arrowup" unicode="&#x2191;" horiz-adv-x="459" 
d="M210 -35v649h-82l101 136l102 -136h-82v-649h-39z" />
    <glyph glyph-name="arrowright" unicode="&#x2192;" horiz-adv-x="1298" 
d="M128 348h906v84l136 -102l-136 -102v84h-906v36z" />
    <glyph glyph-name="arrowdown" unicode="&#x2193;" horiz-adv-x="459" 
d="M248 745v-649h83l-102 -136l-101 136h82v649h38z" />
    <glyph glyph-name="arrowboth" unicode="&#x2194;" horiz-adv-x="1315" 
d="M1051 311h-787v-83l-136 102l136 102v-83h787v83l136 -102l-136 -102v83z" />
    <glyph glyph-name="arrowupdn" unicode="&#x2195;" horiz-adv-x="459" 
d="M128 96h82v518h-82l101 136l102 -136h-82v-518h82l-102 -136z" />
    <glyph glyph-name="uni2196" unicode="&#x2196;" horiz-adv-x="969" 
d="M196 612l-68 -69v167h167l-70 -70l616 -617l-27 -28z" />
    <glyph glyph-name="uni2197" unicode="&#x2197;" horiz-adv-x="969" 
d="M773 613l-618 -617l-27 28l617 617l-70 70h166v-167z" />
    <glyph glyph-name="uni2198" unicode="&#x2198;" horiz-adv-x="969" 
d="M773 109l68 69v-167h-166l70 70l-617 617l27 28z" />
    <glyph glyph-name="uni2199" unicode="&#x2199;" horiz-adv-x="969" 
d="M196 109l618 617l27 -28l-616 -617l70 -70h-167v167z" />
    <glyph glyph-name="uni21A9" unicode="&#x21a9;" horiz-adv-x="1303" 
d="M264 228l-136 102l136 102v-84h657q212 0 212 148q0 142 -212 142h-438v37h447q245 0 245 -179q0 -88 -63 -136t-192 -48h-656v-84z" />
    <glyph glyph-name="uni21AA" unicode="&#x21aa;" horiz-adv-x="1303" 
d="M1039 228v84h-656q-129 0 -192 48t-63 136q0 179 245 179h447v-37h-438q-213 0 -213 -142q0 -148 213 -148h657v84l136 -102z" />
    <glyph glyph-name="uni21B0" unicode="&#x21b0;" horiz-adv-x="1276" 
d="M1109 0v582h-845v-84l-136 102l136 102v-84h884v-618h-39z" />
    <glyph glyph-name="uni21B1" unicode="&#x21b1;" horiz-adv-x="1276" 
d="M167 0h-39v618h884v84l136 -102l-136 -102v84h-845v-582z" />
    <glyph glyph-name="uni21B2" unicode="&#x21b2;" horiz-adv-x="1276" 
d="M1109 710h39v-618h-884v-84l-136 102l136 102v-84h845v582z" />
    <glyph glyph-name="uni21B3" unicode="&#x21b3;" horiz-adv-x="1276" 
d="M167 710v-582h845v84l136 -102l-136 -102v84h-884v618h39z" />
    <glyph glyph-name="uni21B4" unicode="&#x21b4;" horiz-adv-x="1367" 
d="M1157 710v-587h82l-101 -135l-102 135h82v550h-990v37h1029z" />
    <glyph glyph-name="uni21BB" unicode="&#x21bb;" horiz-adv-x="1253" 
d="M922 352h83v1q0 150 -119 240t-298 90q-178 0 -298 -91t-120 -238q0 -146 120 -238t296 -92q200 0 333 100l25 -31q-140 -109 -358 -109q-125 0 -229 45.5t-166.5 130.5t-62.5 193q0 109 62.5 194t167 130.5t230.5 45.5q196 0 327 -101.5t131 -268.5v-1h79l-101 -136z
" />
    <glyph glyph-name="uni21C4" unicode="&#x21c4;" horiz-adv-x="1372" 
d="M1162 428h-898v-84l-136 102l136 102v-84h898v-36zM1109 232v84l135 -102l-135 -102v84h-898v36h898z" />
    <glyph glyph-name="uni21C5" unicode="&#x21c5;" horiz-adv-x="713" 
d="M464 47v567h-82l101 136l102 -136h-82v-567h-39zM229 -40l-101 136h82v568h38v-568h83z" />
    <glyph glyph-name="partialdiff" unicode="&#x2202;" horiz-adv-x="766" 
d="M322 721q191 0 291.5 -101.5t100.5 -285.5q0 -163 -90.5 -257t-254.5 -94q-142 0 -226 66t-84 175q0 107 81 170t227 63q188 0 293 -116v7q0 155 -87 240.5t-252 85.5q-66 0 -140 -19l-14 45q72 21 155 21zM372 30q124 0 202.5 67t85.5 190q-99 123 -291 123
q-125 0 -190.5 -49t-65.5 -137t69.5 -141t189.5 -53z" />
    <glyph glyph-name="emptyset" unicode="&#x2205;" horiz-adv-x="704" 
d="M588 455q65 -62 65 -151q0 -105 -83 -168.5t-218 -63.5q-124 0 -203 53l-75 -56l-28 28l71 53q-66 61 -66 153q0 104 83 167.5t218 63.5q124 0 203 -53l75 56l29 -28zM101 304q0 -74 54 -125l362 273q-67 39 -165 39q-113 0 -182 -51t-69 -136zM352 116q113 0 182.5 51
t69.5 136q0 73 -54 124l-361 -272q66 -39 163 -39z" />
    <glyph glyph-name="uni2206" unicode="&#x2206;" horiz-adv-x="922" 
d="M37 0l395 703h62l390 -703h-847zM462 650l-341 -602h676z" />
    <glyph glyph-name="product" unicode="&#x220f;" horiz-adv-x="947" 
d="M770 -88v743h-593v-743h-54v793h701v-793h-54z" />
    <glyph glyph-name="summation" unicode="&#x2211;" horiz-adv-x="841" 
d="M50 -88v43l489 371l-476 337v42h712v-48h-623l469 -330l-490 -367h656v-48h-737z" />
    <glyph glyph-name="minus" unicode="&#x2212;" horiz-adv-x="694" 
d="M66 303v50h562v-50h-562z" />
    <glyph glyph-name="radical" unicode="&#x221a;" horiz-adv-x="807" 
d="M43 290h176l132 -318l359 762h55l-388 -828h-49l-146 339h-139v45z" />
    <glyph glyph-name="infinity" unicode="&#x221e;" horiz-adv-x="798" 
d="M585 457q67 0 110 -33.5t43 -94.5q0 -59 -43.5 -93.5t-111.5 -34.5q-111 0 -185 91q-78 -92 -185 -92q-67 0 -110 33.5t-43 94.5q0 59 44 94t111 35q112 0 185 -92q78 92 185 92zM218 247q86 0 153 81q-68 83 -154 83q-45 0 -77 -21t-32 -61t31.5 -61t78.5 -21zM581 246
q45 0 77 21t32 61t-31 61.5t-79 21.5q-51 0 -86.5 -21.5t-66.5 -60.5q66 -83 154 -83z" />
    <glyph glyph-name="integral" unicode="&#x222b;" horiz-adv-x="588" 
d="M90 -116q-24 0 -48 3v48q24 -4 49 -4q85 0 127.5 44t42.5 147v379q0 221 224 221q24 0 51 -3v-47q-25 4 -52 4q-85 0 -127 -41.5t-42 -140.5v-379q0 -231 -225 -231z" />
    <glyph glyph-name="approxequal" unicode="&#x2248;" 
d="M538 378q-47 0 -134 26t-135 26q-90 0 -148 -44v50q23 20 64.5 32.5t81.5 12.5q56 0 140.5 -26.5t129.5 -26.5q91 0 145 45v-50q-22 -20 -62 -32.5t-82 -12.5zM538 187q-47 0 -134 26.5t-135 26.5q-91 0 -148 -45v50q23 20 64.5 32.5t81.5 12.5q56 0 140.5 -26t129.5 -26
q90 0 145 44v-50q-22 -20 -62.5 -32.5t-81.5 -12.5z" />
    <glyph glyph-name="notequal" unicode="&#x2260;" 
d="M681 394h-226l-74 -130h300v-49h-327l-85 -150h-41l84 150h-192v49h220l73 130h-293v49h321l82 146h42l-82 -146h198v-49z" />
    <glyph glyph-name="lessequal" unicode="&#x2264;" 
d="M678 131l-557 220v43l557 219v-51l-495 -189l495 -189v-53zM126 47h555v-47h-555v47z" />
    <glyph glyph-name="greaterequal" unicode="&#x2265;" 
d="M126 131v53l494 189l-494 189v51l556 -219v-43zM677 47v-47h-555v47h555z" />
    <glyph glyph-name="uni2460" unicode="&#x2460;" horiz-adv-x="966" 
d="M482 -24q-201 0 -322.5 101.5t-121.5 277.5t121.5 277.5t322.5 101.5t322.5 -101.5t121.5 -277.5t-121.5 -277.5t-322.5 -101.5zM482 8q182 0 294 93.5t112 253.5t-112 253.5t-294 93.5t-294 -93.5t-112 -253.5t112 -253.5t294 -93.5zM479 163v317q-38 -53 -118 -53h-18
v41h11q48 0 85 21.5t49 58.5h41v-385h-50z" />
    <glyph glyph-name="uni2461" unicode="&#x2461;" horiz-adv-x="966" 
d="M482 -24q-201 0 -322.5 101.5t-121.5 277.5t121.5 277.5t322.5 101.5t322.5 -101.5t121.5 -277.5t-121.5 -277.5t-322.5 -101.5zM482 8q182 0 294 93.5t112 253.5t-112 253.5t-294 93.5t-294 -93.5t-112 -253.5t112 -253.5t294 -93.5zM279 167v33q17 8 49 22
q55 25 81.5 37t68 33t61.5 35.5t42 34t31 39t9 41.5q0 38 -37 63t-104 25q-60 0 -102.5 -22t-42.5 -70q0 -11 1 -18l-50 3q-1 6 -1 20q0 60 55.5 91.5t138.5 31.5q88 0 141 -31t53 -89q0 -31 -20.5 -61t-47 -52t-75.5 -48.5t-82 -41.5t-91 -39h329v-37h-407z" />
    <glyph glyph-name="uni2462" unicode="&#x2462;" horiz-adv-x="966" 
d="M482 -24q-201 0 -322.5 101.5t-121.5 277.5t121.5 277.5t322.5 101.5t322.5 -101.5t121.5 -277.5t-121.5 -277.5t-322.5 -101.5zM482 8q182 0 294 93.5t112 253.5t-112 253.5t-294 93.5t-294 -93.5t-112 -253.5t112 -253.5t294 -93.5zM481 149q-94 0 -150.5 35.5
t-58.5 93.5l51 3q2 -44 44 -70.5t114 -26.5q71 0 115.5 21.5t44.5 64.5q0 73 -147 73h-50v36h47q138 0 138 68q0 38 -41 58.5t-108 20.5q-73 0 -113 -26t-41 -72l-50 2q1 59 55.5 95t149.5 36q90 0 144.5 -28t54.5 -82q0 -41 -34.5 -62t-85.5 -25q62 -4 97.5 -28.5
t35.5 -65.5q0 -57 -58 -89t-154 -32z" />
    <glyph glyph-name="uni2463" unicode="&#x2463;" horiz-adv-x="966" 
d="M482 -24q-201 0 -322.5 101.5t-121.5 277.5t121.5 277.5t322.5 101.5t322.5 -101.5t121.5 -277.5t-121.5 -277.5t-322.5 -101.5zM482 8q182 0 294 93.5t112 253.5t-112 253.5t-294 93.5t-294 -93.5t-112 -253.5t112 -253.5t294 -93.5zM703 272h-115v-99h-50v99h-315v33
l312 253h53v-252h115v-34zM538 520l-266 -214h266v214z" />
    <glyph glyph-name="uni2464" unicode="&#x2464;" horiz-adv-x="966" 
d="M482 -24q-201 0 -322.5 101.5t-121.5 277.5t121.5 277.5t322.5 101.5t322.5 -101.5t121.5 -277.5t-121.5 -277.5t-322.5 -101.5zM482 8q182 0 294 93.5t112 253.5t-112 253.5t-294 93.5t-294 -93.5t-112 -253.5t112 -253.5t294 -93.5zM479 156q-80 0 -133 30t-64 80l48 3
q10 -37 50 -58t101 -21q70 0 111 28.5t41 75.5t-38.5 73.5t-109.5 26.5q-54 0 -96 -19t-53 -48l-45 4l25 223h344v-33h-306l-16 -157q45 62 163 62q86 0 134.5 -35.5t48.5 -96.5q0 -62 -56 -100t-149 -38z" />
    <glyph glyph-name="uni2465" unicode="&#x2465;" horiz-adv-x="966" 
d="M482 734q201 0 322.5 -101.5t121.5 -277.5t-121.5 -277.5t-322.5 -101.5t-322.5 101.5t-121.5 277.5t121.5 277.5t322.5 101.5zM482 8q182 0 294 93.5t112 253.5t-112 253.5t-294 93.5t-294 -93.5t-112 -253.5t112 -253.5t294 -93.5zM503 419q90 0 141.5 -36t51.5 -98
q0 -63 -55 -99.5t-150 -36.5q-220 0 -220 200q0 103 57 157.5t165 54.5q163 0 194 -104l-51 -4q-24 75 -144 75q-174 0 -174 -178q0 -12 1 -18q37 87 184 87zM491 183q71 0 112.5 27t41.5 75q0 46 -41 72.5t-111 26.5q-138 0 -168 -94q28 -107 166 -107z" />
    <glyph glyph-name="uni2466" unicode="&#x2466;" horiz-adv-x="966" 
d="M482 -24q-201 0 -322.5 101.5t-121.5 277.5t121.5 277.5t322.5 101.5t322.5 -101.5t121.5 -277.5t-121.5 -277.5t-322.5 -101.5zM482 8q182 0 294 93.5t112 253.5t-112 253.5t-294 93.5t-294 -93.5t-112 -253.5t112 -253.5t294 -93.5zM282 511v37h403v-38
q-94 -62 -149.5 -152t-56.5 -195h-52v2q-1 100 54.5 190t155.5 156h-355z" />
    <glyph glyph-name="uni2467" unicode="&#x2467;" horiz-adv-x="966" 
d="M482 734q201 0 322.5 -101.5t121.5 -277.5t-121.5 -277.5t-322.5 -101.5t-322.5 101.5t-121.5 277.5t121.5 277.5t322.5 101.5zM482 8q182 0 294 93.5t112 253.5t-112 253.5t-294 93.5t-294 -93.5t-112 -253.5t112 -253.5t294 -93.5zM557 371q74 -11 106.5 -37.5
t32.5 -71.5q0 -53 -56.5 -83t-158.5 -30q-98 0 -154.5 30t-56.5 80q0 82 131 100q-119 20 -119 98q0 48 53.5 76t145.5 28q94 0 148 -27.5t54 -74.5q0 -38 -29.5 -59t-96.5 -29zM333 455q0 -59 113 -72l60 -7q73 10 100 27t27 51q0 35 -41 55.5t-111 20.5
q-67 0 -107.5 -20.5t-40.5 -54.5zM481 181q76 0 119.5 22.5t43.5 61.5q0 65 -119 79l-70 8q-134 -19 -134 -86q0 -39 43 -62t117 -23z" />
    <glyph glyph-name="uni2468" unicode="&#x2468;" horiz-adv-x="966" 
d="M482 734q201 0 322.5 -101.5t121.5 -277.5t-121.5 -277.5t-322.5 -101.5t-322.5 101.5t-121.5 277.5t121.5 277.5t322.5 101.5zM482 8q182 0 294 93.5t112 253.5t-112 253.5t-294 93.5t-294 -93.5t-112 -253.5t112 -253.5t294 -93.5zM476 561q220 0 220 -189
q0 -223 -221 -223q-164 0 -193 113l51 3q10 -37 47 -59t97 -22q88 0 130 45.5t41 138.5q-49 -66 -185 -66q-88 0 -140 34t-52 95t56 95.5t149 34.5zM476 335q62 0 107 19.5t62 52.5q-18 122 -164 122q-74 0 -117 -26t-43 -72t42 -71t113 -25z" />
    <glyph glyph-name="uni24EA" unicode="&#x24ea;" horiz-adv-x="966" 
d="M482 -24q-201 0 -322.5 101.5t-121.5 277.5t121.5 277.5t322.5 101.5t322.5 -101.5t121.5 -277.5t-121.5 -277.5t-322.5 -101.5zM482 8q182 0 294 93.5t112 253.5t-112 253.5t-294 93.5t-294 -93.5t-112 -253.5t112 -253.5t294 -93.5zM484 149q-105 0 -168 55.5
t-63 151.5q0 94 64 149.5t166 55.5q104 0 167 -55.5t63 -151.5q0 -95 -63 -150t-166 -55zM484 184q80 0 128.5 44.5t48.5 125.5q0 82 -48.5 127t-129.5 45q-79 0 -129 -45t-50 -125q0 -82 49.5 -127t130.5 -45z" />
    <glyph glyph-name="uni24FF" unicode="&#x24ff;" horiz-adv-x="966" 
d="M483 -24q-201 0 -322.5 101.5t-121.5 277.5t121.5 277.5t322.5 101.5q200 0 322 -101.5t122 -277.5t-122 -277.5t-322 -101.5zM484 149q103 0 166 55t63 150q0 97 -63.5 152t-166.5 55q-102 0 -166 -55t-64 -150q0 -97 63.5 -152t167.5 -55zM484 185q-80 0 -128.5 44.5
t-48.5 126.5q0 80 49 124.5t127 44.5q79 0 127.5 -45t48.5 -126q0 -80 -48 -124.5t-127 -44.5z" />
    <glyph glyph-name="lozenge" unicode="&#x25ca;" horiz-adv-x="687" 
d="M367 -17h-47l-290 372l289 372h47l291 -372zM343 684l-254 -329l254 -329l255 329z" />
    <glyph glyph-name="circle" unicode="&#x25cb;" horiz-adv-x="964" 
d="M482 -24q-201 0 -322.5 101.5t-121.5 277.5t121.5 277.5t322.5 101.5t322.5 -101.5t121.5 -277.5t-121.5 -277.5t-322.5 -101.5zM482 8q182 0 294 93.5t112 253.5t-112 253.5t-294 93.5t-294 -93.5t-112 -253.5t112 -253.5t294 -93.5z" />
    <glyph glyph-name="uni25CF" unicode="&#x25cf;" horiz-adv-x="962" 
d="M481 -24q-201 0 -322 101.5t-121 277.5t121 277.5t322 101.5q200 0 321 -101.5t121 -277.5t-121 -277.5t-321 -101.5z" />
    <glyph glyph-name="uni2776" unicode="&#x2776;" horiz-adv-x="966" 
d="M483 -24q-201 0 -322.5 101.5t-121.5 277.5t121.5 277.5t322.5 101.5q200 0 322 -101.5t122 -277.5t-122 -277.5t-322 -101.5zM478 163h53v385h-44q-11 -37 -48.5 -58.5t-85.5 -21.5h-10v-42h18q80 0 117 53v-316z" />
    <glyph glyph-name="uni2777" unicode="&#x2777;" horiz-adv-x="966" 
d="M483 -24q-201 0 -322.5 101.5t-121.5 277.5t121.5 277.5t322.5 101.5q200 0 322 -101.5t122 -277.5t-122 -277.5t-322 -101.5zM280 162h406v37h-329q48 21 75 33.5t70 33.5t68 39t51.5 40.5t38.5 47t12 50.5q0 58 -53 88t-140 30q-83 0 -138.5 -30t-55.5 -91q0 -13 1 -20
l52 -3q-1 6 -1 16q0 49 42 70.5t101 21.5q66 0 102 -24.5t36 -62.5q0 -32 -18 -59t-69.5 -58t-84.5 -48t-121 -57l-45 -21v-33z" />
    <glyph glyph-name="uni2778" unicode="&#x2778;" horiz-adv-x="966" 
d="M483 -24q-201 0 -322.5 101.5t-121.5 277.5t121.5 277.5t322.5 101.5q200 0 322 -101.5t122 -277.5t-122 -277.5t-322 -101.5zM481 149q95 0 153.5 31t58.5 87q0 39 -35.5 66t-97.5 31q120 11 120 86q0 55 -55 83t-145 28q-95 0 -149.5 -36t-54.5 -95l53 -2q0 47 39.5 73
t111.5 26q65 0 106 -21.5t41 -61.5q0 -34 -37.5 -51.5t-90.5 -17.5h-48v-27h54q73 0 103.5 -23.5t30.5 -51.5q0 -44 -44.5 -66.5t-113.5 -22.5q-70 0 -112 27t-43 70l-53 -2q1 -58 57.5 -94t150.5 -36z" />
    <glyph glyph-name="uni2779" unicode="&#x2779;" horiz-adv-x="966" 
d="M483 -24q-201 0 -322.5 101.5t-121.5 277.5t121.5 277.5t322.5 101.5q200 0 322 -101.5t122 -277.5t-122 -277.5t-322 -101.5zM554 164h52v98h117v35h-117v251h-54l-312 -252v-34h314v-98zM290 297l264 212v-212h-264z" />
    <glyph glyph-name="uni277A" unicode="&#x277a;" horiz-adv-x="966" 
d="M483 -24q-201 0 -322.5 101.5t-121.5 277.5t121.5 277.5t322.5 101.5q200 0 322 -101.5t122 -277.5t-122 -277.5t-322 -101.5zM479 156q93 0 149 38t56 100q0 60 -48.5 95t-134.5 35q-116 0 -162 -61l17 157h304v34h-345l-24 -223l47 -5q10 28 51.5 47t93.5 19
q71 0 109.5 -26t38.5 -73t-40.5 -74.5t-110.5 -27.5q-60 0 -99 21t-48 57l-51 -3q10 -50 63.5 -80t133.5 -30z" />
    <glyph glyph-name="uni277B" unicode="&#x277b;" horiz-adv-x="966" 
d="M483 -24q-201 0 -322.5 101.5t-121.5 277.5t121.5 277.5t322.5 101.5q200 0 322 -101.5t122 -277.5t-122 -277.5t-322 -101.5zM490 149q95 0 150.5 36.5t55.5 99.5q0 62 -51.5 98t-140.5 36q-145 0 -183 -85q-7 95 37.5 144t133.5 49q119 0 142 -74l52 4
q-31 104 -192 104q-109 0 -166.5 -54.5t-57.5 -157.5q0 -200 220 -200zM490 184q-136 0 -164 107q31 91 166 91q70 0 110.5 -26t40.5 -71q0 -48 -41 -74.5t-112 -26.5z" />
    <glyph glyph-name="uni277C" unicode="&#x277c;" horiz-adv-x="966" 
d="M483 -24q-201 0 -322.5 101.5t-121.5 277.5t121.5 277.5t322.5 101.5q200 0 322 -101.5t122 -277.5t-122 -277.5t-322 -101.5zM428 163h53q1 104 56 194.5t148 151.5v39h-403v-38h355q-101 -66 -155 -156.5t-54 -190.5z" />
    <glyph glyph-name="uni277D" unicode="&#x277d;" horiz-adv-x="966" 
d="M483 -24q-201 0 -322.5 101.5t-121.5 277.5t121.5 277.5t322.5 101.5q200 0 322 -101.5t122 -277.5t-122 -277.5t-322 -101.5zM480 149q103 0 159.5 29.5t56.5 83.5q0 46 -33.5 72t-109.5 36q69 10 100 30.5t31 58.5q0 48 -54.5 75t-149.5 27q-91 0 -144.5 -28t-53.5 -76
q0 -81 128 -98q-140 -18 -140 -100q0 -50 56.5 -80t153.5 -30zM504 377l-57 6q-112 13 -112 72q0 33 40 54t106 21q69 0 109.5 -21t40.5 -56q0 -34 -27.5 -50.5t-99.5 -25.5zM481 181q-72 0 -115 23.5t-43 62.5q0 34 32 54.5t102 30.5l68 -8q62 -8 89.5 -27t27.5 -52
q0 -39 -42.5 -61.5t-118.5 -22.5z" />
    <glyph glyph-name="uni277E" unicode="&#x277e;" horiz-adv-x="966" 
d="M483 -24q-201 0 -322.5 101.5t-121.5 277.5t121.5 277.5t322.5 101.5q200 0 322 -101.5t122 -277.5t-122 -277.5t-322 -101.5zM474 149q222 0 222 225q0 187 -220 187q-93 0 -149.5 -34.5t-56.5 -95.5t52.5 -94.5t140.5 -33.5q135 0 183 63q2 -87 -41 -134t-128 -47
q-59 0 -95.5 22t-46.5 59l-52 -4q29 -113 191 -113zM477 335q-70 0 -112 25t-42 71q0 47 43 72.5t115 25.5q147 0 163 -125q-18 -32 -62.5 -50.5t-104.5 -18.5z" />
    <glyph glyph-name="uniE000" unicode="&#xe000;" horiz-adv-x="1367" 
d="M210 710h1029v-37h-990v-550h82l-102 -135l-101 135h82v587z" />
    <glyph glyph-name="uniF8FF" unicode="&#xf8ff;" horiz-adv-x="1018" 
d="M998 663h-552v-47h552v-48h-552v-47h552v-48h-552v-47h552v-47h-552v-48h552v-47h-978v426h978v-47zM67 667l13 9h-16l-5 15l-4 -15h-16l13 -9l-5 -15l12 9l13 -9zM142 676h-16l13 -9l-5 -15l12 10l13 -10l-5 15l12 9h-15l-5 15zM229 676h-16l13 -9l-5 -15l12 10l13 -10
l-5 15l12 9h-15l-5 15zM315 676h-15l13 -9l-5 -15l12 10l13 -10l-5 15l12 9h-15l-5 15zM415 667l12 9h-15l-5 15l-5 -15h-15l12 -9l-4 -15l12 10l13 -10zM98 632h-15l12 -9l-4 -14l12 9l12 -9l-4 14l12 9h-15l-5 15zM371 623l13 9h-16l-4 15l-5 -15h-15l12 -9l-5 -14l13 9
l12 -9zM273 364v93h94v80h-94v94h-80v-94h-93v-80h93v-93h80zM67 580l13 9h-16l-5 14l-4 -14h-16l13 -9l-5 -15l12 9l13 -9zM142 589h-16l13 -9l-5 -15l12 9l13 -9l-5 15l12 9h-15l-5 14zM315 589h-15l13 -9l-5 -15l12 9l13 -9l-5 15l12 9h-15l-5 14zM415 580l12 9h-15
l-5 14l-5 -14h-15l12 -9l-4 -15l12 9l13 -9zM67 492l13 10h-16l-5 14l-4 -14h-16l13 -10l-5 -14l12 9l13 -9zM415 492l12 10h-15l-5 14l-5 -14h-15l12 -10l-4 -14l12 9l13 -9zM67 405l13 9h-16l-5 15l-4 -15h-16l13 -9l-5 -14l12 9l13 -9zM154 405l12 9h-15l-5 15l-4 -15
h-16l13 -9l-5 -14l12 9l13 -9zM328 405l12 9h-15l-5 15l-5 -15h-15l13 -9l-5 -14l12 9l13 -9zM415 405l12 9h-15l-5 15l-5 -15h-15l12 -9l-4 -14l12 9l13 -9zM115 347l-4 15l12 9h-15l-5 14l-5 -14h-15l12 -9l-4 -15l12 9zM376 347l-5 15l13 9h-16l-4 14l-5 -14h-15l12 -9
l-5 -15l13 9zM72 303l-5 15l13 9h-16l-5 15l-4 -15h-16l13 -9l-5 -15l12 9zM159 303l-5 15l12 9h-15l-5 15l-4 -15h-16l13 -9l-5 -15l12 9zM246 303l-5 15l12 9h-15l-5 15l-4 -15h-16l13 -9l-5 -15l12 9zM333 303l-5 15l12 9h-15l-5 15l-5 -15h-15l13 -9l-5 -15l12 9z
M420 303l-5 15l12 9h-15l-5 15l-5 -15h-15l12 -9l-4 -15l12 9zM20 189v48h977v-48h-977zM20 95v47h978v-47h-978zM20 0v47h978v-47h-978z" />
    <glyph glyph-name="uni00A40301" horiz-adv-x="494" 
d="M333 760l92 99h68l-98 -99h-62zM395 229q0 -244 -250 -244q-72 0 -121 9v56q62 -10 121 -10q91 0 141 43t50 148v479h59v-481z" />
    <glyph glyph-name="i.loclTRK" horiz-adv-x="289" 
d="M112 587v117h64v-117h-64zM118 0v500h53v-500h-53z" />
    <glyph glyph-name="uni006A0301" horiz-adv-x="302" 
d="M129 580l95 150h59l-101 -150h-53zM27 -211q-52 0 -78 6v47q42 -5 80 -5q102 0 102 125v538h53v-547q0 -76 -39.5 -120t-117.5 -44z" />
    <glyph glyph-name="zero.zero" horiz-adv-x="848" 
d="M424 719q164 0 261.5 -101.5t97.5 -268.5q0 -168 -98 -270.5t-261 -102.5q-164 0 -262 102.5t-98 271.5q0 166 98 267.5t262 101.5zM424 672q-139 0 -221.5 -87.5t-82.5 -234.5q0 -125 58 -207l470 438q-83 91 -224 91zM424 23q139 0 221 88.5t82 237.5q0 116 -52 196
l-469 -437q82 -85 218 -85z" />
    <glyph glyph-name="zero.tf" 
d="M402 -20q-157 0 -246.5 101.5t-89.5 272.5q0 164 90.5 262.5t245.5 98.5q156 0 245.5 -99t89.5 -264q0 -171 -90 -271.5t-245 -100.5zM402 24q133 0 206.5 88.5t73.5 239.5q0 147 -74 233t-206 86q-134 0 -207.5 -86t-73.5 -231q0 -152 74 -241t207 -89z" />
    <glyph glyph-name="one.tf" 
d="M464 51h259v-51h-608v51h295v540q-32 -44 -96 -72.5t-147 -28.5h-39v50h30q95 0 165 43t94 112h47v-644z" />
    <glyph glyph-name="two.tf" 
d="M86 0v42q320 175 431 264q61 49 87.5 95.5t26.5 100.5q0 73 -60.5 121t-172.5 48q-101 0 -169.5 -45.5t-73.5 -136.5q0 -4 0.5 -13t0.5 -12l-53 7q-1 5 -1 29q7 102 91 158.5t207 56.5q136 0 211 -59.5t75 -151.5q0 -110 -112 -210q-63 -55 -178 -126t-223 -122h543v-46
h-630z" />
    <glyph glyph-name="three.tf" 
d="M405 -20q-138 0 -223.5 59.5t-94.5 154.5l53 5q12 -79 81 -127t185 -48q120 0 187 43t67 123q0 77 -62 114.5t-167 37.5h-75v41h68q95 0 153 37t58 103q0 69 -61 108.5t-177 39.5q-115 0 -179 -53t-66 -139l-54 8q0 94 80 161t222 67q138 0 214 -52t76 -140
q0 -65 -50 -107t-119 -49q82 -6 138 -52.5t56 -123.5q0 -97 -81 -154t-229 -57z" />
    <glyph glyph-name="four.tf" 
d="M535 0v191h-483v36l472 468h65v-460h162v-44h-162v-191h-54zM121 235h414v336q0 63 3 83h-2q-8 -14 -47 -56l-319 -321q-23 -23 -49 -42z" />
    <glyph glyph-name="five.tf" 
d="M400 -20q-124 0 -205.5 50t-100.5 136l53 4q17 -67 83 -106t174 -39q115 0 183 54t68 151q0 85 -60 140.5t-181 55.5q-94 0 -158 -36.5t-89 -89.5l-54 5l39 390h517v-45h-472l-29 -293q35 49 102 80t157 31q128 0 205.5 -65t77.5 -173q0 -111 -83.5 -180.5t-226.5 -69.5z
" />
    <glyph glyph-name="six.tf" 
d="M425 468q139 0 219 -63t80 -178q0 -109 -82.5 -178t-219.5 -69q-167 0 -255 94.5t-88 274.5q0 176 86.5 271t249.5 95q119 0 198.5 -48t98.5 -134l-57 -11q-42 145 -240 145q-139 0 -210.5 -81t-71.5 -237v-1q0 -29 3 -56q25 82 100.5 129t188.5 47zM422 28
q115 0 180.5 54t65.5 145q0 94 -65 143.5t-183 49.5q-110 0 -181.5 -52.5t-90.5 -146.5q52 -193 274 -193z" />
    <glyph glyph-name="seven.tf" 
d="M304 0v15q0 179 89 340.5t247 290.5h-551v49h626v-46q-161 -121 -253 -280t-93 -352v-17h-65z" />
    <glyph glyph-name="eight.tf" 
d="M520 370q102 -20 156.5 -63.5t54.5 -124.5q0 -95 -86 -148.5t-241 -53.5q-158 0 -245 52t-87 145q0 74 52.5 121t154.5 63q-90 19 -137.5 60t-47.5 116q0 83 82.5 130.5t224.5 47.5q141 0 224 -48.5t83 -130.5q0 -139 -188 -166zM151 537q0 -60 44.5 -93t133.5 -47
l110 -15q121 26 167 59t46 95q0 61 -67 98.5t-184 37.5q-116 0 -183 -37t-67 -98zM404 28q129 0 200 40.5t71 112.5q0 68 -51 103.5t-152 49.5l-107 14q-123 -20 -179.5 -60.5t-56.5 -108.5q0 -71 72 -111t203 -40z" />
    <glyph glyph-name="nine.tf" 
d="M389 715q163 0 249.5 -88.5t86.5 -259.5q0 -189 -81.5 -288t-241.5 -99q-126 0 -207.5 50t-100.5 140l56 12q38 -154 252 -154q270 0 270 339v1q0 23 -1 34q-31 -64 -108.5 -106.5t-189.5 -42.5q-136 0 -215 59.5t-79 171.5q0 106 85 168.5t225 62.5zM383 301
q109 0 183.5 46.5t94.5 124.5q-43 195 -269 195q-119 0 -188 -48t-69 -135q0 -91 66 -137t182 -46z" />
    <glyph glyph-name="zero.tf.zero" 
d="M402 715q156 0 245.5 -99t89.5 -264q0 -171 -90 -271.5t-245 -100.5q-157 0 -246.5 101.5t-89.5 272.5q0 164 90.5 262.5t245.5 98.5zM402 671q-134 0 -207.5 -86t-73.5 -231q0 -116 45 -200l449 423q-75 94 -213 94zM402 24q133 0 206.5 88.5t73.5 239.5q0 109 -42 188
l-449 -422q75 -94 211 -94z" />
    <glyph glyph-name="dollar.tf" 
d="M529 372q114 -15 164 -59t50 -130q0 -203 -315 -203h-2v-83h-39v84q-145 8 -230 66.5t-101 164.5l61 7q11 -84 80.5 -132t189.5 -56v308l-68 9q-119 15 -174.5 60t-55.5 127q0 84 76.5 131t221.5 49v78h39v-78q135 -4 206.5 -51.5t86.5 -143.5l-60 -11q-13 78 -68 115.5
t-165 41.5v-280zM342 398l45 -6v275q-237 -3 -237 -132q0 -61 44 -92.5t148 -44.5zM436 29q127 0 187 38t60 116q0 65 -38 96.5t-131 43.5l-88 11v-305h10z" />
    <glyph glyph-name="cent.tf" 
d="M432 22q95 4 154.5 43.5t79.5 102.5l53 -12q-26 -78 -97.5 -125.5t-189.5 -51.5v-68h-42v68q-146 6 -226.5 81t-80.5 191q0 114 80.5 188.5t226.5 81.5v73h42v-73q119 -4 192.5 -51t95.5 -128l-56 -9q-18 65 -77 103t-155 42v-456zM138 251q0 -97 66.5 -159.5
t185.5 -68.5v455q-121 -6 -186.5 -68t-65.5 -159z" />
    <glyph glyph-name="sterling.tf" 
d="M701 153l50 -8q-7 -79 -61.5 -122t-145.5 -43q-40 0 -127 16t-150 16q-84 0 -203 -22l-13 41q79 20 123 71t44 126q0 53 -17 115h-135v40h123q-16 57 -16 110q0 106 70.5 164t199.5 58q109 0 176.5 -45.5t84.5 -129.5l-55 -12q-13 69 -66.5 106.5t-140.5 37.5
q-211 0 -211 -176q0 -51 17 -113h258v-40h-246q15 -56 15 -105q0 -143 -128 -193q69 12 140 12q54 0 133 -13.5t124 -13.5q70 0 111 32t46 91z" />
    <glyph glyph-name="florin.tf" 
d="M614 666q-86 0 -125.5 -34.5t-54.5 -123.5l-14 -92h262v-42h-269l-81 -524h-56l83 524h-220v42h227l12 77q21 125 73 173t167 48q49 0 86 -13v-48q-49 13 -90 13z" />
    <glyph glyph-name="yen.tf" 
d="M430 285v-14h270v-37h-270v-88h270v-38h-270v-108h-57v108h-270v38h270v88h-270v37h270v14l-348 410h68l270 -320q24 -30 37 -58h3q13 28 37 58l269 320h68z" />
    <glyph glyph-name="Euro.tf" 
d="M701 174l44 -18q-35 -85 -111 -130.5t-175 -45.5q-137 0 -221 78t-105 212h-80v37h75q-2 34 -2 51q0 16 2 48h-75v38h80q23 126 109 198.5t222 72.5q213 0 275 -168l-45 -18q-52 141 -233 141q-115 0 -183.5 -59t-87.5 -167h332v-38h-337q-2 -30 -2 -47q0 -18 2 -52h337
v-37h-332q20 -115 89.5 -180t180.5 -65q78 0 143 37.5t98 111.5z" />
    <glyph glyph-name="percent.tf" 
d="M117 -14l521 744h52l-521 -744h-52zM210 373q-76 0 -120.5 47t-44.5 126q0 78 44.5 124.5t120.5 46.5q74 0 119.5 -47t45.5 -126q0 -78 -45.5 -124.5t-119.5 -46.5zM210 414q54 0 85.5 34.5t31.5 95.5q0 62 -31.5 96.5t-85.5 34.5t-86.5 -34.5t-32.5 -94.5q0 -62 32 -97
t87 -35zM596 -9q-76 0 -121 46.5t-45 125.5t45 125t121 46q75 0 120 -47t45 -125t-45 -124.5t-120 -46.5zM596 32q54 0 85.5 34.5t31.5 95.5q0 62 -31.5 96.5t-85.5 34.5q-55 0 -87 -34.5t-32 -95.5q0 -62 32 -96.5t87 -34.5z" />
    <glyph glyph-name="perthousand.tf" 
d="M187 426q-69 0 -110.5 38.5t-41.5 103.5t41.5 103.5t110.5 38.5t110 -38.5t41 -103.5t-41 -103.5t-110 -38.5zM187 674q-50 0 -79.5 -29t-29.5 -77t29.5 -77t79.5 -29q49 0 78.5 29t29.5 77t-29.5 77t-78.5 29zM655 583v-44l-583 -300v44zM617 265q69 0 110.5 -38.5
t41.5 -103.5t-41.5 -103.5t-110.5 -38.5q-90 0 -130 62q-40 -62 -129 -62q-69 0 -110.5 38.5t-41.5 103.5t41.5 103.5t110.5 38.5q89 0 130 -62q40 62 129 62zM358 17q49 0 78.5 29t29.5 77t-29.5 76.5t-78.5 28.5q-50 0 -79.5 -28.5t-29.5 -76.5t29.5 -77t79.5 -29zM617 17
q50 0 79.5 29t29.5 77t-29.5 76.5t-79.5 28.5t-79 -28.5t-29 -76.5t29 -77t79 -29z" />
    <glyph glyph-name="uni20BF.case" horiz-adv-x="928" 
d="M850 196q0 -86 -57 -139t-176 -57v-86h-41v86h-218v-86h-40v86h-190v710h190v87h40v-87h218v87h41v-87q109 -4 162 -51.5t53 -124.5q0 -64 -35 -108.5t-105 -56.5q78 -10 118 -55.5t40 -117.5zM595 661h-410v-271h417q91 0 131 38.5t40 99.5t-42.5 97t-135.5 36zM600 49
q191 0 191 148q0 69 -45.5 108t-141.5 39h-419v-295h415z" />
    <glyph glyph-name="uni20BF.tf" 
d="M729 190q0 -172 -206 -188v-109h-42v107h-179v-107h-43v107h-162v695h162v90h43v-90h178h1v90h42v-92q95 -8 142 -53t47 -118q0 -63 -37 -107t-108 -56q79 -9 120.5 -53.5t41.5 -115.5zM480 648h-328v-268h329q172 0 172 142q0 126 -173 126zM480 47q102 0 146.5 37
t44.5 107q0 143 -186 143h-333v-287h328z" />
    <glyph glyph-name="uni20BF.tf.case" 
d="M729 194q0 -83 -50.5 -133.5t-155.5 -58.5v-91h-42v89h-179v-89h-43v89h-162v710h162v90h43v-90h178h1v90h42v-92q95 -9 142 -55t47 -120q0 -64 -37 -109t-108 -57q79 -9 120.5 -55t41.5 -118zM480 663h-328v-275h329q172 0 172 145q0 130 -173 130zM480 47
q102 0 146.5 38t44.5 110q0 147 -186 147h-333v-295h328z" />
    <glyph glyph-name="g.ss01" horiz-adv-x="855" 
d="M400 -214q-140 0 -224 42.5t-105 125.5h60q40 -122 270 -122q283 0 283 216v86q-33 -68 -115.5 -109t-189.5 -41q-144 0 -234.5 75t-90.5 195q0 121 88.5 193t235.5 72q111 0 191 -40t115 -112l8 133h45v-452q0 -262 -337 -262zM391 31q130 0 212 61t82 155v11
q0 94 -82.5 154t-213.5 60q-128 0 -203.5 -58.5t-75.5 -159.5q0 -102 77 -162.5t204 -60.5z" />
    <glyph glyph-name="gbreve.ss01" horiz-adv-x="855" 
d="M285 730q5 -56 41.5 -87.5t98.5 -31.5q61 0 97.5 31.5t41.5 87.5h46q-6 -76 -56 -115.5t-129 -39.5q-80 0 -130 39.5t-56 115.5h46zM400 -214q-140 0 -224 42.5t-105 125.5h60q40 -122 270 -122q283 0 283 216v86q-33 -68 -115.5 -109t-189.5 -41q-144 0 -234.5 75
t-90.5 195q0 121 88.5 193t235.5 72q111 0 191 -40t115 -112l8 133h45v-452q0 -262 -337 -262zM391 31q130 0 212 61t82 155v11q0 94 -82.5 154t-213.5 60q-128 0 -203.5 -58.5t-75.5 -159.5q0 -102 77 -162.5t204 -60.5z" />
    <glyph glyph-name="gcircumflex.ss01" horiz-adv-x="855" 
d="M629 580h-59l-146 124l-145 -124h-59l173 150h63zM400 -214q-140 0 -224 42.5t-105 125.5h60q40 -122 270 -122q283 0 283 216v86q-33 -68 -115.5 -109t-189.5 -41q-144 0 -234.5 75t-90.5 195q0 121 88.5 193t235.5 72q111 0 191 -40t115 -112l8 133h45v-452
q0 -262 -337 -262zM391 31q130 0 212 61t82 155v11q0 94 -82.5 154t-213.5 60q-128 0 -203.5 -58.5t-75.5 -159.5q0 -102 77 -162.5t204 -60.5z" />
    <glyph glyph-name="uni0123.ss01" horiz-adv-x="855" 
d="M448 755l15 -20q-27 -14 -35 -30.5t-8 -39.5h36v-85h-66v73q0 39 12.5 62.5t45.5 39.5zM400 -214q-140 0 -224 42.5t-105 125.5h60q40 -122 270 -122q283 0 283 216v86q-33 -68 -115.5 -109t-189.5 -41q-144 0 -234.5 75t-90.5 195q0 121 88.5 193t235.5 72
q111 0 191 -40t115 -112l8 133h45v-452q0 -262 -337 -262zM391 31q130 0 212 61t82 155v11q0 94 -82.5 154t-213.5 60q-128 0 -203.5 -58.5t-75.5 -159.5q0 -102 77 -162.5t204 -60.5z" />
    <glyph glyph-name="gdotaccent.ss01" horiz-adv-x="855" 
d="M391 587v117h64v-117h-64zM400 -214q-140 0 -224 42.5t-105 125.5h60q40 -122 270 -122q283 0 283 216v86q-33 -68 -115.5 -109t-189.5 -41q-144 0 -234.5 75t-90.5 195q0 121 88.5 193t235.5 72q111 0 191 -40t115 -112l8 133h45v-452q0 -262 -337 -262zM391 31
q130 0 212 61t82 155v11q0 94 -82.5 154t-213.5 60q-128 0 -203.5 -58.5t-75.5 -159.5q0 -102 77 -162.5t204 -60.5z" />
    <glyph glyph-name="g_g.liga.ss01" horiz-adv-x="1709" 
d="M400 -214q-140 0 -224 42.5t-105 125.5h60q40 -122 270 -122q283 0 283 216v86q-33 -68 -115.5 -109t-189.5 -41q-144 0 -234.5 75t-90.5 195q0 121 88.5 193t235.5 72q111 0 191 -40t115 -112l8 133h45v-452q0 -262 -337 -262zM1255 -214q-140 0 -224 42.5t-105 125.5
h60q40 -122 270 -122q283 0 283 216v86q-33 -68 -115.5 -109t-189.5 -41q-144 0 -234.5 75t-90.5 195q0 121 88.5 193t235.5 72q111 0 191 -40t115 -112l8 133h45v-452q0 -262 -337 -262zM391 31q130 0 212 61t82 155v11q0 94 -82.5 154t-213.5 60q-128 0 -203.5 -58.5
t-75.5 -159.5q0 -102 77 -162.5t204 -60.5zM1246 31q130 0 212 61t82 155v11q0 94 -82.5 154t-213.5 60q-128 0 -203.5 -58.5t-75.5 -159.5q0 -102 77 -162.5t204 -60.5z" />
    <glyph glyph-name="g.sups.ss01" horiz-adv-x="654" 
d="M307 154q-214 0 -242 123h55q26 -89 188 -89q101 0 149.5 38t48.5 118v67q-23 -50 -82.5 -80t-138.5 -30q-105 0 -169.5 54t-64.5 142t65 140.5t172 52.5q167 0 220 -112l5 97h45v-329q0 -192 -251 -192zM300 336q90 0 149 45t59 112v5q0 69 -57 112.5t-150 43.5
q-90 0 -143 -42t-53 -115t53.5 -117t141.5 -44z" />
    <glyph glyph-name="a.sups" horiz-adv-x="615" 
d="M248 296q-84 0 -134 28.5t-50 79.5q0 58 47.5 82.5t134.5 30.5l230 14v7q0 59 -40 88t-126 29q-160 0 -177 -96h-55q10 62 72.5 96.5t159.5 34.5q218 0 218 -157v-94q0 -84 7 -129h-52q-5 55 -4 91q-25 -49 -85.5 -77t-145.5 -28zM263 329q92 0 153 39t61 97v39l-214 -15
q-83 -5 -115 -24.5t-32 -57.5q0 -37 39.5 -57.5t107.5 -20.5z" />
    <glyph glyph-name="b.sups" horiz-adv-x="658" 
d="M365 296q-157 0 -215 107l-4 -93h-46v529h51v-261q25 52 81.5 82t137.5 30q109 0 173 -54t64 -142q0 -89 -65.5 -143.5t-176.5 -54.5zM352 333q94 0 148 44t54 117q0 72 -52.5 115t-146.5 43q-92 0 -149 -45.5t-57 -110.5v-6q0 -67 56 -112t147 -45z" />
    <glyph glyph-name="c.sups" horiz-adv-x="589" 
d="M297 296q-117 0 -185.5 53t-68.5 144t68.5 144t187.5 53q97 0 158.5 -36t76.5 -101l-55 -6q-12 50 -59.5 77.5t-123.5 27.5q-94 0 -146.5 -42t-52.5 -116q0 -75 53 -117.5t147 -42.5q76 0 123 27t60 77l53 -7q-16 -64 -77.5 -99.5t-158.5 -35.5z" />
    <glyph glyph-name="d.sups" horiz-adv-x="658" 
d="M290 296q-111 0 -175 54.5t-64 142.5q0 89 63.5 143t176.5 54q79 0 134.5 -29.5t81.5 -80.5v259h51v-529h-50v96q-60 -110 -218 -110zM305 333q90 0 146.5 45t56.5 111v7q0 65 -57 110.5t-149 45.5q-94 0 -146 -42.5t-52 -116.5q0 -73 53.5 -116.5t147.5 -43.5z" />
    <glyph glyph-name="e.sups" horiz-adv-x="589" 
d="M535 498v-13h-440q3 -71 56 -111t144 -40q153 2 190 95l44 -16q-25 -56 -85.5 -86.5t-150.5 -30.5q-116 0 -183 53t-67 146q0 90 67 142.5t179 52.5q115 0 180.5 -51.5t65.5 -140.5zM95 518h385q0 63 -52.5 100.5t-138.5 37.5q-84 0 -137.5 -38t-56.5 -100z" />
    <glyph glyph-name="f.sups" horiz-adv-x="396" 
d="M371 675v-36h-171v-329h-50v329h-117v36h117v42q0 130 149 130q40 0 72 -7v-38q-28 6 -68 6q-54 0 -78.5 -21.5t-24.5 -70.5v-41h171z" />
    <glyph glyph-name="g.sups" horiz-adv-x="606" 
d="M542 691q-63 0 -82 -36q54 -34 54 -92q0 -59 -58 -92.5t-157 -33.5q-79 0 -130 21q-53 -11 -53 -46q0 -45 69 -45h241q139 0 139 -94q0 -59 -63 -89t-204 -30q-136 0 -192.5 24.5t-56.5 76.5q0 56 76 75q-56 16 -56 65q0 57 78 73q-63 33 -63 95q0 60 58 93.5t157 33.5
q85 0 139 -24q10 31 39.5 47t67.5 16q15 0 21 -1v-38q-2 0 -10 0.5t-14 0.5zM299 468q73 0 117 24.5t44 70.5t-44 70.5t-117 24.5q-74 0 -117 -24t-43 -71q0 -46 43.5 -70.5t116.5 -24.5zM417 323l-243 1q-12 0 -17 1q-63 -16 -63 -63q0 -39 48 -57.5t162 -18.5
q209 0 209 78q0 31 -22.5 45t-73.5 14z" />
    <glyph glyph-name="h.sups" horiz-adv-x="655" 
d="M100 310v529h51v-268q51 119 213 119q103 0 157.5 -53t54.5 -153v-174h-51v168q0 84 -45.5 128t-131.5 44q-90 0 -143.5 -46t-53.5 -124v-170h-51z" />
    <glyph glyph-name="i.sups" horiz-adv-x="243" 
d="M94 733v94h55v-94h-55zM96 310v365h51v-365h-51z" />
    <glyph glyph-name="j.sups" horiz-adv-x="251" 
d="M101 733v94h55v-94h-55zM33 160q-35 0 -57 6v39q23 -4 51 -4q77 0 77 86v388h51v-395q0 -58 -31.5 -89t-90.5 -31z" />
    <glyph glyph-name="k.sups" horiz-adv-x="572" 
d="M488 310l-178 212l-159 -109v-103h-51v529h51v-382l311 218h72l-183 -129l198 -236h-61z" />
    <glyph glyph-name="l.sups" horiz-adv-x="251" 
d="M151 839v-529h-51v529h51z" />
    <glyph glyph-name="m.sups" horiz-adv-x="945" 
d="M95 675h51v-103q18 56 64 87t113 31q70 0 114.5 -31.5t58.5 -88.5q21 57 69 88.5t115 31.5q186 0 186 -197v-183h-51v177q0 162 -151 162q-71 0 -114.5 -42.5t-43.5 -111.5v-185h-51v185q0 154 -148 154q-72 0 -116 -45.5t-44 -120.5v-173h-52v365z" />
    <glyph glyph-name="n.sups" horiz-adv-x="651" 
d="M95 310v365h51v-106q50 121 215 121q102 0 156.5 -52t54.5 -149v-179h-52v171q0 83 -44.5 125.5t-130.5 42.5q-92 0 -145 -45.5t-53 -124.5v-169h-52z" />
    <glyph glyph-name="o.sups" horiz-adv-x="596" 
d="M298 296q-115 0 -185 53.5t-70 143.5q0 89 70 143t185 54t184.5 -54t69.5 -143q0 -90 -69 -143.5t-185 -53.5zM298 333q91 0 146.5 43.5t55.5 116.5q0 72 -55.5 115.5t-146.5 43.5t-146.5 -43.5t-55.5 -115.5q0 -73 55.5 -116.5t146.5 -43.5z" />
    <glyph glyph-name="p.sups" horiz-adv-x="653" 
d="M95 168v507h51v-98q24 52 80.5 82.5t140.5 30.5q107 0 171 -54t64 -143t-65.5 -143t-172.5 -54q-80 0 -135.5 28.5t-81.5 77.5v-234h-52zM351 333q90 0 144 43.5t54 116.5q0 74 -53 116.5t-143 42.5q-92 0 -149.5 -44t-57.5 -112v-5q0 -69 56.5 -113.5t148.5 -44.5z" />
    <glyph glyph-name="q.sups" horiz-adv-x="653" 
d="M507 168v235q-25 -50 -82 -79t-137 -29q-107 0 -172 55t-65 144t64 142.5t171 53.5q84 0 140.5 -30.5t81.5 -83.5l6 99h44v-507h-51zM303 333q93 0 149 44.5t56 113.5v5q0 68 -58 112.5t-152 44.5q-87 0 -140.5 -42t-53.5 -117q0 -74 54.5 -117.5t144.5 -43.5z" />
    <glyph glyph-name="r.sups" horiz-adv-x="395" 
d="M142 535q16 70 61.5 109.5t114.5 39.5q28 0 51 -5v-44q-20 4 -56 4q-69 0 -108 -39q-58 -57 -58 -165v-125h-52v365h47v-140z" />
    <glyph glyph-name="s.sups" horiz-adv-x="559" 
d="M296 296q-212 0 -253 117l37 19q45 -99 223 -99q154 0 154 76q0 28 -18.5 44.5t-65.5 19.5l-185 13q-123 8 -123 95q0 52 53 80.5t152 28.5q181 0 230 -106l-35 -21q-23 45 -69 67.5t-132 22.5q-74 0 -112 -18.5t-38 -50.5q0 -53 87 -58l181 -12q69 -5 97 -30.5t28 -69.5
q0 -118 -211 -118z" />
    <glyph glyph-name="t.sups" horiz-adv-x="414" 
d="M24 639v36h118v96l50 20v-116h178v-36h-178v-201q0 -96 105 -96q36 0 73 8v-35q-31 -12 -85 -12q-143 0 -143 127v209h-118z" />
    <glyph glyph-name="u.sups" horiz-adv-x="652" 
d="M506 422q-22 -60 -79.5 -93t-137.5 -33q-210 0 -210 190v189h51v-178q0 -162 172 -162q96 0 149.5 50t53.5 123v167h51v-365h-50v112z" />
    <glyph glyph-name="v.sups" horiz-adv-x="556" 
d="M250 310l-233 365h58l177 -281q17 -27 24 -42h3q18 31 25 42l178 281h57l-233 -365h-56z" />
    <glyph glyph-name="w.sups" horiz-adv-x="850" 
d="M205 310l-177 365h53l133 -278q17 -40 18 -44h2q8 21 21 44l144 278h53l143 -278q14 -25 20 -44h2q3 8 10 24t9 20l133 278h53l-178 -365h-54l-147 283q-10 18 -17 40h-2q-7 -22 -17 -40l-147 -283h-55z" />
    <glyph glyph-name="x.sups" horiz-adv-x="547" 
d="M30 310l209 187l-200 178h65l133 -117q10 -8 37 -37h1q18 19 37 37l131 117h64l-198 -176l208 -189h-66l-143 128q-28 26 -35 35h-1q-16 -18 -36 -36l-144 -127h-62z" />
    <glyph glyph-name="y.sups" horiz-adv-x="545" 
d="M87 159q-25 0 -48 4v41q23 -3 42 -3q61 0 97 23t63 65l10 16l-234 370h58l164 -265q28 -48 37 -66h2q15 32 36 64l159 267h55l-233 -386q-41 -69 -86.5 -99.5t-121.5 -30.5z" />
    <glyph glyph-name="z.sups" horiz-adv-x="562" 
d="M59 346l374 294h-361v35h429v-35l-373 -295h382v-35h-451v36z" />
    <glyph glyph-name="zero.case" horiz-adv-x="847" 
d="M424 -24q-164 0 -262 104t-98 276q0 171 98.5 274.5t261.5 103.5q164 0 261.5 -104t97.5 -276q0 -170 -98 -274t-261 -104zM424 24q139 0 221 89.5t82 240.5q0 153 -82 243t-221 90t-221.5 -90t-82.5 -241q0 -152 82.5 -242t221.5 -90z" />
    <glyph glyph-name="one.case" horiz-adv-x="454" 
d="M255 0v604q-26 -41 -79.5 -66.5t-121.5 -25.5h-26v50h16q80 0 138.5 40.5t79.5 107.5h46v-710h-53z" />
    <glyph glyph-name="two.case" horiz-adv-x="777" 
d="M49 0v52q340 150 463 244q65 49 92.5 96.5t27.5 109.5q0 79 -63.5 132t-189.5 53q-112 0 -184.5 -49.5t-72.5 -146.5q0 -25 4 -41l-58 5q-4 17 -4 45q0 106 88.5 170t226.5 64q150 0 231 -65.5t81 -166.5q0 -80 -40.5 -136.5t-110.5 -105.5q-72 -52 -185 -113t-208 -96
h569v-51h-667z" />
    <glyph glyph-name="three.case" horiz-adv-x="810" 
d="M404 -24q-151 0 -240 63t-101 165l55 7q13 -86 85.5 -136.5t201.5 -50.5q130 0 204 43.5t74 124.5q0 73 -62.5 112.5t-183.5 39.5h-90v47h83q100 0 164 35t64 108q0 74 -67.5 113.5t-192.5 39.5q-127 0 -196.5 -54t-75.5 -140l-53 9q6 103 91 167.5t237 64.5
q151 0 232 -53t81 -147q0 -74 -54 -113.5t-133 -48.5q95 -6 153.5 -52t58.5 -128q0 -96 -85.5 -156t-249.5 -60z" />
    <glyph glyph-name="four.case" horiz-adv-x="776" 
d="M764 195h-175v-195h-53v195h-517v40l504 475h66v-470h175v-45zM536 583q0 63 2 81h-2q-13 -20 -64 -67l-306 -293q-37 -35 -74 -64h444v343z" />
    <glyph glyph-name="five.case" horiz-adv-x="769" 
d="M389 -24q-132 0 -218.5 54t-109.5 149l58 9q20 -78 90.5 -121t179.5 -43q126 0 198 55.5t72 153.5t-67.5 150.5t-188.5 52.5q-100 0 -168.5 -37.5t-98.5 -107.5l-56 5l44 414h554v-49h-511l-32 -303q35 59 109.5 92t176.5 33q139 0 216.5 -65t77.5 -185
q0 -118 -88.5 -187.5t-237.5 -69.5z" />
    <glyph glyph-name="six.case" horiz-adv-x="810" 
d="M433 476q148 0 231 -65.5t83 -181.5q0 -114 -88.5 -183.5t-232.5 -69.5q-176 0 -269 96.5t-93 281.5q0 184 92 282t262 98q130 0 213.5 -52.5t102.5 -148.5l-56 -11q-45 165 -261 165q-146 0 -223 -84.5t-76 -248.5v-1q0 -30 3 -57q28 85 110.5 132.5t201.5 47.5zM427 24
q122 0 193 55t71 150q0 96 -68 147.5t-195 51.5q-120 0 -197 -53.5t-98 -150.5q54 -200 294 -200z" />
    <glyph glyph-name="seven.case" horiz-adv-x="690" 
d="M240 0v16q0 183 94.5 348.5t261.5 296.5h-577v49h651v-46q-169 -124 -266.5 -286.5t-97.5 -359.5v-18h-66z" />
    <glyph glyph-name="eight.case" horiz-adv-x="809" 
d="M524 378q117 -21 170.5 -67t53.5 -125q0 -100 -90 -155t-251 -55q-165 0 -255.5 53.5t-90.5 150.5q0 155 217 189q-101 21 -148 64t-47 115q0 87 86.5 136.5t234.5 49.5t234.5 -50.5t86.5 -137.5q0 -141 -201 -168zM140 548q0 -59 46.5 -93.5t145.5 -48.5l109 -16
q130 26 179 60t49 96q0 69 -70.5 107.5t-194.5 38.5t-194 -38t-70 -106zM407 24q135 0 210 42.5t75 118.5q0 67 -51.5 104t-165.5 53l-108 14q-130 -20 -189.5 -61.5t-59.5 -111.5q0 -76 76 -117.5t213 -41.5z" />
    <glyph glyph-name="nine.case" horiz-adv-x="810" 
d="M391 734q172 0 263.5 -92t91.5 -266q0 -195 -89 -297.5t-263 -102.5q-129 0 -212.5 54.5t-102.5 153.5l56 12q39 -172 260 -172q298 0 298 352v1q0 24 -1 36q-32 -67 -115 -110.5t-202 -43.5q-144 0 -228 60.5t-84 173.5q0 111 89.5 176t238.5 65zM385 308
q117 0 196.5 47.5t100.5 127.5q-46 204 -288 204q-128 0 -201 -50.5t-73 -143.5q0 -92 69.5 -138.5t195.5 -46.5z" />
    <glyph glyph-name="one.case.ss02" horiz-adv-x="663" 
d="M391 51h260v-51h-609v51h295v555q-31 -44 -95.5 -72.5t-146.5 -28.5h-39v50h29q95 0 165 43t94 112h47v-659z" />
    <glyph glyph-name="zero.case.zero" horiz-adv-x="847" 
d="M424 734q164 0 261.5 -104t97.5 -276q0 -170 -98 -274t-261 -104q-164 0 -262 104t-98 276q0 171 98.5 274.5t261.5 103.5zM424 687q-139 0 -221.5 -90t-82.5 -241q0 -123 55 -207l468 450q-80 88 -219 88zM424 24q139 0 221 89.5t82 240.5q0 126 -57 211l-468 -451
q82 -90 222 -90z" />
    <glyph glyph-name="zero.osf" horiz-adv-x="862" 
d="M431 -24q-173 0 -279.5 80t-106.5 211q0 132 106 212t280 80t280 -80.5t106 -212.5q0 -130 -106.5 -210t-279.5 -80zM431 23q149 0 239 66t90 177q0 112 -89.5 179t-239.5 67t-240 -66.5t-90 -178.5t90 -178t240 -66z" />
    <glyph glyph-name="one.osf" horiz-adv-x="771" 
d="M441 48h280v-48h-621v48h287v389q-26 -46 -93.5 -73.5t-143.5 -29.5h-38v50h29q89 0 162 39t93 112h45v-487z" />
    <glyph glyph-name="two.osf" horiz-adv-x="830" 
d="M80 51q323 99 434 152q74 36 107 73.5t33 86.5q0 66 -65.5 107.5t-171.5 41.5q-118 0 -185 -43.5t-67 -120.5q0 -12 3 -32l-56 7q-3 16 -3 34q0 91 85.5 146.5t223.5 55.5q132 0 212.5 -53.5t80.5 -140.5q0 -102 -135 -176q-124 -68 -383 -141h559v-48h-672v51z" />
    <glyph glyph-name="three.osf" horiz-adv-x="808" 
d="M398 -174q-144 0 -235 57t-100 154l55 5q12 -80 86 -124.5t195 -44.5q134 0 207.5 43t73.5 121q0 141 -240 141h-90v47h83q104 0 163 37t59 102q0 71 -67 109.5t-192 38.5t-197.5 -49.5t-74.5 -137.5l-53 8q0 101 91 163.5t237 62.5t229.5 -52t83.5 -143
q0 -63 -47.5 -106.5t-125.5 -50.5q92 -8 145 -53.5t53 -115.5q0 -98 -91 -155t-248 -57z" />
    <glyph glyph-name="four.osf" horiz-adv-x="778" 
d="M536 -150v188h-516v40l503 461h67v-456h175v-45h-175v-188h-54zM93 83h443v313q0 63 2 98h-2q-40 -45 -100 -100l-237 -217q-43 -41 -106 -94z" />
    <glyph glyph-name="five.osf" horiz-adv-x="769" 
d="M389 -174q-131 0 -218 53t-110 147l58 10q20 -77 90.5 -120t179.5 -43q127 0 198.5 55t71.5 152q0 94 -66.5 145t-188.5 51q-99 0 -168 -36t-100 -104l-56 5l44 394h555v-49h-511l-33 -285q36 59 111 91t175 32q141 0 217.5 -64t76.5 -180q0 -117 -88.5 -185.5
t-237.5 -68.5z" />
    <glyph glyph-name="six.osf" horiz-adv-x="809" 
d="M433 468q148 0 231 -64t83 -177q0 -111 -88.5 -179t-231.5 -68q-177 0 -270 94.5t-93 274.5q0 176 92 271t262 95q130 0 213.5 -50t102.5 -141l-56 -12q-45 155 -261 155q-146 0 -222.5 -81t-76.5 -237v-1q0 -30 3 -57q27 83 109.5 130t202.5 47zM427 28q122 0 193 53.5
t71 145.5q0 93 -68 143t-195 50q-120 0 -196.5 -52t-97.5 -146q55 -194 293 -194z" />
    <glyph glyph-name="seven.osf" horiz-adv-x="690" 
d="M240 -150v16q0 173 93 332t263 288h-577v49h651v-46q-364 -256 -364 -621v-18h-66z" />
    <glyph glyph-name="eight.osf" horiz-adv-x="809" 
d="M526 370q116 -22 169 -65.5t53 -117.5q0 -98 -90 -152.5t-251 -54.5q-165 0 -255.5 53t-90.5 148q0 147 216 181q-100 20 -147 61.5t-47 111.5q0 83 86.5 131.5t234.5 48.5t234.5 -49t86.5 -132q0 -139 -199 -164zM140 535q0 -57 46.5 -90.5t145.5 -47.5l108 -15
q130 26 179.5 58.5t49.5 93.5q0 65 -70.5 101.5t-194.5 36.5t-194 -36.5t-70 -100.5zM407 28q135 0 210 41.5t75 116.5q0 62 -52 97.5t-165 50.5l-111 14q-128 -20 -187 -59.5t-59 -105.5q0 -73 76 -114t213 -41z" />
    <glyph glyph-name="nine.osf" horiz-adv-x="809" 
d="M391 558q173 0 264 -89t91 -261q0 -189 -90.5 -285.5t-265.5 -96.5q-127 0 -205.5 46.5t-101.5 136.5l54 11q39 -147 254 -147q301 0 301 334v1q0 24 -1 36q-32 -66 -117 -106t-195 -40q-149 0 -232.5 61t-83.5 170q0 105 89 167t239 62zM390 145q113 0 191.5 45
t99.5 122q-45 200 -287 200q-130 0 -202 -48.5t-72 -134.5q0 -89 69.5 -136.5t200.5 -47.5z" />
    <glyph glyph-name="zero.osf.zero" horiz-adv-x="862" 
d="M431 559q174 0 280 -80.5t106 -212.5q0 -130 -106.5 -210t-279.5 -80t-279.5 80t-106.5 211q0 132 106 212t280 80zM101 267q0 -99 71 -162l487 348q-87 59 -228 59q-150 0 -240 -66.5t-90 -178.5zM431 23q149 0 239 66t90 177q0 96 -69 162l-488 -347q89 -58 228 -58z
" />
    <glyph glyph-name="one.ss02" horiz-adv-x="663" 
d="M390 51h260v-51h-609v51h295v540q-31 -44 -95.5 -72.5t-146.5 -28.5h-39v50h29q95 0 165 43t94 112h47v-644z" />
    <glyph glyph-name="zero.tf.case" 
d="M402 -24q-157 0 -246.5 105t-89.5 278t90.5 274t245.5 101q157 0 246 -102t89 -275q0 -174 -90 -277.5t-245 -103.5zM402 21q133 0 206.5 91.5t73.5 244.5q0 155 -74 244t-206 89q-134 0 -207.5 -89t-73.5 -242q0 -155 74 -246.5t207 -91.5z" />
    <glyph glyph-name="one.tf.case" 
d="M464 51h259v-51h-608v51h295v554q-32 -45 -96 -74t-147 -29h-39v50h30q95 0 165 43.5t94 114.5h47v-659z" />
    <glyph glyph-name="two.tf.case" 
d="M86 0v42q320 178 431 271q114 93 114 200q0 77 -60 127t-173 50q-101 0 -169.5 -47t-73.5 -142q0 -5 0.5 -14t0.5 -12l-54 7v9v11v9q4 72 46 123t107 75.5t145 24.5q136 0 211 -61t75 -157q0 -62 -27.5 -113t-84.5 -103q-63 -57 -179 -130t-222 -124h543v-46h-630z" />
    <glyph glyph-name="three.tf.case" 
d="M405 -24q-138 0 -223.5 61.5t-94.5 158.5l53 5q12 -82 81 -131.5t185 -49.5q120 0 187 45t67 127q0 79 -62 117t-167 38h-75v42h68q95 0 153 39.5t58 109.5q0 71 -60.5 111.5t-177.5 40.5q-118 0 -180.5 -54t-64.5 -144l-54 8q0 98 80 166t222 68q139 0 214.5 -53
t75.5 -143q0 -70 -50 -114t-119 -51q83 -7 138.5 -54.5t55.5 -126.5q0 -98 -81 -157t-229 -59z" />
    <glyph glyph-name="four.tf.case" 
d="M535 0v196h-483v35l472 479h65v-471h162v-43h-162v-196h-54zM121 239h414v345q0 65 3 85h-2q-10 -17 -47 -57l-319 -329q-18 -19 -49 -44z" />
    <glyph glyph-name="five.tf.case" 
d="M400 -24q-124 0 -205.5 51.5t-100.5 142.5l53 3q17 -70 83 -111t174 -41q115 0 183 56t68 158q0 86 -60 143t-181 57q-94 0 -157.5 -37.5t-89.5 -91.5l-54 5l39 399h517v-45h-472l-29 -301q34 51 101 82.5t158 31.5q128 0 205.5 -66t77.5 -177q0 -116 -83.5 -187.5
t-226.5 -71.5z" />
    <glyph glyph-name="six.tf.case" 
d="M425 476q139 0 219 -64.5t80 -182.5q0 -112 -82.5 -182.5t-219.5 -70.5q-167 0 -255 96.5t-88 282.5q0 182 86 280.5t245 98.5q123 0 203 -51t99 -145l-57 -11q-41 160 -246 160q-135 0 -205.5 -85t-70.5 -248v-1q0 -30 3 -57q25 84 100.5 132t188.5 48zM422 24
q115 0 180.5 55.5t65.5 149.5q0 96 -65 147.5t-183 51.5q-111 0 -182 -53.5t-90 -151.5q52 -199 274 -199z" />
    <glyph glyph-name="seven.tf.case" 
d="M304 0v15q0 183 89 349t247 297h-551v49h626v-46q-160 -123 -252.5 -286.5t-93.5 -360.5v-17h-65z" />
    <glyph glyph-name="eight.tf.case" 
d="M518 378q103 -19 158 -63.5t55 -128.5q0 -100 -86 -155t-241 -55q-159 0 -245.5 53.5t-86.5 151.5q0 76 52 124t154 64q-89 18 -136.5 60t-47.5 118q0 88 82 137.5t225 49.5q142 0 224.5 -50.5t82.5 -137.5q0 -140 -190 -168zM151 548q0 -116 178 -142l109 -16
q121 26 167.5 59.5t46.5 96.5q0 69 -66 107.5t-185 38.5q-118 0 -184 -38t-66 -106zM404 24q129 0 200 42.5t71 119.5q0 68 -51.5 105t-151.5 51l-110 14q-121 -20 -177 -61.5t-56 -111.5q0 -75 72 -117t203 -42z" />
    <glyph glyph-name="nine.tf.case" 
d="M389 734q163 0 249.5 -91t86.5 -267q0 -195 -81.5 -297.5t-241.5 -102.5q-126 0 -207.5 51.5t-100.5 146.5l56 12q38 -162 252 -162q270 0 270 352v1q0 23 -1 34q-31 -65 -108.5 -108.5t-189.5 -43.5q-136 0 -215 60.5t-79 173.5q0 111 84.5 176t225.5 65zM383 307
q110 0 184.5 48t94.5 128q-44 204 -270 204q-119 0 -188 -50.5t-69 -143.5q0 -92 66 -139t182 -47z" />
    <glyph glyph-name="zero.tf.case.zero" 
d="M402 734q157 0 246 -102t89 -275q0 -174 -90 -277.5t-245 -103.5q-157 0 -246.5 105t-89.5 278t90.5 274t245.5 101zM402 690q-134 0 -207.5 -89t-73.5 -242q0 -118 45 -203l450 435q-74 99 -214 99zM402 21q133 0 206.5 91.5t73.5 244.5q0 117 -42 196l-449 -435
q75 -97 211 -97z" />
    <glyph glyph-name="zero.tosf" 
d="M402 -24q-157 0 -251 81t-94 209v4q0 128 94 208.5t251 80.5t251 -80.5t94 -208.5v-4q0 -128 -94 -209t-251 -81zM402 23q132 0 210.5 67.5t78.5 175.5v4q0 108 -78.5 175t-210.5 67t-210.5 -67t-78.5 -175v-4q0 -108 78.5 -175.5t210.5 -67.5z" />
    <glyph glyph-name="one.tosf" 
d="M454 44h259v-44h-589v44h276v393q-25 -46 -92.5 -73t-143.5 -30h-39v50h30q87 0 161 39t94 112h44v-491z" />
    <glyph glyph-name="two.tosf" 
d="M74 51q330 100 429 153q66 34 95 72t29 88q0 63 -60.5 105.5t-166.5 42.5q-114 0 -177 -45t-63 -127q0 -10 1 -16l-56 7q-1 6 -1 17q0 94 79.5 152.5t218.5 58.5q133 0 207.5 -56t74.5 -138q0 -103 -119 -175q-121 -73 -374 -142h534v-48h-651v51z" />
    <glyph glyph-name="three.tosf" 
d="M405 -174q-139 0 -224 58.5t-94 153.5l53 5q12 -79 80.5 -126t185.5 -47q120 0 187 42.5t67 121.5q0 77 -62 113.5t-167 36.5h-76v41h69q95 0 153 38.5t58 107.5q0 66 -61 105t-177 39q-117 0 -180 -52t-65 -137l-54 8q0 92 80 158.5t222 66.5q138 0 214 -51t76 -137
q0 -68 -49.5 -111t-119.5 -50q83 -7 138.5 -52.5t55.5 -122.5q0 -96 -80.5 -152.5t-229.5 -56.5z" />
    <glyph glyph-name="four.tosf" 
d="M536 -161v186h-484v36l472 474h65v-466h163v-44h-163v-186h-53zM121 69h415v339q0 66 2 86h-2q-11 -17 -49 -58l-315 -322q-27 -27 -51 -45z" />
    <glyph glyph-name="five.tosf" 
d="M400 -174q-124 0 -205.5 50t-100.5 136l53 4q17 -67 83.5 -106.5t173.5 -39.5q115 0 183 54t68 151v2q0 84 -60 139t-180 55q-95 0 -158.5 -36.5t-89.5 -89.5l-54 6l40 384h517v-45h-472l-30 -288q34 50 101 81t158 31q128 0 205.5 -65t77.5 -172v-2q0 -111 -83.5 -180
t-226.5 -69z" />
    <glyph glyph-name="six.tosf" 
d="M425 468q139 0 219 -63t80 -178q0 -109 -82.5 -178t-219.5 -69q-167 0 -255 94.5t-88 274.5q0 176 86.5 271t249.5 95q119 0 198.5 -48t98.5 -134l-57 -11q-42 145 -240 145q-139 0 -210.5 -81t-71.5 -237v-1q0 -29 3 -56q25 82 100.5 129t188.5 47zM422 28
q115 0 180.5 54t65.5 145q0 94 -65 143.5t-183 49.5q-110 0 -181.5 -52.5t-90.5 -146.5q52 -193 274 -193z" />
    <glyph glyph-name="seven.tosf" 
d="M304 -150v15q0 176 89 335.5t247 285.5h-551v49h626v-46q-345 -256 -345 -622v-17h-66z" />
    <glyph glyph-name="eight.tosf" 
d="M520 370q102 -20 156.5 -63.5t54.5 -124.5q0 -95 -86 -148.5t-241 -53.5q-158 0 -245 52t-87 145q0 74 52.5 121t154.5 63q-90 19 -137.5 60t-47.5 116q0 83 82.5 130.5t224.5 47.5q141 0 224 -48.5t83 -130.5q0 -139 -188 -166zM151 537q0 -60 44.5 -93t133.5 -47
l110 -15q121 26 167 59t46 95q0 61 -67 98.5t-184 37.5q-116 0 -183 -37t-67 -98zM404 28q129 0 200 40.5t71 112.5q0 68 -51 103.5t-152 49.5l-107 14q-123 -20 -179.5 -60.5t-56.5 -108.5q0 -71 72 -111t203 -40z" />
    <glyph glyph-name="nine.tosf" 
d="M389 559q163 0 249.5 -89t86.5 -261q0 -187 -82 -285t-241 -98q-126 0 -207.5 50.5t-100.5 141.5l56 11q39 -156 252 -156q269 0 269 336v1q0 22 -1 33q-31 -64 -108.5 -105.5t-188.5 -41.5q-136 0 -215 59t-79 169q0 108 85 171.5t225 63.5zM383 143q108 0 183 46.5
t95 123.5q-43 199 -269 199q-119 0 -188 -49t-69 -139q0 -89 66 -135t182 -46z" />
    <glyph glyph-name="zero.tosf.zero" 
d="M402 559q157 0 251 -80.5t94 -208.5v-4q0 -128 -94 -209t-251 -81t-251 81t-94 209v4q0 128 94 208.5t251 80.5zM113 266q0 -89 55 -153l441 335q-78 64 -207 64q-132 0 -210.5 -67t-78.5 -175v-4zM691 266v4q0 88 -54 151l-440 -335q77 -63 205 -63q132 0 210.5 67.5
t78.5 175.5z" />
    <glyph glyph-name="zero.subs" horiz-adv-x="647" 
d="M324 -157q-121 0 -194.5 73.5t-73.5 197.5q0 123 74 197t194 74t193.5 -74.5t73.5 -197.5t-73 -196.5t-194 -73.5zM324 -118q97 0 155.5 62t58.5 169t-58.5 169.5t-155.5 62.5q-96 0 -155 -62t-59 -169q0 -108 58.5 -170t155.5 -62z" />
    <glyph glyph-name="one.subs" horiz-adv-x="366" 
d="M197 -140v425q-20 -31 -59 -49.5t-85 -18.5h-21v45h13q58 0 102 28.5t58 76.5h44v-507h-52z" />
    <glyph glyph-name="two.subs" horiz-adv-x="596" 
d="M49 -140v40q12 5 36 16q198 91 268 138q114 79 114 166q0 53 -45.5 89t-130.5 36q-76 0 -128 -32.5t-52 -99.5q0 -17 2 -27l-53 5q-2 9 -2 29q0 78 66 121.5t167 43.5q106 0 168.5 -44.5t62.5 -117.5q0 -42 -22 -81.5t-52.5 -68.5t-87 -62.5t-100.5 -54.5t-117 -54h396
v-42h-490z" />
    <glyph glyph-name="three.subs" horiz-adv-x="619" 
d="M307 -157q-112 0 -179 45.5t-72 119.5l53 4q5 -59 57 -95t142 -36q89 0 142.5 31t53.5 89q0 45 -41.5 74.5t-129.5 29.5h-64v34h58q68 0 114 24.5t46 73.5q0 52 -49 80.5t-134 28.5q-90 0 -139 -37t-51 -99l-52 5q2 76 66 123t177 47q110 0 173 -38.5t63 -106.5
q0 -54 -40.5 -81.5t-100.5 -33.5q72 -5 115 -38t43 -89q0 -71 -67 -113t-184 -42z" />
    <glyph glyph-name="four.subs" horiz-adv-x="610" 
d="M590 -5h-134v-135h-51v135h-378v36l371 336h58v-334h134v-38zM405 326l-320 -293h320v293z" />
    <glyph glyph-name="five.subs" horiz-adv-x="589" 
d="M294 -157q-97 0 -160.5 38.5t-77.5 105.5l52 6q13 -53 62 -82.5t125 -29.5q88 0 138.5 39t50.5 105q0 67 -47.5 103t-134.5 36q-68 0 -118 -26.5t-67 -70.5l-49 5l31 295h410v-40h-370l-21 -211q54 85 202 85q102 0 160 -46t58 -129t-66.5 -133t-177.5 -50z" />
    <glyph glyph-name="six.subs" horiz-adv-x="618" 
d="M332 198q108 0 169.5 -47t61.5 -129t-65.5 -130.5t-175.5 -48.5q-266 0 -266 266q0 133 68.5 204.5t196.5 71.5q96 0 156 -36.5t76 -105.5l-53 -7q-32 110 -181 110q-105 0 -159 -59.5t-54 -175.5q0 -14 2 -38q21 60 79.5 92.5t144.5 32.5zM322 -119q87 0 137.5 38
t50.5 103q0 66 -49 102.5t-137 36.5q-84 0 -138 -35.5t-69 -102.5q38 -142 205 -142z" />
    <glyph glyph-name="seven.subs" horiz-adv-x="533" 
d="M191 -140v12q0 131 67.5 247.5t189.5 206.5h-425v41h482v-40q-257 -186 -257 -453v-14h-57z" />
    <glyph glyph-name="eight.subs" horiz-adv-x="619" 
d="M395 132q89 -14 129 -47.5t40 -92.5q0 -71 -67 -110t-188 -39q-120 0 -187 38t-67 107q0 110 164 133q-76 14 -112 45t-36 83q0 63 63.5 99.5t173.5 36.5q111 0 175.5 -36.5t64.5 -98.5q0 -51 -37 -79.5t-116 -38.5zM124 248q0 -79 138 -98l76 -10q89 16 123 39.5
t34 66.5q0 49 -50 76t-137 27q-85 0 -134.5 -27t-49.5 -74zM309 -120q95 0 148.5 30t53.5 83q0 46 -36 72t-115 36l-82 11q-88 -14 -128.5 -42.5t-40.5 -76.5q0 -53 53 -83t147 -30z" />
    <glyph glyph-name="nine.subs" horiz-adv-x="618" 
d="M299 385q129 0 196 -64.5t67 -188.5q0 -289 -262 -289q-96 0 -156 38.5t-77 109.5l53 7q27 -116 181 -116q211 0 211 246v16q-25 -44 -84 -71.5t-144 -27.5q-106 0 -167.5 43.5t-61.5 123.5t67 126.5t177 46.5zM297 83q79 0 134.5 30t75.5 81q-29 153 -204 153
q-90 0 -142.5 -35.5t-52.5 -99.5q0 -62 51 -95.5t138 -33.5z" />
    <glyph glyph-name="zero.dnom" horiz-adv-x="551" 
d="M276 -13q-104 0 -167 55t-63 151q0 95 63.5 150t166.5 55q104 0 167 -55.5t63 -151.5q0 -95 -63 -149.5t-167 -54.5zM276 21q80 0 129 45t49 125q0 82 -48.5 127t-129.5 45q-79 0 -129 -45t-50 -125q0 -81 49 -126.5t130 -45.5z" />
    <glyph glyph-name="one.dnom" horiz-adv-x="311" 
d="M164 0v317q-38 -53 -119 -53h-17v41h10q48 0 85.5 21.5t48.5 58.5h42v-385h-50z" />
    <glyph glyph-name="two.dnom" horiz-adv-x="499" 
d="M43 0v33q17 8 51 23q54 24 80.5 36.5t67.5 33.5t60.5 35t42 33.5t31 39t8.5 40.5q0 39 -37 64t-103 25q-61 0 -103 -22t-42 -71q0 -11 1 -18l-51 3q-1 7 -1 21q0 60 55.5 91t139.5 31q87 0 140 -30.5t53 -88.5q0 -31 -20.5 -61t-46.5 -52t-76 -49t-82 -41.5t-91 -39.5
h330v-36h-407z" />
    <glyph glyph-name="three.dnom" horiz-adv-x="518" 
d="M256 -13q-95 0 -151 35t-58 93l50 3q2 -44 44.5 -70.5t114.5 -26.5q70 0 114.5 22t44.5 64q0 74 -146 74h-51v35h47q138 0 138 69q0 38 -41 58t-108 20q-73 0 -112.5 -26t-41.5 -72l-50 2q2 60 56 95.5t149 35.5q90 0 144.5 -28t54.5 -82q0 -41 -34.5 -62t-85.5 -25
q62 -4 97.5 -28.5t35.5 -65.5q0 -57 -58 -88.5t-153 -31.5z" />
    <glyph glyph-name="four.dnom" horiz-adv-x="523" 
d="M504 99h-115v-99h-49v99h-316v33l313 253h52v-252h115v-34zM340 347l-266 -214h266v214z" />
    <glyph glyph-name="five.dnom" horiz-adv-x="490" 
d="M243 -13q-80 0 -133.5 29.5t-63.5 79.5l48 4q10 -37 50 -58.5t101 -21.5q70 0 111 28.5t41 75.5q0 48 -38.5 74t-109.5 26q-54 0 -96 -19t-53 -48l-45 4l25 224h344v-34h-306l-16 -157q45 62 163 62q86 0 134.5 -35t48.5 -97t-56 -99.5t-149 -37.5z" />
    <glyph glyph-name="six.dnom" horiz-adv-x="516" 
d="M279 256q89 0 140.5 -36t51.5 -98q0 -63 -55 -99t-150 -36q-220 0 -220 200q0 103 57 157t166 54q164 0 193 -104l-51 -4q-23 75 -144 75q-174 0 -174 -177q0 -14 1 -21q17 43 65.5 66t119.5 23zM266 20q72 0 113 27t41 75q0 46 -40.5 72.5t-110.5 26.5q-139 0 -169 -95
q29 -106 166 -106z" />
    <glyph glyph-name="seven.dnom" horiz-adv-x="448" 
d="M19 348v37h404v-38q-93 -62 -149.5 -152t-57.5 -195h-52v2q-1 100 55 190t156 156h-356z" />
    <glyph glyph-name="eight.dnom" horiz-adv-x="518" 
d="M333 208q74 -11 106.5 -37.5t32.5 -71.5q0 -53 -56 -82.5t-159 -29.5q-98 0 -154.5 29.5t-56.5 79.5q0 82 131 100q-118 22 -118 98q0 48 53.5 76t144.5 28q94 0 148.5 -27.5t54.5 -74.5q0 -38 -30 -59t-97 -29zM109 292q0 -59 113 -72l60 -7q73 10 100 27t27 51
q0 35 -40.5 55.5t-111.5 20.5q-67 0 -107.5 -20.5t-40.5 -54.5zM257 18q76 0 119.5 22.5t43.5 61.5q0 65 -119 79l-69 8q-135 -19 -135 -85q0 -39 43.5 -62.5t116.5 -23.5z" />
    <glyph glyph-name="nine.dnom" horiz-adv-x="516" 
d="M250 398q220 0 220 -188q0 -223 -221 -223q-164 0 -192 112l50 4q10 -38 47 -60t97 -22q88 0 130 45.5t41 138.5q-48 -65 -185 -65q-88 0 -140 33.5t-52 94.5t56 95.5t149 34.5zM251 172q60 0 105 19t63 52q-16 123 -164 123q-73 0 -116 -26t-43 -72t42 -71t113 -25z" />
    <glyph glyph-name="zero.numr" horiz-adv-x="551" 
d="M276 313q-104 0 -167 55t-63 151q0 95 63.5 150t166.5 55q104 0 167 -55.5t63 -151.5q0 -95 -63 -149.5t-167 -54.5zM276 347q80 0 129 45t49 125q0 82 -48.5 127t-129.5 45q-79 0 -129 -45t-50 -125q0 -81 49 -126.5t130 -45.5z" />
    <glyph glyph-name="one.numr" horiz-adv-x="311" 
d="M164 326v317q-38 -53 -119 -53h-17v41h10q48 0 85.5 21.5t48.5 58.5h42v-385h-50z" />
    <glyph glyph-name="two.numr" horiz-adv-x="499" 
d="M43 326v33q17 8 51 23q54 24 80.5 36.5t67.5 33.5t60.5 35t42 33.5t31 39t8.5 40.5q0 39 -37 64t-103 25q-61 0 -103 -22t-42 -71q0 -11 1 -18l-51 3q-1 7 -1 21q0 60 55.5 91t139.5 31q87 0 140 -30.5t53 -88.5q0 -31 -20.5 -61t-46.5 -52t-76 -49t-82 -41.5t-91 -39.5
h330v-36h-407z" />
    <glyph glyph-name="three.numr" horiz-adv-x="518" 
d="M256 313q-95 0 -151 35t-58 93l50 3q2 -44 44.5 -70.5t114.5 -26.5q70 0 114.5 22t44.5 64q0 74 -146 74h-51v35h47q138 0 138 69q0 38 -41 58t-108 20q-73 0 -112.5 -26t-41.5 -72l-50 2q2 60 56 95.5t149 35.5q90 0 144.5 -28t54.5 -82q0 -41 -34.5 -62t-85.5 -25
q62 -4 97.5 -28.5t35.5 -65.5q0 -57 -58 -88.5t-153 -31.5z" />
    <glyph glyph-name="four.numr" horiz-adv-x="523" 
d="M504 425h-115v-99h-49v99h-316v33l313 253h52v-252h115v-34zM340 673l-266 -214h266v214z" />
    <glyph glyph-name="five.numr" horiz-adv-x="490" 
d="M243 313q-80 0 -133.5 29.5t-63.5 79.5l48 4q10 -37 50 -58.5t101 -21.5q70 0 111 28.5t41 75.5q0 48 -38.5 74t-109.5 26q-54 0 -96 -19t-53 -48l-45 4l25 224h344v-34h-306l-16 -157q45 62 163 62q86 0 134.5 -35t48.5 -97t-56 -99.5t-149 -37.5z" />
    <glyph glyph-name="six.numr" horiz-adv-x="516" 
d="M279 582q89 0 140.5 -36t51.5 -98q0 -63 -55 -99t-150 -36q-220 0 -220 200q0 103 57 157t166 54q164 0 193 -104l-51 -4q-23 75 -144 75q-174 0 -174 -177q0 -14 1 -21q17 43 65.5 66t119.5 23zM266 346q72 0 113 27t41 75q0 46 -40.5 72.5t-110.5 26.5q-139 0 -169 -95
q29 -106 166 -106z" />
    <glyph glyph-name="seven.numr" horiz-adv-x="448" 
d="M19 674v37h404v-38q-93 -62 -149.5 -152t-57.5 -195h-52v2q-1 100 55 190t156 156h-356z" />
    <glyph glyph-name="eight.numr" horiz-adv-x="518" 
d="M333 534q74 -11 106.5 -37.5t32.5 -71.5q0 -53 -56 -82.5t-159 -29.5q-98 0 -154.5 29.5t-56.5 79.5q0 82 131 100q-118 22 -118 98q0 48 53.5 76t144.5 28q94 0 148.5 -27.5t54.5 -74.5q0 -38 -30 -59t-97 -29zM109 618q0 -59 113 -72l60 -7q73 10 100 27t27 51
q0 35 -40.5 55.5t-111.5 20.5q-67 0 -107.5 -20.5t-40.5 -54.5zM257 344q76 0 119.5 22.5t43.5 61.5q0 65 -119 79l-69 8q-135 -19 -135 -85q0 -39 43.5 -62.5t116.5 -23.5z" />
    <glyph glyph-name="nine.numr" horiz-adv-x="516" 
d="M250 724q220 0 220 -188q0 -223 -221 -223q-164 0 -192 112l50 4q10 -38 47 -60t97 -22q88 0 130 45.5t41 138.5q-48 -65 -185 -65q-88 0 -140 33.5t-52 94.5t56 95.5t149 34.5zM251 498q60 0 105 19t63 52q-16 123 -164 123q-73 0 -116 -26t-43 -72t42 -71t113 -25z" />
    <glyph glyph-name="zero.sups" horiz-adv-x="647" 
d="M324 293q-121 0 -194.5 73.5t-73.5 197.5q0 123 74 197t194 74t193.5 -74.5t73.5 -197.5t-73 -196.5t-194 -73.5zM324 332q97 0 155.5 62t58.5 169t-58.5 169.5t-155.5 62.5q-96 0 -155 -62t-59 -169q0 -108 58.5 -170t155.5 -62z" />
    <glyph glyph-name="one.sups" horiz-adv-x="366" 
d="M197 310v425q-20 -31 -59 -49.5t-85 -18.5h-21v45h13q58 0 102 28.5t58 76.5h44v-507h-52z" />
    <glyph glyph-name="two.sups" horiz-adv-x="596" 
d="M49 310v40q12 5 36 16q198 91 268 138q113 79 114 166q0 53 -45.5 89t-130.5 36q-76 0 -128 -32.5t-52 -99.5q0 -17 2 -27l-53 5q-2 9 -2 29q0 78 66 121.5t167 43.5q106 0 168.5 -44.5t62.5 -117.5q0 -42 -22 -81.5t-52.5 -68.5t-87 -62.5t-100.5 -54.5t-117 -54h396
v-42h-490z" />
    <glyph glyph-name="three.sups" horiz-adv-x="619" 
d="M307 293q-112 0 -179 45.5t-72 119.5l53 4q5 -59 57 -95t142 -36q89 0 142.5 31t53.5 89q0 45 -41.5 74.5t-129.5 29.5h-64v34h58q68 0 114 24.5t46 73.5q0 52 -49 80.5t-134 28.5q-90 0 -139 -37t-51 -99l-52 5q2 76 66 123t177 47q110 0 173 -38.5t63 -106.5
q0 -54 -40.5 -81.5t-100.5 -33.5q72 -5 115 -38t43 -89q0 -71 -67 -113t-184 -42z" />
    <glyph glyph-name="four.sups" horiz-adv-x="610" 
d="M590 445h-134v-135h-51v135h-378v36l371 336h58v-334h134v-38zM405 776l-320 -293h320v293z" />
    <glyph glyph-name="five.sups" horiz-adv-x="589" 
d="M294 293q-97 0 -160.5 38.5t-77.5 105.5l52 6q13 -53 62 -82.5t125 -29.5q88 0 138.5 39t50.5 105q0 67 -47.5 103t-134.5 36q-68 0 -118 -26.5t-67 -70.5l-49 5l31 295h410v-40h-370l-21 -211q54 85 202 85q102 0 160 -46t58 -129t-66.5 -133t-177.5 -50z" />
    <glyph glyph-name="six.sups" horiz-adv-x="618" 
d="M332 648q108 0 169.5 -47t61.5 -129t-65.5 -130.5t-175.5 -48.5q-266 0 -266 266q0 133 68.5 204.5t196.5 71.5q96 0 156 -36.5t76 -105.5l-53 -7q-32 110 -181 110q-105 0 -159 -59.5t-54 -175.5q0 -14 2 -38q21 60 79.5 92.5t144.5 32.5zM322 331q87 0 137.5 38
t50.5 103q0 66 -49 102.5t-137 36.5q-84 0 -138 -35.5t-69 -102.5q38 -142 205 -142z" />
    <glyph glyph-name="seven.sups" horiz-adv-x="533" 
d="M191 310v12q0 131 67.5 247.5t189.5 206.5h-425v41h482v-40q-257 -186 -257 -453v-14h-57z" />
    <glyph glyph-name="eight.sups" horiz-adv-x="619" 
d="M395 582q89 -14 129 -47.5t40 -92.5q0 -71 -67 -110t-188 -39q-120 0 -187 38t-67 107q0 110 164 133q-76 14 -112 45t-36 83q0 63 63.5 99.5t173.5 36.5q111 0 175.5 -36.5t64.5 -98.5q0 -51 -37 -79.5t-116 -38.5zM124 698q0 -79 138 -98l76 -10q89 16 123 39.5
t34 66.5q0 49 -50 76t-137 27q-85 0 -134.5 -27t-49.5 -74zM309 330q95 0 148.5 30t53.5 83q0 46 -36 72t-115 36l-82 11q-88 -14 -128.5 -42.5t-40.5 -76.5q0 -53 53 -83t147 -30z" />
    <glyph glyph-name="nine.sups" horiz-adv-x="618" 
d="M299 835q129 0 196 -64.5t67 -188.5q0 -289 -262 -289q-96 0 -156 38.5t-77 109.5l53 7q27 -116 181 -116q211 0 211 246v16q-25 -44 -84 -71.5t-144 -27.5q-106 0 -167.5 43.5t-61.5 123.5t67 126.5t177 46.5zM297 533q79 0 134.5 30t75.5 81q-29 153 -204 153
q-90 0 -142.5 -35.5t-52.5 -99.5q0 -62 51 -95.5t138 -33.5z" />
    <glyph glyph-name="colon.case" horiz-adv-x="276" 
d="M178 550v-103h-80v103h80zM178 103v-103h-80v103h80z" />
    <glyph glyph-name="semicolon.case" horiz-adv-x="289" 
d="M191 550v-103h-80v103h80zM116 -123l-16 29q52 25 52 92v2h-43v110h82v-97q0 -56 -17 -87.5t-58 -48.5z" />
    <glyph glyph-name="exclamdown.case" horiz-adv-x="336" 
d="M208 626h-80v99h80v-99zM147 532h42l14 -532h-70z" />
    <glyph glyph-name="questiondown.case" horiz-adv-x="710" 
d="M407 711v-100h-75v100h75zM400 548v-32q0 -101 -106 -148l-89 -40q-51 -24 -78.5 -58t-27.5 -89q0 -67 68 -111.5t181 -44.5q122 0 194.5 46t72.5 133q0 22 -5 41l59 -6q6 -14 6 -40q0 -103 -87.5 -163t-240.5 -60q-143 0 -225 56.5t-82 145.5q0 73 36 116.5t99 71.5
l87 39q43 20 61 47.5t18 68.5v27h59z" />
    <glyph glyph-name="periodcentered.case" horiz-adv-x="276" 
d="M178 426v-103h-80v103h80z" />
    <glyph glyph-name="bullet.case" horiz-adv-x="321" 
d="M160 314q-27 0 -44.5 17t-17.5 44q0 29 17.5 46.5t44.5 17.5q28 0 45.5 -17.5t17.5 -46.5q0 -28 -17.5 -44.5t-45.5 -16.5z" />
    <glyph glyph-name="slash.case" horiz-adv-x="618" 
d="M105 -91h-57l465 877h58z" />
    <glyph glyph-name="backslash.case" horiz-adv-x="618" 
d="M513 -91l-465 877h57l466 -877h-58z" />
    <glyph glyph-name="asterisk.ss04" horiz-adv-x="323" 
d="M162 710l-31 -93h-97l79 -57l-30 -93l79 57l79 -57l-31 93l79 57h-97z" />
    <glyph glyph-name="period.tf" horiz-adv-x="402" 
d="M241 103v-103h-81v103h81z" />
    <glyph glyph-name="comma.tf" horiz-adv-x="402" 
d="M172 -123l-16 29q52 25 52 92v2h-43v110h82v-97q0 -56 -17 -87.5t-58 -48.5z" />
    <glyph glyph-name="colon.tf" horiz-adv-x="402" 
d="M241 500v-103h-81v103h81zM241 103v-103h-81v103h81z" />
    <glyph glyph-name="semicolon.tf" horiz-adv-x="402" 
d="M247 500v-103h-80v103h80zM172 -123l-16 29q52 25 52 92v2h-43v110h82v-97q0 -56 -17 -87.5t-58 -48.5z" />
    <glyph glyph-name="slash.tf" 
d="M198 -117h-58l465 877h58z" />
    <glyph glyph-name="parenleft.case" horiz-adv-x="356" 
d="M298 -95q-110 81 -169.5 203.5t-59.5 250.5q0 125 60 244.5t170 198.5l42 -22q-214 -169 -214 -421t214 -432z" />
    <glyph glyph-name="parenright.case" horiz-adv-x="356" 
d="M58 -95l-43 22q214 180 214 432t-214 421l43 22q110 -79 169.5 -198.5t59.5 -244.5q0 -128 -59.5 -250.5t-169.5 -203.5z" />
    <glyph glyph-name="braceleft.case" horiz-adv-x="365" 
d="M304 -91q-86 0 -135 28t-49 105v210q0 45 -19 65t-88 21v42q69 1 87.5 19t18.5 63v180q0 87 48.5 120t134.5 33h47v-45h-42q-67 0 -101.5 -22t-34.5 -92v-176q0 -41 -17 -65.5t-62 -34.5q79 -21 79 -106v-197q0 -35 10.5 -57t32.5 -31.5t42.5 -12t53.5 -2.5h40v-45h-46z
" />
    <glyph glyph-name="braceright.case" horiz-adv-x="365" 
d="M62 -91h-47v45h41q33 0 53.5 2.5t42.5 12t32.5 31.5t10.5 57v197q0 85 79 106q-45 10 -62 34.5t-17 65.5v176q0 37 -10 60.5t-30.5 35t-42 15t-53.5 3.5h-42v45h47q86 0 134 -33t48 -120v-180q0 -45 18.5 -63t88.5 -19v-42q-69 -1 -88.5 -21t-19.5 -65v-210
q0 -40 -14 -67.5t-41 -41t-57 -19t-71 -5.5z" />
    <glyph glyph-name="bracketleft.case" horiz-adv-x="399" 
d="M128 -87v883h256v-44h-205v-795h205v-44h-256z" />
    <glyph glyph-name="bracketright.case" horiz-adv-x="399" 
d="M271 -87h-256v44h205v795h-205v44h256v-883z" />
    <glyph glyph-name="parenleft.tf" 
d="M495 -128q-111 81 -170.5 204t-59.5 251q0 125 60 244t170 199l43 -23q-215 -169 -215 -421q0 -253 215 -432z" />
    <glyph glyph-name="parenright.tf" 
d="M308 -128l-43 22q215 179 215 432q0 251 -215 421l43 23q110 -80 170 -199t60 -244q0 -128 -59.5 -251t-170.5 -204z" />
    <glyph glyph-name="hyphen.case" horiz-adv-x="620" 
d="M66 374h488v-50h-488v50z" />
    <glyph glyph-name="endash.case" horiz-adv-x="805" 
d="M66 371h673v-45h-673v45z" />
    <glyph glyph-name="emdash.case" horiz-adv-x="1082" 
d="M66 371h950v-45h-950v45z" />
    <glyph glyph-name="underscore.case" horiz-adv-x="634" 
d="M0 -25h634v-42h-634v42z" />
    <glyph glyph-name="hyphen.tf" 
d="M107 303h588v-49h-588v49z" />
    <glyph glyph-name="underscore.tf" 
d="M0 -100h803v-41h-803v41z" />
    <glyph glyph-name="guillemotleft.case" horiz-adv-x="595" 
d="M278 137l-240 208l244 207h67l-240 -206l237 -209h-68zM498 137l-241 208l244 207h67l-240 -206l237 -209h-67z" />
    <glyph glyph-name="guillemotright.case" horiz-adv-x="595" 
d="M97 137h-68l238 209l-241 206h67l244 -207zM317 137h-68l237 209l-240 206h67l244 -207z" />
    <glyph glyph-name="guilsinglleft.case" horiz-adv-x="375" 
d="M278 137l-240 208l244 207h67l-240 -206l237 -209h-68z" />
    <glyph glyph-name="guilsinglright.case" horiz-adv-x="375" 
d="M97 137h-68l238 209l-241 206h67l244 -207z" />
    <glyph glyph-name="parenleft.subs" horiz-adv-x="292" 
d="M238 -233q-78 60 -121 150t-43 183q0 91 43.5 178t121.5 144l41 -15q-155 -126 -155 -307q0 -183 155 -318z" />
    <glyph glyph-name="parenright.subs" horiz-adv-x="292" 
d="M54 -233l-42 15q155 135 155 318q0 181 -155 307l41 15q78 -57 121.5 -144t43.5 -178q0 -93 -43 -183t-121 -150z" />
    <glyph glyph-name="parenleft.sups" horiz-adv-x="292" 
d="M238 217q-78 60 -121 150t-43 183q0 91 43.5 178t121.5 144l41 -15q-155 -126 -155 -307q0 -183 155 -318z" />
    <glyph glyph-name="parenright.sups" horiz-adv-x="292" 
d="M54 217l-42 15q155 135 155 318q0 181 -155 307l41 15q78 -57 121.5 -144t43.5 -178q0 -93 -43 -183t-121 -150z" />
    <glyph glyph-name="uni0E3F.case" horiz-adv-x="928" 
d="M688 367q162 -20 162 -172q0 -94 -64.5 -144.5t-184.5 -50.5h-111v-95h-40v95h-322v710h322v95h40v-95h105q114 0 175.5 -46t61.5 -131q0 -67 -37.5 -110t-106.5 -56zM184 663v-274h266v274h-266zM595 663h-105v-274h111q83 0 127.5 36.5t44.5 104.5q0 65 -45.5 99
t-132.5 34zM184 47h266v295h-266v-295zM600 47q191 0 191 148q0 147 -186 147h-115v-295h110z" />
    <glyph glyph-name="currency.case" horiz-adv-x="705" 
d="M655 353q0 -89 -63 -150l67 -55l-30 -28l-69 56q-83 -54 -204 -54q-127 0 -209 56l-71 -59l-30 28l70 57q-62 60 -62 149q0 87 61 148l-70 58l30 27l72 -58q82 56 209 56q122 0 203 -54l71 57l30 -28l-68 -56q63 -61 63 -150zM103 353q0 -84 70 -134.5t183 -50.5
q112 0 180.5 50.5t68.5 134.5t-68.5 134.5t-180.5 50.5q-113 0 -183 -50.5t-70 -134.5z" />
    <glyph glyph-name="dollar.case" horiz-adv-x="864" 
d="M553 381q131 -13 189 -59.5t58 -137.5q0 -100 -90 -152.5t-257 -52.5h-8v-83h-40v84q-319 16 -354 236l62 8q12 -86 86 -136.5t206 -58.5v315l-88 8q-121 12 -179.5 59t-58.5 133q0 88 85.5 138.5t240.5 52.5v78h40v-78q155 -4 236.5 -57.5t100.5 -161.5l-60 -11
q-16 91 -81.5 134.5t-195.5 47.5v-296zM344 401l61 -6v292q-265 -3 -265 -142q0 -65 49 -99.5t155 -44.5zM455 28q285 0 285 156q0 69 -47 103t-161 45l-87 8v-312h10z" />
    <glyph glyph-name="Euro.case" horiz-adv-x="949" 
d="M529 28q101 0 186 38.5t129 119.5l48 -20q-43 -89 -139.5 -138t-224.5 -49q-182 0 -287.5 81.5t-132.5 213.5h-98v40h92q-3 24 -3 50t3 52h-92v40h99q29 127 138 202.5t291 75.5q127 0 220 -45.5t134 -126.5l-54 -24q-36 71 -115 109t-189 38q-156 0 -248.5 -61
t-118.5 -168h500v-40h-508q-3 -24 -3 -51q0 -25 3 -51h508v-40h-501q28 -113 121.5 -179.5t241.5 -66.5z" />
    <glyph glyph-name="uni20BA.case" horiz-adv-x="749" 
d="M675 238l54 -7q-47 -231 -293 -231h-282v286l-124 -26v41l124 26v119l-124 -26v41l124 26v224h57v-212l404 84v-41l-404 -84v-119l404 84v-41l-404 -84v-248h218q199 0 246 188z" />
    <glyph glyph-name="uni20BD.case" horiz-adv-x="794" 
d="M532 301h-328v-107h345v-40h-345v-154h-57v154h-116v40h116v107h-116v45h116v365h382q109 0 171 -53.5t62 -147.5q0 -97 -62 -153t-168 -56zM204 660v-314h330q78 0 124 44t46 118q0 72 -46.5 112t-129.5 40h-324z" />
    <glyph glyph-name="uni20B9.case" horiz-adv-x="804" 
d="M784 711v-43h-296q85 -40 91 -142h205v-39h-205q-14 -186 -267 -186h-135l382 -301h-81l-390 317v29h226q101 0 152 34t57 107h-435v39h435q-5 69 -53 105.5t-134 36.5h-248v43h696z" />
    <glyph glyph-name="sterling.case" horiz-adv-x="821" 
d="M737 156l51 -8q-8 -81 -62.5 -125.5t-145.5 -44.5q-48 0 -153 18.5t-181 18.5q-83 0 -204 -22l-13 41q80 21 124 73t44 126q0 56 -18 117h-135v41h124q-17 62 -17 114q0 109 78 169t219 60q121 0 196 -47t92 -135l-55 -13q-14 70 -75 109t-159 39q-237 0 -237 -181
q0 -53 17 -115h314v-41h-302q15 -58 15 -107q0 -143 -129 -195q72 15 140 15q66 0 163 -16.5t152 -16.5q70 0 111 33t46 93z" />
    <glyph glyph-name="uni0E3F.tf.case" 
d="M568 367q79 -9 120.5 -55t41.5 -118q0 -91 -60.5 -142.5t-188.5 -51.5h-68v-89h-42v89h-274v710h274v88h42v-88h67q117 0 174.5 -47.5t57.5 -129.5q0 -64 -36.5 -109t-107.5 -57zM371 663h-218v-275h218v275zM480 663h-67v-275h68q173 0 173 145q0 130 -174 130zM153 47
h218v295h-218v-295zM480 47q102 0 146.5 38t44.5 110q0 147 -185 147h-73v-295h67z" />
    <glyph glyph-name="currency.tf.case" 
d="M704 353q0 -89 -63 -150l67 -55l-29 -28l-70 57q-82 -55 -204 -55q-127 0 -208 56l-72 -59l-29 28l69 57q-62 62 -62 149t61 148l-69 58l29 27l72 -58q82 56 209 56q122 0 203 -54l71 57l30 -28l-68 -56q63 -61 63 -150zM153 353q0 -84 69.5 -134.5t182.5 -50.5
q112 0 180.5 50.5t68.5 134.5t-68.5 134.5t-180.5 50.5q-113 0 -182.5 -50.5t-69.5 -134.5z" />
    <glyph glyph-name="dollar.tf.case" 
d="M529 380q115 -16 164.5 -61t49.5 -132q0 -208 -315 -208h-2v-83h-39v84q-146 8 -230.5 67.5t-100.5 169.5l61 7q11 -87 80.5 -136.5t189.5 -57.5v317l-68 9q-119 16 -174.5 61.5t-55.5 128.5q0 87 76.5 135.5t221.5 50.5v81h39v-81q135 -4 206.5 -53.5t86.5 -148.5
l-60 -11q-13 82 -68 121t-165 43v-289zM342 406l45 -6v284q-237 -3 -237 -138q0 -62 44 -94.5t148 -45.5zM436 28q127 0 187 39t60 120q0 67 -38 99t-131 44l-88 12v-314h10z" />
    <glyph glyph-name="Euro.tf.case" 
d="M460 21q77 0 142.5 39.5t98.5 115.5l44 -18q-36 -87 -111.5 -134.5t-174.5 -47.5q-138 0 -221.5 81t-104.5 219h-80v38h75q-2 34 -2 52t2 50h-75v38h80q22 131 109 205.5t227 74.5q97 0 169 -42.5t107 -124.5l-50 -21q-59 143 -229 143q-117 0 -187 -61.5t-89 -173.5h332
v-38h-337q-2 -32 -2 -49q0 -19 2 -53h337v-38h-332q19 -119 89 -187t181 -68z" />
    <glyph glyph-name="uni20BA.tf.case" 
d="M688 238l54 -7q-47 -231 -292 -231h-280v286l-124 -26v41l124 26v119l-124 -26v41l124 26v224h57v-212l401 84v-41l-401 -84v-119l401 83v-41l-401 -83v-248h216q200 0 245 188z" />
    <glyph glyph-name="uni20BD.tf.case" 
d="M507 303h-288v-111h324v-38h-324v-154h-56v154h-111v38h111v111h-111v41h111v367h341q115 0 174 -56t59 -145q0 -90 -58.5 -148.5t-171.5 -58.5zM219 665v-321h290q84 0 127.5 46.5t43.5 116.5q0 71 -44 114.5t-133 43.5h-284z" />
    <glyph glyph-name="uni20B9.tf.case" 
d="M771 711v-43h-312q86 -41 92 -144h220v-40h-220q-7 -83 -70 -135t-196 -52h-104l374 -297h-79l-381 312v29h191q107 0 155 37t54 106h-400v40h400q-10 144 -186 144h-214v43h676z" />
    <glyph glyph-name="sterling.tf.case" 
d="M701 156l50 -8q-8 -81 -62.5 -126t-145.5 -45q-40 0 -126.5 19t-149.5 19q-84 0 -203 -22l-13 41q79 20 123 72t44 127q0 54 -17 118h-135v40h123q-16 66 -16 113q0 110 70.5 170t199.5 60q109 0 176.5 -47.5t84.5 -134.5l-55 -12q-13 72 -66.5 112t-140.5 40
q-104 0 -157.5 -47t-53.5 -138q0 -54 17 -116h258v-40h-246q15 -58 15 -108q0 -143 -128 -195q66 13 140 13q54 0 132.5 -17.5t124.5 -17.5q70 0 111 34t46 96z" />
    <glyph glyph-name="uni20A9.tf.case" 
d="M766 711l-55 -262h51v-35h-59l-23 -110h82v-35h-89l-57 -269h-63l-62 269h-179l-62 -269h-64l-56 269h-89v35h81l-23 110h-58v35h51l-55 262h51l52 -262h172l61 262h57l61 -262h172l52 262h51zM392 612l-38 -163h95l-38 163q-4 17 -9 49h-1q-5 -32 -9 -49zM147 414
l22 -110h109l26 110h-157zM321 304h161l-25 110h-111zM634 304l22 110h-157l26 -110h109zM228 91l42 178h-94l35 -178l7 -44h1q3 19 9 44zM592 91l35 178h-94l42 -178q4 -16 8 -44h2q1 20 7 44z" />
    <glyph glyph-name="yen.tf.case" 
d="M430 292v-15h270v-37h-270v-92h270v-38h-270v-110h-57v110h-270v38h270v92h-270v37h270v15l-348 418h68l270 -327q21 -27 37 -59h3q16 32 37 59l269 327h68z" />
    <glyph glyph-name="uni20A9.case" horiz-adv-x="1362" 
d="M1320 711l-103 -261h98v-38h-113l-42 -107h155v-38h-170l-105 -267h-63l-121 267h-349l-121 -267h-63l-106 267h-170v38h155l-42 107h-113v38h98l-103 261h57l100 -261h337l119 261h52l119 -261h337l101 261h56zM629 538l-40 -88h185l-40 88q-43 97 -52 126h-2
q-11 -36 -51 -126zM214 412l41 -107h215l49 107h-305zM524 305h315l-48 107h-219zM1107 305l42 107h-306l49 -107h215zM405 161l48 106h-183l38 -100q27 -68 46 -120h1q2 7 50 114zM1054 167l39 100h-184l48 -106q48 -107 50 -114h1q6 15 21 54.5t25 65.5z" />
    <glyph glyph-name="yen.case" horiz-adv-x="866" 
d="M863 710l-395 -410h303v-39h-311v-85h311v-41h-311v-135h-55v135h-310v41h310v85h-310v39h302l-394 410h70l261 -271q56 -56 98 -111h2q42 55 98 111l261 271h70z" />
    <glyph glyph-name="uni0E3F.tf" 
d="M568 359q79 -9 120.5 -53.5t41.5 -115.5q0 -90 -60.5 -140t-188.5 -50h-68v-107h-42v107h-274v695h274v88h42v-88h67q117 0 174.5 -46t57.5 -127q0 -63 -36.5 -107t-107.5 -56zM371 648h-218v-268h218v268zM480 648h-67v-268h68q173 0 173 142q0 126 -174 126zM153 47
h218v287h-218v-287zM480 47q102 0 146.5 37t44.5 107q0 143 -185 143h-73v-287h67z" />
    <glyph glyph-name="currency.tf" 
d="M704 303q0 -89 -63 -150l67 -55l-29 -28l-70 57q-82 -55 -204 -55q-127 0 -208 56l-72 -59l-29 28l69 57q-62 62 -62 149t61 148l-69 58l29 27l72 -58q82 56 209 56q122 0 203 -54l71 57l30 -28l-68 -56q63 -61 63 -150zM153 303q0 -84 69.5 -134.5t182.5 -50.5
q112 0 180.5 50.5t68.5 134.5t-68.5 134.5t-180.5 50.5q-113 0 -182.5 -50.5t-69.5 -134.5z" />
    <glyph glyph-name="uni20BA.tf" 
d="M688 233l54 -7q-47 -226 -292 -226h-280v279l-124 -25v41l124 25v116l-124 -25v41l124 25v218h57v-206l401 81v-40l-401 -82v-116l401 82v-41l-401 -82v-241h216q201 0 245 183z" />
    <glyph glyph-name="uni20BD.tf" 
d="M507 296h-288v-108h324v-37h-324v-151h-56v151h-111v37h111v108h-111v40h111v359h341q116 0 174.5 -55.5t58.5 -141.5q0 -87 -58 -144.5t-172 -57.5zM219 649v-313h290q85 0 128 46t43 113q0 68 -44 111t-133 43h-284z" />
    <glyph glyph-name="uni20B9.tf" 
d="M771 695v-43h-310q84 -39 90 -140h220v-39h-220q-7 -81 -70 -131.5t-196 -50.5h-104l374 -291h-79l-381 305v29h191q107 0 155 36t54 103h-400v39h400q-5 65 -50 102.5t-136 37.5h-214v43h676z" />
    <glyph glyph-name="uni20A9.tf" 
d="M766 695l-55 -255h51v-35h-59l-23 -108h82v-34h-89l-57 -263h-63l-63 263h-177l-63 -263h-64l-56 263h-89v34h81l-23 108h-58v35h51l-55 255h51l52 -255h172l61 255h57l61 -255h172l52 255h51zM392 597l-37 -157h93l-37 157q-4 17 -9 48h-1q-5 -31 -9 -48zM147 405
l22 -108h108l26 108h-156zM321 297h161l-25 108h-111zM634 297l22 108h-156l26 -108h108zM228 91l41 172h-93l35 -173q2 -10 7 -44h1q2 17 9 45zM592 90l35 173h-93l41 -172q4 -17 8 -45h2q1 17 7 44z" />
    <glyph glyph-name="plus.case" horiz-adv-x="694" 
d="M628 402v-46h-254v-215h-54v215h-254v46h254v204h54v-204h254z" />
    <glyph glyph-name="minus.case" horiz-adv-x="694" 
d="M66 353v50h562v-50h-562z" />
    <glyph glyph-name="multiply.case" 
d="M670 575l-231 -198l231 -198l-35 -33l-233 200l-234 -200l-35 33l231 198l-231 198l36 33l233 -199l232 199z" />
    <glyph glyph-name="divide.case" horiz-adv-x="694" 
d="M344 522q-18 0 -29.5 11.5t-11.5 29.5t12 29.5t29 11.5q18 0 30 -11.5t12 -29.5t-12 -29.5t-30 -11.5zM66 353v48h562v-48h-562zM344 151q-17 0 -29 11.5t-12 29.5t11.5 29.5t29.5 11.5t30 -11.5t12 -29.5t-12 -29.5t-30 -11.5z" />
    <glyph glyph-name="equal.case" horiz-adv-x="694" 
d="M66 444v49h562v-49h-562zM66 265v49h562v-49h-562z" />
    <glyph glyph-name="notequal.case" 
d="M681 444h-226l-74 -130h300v-49h-327l-85 -150h-41l84 150h-192v49h220l73 130h-293v49h321l82 146h42l-82 -146h198v-49z" />
    <glyph glyph-name="greater.case" 
d="M147 135v53l494 189l-494 188v52l557 -219v-44z" />
    <glyph glyph-name="less.case" 
d="M656 135l-556 219v44l556 219v-52l-494 -188l494 -189v-53z" />
    <glyph glyph-name="greaterequal.case" 
d="M126 181v53l494 189l-494 189v51l556 -219v-43zM677 97v-47h-555v47h555z" />
    <glyph glyph-name="lessequal.case" 
d="M678 181l-557 220v43l557 219v-51l-495 -189l495 -189v-53zM126 97h555v-47h-555v47z" />
    <glyph glyph-name="plusminus.case" 
d="M428 402h254v-46h-254v-174h-53v174h-254v46h254v175h53v-175zM121 50v50h561v-50h-561z" />
    <glyph glyph-name="approxequal.case" 
d="M538 428q-47 0 -134 26t-135 26q-90 0 -148 -44v50q23 20 64.5 32.5t81.5 12.5q56 0 140.5 -26.5t129.5 -26.5q91 0 145 45v-50q-22 -20 -62 -32.5t-82 -12.5zM538 237q-47 0 -134 26.5t-135 26.5q-91 0 -148 -45v50q23 20 64.5 32.5t81.5 12.5q56 0 140.5 -26t129.5 -26
q90 0 145 44v-50q-22 -20 -62.5 -32.5t-81.5 -12.5z" />
    <glyph glyph-name="asciitilde.case" 
d="M518 279q-37 0 -70.5 15.5t-54 33.5t-49 33.5t-56.5 15.5q-89 0 -105 -92l-43 3q7 64 47 96t100 32q37 0 70.5 -15.5t54.5 -33.5t49.5 -33.5t57.5 -15.5q86 0 104 97l40 -6q-9 -66 -48.5 -98t-96.5 -32z" />
    <glyph glyph-name="logicalnot.case" 
d="M120 409h555v-228h-51v178h-504v50z" />
    <glyph glyph-name="infinity.case" horiz-adv-x="798" 
d="M585 507q67 0 110 -33.5t43 -94.5q0 -59 -43.5 -93.5t-111.5 -34.5q-111 0 -185 91q-78 -92 -185 -92q-67 0 -110 33.5t-43 94.5q0 59 44 94t111 35q112 0 185 -92q78 92 185 92zM218 297q86 0 153 81q-68 83 -154 83q-45 0 -77 -21t-32 -61t31.5 -61t78.5 -21zM581 296
q45 0 77 21t32 61t-31 61.5t-79 21.5q-51 0 -86.5 -21.5t-66.5 -60.5q66 -83 154 -83z" />
    <glyph glyph-name="emptyset.case" horiz-adv-x="704" 
d="M588 505q65 -62 65 -151q0 -105 -83 -168.5t-218 -63.5q-124 0 -203 53l-75 -56l-28 28l71 53q-66 61 -66 153q0 104 83 167.5t218 63.5q124 0 203 -53l75 56l29 -28zM101 354q0 -74 54 -125l362 273q-67 39 -165 39q-113 0 -182 -51t-69 -136zM352 166q113 0 182.5 51
t69.5 136q0 73 -54 124l-361 -272q66 -39 163 -39z" />
    <glyph glyph-name="plus.tf.case" 
d="M683 402v-46h-255v-215h-53v215h-254v46h254v204h53v-204h255z" />
    <glyph glyph-name="minus.tf.case" 
d="M121 353v50h562v-50h-562z" />
    <glyph glyph-name="divide.tf.case" 
d="M399 522q-18 0 -29.5 11t-11.5 30q0 18 11.5 29.5t29.5 11.5t29.5 -11.5t11.5 -29.5q0 -19 -11.5 -30t-29.5 -11zM121 353v48h562v-48h-562zM399 151q-18 0 -29.5 11.5t-11.5 29.5q0 19 11.5 30t29.5 11t29.5 -11t11.5 -30q0 -18 -11.5 -29.5t-29.5 -11.5z" />
    <glyph glyph-name="equal.tf.case" 
d="M120 444v49h561v-49h-561zM120 265v49h561v-49h-561z" />
    <glyph glyph-name="emptyset.tf.case" 
d="M637 506q65 -60 65 -151v-2q0 -104 -83 -167.5t-218 -63.5q-122 0 -203 53l-74 -56l-29 28l71 53q-65 60 -65 152v2q0 104 83 167t218 63q122 0 203 -53l74 56l29 -28zM151 353q0 -74 53 -124l362 273q-67 39 -164 39q-113 0 -182 -51t-69 -135v-2zM652 352v2
q0 73 -53 123l-361 -272q66 -39 163 -39q113 0 182 50.5t69 135.5z" />
    <glyph glyph-name="plus.tf" 
d="M683 352v-46h-255v-215h-53v215h-254v46h254v204h53v-204h255z" />
    <glyph glyph-name="minus.tf" 
d="M121 303v50h562v-50h-562z" />
    <glyph glyph-name="divide.tf" 
d="M399 472q-18 0 -29.5 11t-11.5 30q0 18 11.5 29.5t29.5 11.5t29.5 -11.5t11.5 -29.5q0 -19 -11.5 -30t-29.5 -11zM121 303v48h562v-48h-562zM399 101q-18 0 -29.5 11.5t-11.5 29.5q0 19 11.5 30t29.5 11t29.5 -11t11.5 -30q0 -18 -11.5 -29.5t-29.5 -11.5z" />
    <glyph glyph-name="equal.tf" 
d="M120 394v49h561v-49h-561zM120 215v49h561v-49h-561z" />
    <glyph glyph-name="emptyset.tf" 
d="M637 456q65 -60 65 -151v-2q0 -104 -83 -167.5t-218 -63.5q-122 0 -203 53l-74 -56l-29 28l71 53q-65 60 -65 152v2q0 104 83 167t218 63q122 0 203 -53l74 56l29 -28zM151 303q0 -74 53 -124l362 273q-67 39 -164 39q-113 0 -182 -51t-69 -135v-2zM652 302v2
q0 73 -53 123l-361 -272q66 -39 163 -39q113 0 182 50.5t69 135.5z" />
    <glyph glyph-name="uni21BB.alt" horiz-adv-x="1148" 
d="M1030 352h79l-101 -136l-102 136h84v7q0 143 -113.5 233.5t-301.5 90.5q-204 0 -334 -112l-27 31q139 121 366 121q202 0 326 -102.5t124 -261.5v-7zM572 23q202 0 334 112l27 -31q-140 -121 -366 -121q-202 0 -326 102.5t-124 261.5v6h-78l101 135l102 -135h-85v-6
q0 -144 112.5 -234t302.5 -90z" />
    <glyph glyph-name="arrowup.ss03" horiz-adv-x="830" 
d="M392 668l-233 -238l-31 33l288 287l286 -287l-31 -33l-233 238v-703h-46v703z" />
    <glyph glyph-name="uni2197.ss03" horiz-adv-x="969" 
d="M799 637l-639 -640l-32 32l640 640l-333 -3v44h406v-407h-45z" />
    <glyph glyph-name="arrowright.ss03" horiz-adv-x="1302" 
d="M1091 307h-963v46h963l-237 232l32 32l288 -287l-288 -288l-32 32z" />
    <glyph glyph-name="uni2198.ss03" horiz-adv-x="969" 
d="M799 61l-3 334h45v-407h-406v44l333 -3l-640 640l32 32z" />
    <glyph glyph-name="arrowdown.ss03" horiz-adv-x="830" 
d="M392 42v703h46v-703l233 238l31 -33l-286 -287l-288 287l31 33z" />
    <glyph glyph-name="uni2199.ss03" horiz-adv-x="969" 
d="M170 61l639 640l32 -32l-640 -640l333 3v-44h-406v407h45z" />
    <glyph glyph-name="arrowleft.ss03" horiz-adv-x="1302" 
d="M210 307l238 -233l-32 -32l-288 288l288 287l32 -32l-238 -232h964v-46h-964z" />
    <glyph glyph-name="uni2196.ss03" horiz-adv-x="969" 
d="M170 637l3 -334h-45v407h406v-44l-333 3l640 -640l-32 -32z" />
    <glyph glyph-name="at.case" horiz-adv-x="1053" 
d="M509 -36q-221 0 -346 101.5t-125 281.5q0 174 135.5 281t355.5 107q218 0 351 -101t133 -267q0 -103 -45 -162.5t-122 -59.5q-52 0 -85.5 26.5t-41.5 75.5q-31 -53 -100.5 -83.5t-161.5 -30.5q-86 0 -138.5 33.5t-52.5 88.5q0 58 41 85.5t142 35.5l265 20v8
q0 70 -47 103.5t-146 33.5q-79 0 -127.5 -28t-55.5 -77h-54q4 64 72 105.5t168 41.5q239 0 239 -180v-111q0 -54 21.5 -79.5t67.5 -25.5q53 0 83.5 47.5t30.5 130.5q0 151 -118 239.5t-318 88.5q-201 0 -322 -94.5t-121 -251.5q0 -161 113.5 -250.5t316.5 -89.5
q63 0 134.5 12.5t119.5 31.5l14 -38q-106 -49 -276 -49zM472 173q100 0 171 44t71 105v38l-269 -21q-70 -6 -98 -24t-28 -57q0 -40 41 -62.5t112 -22.5z" />
    <glyph glyph-name="section.case" horiz-adv-x="723" 
d="M570 237q73 -31 73 -106q0 -155 -288 -155q-127 0 -200 36.5t-104 115.5l50 14q23 -64 85.5 -94.5t170.5 -30.5q234 0 234 110q0 39 -29.5 60t-96.5 30l-236 30q-162 22 -162 126q0 78 101 107q-83 32 -83 110q0 70 70 107t202 37q244 0 286 -132l-50 -18
q-41 109 -238 109q-219 0 -219 -100q0 -40 32 -60.5t103 -30.5l233 -30q80 -10 117.5 -40t37.5 -84q0 -75 -89 -111zM242 290l235 -30q19 -2 46 -8q84 25 84 91q0 37 -27 58t-88 28l-237 31q-11 1 -31 5q-105 -18 -105 -88q0 -39 30.5 -59t92.5 -28z" />
    <glyph glyph-name="bar.case" horiz-adv-x="292" 
d="M123 -87v877h47v-877h-47z" />
    <glyph glyph-name="brokenbar.case" horiz-adv-x="292" 
d="M169 800v-378h-46v378h46zM169 301v-378h-46v378h46z" />
    <glyph glyph-name="dagger.case" horiz-adv-x="671" 
d="M362 503v-563h-54v563h-237v44h237v213h54v-213h239v-44h-239z" />
    <glyph glyph-name="daggerdbl.case" horiz-adv-x="671" 
d="M601 503h-239v-306h239v-43h-239v-214h-54v214h-237v43h237v306h-237v44h237v213h54v-213h239v-44z" />
    <glyph glyph-name="bar.tf" horiz-adv-x="402" 
d="M177 -117v877h47v-877h-47z" />
    <glyph glyph-name="plus.subs" horiz-adv-x="543" 
d="M485 118v-36h-193v-159h-41v159h-193v36h193v151h41v-151h193z" />
    <glyph glyph-name="minus.subs" horiz-adv-x="543" 
d="M58 81v38h427v-38h-427z" />
    <glyph glyph-name="multiply.subs" horiz-adv-x="615" 
d="M507 243l-171 -145l171 -144l-26 -25l-173 146l-173 -146l-27 24l172 145l-172 145l27 24l173 -145l172 145z" />
    <glyph glyph-name="divide.subs" horiz-adv-x="543" 
d="M270 207q-14 0 -23.5 9t-9.5 23q0 15 9.5 24t23.5 9t23 -9t9 -24q0 -14 -9 -23t-23 -9zM58 81v37h427v-37h-427zM270 -73q-14 0 -23.5 9t-9.5 24q0 14 9.5 23t23.5 9t23 -9t9 -23q0 -15 -9 -24t-23 -9z" />
    <glyph glyph-name="plus.sups" horiz-adv-x="543" 
d="M485 568v-36h-193v-159h-41v159h-193v36h193v151h41v-151h193z" />
    <glyph glyph-name="minus.sups" horiz-adv-x="543" 
d="M58 531v38h427v-38h-427z" />
    <glyph glyph-name="multiply.sups" horiz-adv-x="615" 
d="M507 693l-172 -144l172 -145l-26 -25l-174 146l-172 -145l-27 23l172 145l-172 145l27 24l173 -145l172 145z" />
    <glyph glyph-name="divide.sups" horiz-adv-x="543" 
d="M270 657q-14 0 -23.5 9t-9.5 23q0 15 9.5 24t23.5 9t23 -9t9 -24q0 -14 -9 -23t-23 -9zM58 531v37h427v-37h-427zM270 377q-14 0 -23.5 9t-9.5 24q0 14 9.5 23t23.5 9t23 -9t9 -23q0 -15 -9 -24t-23 -9z" />
    <glyph glyph-name="caronaccentcomb" horiz-adv-x="177" 
d="M68 537l-13 20q42 22 42 68h-36v85h66v-73q0 -38 -13 -61.5t-46 -38.5z" />
    </font>
</defs>
</svg>
